G04 #@! TF.GenerationSoftware,KiCad,Pcbnew,(5.0.0)*
G04 #@! TF.CreationDate,2018-08-11T20:49:35+09:00*
G04 #@! TF.ProjectId,AD593x_impedance_analyzer,4144353933785F696D706564616E6365,rev?*
G04 #@! TF.SameCoordinates,Original*
G04 #@! TF.FileFunction,Legend,Bot*
G04 #@! TF.FilePolarity,Positive*
%FSLAX46Y46*%
G04 Gerber Fmt 4.6, Leading zero omitted, Abs format (unit mm)*
G04 Created by KiCad (PCBNEW (5.0.0)) date 08/11/18 20:49:35*
%MOMM*%
%LPD*%
G01*
G04 APERTURE LIST*
%ADD10C,0.300000*%
G04 APERTURE END LIST*
D10*
X112035714Y-83703571D02*
X112892857Y-83703571D01*
X112464285Y-83703571D02*
X112464285Y-82203571D01*
X112607142Y-82417857D01*
X112750000Y-82560714D01*
X112892857Y-82632142D01*
X111107142Y-82203571D02*
X110964285Y-82203571D01*
X110821428Y-82275000D01*
X110750000Y-82346428D01*
X110678571Y-82489285D01*
X110607142Y-82775000D01*
X110607142Y-83132142D01*
X110678571Y-83417857D01*
X110750000Y-83560714D01*
X110821428Y-83632142D01*
X110964285Y-83703571D01*
X111107142Y-83703571D01*
X111250000Y-83632142D01*
X111321428Y-83560714D01*
X111392857Y-83417857D01*
X111464285Y-83132142D01*
X111464285Y-82775000D01*
X111392857Y-82489285D01*
X111321428Y-82346428D01*
X111250000Y-82275000D01*
X111107142Y-82203571D01*
X109678571Y-82203571D02*
X109535714Y-82203571D01*
X109392857Y-82275000D01*
X109321428Y-82346428D01*
X109250000Y-82489285D01*
X109178571Y-82775000D01*
X109178571Y-83132142D01*
X109250000Y-83417857D01*
X109321428Y-83560714D01*
X109392857Y-83632142D01*
X109535714Y-83703571D01*
X109678571Y-83703571D01*
X109821428Y-83632142D01*
X109892857Y-83560714D01*
X109964285Y-83417857D01*
X110035714Y-83132142D01*
X110035714Y-82775000D01*
X109964285Y-82489285D01*
X109892857Y-82346428D01*
X109821428Y-82275000D01*
X109678571Y-82203571D01*
X108535714Y-83703571D02*
X108535714Y-82203571D01*
X107678571Y-83703571D02*
X108321428Y-82846428D01*
X107678571Y-82203571D02*
X108535714Y-83060714D01*
X107035714Y-83703571D02*
X107035714Y-82203571D01*
X107035714Y-82917857D02*
X106178571Y-82917857D01*
X106178571Y-83703571D02*
X106178571Y-82203571D01*
X105607142Y-82703571D02*
X104821428Y-82703571D01*
X105607142Y-83703571D01*
X104821428Y-83703571D01*
X103107142Y-83703571D02*
X103107142Y-82203571D01*
X102392857Y-83703571D02*
X102392857Y-82703571D01*
X102392857Y-82846428D02*
X102321428Y-82775000D01*
X102178571Y-82703571D01*
X101964285Y-82703571D01*
X101821428Y-82775000D01*
X101750000Y-82917857D01*
X101750000Y-83703571D01*
X101750000Y-82917857D02*
X101678571Y-82775000D01*
X101535714Y-82703571D01*
X101321428Y-82703571D01*
X101178571Y-82775000D01*
X101107142Y-82917857D01*
X101107142Y-83703571D01*
X100392857Y-82703571D02*
X100392857Y-84203571D01*
X100392857Y-82775000D02*
X100250000Y-82703571D01*
X99964285Y-82703571D01*
X99821428Y-82775000D01*
X99750000Y-82846428D01*
X99678571Y-82989285D01*
X99678571Y-83417857D01*
X99750000Y-83560714D01*
X99821428Y-83632142D01*
X99964285Y-83703571D01*
X100250000Y-83703571D01*
X100392857Y-83632142D01*
X98464285Y-83632142D02*
X98607142Y-83703571D01*
X98892857Y-83703571D01*
X99035714Y-83632142D01*
X99107142Y-83489285D01*
X99107142Y-82917857D01*
X99035714Y-82775000D01*
X98892857Y-82703571D01*
X98607142Y-82703571D01*
X98464285Y-82775000D01*
X98392857Y-82917857D01*
X98392857Y-83060714D01*
X99107142Y-83203571D01*
X97107142Y-83703571D02*
X97107142Y-82203571D01*
X97107142Y-83632142D02*
X97250000Y-83703571D01*
X97535714Y-83703571D01*
X97678571Y-83632142D01*
X97750000Y-83560714D01*
X97821428Y-83417857D01*
X97821428Y-82989285D01*
X97750000Y-82846428D01*
X97678571Y-82775000D01*
X97535714Y-82703571D01*
X97250000Y-82703571D01*
X97107142Y-82775000D01*
X95750000Y-83703571D02*
X95750000Y-82917857D01*
X95821428Y-82775000D01*
X95964285Y-82703571D01*
X96250000Y-82703571D01*
X96392857Y-82775000D01*
X95750000Y-83632142D02*
X95892857Y-83703571D01*
X96250000Y-83703571D01*
X96392857Y-83632142D01*
X96464285Y-83489285D01*
X96464285Y-83346428D01*
X96392857Y-83203571D01*
X96250000Y-83132142D01*
X95892857Y-83132142D01*
X95750000Y-83060714D01*
X95035714Y-82703571D02*
X95035714Y-83703571D01*
X95035714Y-82846428D02*
X94964285Y-82775000D01*
X94821428Y-82703571D01*
X94607142Y-82703571D01*
X94464285Y-82775000D01*
X94392857Y-82917857D01*
X94392857Y-83703571D01*
X93035714Y-83632142D02*
X93178571Y-83703571D01*
X93464285Y-83703571D01*
X93607142Y-83632142D01*
X93678571Y-83560714D01*
X93750000Y-83417857D01*
X93750000Y-82989285D01*
X93678571Y-82846428D01*
X93607142Y-82775000D01*
X93464285Y-82703571D01*
X93178571Y-82703571D01*
X93035714Y-82775000D01*
X91821428Y-83632142D02*
X91964285Y-83703571D01*
X92250000Y-83703571D01*
X92392857Y-83632142D01*
X92464285Y-83489285D01*
X92464285Y-82917857D01*
X92392857Y-82775000D01*
X92250000Y-82703571D01*
X91964285Y-82703571D01*
X91821428Y-82775000D01*
X91750000Y-82917857D01*
X91750000Y-83060714D01*
X92464285Y-83203571D01*
X90035714Y-83275000D02*
X89321428Y-83275000D01*
X90178571Y-83703571D02*
X89678571Y-82203571D01*
X89178571Y-83703571D01*
X88678571Y-82703571D02*
X88678571Y-83703571D01*
X88678571Y-82846428D02*
X88607142Y-82775000D01*
X88464285Y-82703571D01*
X88250000Y-82703571D01*
X88107142Y-82775000D01*
X88035714Y-82917857D01*
X88035714Y-83703571D01*
X86678571Y-83703571D02*
X86678571Y-82917857D01*
X86750000Y-82775000D01*
X86892857Y-82703571D01*
X87178571Y-82703571D01*
X87321428Y-82775000D01*
X86678571Y-83632142D02*
X86821428Y-83703571D01*
X87178571Y-83703571D01*
X87321428Y-83632142D01*
X87392857Y-83489285D01*
X87392857Y-83346428D01*
X87321428Y-83203571D01*
X87178571Y-83132142D01*
X86821428Y-83132142D01*
X86678571Y-83060714D01*
X85750000Y-83703571D02*
X85892857Y-83632142D01*
X85964285Y-83489285D01*
X85964285Y-82203571D01*
X85321428Y-82703571D02*
X84964285Y-83703571D01*
X84607142Y-82703571D02*
X84964285Y-83703571D01*
X85107142Y-84060714D01*
X85178571Y-84132142D01*
X85321428Y-84203571D01*
X84178571Y-82703571D02*
X83392857Y-82703571D01*
X84178571Y-83703571D01*
X83392857Y-83703571D01*
X82250000Y-83632142D02*
X82392857Y-83703571D01*
X82678571Y-83703571D01*
X82821428Y-83632142D01*
X82892857Y-83489285D01*
X82892857Y-82917857D01*
X82821428Y-82775000D01*
X82678571Y-82703571D01*
X82392857Y-82703571D01*
X82250000Y-82775000D01*
X82178571Y-82917857D01*
X82178571Y-83060714D01*
X82892857Y-83203571D01*
X81535714Y-83703571D02*
X81535714Y-82703571D01*
X81535714Y-82989285D02*
X81464285Y-82846428D01*
X81392857Y-82775000D01*
X81250000Y-82703571D01*
X81107142Y-82703571D01*
X114178571Y-86825000D02*
X114250000Y-86753571D01*
X114392857Y-86539285D01*
X114464285Y-86396428D01*
X114535714Y-86182142D01*
X114607142Y-85825000D01*
X114607142Y-85539285D01*
X114535714Y-85182142D01*
X114464285Y-84967857D01*
X114392857Y-84825000D01*
X114250000Y-84610714D01*
X114178571Y-84539285D01*
X112964285Y-86182142D02*
X113107142Y-86253571D01*
X113392857Y-86253571D01*
X113535714Y-86182142D01*
X113607142Y-86110714D01*
X113678571Y-85967857D01*
X113678571Y-85539285D01*
X113607142Y-85396428D01*
X113535714Y-85325000D01*
X113392857Y-85253571D01*
X113107142Y-85253571D01*
X112964285Y-85325000D01*
X112464285Y-86825000D02*
X112392857Y-86753571D01*
X112250000Y-86539285D01*
X112178571Y-86396428D01*
X112107142Y-86182142D01*
X112035714Y-85825000D01*
X112035714Y-85539285D01*
X112107142Y-85182142D01*
X112178571Y-84967857D01*
X112250000Y-84825000D01*
X112392857Y-84610714D01*
X112464285Y-84539285D01*
X110250000Y-84896428D02*
X110178571Y-84825000D01*
X110035714Y-84753571D01*
X109678571Y-84753571D01*
X109535714Y-84825000D01*
X109464285Y-84896428D01*
X109392857Y-85039285D01*
X109392857Y-85182142D01*
X109464285Y-85396428D01*
X110321428Y-86253571D01*
X109392857Y-86253571D01*
X108464285Y-84753571D02*
X108321428Y-84753571D01*
X108178571Y-84825000D01*
X108107142Y-84896428D01*
X108035714Y-85039285D01*
X107964285Y-85325000D01*
X107964285Y-85682142D01*
X108035714Y-85967857D01*
X108107142Y-86110714D01*
X108178571Y-86182142D01*
X108321428Y-86253571D01*
X108464285Y-86253571D01*
X108607142Y-86182142D01*
X108678571Y-86110714D01*
X108750000Y-85967857D01*
X108821428Y-85682142D01*
X108821428Y-85325000D01*
X108750000Y-85039285D01*
X108678571Y-84896428D01*
X108607142Y-84825000D01*
X108464285Y-84753571D01*
X106535714Y-86253571D02*
X107392857Y-86253571D01*
X106964285Y-86253571D02*
X106964285Y-84753571D01*
X107107142Y-84967857D01*
X107250000Y-85110714D01*
X107392857Y-85182142D01*
X105678571Y-85396428D02*
X105821428Y-85325000D01*
X105892857Y-85253571D01*
X105964285Y-85110714D01*
X105964285Y-85039285D01*
X105892857Y-84896428D01*
X105821428Y-84825000D01*
X105678571Y-84753571D01*
X105392857Y-84753571D01*
X105250000Y-84825000D01*
X105178571Y-84896428D01*
X105107142Y-85039285D01*
X105107142Y-85110714D01*
X105178571Y-85253571D01*
X105250000Y-85325000D01*
X105392857Y-85396428D01*
X105678571Y-85396428D01*
X105821428Y-85467857D01*
X105892857Y-85539285D01*
X105964285Y-85682142D01*
X105964285Y-85967857D01*
X105892857Y-86110714D01*
X105821428Y-86182142D01*
X105678571Y-86253571D01*
X105392857Y-86253571D01*
X105250000Y-86182142D01*
X105178571Y-86110714D01*
X105107142Y-85967857D01*
X105107142Y-85682142D01*
X105178571Y-85539285D01*
X105250000Y-85467857D01*
X105392857Y-85396428D01*
X103392857Y-86182142D02*
X103178571Y-86253571D01*
X102821428Y-86253571D01*
X102678571Y-86182142D01*
X102607142Y-86110714D01*
X102535714Y-85967857D01*
X102535714Y-85825000D01*
X102607142Y-85682142D01*
X102678571Y-85610714D01*
X102821428Y-85539285D01*
X103107142Y-85467857D01*
X103250000Y-85396428D01*
X103321428Y-85325000D01*
X103392857Y-85182142D01*
X103392857Y-85039285D01*
X103321428Y-84896428D01*
X103250000Y-84825000D01*
X103107142Y-84753571D01*
X102750000Y-84753571D01*
X102535714Y-84825000D01*
X102107142Y-85253571D02*
X101535714Y-85253571D01*
X101892857Y-84753571D02*
X101892857Y-86039285D01*
X101821428Y-86182142D01*
X101678571Y-86253571D01*
X101535714Y-86253571D01*
X100464285Y-86182142D02*
X100607142Y-86253571D01*
X100892857Y-86253571D01*
X101035714Y-86182142D01*
X101107142Y-86039285D01*
X101107142Y-85467857D01*
X101035714Y-85325000D01*
X100892857Y-85253571D01*
X100607142Y-85253571D01*
X100464285Y-85325000D01*
X100392857Y-85467857D01*
X100392857Y-85610714D01*
X101107142Y-85753571D01*
X99964285Y-85253571D02*
X99392857Y-85253571D01*
X99750000Y-86253571D02*
X99750000Y-84967857D01*
X99678571Y-84825000D01*
X99535714Y-84753571D01*
X99392857Y-84753571D01*
X98250000Y-86253571D02*
X98250000Y-85467857D01*
X98321428Y-85325000D01*
X98464285Y-85253571D01*
X98750000Y-85253571D01*
X98892857Y-85325000D01*
X98250000Y-86182142D02*
X98392857Y-86253571D01*
X98750000Y-86253571D01*
X98892857Y-86182142D01*
X98964285Y-86039285D01*
X98964285Y-85896428D01*
X98892857Y-85753571D01*
X98750000Y-85682142D01*
X98392857Y-85682142D01*
X98250000Y-85610714D01*
X97535714Y-85253571D02*
X97535714Y-86253571D01*
X97535714Y-85396428D02*
X97464285Y-85325000D01*
X97321428Y-85253571D01*
X97107142Y-85253571D01*
X96964285Y-85325000D01*
X96892857Y-85467857D01*
X96892857Y-86253571D01*
X95107142Y-85825000D02*
X94392857Y-85825000D01*
X95250000Y-86253571D02*
X94750000Y-84753571D01*
X94250000Y-86253571D01*
X93750000Y-85253571D02*
X93750000Y-86253571D01*
X93750000Y-85396428D02*
X93678571Y-85325000D01*
X93535714Y-85253571D01*
X93321428Y-85253571D01*
X93178571Y-85325000D01*
X93107142Y-85467857D01*
X93107142Y-86253571D01*
X91750000Y-86253571D02*
X91750000Y-84753571D01*
X91750000Y-86182142D02*
X91892857Y-86253571D01*
X92178571Y-86253571D01*
X92321428Y-86182142D01*
X92392857Y-86110714D01*
X92464285Y-85967857D01*
X92464285Y-85539285D01*
X92392857Y-85396428D01*
X92321428Y-85325000D01*
X92178571Y-85253571D01*
X91892857Y-85253571D01*
X91750000Y-85325000D01*
X91035714Y-86253571D02*
X91035714Y-85253571D01*
X91035714Y-85539285D02*
X90964285Y-85396428D01*
X90892857Y-85325000D01*
X90750000Y-85253571D01*
X90607142Y-85253571D01*
X89535714Y-86182142D02*
X89678571Y-86253571D01*
X89964285Y-86253571D01*
X90107142Y-86182142D01*
X90178571Y-86039285D01*
X90178571Y-85467857D01*
X90107142Y-85325000D01*
X89964285Y-85253571D01*
X89678571Y-85253571D01*
X89535714Y-85325000D01*
X89464285Y-85467857D01*
X89464285Y-85610714D01*
X90178571Y-85753571D01*
X88821428Y-86253571D02*
X88821428Y-85253571D01*
X88821428Y-84753571D02*
X88892857Y-84825000D01*
X88821428Y-84896428D01*
X88750000Y-84825000D01*
X88821428Y-84753571D01*
X88821428Y-84896428D01*
X86107142Y-86110714D02*
X86178571Y-86182142D01*
X86392857Y-86253571D01*
X86535714Y-86253571D01*
X86750000Y-86182142D01*
X86892857Y-86039285D01*
X86964285Y-85896428D01*
X87035714Y-85610714D01*
X87035714Y-85396428D01*
X86964285Y-85110714D01*
X86892857Y-84967857D01*
X86750000Y-84825000D01*
X86535714Y-84753571D01*
X86392857Y-84753571D01*
X86178571Y-84825000D01*
X86107142Y-84896428D01*
X85464285Y-86253571D02*
X85464285Y-84753571D01*
X84821428Y-86253571D02*
X84821428Y-85467857D01*
X84892857Y-85325000D01*
X85035714Y-85253571D01*
X85250000Y-85253571D01*
X85392857Y-85325000D01*
X85464285Y-85396428D01*
X83535714Y-86182142D02*
X83678571Y-86253571D01*
X83964285Y-86253571D01*
X84107142Y-86182142D01*
X84178571Y-86039285D01*
X84178571Y-85467857D01*
X84107142Y-85325000D01*
X83964285Y-85253571D01*
X83678571Y-85253571D01*
X83535714Y-85325000D01*
X83464285Y-85467857D01*
X83464285Y-85610714D01*
X84178571Y-85753571D01*
X82607142Y-86253571D02*
X82750000Y-86182142D01*
X82821428Y-86039285D01*
X82821428Y-84753571D01*
X81392857Y-86253571D02*
X81392857Y-85467857D01*
X81464285Y-85325000D01*
X81607142Y-85253571D01*
X81892857Y-85253571D01*
X82035714Y-85325000D01*
X81392857Y-86182142D02*
X81535714Y-86253571D01*
X81892857Y-86253571D01*
X82035714Y-86182142D01*
X82107142Y-86039285D01*
X82107142Y-85896428D01*
X82035714Y-85753571D01*
X81892857Y-85682142D01*
X81535714Y-85682142D01*
X81392857Y-85610714D01*
X80678571Y-86253571D02*
X80678571Y-85253571D01*
X80678571Y-85539285D02*
X80607142Y-85396428D01*
X80535714Y-85325000D01*
X80392857Y-85253571D01*
X80250000Y-85253571D01*
X79750000Y-86253571D02*
X79750000Y-85253571D01*
X79750000Y-84753571D02*
X79821428Y-84825000D01*
X79750000Y-84896428D01*
X79678571Y-84825000D01*
X79750000Y-84753571D01*
X79750000Y-84896428D01*
X78392857Y-85253571D02*
X78392857Y-86253571D01*
X79035714Y-85253571D02*
X79035714Y-86039285D01*
X78964285Y-86182142D01*
X78821428Y-86253571D01*
X78607142Y-86253571D01*
X78464285Y-86182142D01*
X78392857Y-86110714D01*
M02*
