M48
;DRILL file {KiCad (5.0.0)} date 08/11/18 20:49:27
;FORMAT={3:3/ absolute / metric / suppress leading zeros}
FMAT,2
METRIC,TZ
T1C0.400
T2C1.000
%
G90
G05
M71
T1
X80600Y-86500
X81900Y-86500
X83300Y-86500
X85000Y-90700
X87525Y-84825
X88900Y-82900
X91500Y-88800
X97375Y-87925
X102400Y-82600
X103100Y-91000
X104600Y-80900
X105600Y-93800
X105900Y-89000
X106425Y-92900
X109900Y-75500
X110000Y-76700
X110200Y-80500
X111000Y-89800
X112500Y-80500
X112600Y-81600
X113000Y-88700
T2
X117100Y-80000
X117100Y-82540
X117100Y-85080
X117100Y-87620
X117100Y-90160
X76300Y-80000
X76300Y-82540
X76300Y-85080
X76300Y-87620
X76300Y-90160
T0
M30
