G04 #@! TF.GenerationSoftware,KiCad,Pcbnew,(5.0.0)*
G04 #@! TF.CreationDate,2018-08-11T20:49:35+09:00*
G04 #@! TF.ProjectId,AD593x_impedance_analyzer,4144353933785F696D706564616E6365,rev?*
G04 #@! TF.SameCoordinates,Original*
G04 #@! TF.FileFunction,Copper,L2,Bot,Signal*
G04 #@! TF.FilePolarity,Positive*
%FSLAX46Y46*%
G04 Gerber Fmt 4.6, Leading zero omitted, Abs format (unit mm)*
G04 Created by KiCad (PCBNEW (5.0.0)) date 08/11/18 20:49:35*
%MOMM*%
%LPD*%
G01*
G04 APERTURE LIST*
G04 #@! TA.AperFunction,ComponentPad*
%ADD10R,1.700000X1.700000*%
G04 #@! TD*
G04 #@! TA.AperFunction,ComponentPad*
%ADD11O,1.700000X1.700000*%
G04 #@! TD*
G04 #@! TA.AperFunction,ViaPad*
%ADD12C,0.800000*%
G04 #@! TD*
G04 #@! TA.AperFunction,Conductor*
%ADD13C,0.250000*%
G04 #@! TD*
G04 #@! TA.AperFunction,Conductor*
%ADD14C,0.254000*%
G04 #@! TD*
G04 APERTURE END LIST*
D10*
G04 #@! TO.P,J1,1*
G04 #@! TO.N,+5V*
X76300000Y-80000000D03*
D11*
G04 #@! TO.P,J1,2*
G04 #@! TO.N,RANGE_SW*
X76300000Y-82540000D03*
G04 #@! TO.P,J1,3*
G04 #@! TO.N,DUT+*
X76300000Y-85080000D03*
G04 #@! TO.P,J1,4*
G04 #@! TO.N,DUT-*
X76300000Y-87620000D03*
G04 #@! TO.P,J1,5*
G04 #@! TO.N,GNDA*
X76300000Y-90160000D03*
G04 #@! TD*
G04 #@! TO.P,J2,5*
G04 #@! TO.N,GND*
X117100000Y-90160000D03*
G04 #@! TO.P,J2,4*
G04 #@! TO.N,SDA*
X117100000Y-87620000D03*
G04 #@! TO.P,J2,3*
G04 #@! TO.N,SCL*
X117100000Y-85080000D03*
G04 #@! TO.P,J2,2*
G04 #@! TO.N,CLK*
X117100000Y-82540000D03*
D10*
G04 #@! TO.P,J2,1*
G04 #@! TO.N,+3V3*
X117100000Y-80000000D03*
G04 #@! TD*
D12*
G04 #@! TO.N,GNDA*
X85000000Y-90700000D03*
X103100000Y-91000000D03*
X105600000Y-93800000D03*
X88900000Y-82900000D03*
X83300000Y-86500000D03*
X81900000Y-86500000D03*
X80600000Y-86500000D03*
G04 #@! TO.N,+5V*
X91500000Y-88800000D03*
X87525000Y-84825000D03*
X111000000Y-89800000D03*
X104600000Y-80900000D03*
G04 #@! TO.N,GND*
X102400000Y-82600000D03*
X112500000Y-80500000D03*
X110200000Y-80500000D03*
G04 #@! TO.N,+3V3*
X112600000Y-81600000D03*
X113000000Y-88700000D03*
G04 #@! TO.N,RANGE_SW*
X105900000Y-89000000D03*
G04 #@! TO.N,SDA*
X110000000Y-76700000D03*
G04 #@! TO.N,SCL*
X109900000Y-75500000D03*
G04 #@! TO.N,Net-(R7-Pad1)*
X97375000Y-87925000D03*
X106425000Y-92900000D03*
G04 #@! TD*
D13*
G04 #@! TO.N,+5V*
X91500000Y-88800000D02*
X87525000Y-84825000D01*
X110434315Y-89800000D02*
X106634315Y-86000000D01*
X111000000Y-89800000D02*
X110434315Y-89800000D01*
X94300000Y-86000000D02*
X91500000Y-88800000D01*
X104600000Y-80900000D02*
X101900000Y-80900000D01*
X100400000Y-82400000D02*
X100400000Y-86000000D01*
X101900000Y-80900000D02*
X100400000Y-82400000D01*
X106634315Y-86000000D02*
X100400000Y-86000000D01*
X100400000Y-86000000D02*
X94300000Y-86000000D01*
G04 #@! TO.N,GND*
X102400000Y-82600000D02*
X109500000Y-82600000D01*
G04 #@! TO.N,+3V3*
X113000000Y-88134315D02*
X113000000Y-88700000D01*
X112999999Y-81999999D02*
X113000000Y-88134315D01*
X112600000Y-81600000D02*
X112999999Y-81999999D01*
G04 #@! TO.N,RANGE_SW*
X96700000Y-87000000D02*
X103300000Y-87000000D01*
X76300000Y-82540000D02*
X82840000Y-82540000D01*
X82840000Y-82540000D02*
X90900000Y-90600000D01*
X93100000Y-90600000D02*
X96400000Y-87300000D01*
X90900000Y-90600000D02*
X93100000Y-90600000D01*
X96300000Y-87400000D02*
X96400000Y-87300000D01*
X96400000Y-87300000D02*
X96700000Y-87000000D01*
X105300000Y-89000000D02*
X103300000Y-87000000D01*
X105900000Y-89000000D02*
X105300000Y-89000000D01*
G04 #@! TO.N,SDA*
X113600000Y-84120000D02*
X117100000Y-87620000D01*
X113600000Y-77900000D02*
X113600000Y-84120000D01*
X110000000Y-76700000D02*
X112400000Y-76700000D01*
X112400000Y-76700000D02*
X113600000Y-77900000D01*
G04 #@! TO.N,SCL*
X109900000Y-75500000D02*
X112400000Y-75500000D01*
X112400000Y-75500000D02*
X114400000Y-77500000D01*
X114400000Y-82380000D02*
X117100000Y-85080000D01*
X114400000Y-77500000D02*
X114400000Y-82380000D01*
G04 #@! TO.N,Net-(R7-Pad1)*
X97375000Y-87925000D02*
X97375000Y-90775000D01*
X99500000Y-92900000D02*
X106425000Y-92900000D01*
X97375000Y-90775000D02*
X99500000Y-92900000D01*
G04 #@! TD*
D14*
G04 #@! TO.N,GNDA*
G36*
X107873000Y-81840000D02*
X105035225Y-81840000D01*
X105186280Y-81777431D01*
X105477431Y-81486280D01*
X105635000Y-81105874D01*
X105635000Y-80694126D01*
X105477431Y-80313720D01*
X105186280Y-80022569D01*
X104805874Y-79865000D01*
X104394126Y-79865000D01*
X104013720Y-80022569D01*
X103896289Y-80140000D01*
X101974846Y-80140000D01*
X101899999Y-80125112D01*
X101825152Y-80140000D01*
X101825148Y-80140000D01*
X101603463Y-80184096D01*
X101603461Y-80184097D01*
X101603462Y-80184097D01*
X101415526Y-80309671D01*
X101415524Y-80309673D01*
X101352071Y-80352071D01*
X101309673Y-80415524D01*
X99915530Y-81809669D01*
X99852071Y-81852071D01*
X99684096Y-82103464D01*
X99640000Y-82325149D01*
X99640000Y-82325153D01*
X99625112Y-82400000D01*
X99640000Y-82474847D01*
X99640001Y-85240000D01*
X94374847Y-85240000D01*
X94300000Y-85225112D01*
X94225153Y-85240000D01*
X94225148Y-85240000D01*
X94003463Y-85284096D01*
X93752071Y-85452071D01*
X93709671Y-85515527D01*
X91500000Y-87725198D01*
X88560000Y-84785199D01*
X88560000Y-84619126D01*
X88402431Y-84238720D01*
X88111280Y-83947569D01*
X87730874Y-83790000D01*
X87319126Y-83790000D01*
X86938720Y-83947569D01*
X86647569Y-84238720D01*
X86490000Y-84619126D01*
X86490000Y-85030874D01*
X86549626Y-85174824D01*
X83430331Y-82055530D01*
X83387929Y-81992071D01*
X83136537Y-81824096D01*
X82914852Y-81780000D01*
X82914847Y-81780000D01*
X82840000Y-81765112D01*
X82765153Y-81780000D01*
X77578178Y-81780000D01*
X77370625Y-81469375D01*
X77352381Y-81457184D01*
X77397765Y-81448157D01*
X77607809Y-81307809D01*
X77748157Y-81097765D01*
X77797440Y-80850000D01*
X77797440Y-79150000D01*
X77748157Y-78902235D01*
X77607809Y-78692191D01*
X77397765Y-78551843D01*
X77150000Y-78502560D01*
X75450000Y-78502560D01*
X75202235Y-78551843D01*
X74992191Y-78692191D01*
X74851843Y-78902235D01*
X74802560Y-79150000D01*
X74802560Y-80850000D01*
X74851843Y-81097765D01*
X74992191Y-81307809D01*
X75202235Y-81448157D01*
X75247619Y-81457184D01*
X75229375Y-81469375D01*
X74901161Y-81960582D01*
X74785908Y-82540000D01*
X74901161Y-83119418D01*
X75229375Y-83610625D01*
X75527761Y-83810000D01*
X75229375Y-84009375D01*
X74901161Y-84500582D01*
X74785908Y-85080000D01*
X74901161Y-85659418D01*
X75229375Y-86150625D01*
X75527761Y-86350000D01*
X75229375Y-86549375D01*
X74901161Y-87040582D01*
X74785908Y-87620000D01*
X74901161Y-88199418D01*
X75229375Y-88690625D01*
X75548478Y-88903843D01*
X75418642Y-88964817D01*
X75028355Y-89393076D01*
X74858524Y-89803110D01*
X74979845Y-90033000D01*
X76173000Y-90033000D01*
X76173000Y-90013000D01*
X76427000Y-90013000D01*
X76427000Y-90033000D01*
X77620155Y-90033000D01*
X77741476Y-89803110D01*
X77571645Y-89393076D01*
X77181358Y-88964817D01*
X77051522Y-88903843D01*
X77370625Y-88690625D01*
X77698839Y-88199418D01*
X77814092Y-87620000D01*
X77698839Y-87040582D01*
X77370625Y-86549375D01*
X77072239Y-86350000D01*
X77370625Y-86150625D01*
X77698839Y-85659418D01*
X77814092Y-85080000D01*
X77698839Y-84500582D01*
X77370625Y-84009375D01*
X77072239Y-83810000D01*
X77370625Y-83610625D01*
X77578178Y-83300000D01*
X82525199Y-83300000D01*
X90309673Y-91084476D01*
X90352071Y-91147929D01*
X90415524Y-91190327D01*
X90415526Y-91190329D01*
X90540902Y-91274102D01*
X90603463Y-91315904D01*
X90825148Y-91360000D01*
X90825152Y-91360000D01*
X90899999Y-91374888D01*
X90974846Y-91360000D01*
X93025153Y-91360000D01*
X93100000Y-91374888D01*
X93174847Y-91360000D01*
X93174852Y-91360000D01*
X93396537Y-91315904D01*
X93647929Y-91147929D01*
X93690331Y-91084470D01*
X96429018Y-88345784D01*
X96497569Y-88511280D01*
X96615000Y-88628711D01*
X96615001Y-90700148D01*
X96600112Y-90775000D01*
X96659097Y-91071537D01*
X96710141Y-91147929D01*
X96827072Y-91322929D01*
X96890528Y-91365329D01*
X98909671Y-93384473D01*
X98952071Y-93447929D01*
X99015527Y-93490329D01*
X99203462Y-93615904D01*
X99251605Y-93625480D01*
X99425148Y-93660000D01*
X99425152Y-93660000D01*
X99500000Y-93674888D01*
X99574848Y-93660000D01*
X105721289Y-93660000D01*
X105838720Y-93777431D01*
X106219126Y-93935000D01*
X106630874Y-93935000D01*
X107011280Y-93777431D01*
X107302431Y-93486280D01*
X107460000Y-93105874D01*
X107460000Y-92694126D01*
X107302431Y-92313720D01*
X107011280Y-92022569D01*
X106630874Y-91865000D01*
X106219126Y-91865000D01*
X105838720Y-92022569D01*
X105721289Y-92140000D01*
X99814802Y-92140000D01*
X98135000Y-90460199D01*
X98135000Y-88628711D01*
X98252431Y-88511280D01*
X98410000Y-88130874D01*
X98410000Y-87760000D01*
X102985199Y-87760000D01*
X104709671Y-89484473D01*
X104752071Y-89547929D01*
X105003463Y-89715904D01*
X105189123Y-89752834D01*
X105313720Y-89877431D01*
X105694126Y-90035000D01*
X106105874Y-90035000D01*
X106486280Y-89877431D01*
X106777431Y-89586280D01*
X106935000Y-89205874D01*
X106935000Y-88794126D01*
X106777431Y-88413720D01*
X106486280Y-88122569D01*
X106105874Y-87965000D01*
X105694126Y-87965000D01*
X105443581Y-88068779D01*
X104134801Y-86760000D01*
X106319514Y-86760000D01*
X107873000Y-88313486D01*
X107873000Y-94290000D01*
X73710000Y-94290000D01*
X73710000Y-90516890D01*
X74858524Y-90516890D01*
X75028355Y-90926924D01*
X75418642Y-91355183D01*
X75943108Y-91601486D01*
X76173000Y-91480819D01*
X76173000Y-90287000D01*
X76427000Y-90287000D01*
X76427000Y-91480819D01*
X76656892Y-91601486D01*
X77181358Y-91355183D01*
X77571645Y-90926924D01*
X77741476Y-90516890D01*
X77620155Y-90287000D01*
X76427000Y-90287000D01*
X76173000Y-90287000D01*
X74979845Y-90287000D01*
X74858524Y-90516890D01*
X73710000Y-90516890D01*
X73710000Y-74710000D01*
X107873000Y-74710000D01*
X107873000Y-81840000D01*
X107873000Y-81840000D01*
G37*
X107873000Y-81840000D02*
X105035225Y-81840000D01*
X105186280Y-81777431D01*
X105477431Y-81486280D01*
X105635000Y-81105874D01*
X105635000Y-80694126D01*
X105477431Y-80313720D01*
X105186280Y-80022569D01*
X104805874Y-79865000D01*
X104394126Y-79865000D01*
X104013720Y-80022569D01*
X103896289Y-80140000D01*
X101974846Y-80140000D01*
X101899999Y-80125112D01*
X101825152Y-80140000D01*
X101825148Y-80140000D01*
X101603463Y-80184096D01*
X101603461Y-80184097D01*
X101603462Y-80184097D01*
X101415526Y-80309671D01*
X101415524Y-80309673D01*
X101352071Y-80352071D01*
X101309673Y-80415524D01*
X99915530Y-81809669D01*
X99852071Y-81852071D01*
X99684096Y-82103464D01*
X99640000Y-82325149D01*
X99640000Y-82325153D01*
X99625112Y-82400000D01*
X99640000Y-82474847D01*
X99640001Y-85240000D01*
X94374847Y-85240000D01*
X94300000Y-85225112D01*
X94225153Y-85240000D01*
X94225148Y-85240000D01*
X94003463Y-85284096D01*
X93752071Y-85452071D01*
X93709671Y-85515527D01*
X91500000Y-87725198D01*
X88560000Y-84785199D01*
X88560000Y-84619126D01*
X88402431Y-84238720D01*
X88111280Y-83947569D01*
X87730874Y-83790000D01*
X87319126Y-83790000D01*
X86938720Y-83947569D01*
X86647569Y-84238720D01*
X86490000Y-84619126D01*
X86490000Y-85030874D01*
X86549626Y-85174824D01*
X83430331Y-82055530D01*
X83387929Y-81992071D01*
X83136537Y-81824096D01*
X82914852Y-81780000D01*
X82914847Y-81780000D01*
X82840000Y-81765112D01*
X82765153Y-81780000D01*
X77578178Y-81780000D01*
X77370625Y-81469375D01*
X77352381Y-81457184D01*
X77397765Y-81448157D01*
X77607809Y-81307809D01*
X77748157Y-81097765D01*
X77797440Y-80850000D01*
X77797440Y-79150000D01*
X77748157Y-78902235D01*
X77607809Y-78692191D01*
X77397765Y-78551843D01*
X77150000Y-78502560D01*
X75450000Y-78502560D01*
X75202235Y-78551843D01*
X74992191Y-78692191D01*
X74851843Y-78902235D01*
X74802560Y-79150000D01*
X74802560Y-80850000D01*
X74851843Y-81097765D01*
X74992191Y-81307809D01*
X75202235Y-81448157D01*
X75247619Y-81457184D01*
X75229375Y-81469375D01*
X74901161Y-81960582D01*
X74785908Y-82540000D01*
X74901161Y-83119418D01*
X75229375Y-83610625D01*
X75527761Y-83810000D01*
X75229375Y-84009375D01*
X74901161Y-84500582D01*
X74785908Y-85080000D01*
X74901161Y-85659418D01*
X75229375Y-86150625D01*
X75527761Y-86350000D01*
X75229375Y-86549375D01*
X74901161Y-87040582D01*
X74785908Y-87620000D01*
X74901161Y-88199418D01*
X75229375Y-88690625D01*
X75548478Y-88903843D01*
X75418642Y-88964817D01*
X75028355Y-89393076D01*
X74858524Y-89803110D01*
X74979845Y-90033000D01*
X76173000Y-90033000D01*
X76173000Y-90013000D01*
X76427000Y-90013000D01*
X76427000Y-90033000D01*
X77620155Y-90033000D01*
X77741476Y-89803110D01*
X77571645Y-89393076D01*
X77181358Y-88964817D01*
X77051522Y-88903843D01*
X77370625Y-88690625D01*
X77698839Y-88199418D01*
X77814092Y-87620000D01*
X77698839Y-87040582D01*
X77370625Y-86549375D01*
X77072239Y-86350000D01*
X77370625Y-86150625D01*
X77698839Y-85659418D01*
X77814092Y-85080000D01*
X77698839Y-84500582D01*
X77370625Y-84009375D01*
X77072239Y-83810000D01*
X77370625Y-83610625D01*
X77578178Y-83300000D01*
X82525199Y-83300000D01*
X90309673Y-91084476D01*
X90352071Y-91147929D01*
X90415524Y-91190327D01*
X90415526Y-91190329D01*
X90540902Y-91274102D01*
X90603463Y-91315904D01*
X90825148Y-91360000D01*
X90825152Y-91360000D01*
X90899999Y-91374888D01*
X90974846Y-91360000D01*
X93025153Y-91360000D01*
X93100000Y-91374888D01*
X93174847Y-91360000D01*
X93174852Y-91360000D01*
X93396537Y-91315904D01*
X93647929Y-91147929D01*
X93690331Y-91084470D01*
X96429018Y-88345784D01*
X96497569Y-88511280D01*
X96615000Y-88628711D01*
X96615001Y-90700148D01*
X96600112Y-90775000D01*
X96659097Y-91071537D01*
X96710141Y-91147929D01*
X96827072Y-91322929D01*
X96890528Y-91365329D01*
X98909671Y-93384473D01*
X98952071Y-93447929D01*
X99015527Y-93490329D01*
X99203462Y-93615904D01*
X99251605Y-93625480D01*
X99425148Y-93660000D01*
X99425152Y-93660000D01*
X99500000Y-93674888D01*
X99574848Y-93660000D01*
X105721289Y-93660000D01*
X105838720Y-93777431D01*
X106219126Y-93935000D01*
X106630874Y-93935000D01*
X107011280Y-93777431D01*
X107302431Y-93486280D01*
X107460000Y-93105874D01*
X107460000Y-92694126D01*
X107302431Y-92313720D01*
X107011280Y-92022569D01*
X106630874Y-91865000D01*
X106219126Y-91865000D01*
X105838720Y-92022569D01*
X105721289Y-92140000D01*
X99814802Y-92140000D01*
X98135000Y-90460199D01*
X98135000Y-88628711D01*
X98252431Y-88511280D01*
X98410000Y-88130874D01*
X98410000Y-87760000D01*
X102985199Y-87760000D01*
X104709671Y-89484473D01*
X104752071Y-89547929D01*
X105003463Y-89715904D01*
X105189123Y-89752834D01*
X105313720Y-89877431D01*
X105694126Y-90035000D01*
X106105874Y-90035000D01*
X106486280Y-89877431D01*
X106777431Y-89586280D01*
X106935000Y-89205874D01*
X106935000Y-88794126D01*
X106777431Y-88413720D01*
X106486280Y-88122569D01*
X106105874Y-87965000D01*
X105694126Y-87965000D01*
X105443581Y-88068779D01*
X104134801Y-86760000D01*
X106319514Y-86760000D01*
X107873000Y-88313486D01*
X107873000Y-94290000D01*
X73710000Y-94290000D01*
X73710000Y-90516890D01*
X74858524Y-90516890D01*
X75028355Y-90926924D01*
X75418642Y-91355183D01*
X75943108Y-91601486D01*
X76173000Y-91480819D01*
X76173000Y-90287000D01*
X76427000Y-90287000D01*
X76427000Y-91480819D01*
X76656892Y-91601486D01*
X77181358Y-91355183D01*
X77571645Y-90926924D01*
X77741476Y-90516890D01*
X77620155Y-90287000D01*
X76427000Y-90287000D01*
X76173000Y-90287000D01*
X74979845Y-90287000D01*
X74858524Y-90516890D01*
X73710000Y-90516890D01*
X73710000Y-74710000D01*
X107873000Y-74710000D01*
X107873000Y-81840000D01*
G04 #@! TO.N,GND*
G36*
X119290001Y-94290000D02*
X109137156Y-94290000D01*
X109203527Y-89644014D01*
X109843986Y-90284473D01*
X109886386Y-90347929D01*
X110137778Y-90515904D01*
X110280603Y-90544314D01*
X110413720Y-90677431D01*
X110794126Y-90835000D01*
X111205874Y-90835000D01*
X111586280Y-90677431D01*
X111746821Y-90516890D01*
X115658524Y-90516890D01*
X115828355Y-90926924D01*
X116218642Y-91355183D01*
X116743108Y-91601486D01*
X116973000Y-91480819D01*
X116973000Y-90287000D01*
X117227000Y-90287000D01*
X117227000Y-91480819D01*
X117456892Y-91601486D01*
X117981358Y-91355183D01*
X118371645Y-90926924D01*
X118541476Y-90516890D01*
X118420155Y-90287000D01*
X117227000Y-90287000D01*
X116973000Y-90287000D01*
X115779845Y-90287000D01*
X115658524Y-90516890D01*
X111746821Y-90516890D01*
X111877431Y-90386280D01*
X112035000Y-90005874D01*
X112035000Y-89594126D01*
X111877431Y-89213720D01*
X111586280Y-88922569D01*
X111205874Y-88765000D01*
X110794126Y-88765000D01*
X110567845Y-88858728D01*
X109233803Y-87524686D01*
X109376440Y-77540151D01*
X109413720Y-77577431D01*
X109794126Y-77735000D01*
X110205874Y-77735000D01*
X110586280Y-77577431D01*
X110703711Y-77460000D01*
X112085199Y-77460000D01*
X112840000Y-78214802D01*
X112840000Y-80579136D01*
X112805874Y-80565000D01*
X112394126Y-80565000D01*
X112013720Y-80722569D01*
X111722569Y-81013720D01*
X111565000Y-81394126D01*
X111565000Y-81805874D01*
X111722569Y-82186280D01*
X112013720Y-82477431D01*
X112239999Y-82571159D01*
X112240001Y-87996288D01*
X112122569Y-88113720D01*
X111965000Y-88494126D01*
X111965000Y-88905874D01*
X112122569Y-89286280D01*
X112413720Y-89577431D01*
X112794126Y-89735000D01*
X113205874Y-89735000D01*
X113586280Y-89577431D01*
X113877431Y-89286280D01*
X114035000Y-88905874D01*
X114035000Y-88494126D01*
X113877431Y-88113720D01*
X113760000Y-87996289D01*
X113759999Y-85354801D01*
X115658791Y-87253593D01*
X115585908Y-87620000D01*
X115701161Y-88199418D01*
X116029375Y-88690625D01*
X116348478Y-88903843D01*
X116218642Y-88964817D01*
X115828355Y-89393076D01*
X115658524Y-89803110D01*
X115779845Y-90033000D01*
X116973000Y-90033000D01*
X116973000Y-90013000D01*
X117227000Y-90013000D01*
X117227000Y-90033000D01*
X118420155Y-90033000D01*
X118541476Y-89803110D01*
X118371645Y-89393076D01*
X117981358Y-88964817D01*
X117851522Y-88903843D01*
X118170625Y-88690625D01*
X118498839Y-88199418D01*
X118614092Y-87620000D01*
X118498839Y-87040582D01*
X118170625Y-86549375D01*
X117872239Y-86350000D01*
X118170625Y-86150625D01*
X118498839Y-85659418D01*
X118614092Y-85080000D01*
X118498839Y-84500582D01*
X118170625Y-84009375D01*
X117872239Y-83810000D01*
X118170625Y-83610625D01*
X118498839Y-83119418D01*
X118614092Y-82540000D01*
X118498839Y-81960582D01*
X118170625Y-81469375D01*
X118152381Y-81457184D01*
X118197765Y-81448157D01*
X118407809Y-81307809D01*
X118548157Y-81097765D01*
X118597440Y-80850000D01*
X118597440Y-79150000D01*
X118548157Y-78902235D01*
X118407809Y-78692191D01*
X118197765Y-78551843D01*
X117950000Y-78502560D01*
X116250000Y-78502560D01*
X116002235Y-78551843D01*
X115792191Y-78692191D01*
X115651843Y-78902235D01*
X115602560Y-79150000D01*
X115602560Y-80850000D01*
X115651843Y-81097765D01*
X115792191Y-81307809D01*
X116002235Y-81448157D01*
X116047619Y-81457184D01*
X116029375Y-81469375D01*
X115701161Y-81960582D01*
X115594020Y-82499219D01*
X115160000Y-82065199D01*
X115160000Y-77574846D01*
X115174888Y-77499999D01*
X115160000Y-77425152D01*
X115160000Y-77425148D01*
X115115904Y-77203463D01*
X114947929Y-76952071D01*
X114884473Y-76909671D01*
X112990331Y-75015530D01*
X112947929Y-74952071D01*
X112696537Y-74784096D01*
X112474852Y-74740000D01*
X112474847Y-74740000D01*
X112400000Y-74725112D01*
X112325153Y-74740000D01*
X110603711Y-74740000D01*
X110573711Y-74710000D01*
X119290000Y-74710000D01*
X119290001Y-94290000D01*
X119290001Y-94290000D01*
G37*
X119290001Y-94290000D02*
X109137156Y-94290000D01*
X109203527Y-89644014D01*
X109843986Y-90284473D01*
X109886386Y-90347929D01*
X110137778Y-90515904D01*
X110280603Y-90544314D01*
X110413720Y-90677431D01*
X110794126Y-90835000D01*
X111205874Y-90835000D01*
X111586280Y-90677431D01*
X111746821Y-90516890D01*
X115658524Y-90516890D01*
X115828355Y-90926924D01*
X116218642Y-91355183D01*
X116743108Y-91601486D01*
X116973000Y-91480819D01*
X116973000Y-90287000D01*
X117227000Y-90287000D01*
X117227000Y-91480819D01*
X117456892Y-91601486D01*
X117981358Y-91355183D01*
X118371645Y-90926924D01*
X118541476Y-90516890D01*
X118420155Y-90287000D01*
X117227000Y-90287000D01*
X116973000Y-90287000D01*
X115779845Y-90287000D01*
X115658524Y-90516890D01*
X111746821Y-90516890D01*
X111877431Y-90386280D01*
X112035000Y-90005874D01*
X112035000Y-89594126D01*
X111877431Y-89213720D01*
X111586280Y-88922569D01*
X111205874Y-88765000D01*
X110794126Y-88765000D01*
X110567845Y-88858728D01*
X109233803Y-87524686D01*
X109376440Y-77540151D01*
X109413720Y-77577431D01*
X109794126Y-77735000D01*
X110205874Y-77735000D01*
X110586280Y-77577431D01*
X110703711Y-77460000D01*
X112085199Y-77460000D01*
X112840000Y-78214802D01*
X112840000Y-80579136D01*
X112805874Y-80565000D01*
X112394126Y-80565000D01*
X112013720Y-80722569D01*
X111722569Y-81013720D01*
X111565000Y-81394126D01*
X111565000Y-81805874D01*
X111722569Y-82186280D01*
X112013720Y-82477431D01*
X112239999Y-82571159D01*
X112240001Y-87996288D01*
X112122569Y-88113720D01*
X111965000Y-88494126D01*
X111965000Y-88905874D01*
X112122569Y-89286280D01*
X112413720Y-89577431D01*
X112794126Y-89735000D01*
X113205874Y-89735000D01*
X113586280Y-89577431D01*
X113877431Y-89286280D01*
X114035000Y-88905874D01*
X114035000Y-88494126D01*
X113877431Y-88113720D01*
X113760000Y-87996289D01*
X113759999Y-85354801D01*
X115658791Y-87253593D01*
X115585908Y-87620000D01*
X115701161Y-88199418D01*
X116029375Y-88690625D01*
X116348478Y-88903843D01*
X116218642Y-88964817D01*
X115828355Y-89393076D01*
X115658524Y-89803110D01*
X115779845Y-90033000D01*
X116973000Y-90033000D01*
X116973000Y-90013000D01*
X117227000Y-90013000D01*
X117227000Y-90033000D01*
X118420155Y-90033000D01*
X118541476Y-89803110D01*
X118371645Y-89393076D01*
X117981358Y-88964817D01*
X117851522Y-88903843D01*
X118170625Y-88690625D01*
X118498839Y-88199418D01*
X118614092Y-87620000D01*
X118498839Y-87040582D01*
X118170625Y-86549375D01*
X117872239Y-86350000D01*
X118170625Y-86150625D01*
X118498839Y-85659418D01*
X118614092Y-85080000D01*
X118498839Y-84500582D01*
X118170625Y-84009375D01*
X117872239Y-83810000D01*
X118170625Y-83610625D01*
X118498839Y-83119418D01*
X118614092Y-82540000D01*
X118498839Y-81960582D01*
X118170625Y-81469375D01*
X118152381Y-81457184D01*
X118197765Y-81448157D01*
X118407809Y-81307809D01*
X118548157Y-81097765D01*
X118597440Y-80850000D01*
X118597440Y-79150000D01*
X118548157Y-78902235D01*
X118407809Y-78692191D01*
X118197765Y-78551843D01*
X117950000Y-78502560D01*
X116250000Y-78502560D01*
X116002235Y-78551843D01*
X115792191Y-78692191D01*
X115651843Y-78902235D01*
X115602560Y-79150000D01*
X115602560Y-80850000D01*
X115651843Y-81097765D01*
X115792191Y-81307809D01*
X116002235Y-81448157D01*
X116047619Y-81457184D01*
X116029375Y-81469375D01*
X115701161Y-81960582D01*
X115594020Y-82499219D01*
X115160000Y-82065199D01*
X115160000Y-77574846D01*
X115174888Y-77499999D01*
X115160000Y-77425152D01*
X115160000Y-77425148D01*
X115115904Y-77203463D01*
X114947929Y-76952071D01*
X114884473Y-76909671D01*
X112990331Y-75015530D01*
X112947929Y-74952071D01*
X112696537Y-74784096D01*
X112474852Y-74740000D01*
X112474847Y-74740000D01*
X112400000Y-74725112D01*
X112325153Y-74740000D01*
X110603711Y-74740000D01*
X110573711Y-74710000D01*
X119290000Y-74710000D01*
X119290001Y-94290000D01*
G04 #@! TD*
M02*
