G04 #@! TF.GenerationSoftware,KiCad,Pcbnew,(5.0.0)*
G04 #@! TF.CreationDate,2018-08-11T20:49:35+09:00*
G04 #@! TF.ProjectId,AD593x_impedance_analyzer,4144353933785F696D706564616E6365,rev?*
G04 #@! TF.SameCoordinates,Original*
G04 #@! TF.FileFunction,Legend,Top*
G04 #@! TF.FilePolarity,Positive*
%FSLAX46Y46*%
G04 Gerber Fmt 4.6, Leading zero omitted, Abs format (unit mm)*
G04 Created by KiCad (PCBNEW (5.0.0)) date 08/11/18 20:49:35*
%MOMM*%
%LPD*%
G01*
G04 APERTURE LIST*
%ADD10C,0.200000*%
%ADD11C,0.120000*%
%ADD12C,0.150000*%
%ADD13C,0.010000*%
G04 APERTURE END LIST*
D10*
X105233333Y-75552380D02*
X105233333Y-74552380D01*
X105566666Y-75266666D01*
X105900000Y-74552380D01*
X105900000Y-75552380D01*
X106804761Y-75552380D02*
X106804761Y-75028571D01*
X106757142Y-74933333D01*
X106661904Y-74885714D01*
X106471428Y-74885714D01*
X106376190Y-74933333D01*
X106804761Y-75504761D02*
X106709523Y-75552380D01*
X106471428Y-75552380D01*
X106376190Y-75504761D01*
X106328571Y-75409523D01*
X106328571Y-75314285D01*
X106376190Y-75219047D01*
X106471428Y-75171428D01*
X106709523Y-75171428D01*
X106804761Y-75123809D01*
X107185714Y-75552380D02*
X107709523Y-74885714D01*
X107185714Y-74885714D02*
X107709523Y-75552380D01*
X109185714Y-75028571D02*
X108852380Y-75028571D01*
X108852380Y-75552380D02*
X108852380Y-74552380D01*
X109328571Y-74552380D01*
X109709523Y-75552380D02*
X109709523Y-74885714D01*
X109709523Y-75076190D02*
X109757142Y-74980952D01*
X109804761Y-74933333D01*
X109900000Y-74885714D01*
X109995238Y-74885714D01*
X110709523Y-75504761D02*
X110614285Y-75552380D01*
X110423809Y-75552380D01*
X110328571Y-75504761D01*
X110280952Y-75409523D01*
X110280952Y-75028571D01*
X110328571Y-74933333D01*
X110423809Y-74885714D01*
X110614285Y-74885714D01*
X110709523Y-74933333D01*
X110757142Y-75028571D01*
X110757142Y-75123809D01*
X110280952Y-75219047D01*
X111614285Y-74885714D02*
X111614285Y-75885714D01*
X111614285Y-75504761D02*
X111519047Y-75552380D01*
X111328571Y-75552380D01*
X111233333Y-75504761D01*
X111185714Y-75457142D01*
X111138095Y-75361904D01*
X111138095Y-75076190D01*
X111185714Y-74980952D01*
X111233333Y-74933333D01*
X111328571Y-74885714D01*
X111519047Y-74885714D01*
X111614285Y-74933333D01*
X112090476Y-75457142D02*
X112138095Y-75504761D01*
X112090476Y-75552380D01*
X112042857Y-75504761D01*
X112090476Y-75457142D01*
X112090476Y-75552380D01*
X112090476Y-74933333D02*
X112138095Y-74980952D01*
X112090476Y-75028571D01*
X112042857Y-74980952D01*
X112090476Y-74933333D01*
X112090476Y-75028571D01*
X113852380Y-75552380D02*
X113280952Y-75552380D01*
X113566666Y-75552380D02*
X113566666Y-74552380D01*
X113471428Y-74695238D01*
X113376190Y-74790476D01*
X113280952Y-74838095D01*
X114471428Y-74552380D02*
X114566666Y-74552380D01*
X114661904Y-74600000D01*
X114709523Y-74647619D01*
X114757142Y-74742857D01*
X114804761Y-74933333D01*
X114804761Y-75171428D01*
X114757142Y-75361904D01*
X114709523Y-75457142D01*
X114661904Y-75504761D01*
X114566666Y-75552380D01*
X114471428Y-75552380D01*
X114376190Y-75504761D01*
X114328571Y-75457142D01*
X114280952Y-75361904D01*
X114233333Y-75171428D01*
X114233333Y-74933333D01*
X114280952Y-74742857D01*
X114328571Y-74647619D01*
X114376190Y-74600000D01*
X114471428Y-74552380D01*
X115423809Y-74552380D02*
X115519047Y-74552380D01*
X115614285Y-74600000D01*
X115661904Y-74647619D01*
X115709523Y-74742857D01*
X115757142Y-74933333D01*
X115757142Y-75171428D01*
X115709523Y-75361904D01*
X115661904Y-75457142D01*
X115614285Y-75504761D01*
X115519047Y-75552380D01*
X115423809Y-75552380D01*
X115328571Y-75504761D01*
X115280952Y-75457142D01*
X115233333Y-75361904D01*
X115185714Y-75171428D01*
X115185714Y-74933333D01*
X115233333Y-74742857D01*
X115280952Y-74647619D01*
X115328571Y-74600000D01*
X115423809Y-74552380D01*
X116185714Y-75552380D02*
X116185714Y-74552380D01*
X116757142Y-75552380D02*
X116328571Y-74980952D01*
X116757142Y-74552380D02*
X116185714Y-75123809D01*
X117185714Y-75552380D02*
X117185714Y-74552380D01*
X117185714Y-75028571D02*
X117757142Y-75028571D01*
X117757142Y-75552380D02*
X117757142Y-74552380D01*
X118138095Y-74885714D02*
X118661904Y-74885714D01*
X118138095Y-75552380D01*
X118661904Y-75552380D01*
X74353809Y-93283333D02*
X74306190Y-93235714D01*
X74210952Y-93092857D01*
X74163333Y-92997619D01*
X74115714Y-92854761D01*
X74068095Y-92616666D01*
X74068095Y-92426190D01*
X74115714Y-92188095D01*
X74163333Y-92045238D01*
X74210952Y-91950000D01*
X74306190Y-91807142D01*
X74353809Y-91759523D01*
X75163333Y-92854761D02*
X75068095Y-92902380D01*
X74877619Y-92902380D01*
X74782380Y-92854761D01*
X74734761Y-92807142D01*
X74687142Y-92711904D01*
X74687142Y-92426190D01*
X74734761Y-92330952D01*
X74782380Y-92283333D01*
X74877619Y-92235714D01*
X75068095Y-92235714D01*
X75163333Y-92283333D01*
X75496666Y-93283333D02*
X75544285Y-93235714D01*
X75639523Y-93092857D01*
X75687142Y-92997619D01*
X75734761Y-92854761D01*
X75782380Y-92616666D01*
X75782380Y-92426190D01*
X75734761Y-92188095D01*
X75687142Y-92045238D01*
X75639523Y-91950000D01*
X75544285Y-91807142D01*
X75496666Y-91759523D01*
X76972857Y-91997619D02*
X77020476Y-91950000D01*
X77115714Y-91902380D01*
X77353809Y-91902380D01*
X77449047Y-91950000D01*
X77496666Y-91997619D01*
X77544285Y-92092857D01*
X77544285Y-92188095D01*
X77496666Y-92330952D01*
X76925238Y-92902380D01*
X77544285Y-92902380D01*
X78163333Y-91902380D02*
X78258571Y-91902380D01*
X78353809Y-91950000D01*
X78401428Y-91997619D01*
X78449047Y-92092857D01*
X78496666Y-92283333D01*
X78496666Y-92521428D01*
X78449047Y-92711904D01*
X78401428Y-92807142D01*
X78353809Y-92854761D01*
X78258571Y-92902380D01*
X78163333Y-92902380D01*
X78068095Y-92854761D01*
X78020476Y-92807142D01*
X77972857Y-92711904D01*
X77925238Y-92521428D01*
X77925238Y-92283333D01*
X77972857Y-92092857D01*
X78020476Y-91997619D01*
X78068095Y-91950000D01*
X78163333Y-91902380D01*
X79449047Y-92902380D02*
X78877619Y-92902380D01*
X79163333Y-92902380D02*
X79163333Y-91902380D01*
X79068095Y-92045238D01*
X78972857Y-92140476D01*
X78877619Y-92188095D01*
X80020476Y-92330952D02*
X79925238Y-92283333D01*
X79877619Y-92235714D01*
X79830000Y-92140476D01*
X79830000Y-92092857D01*
X79877619Y-91997619D01*
X79925238Y-91950000D01*
X80020476Y-91902380D01*
X80210952Y-91902380D01*
X80306190Y-91950000D01*
X80353809Y-91997619D01*
X80401428Y-92092857D01*
X80401428Y-92140476D01*
X80353809Y-92235714D01*
X80306190Y-92283333D01*
X80210952Y-92330952D01*
X80020476Y-92330952D01*
X79925238Y-92378571D01*
X79877619Y-92426190D01*
X79830000Y-92521428D01*
X79830000Y-92711904D01*
X79877619Y-92807142D01*
X79925238Y-92854761D01*
X80020476Y-92902380D01*
X80210952Y-92902380D01*
X80306190Y-92854761D01*
X80353809Y-92807142D01*
X80401428Y-92711904D01*
X80401428Y-92521428D01*
X80353809Y-92426190D01*
X80306190Y-92378571D01*
X80210952Y-92330952D01*
X74020476Y-94554761D02*
X74163333Y-94602380D01*
X74401428Y-94602380D01*
X74496666Y-94554761D01*
X74544285Y-94507142D01*
X74591904Y-94411904D01*
X74591904Y-94316666D01*
X74544285Y-94221428D01*
X74496666Y-94173809D01*
X74401428Y-94126190D01*
X74210952Y-94078571D01*
X74115714Y-94030952D01*
X74068095Y-93983333D01*
X74020476Y-93888095D01*
X74020476Y-93792857D01*
X74068095Y-93697619D01*
X74115714Y-93650000D01*
X74210952Y-93602380D01*
X74449047Y-93602380D01*
X74591904Y-93650000D01*
X74877619Y-93935714D02*
X75258571Y-93935714D01*
X75020476Y-93602380D02*
X75020476Y-94459523D01*
X75068095Y-94554761D01*
X75163333Y-94602380D01*
X75258571Y-94602380D01*
X75972857Y-94554761D02*
X75877619Y-94602380D01*
X75687142Y-94602380D01*
X75591904Y-94554761D01*
X75544285Y-94459523D01*
X75544285Y-94078571D01*
X75591904Y-93983333D01*
X75687142Y-93935714D01*
X75877619Y-93935714D01*
X75972857Y-93983333D01*
X76020476Y-94078571D01*
X76020476Y-94173809D01*
X75544285Y-94269047D01*
X76306190Y-93935714D02*
X76687142Y-93935714D01*
X76449047Y-94602380D02*
X76449047Y-93745238D01*
X76496666Y-93650000D01*
X76591904Y-93602380D01*
X76687142Y-93602380D01*
X77449047Y-94602380D02*
X77449047Y-94078571D01*
X77401428Y-93983333D01*
X77306190Y-93935714D01*
X77115714Y-93935714D01*
X77020476Y-93983333D01*
X77449047Y-94554761D02*
X77353809Y-94602380D01*
X77115714Y-94602380D01*
X77020476Y-94554761D01*
X76972857Y-94459523D01*
X76972857Y-94364285D01*
X77020476Y-94269047D01*
X77115714Y-94221428D01*
X77353809Y-94221428D01*
X77449047Y-94173809D01*
X77925238Y-93935714D02*
X77925238Y-94602380D01*
X77925238Y-94030952D02*
X77972857Y-93983333D01*
X78068095Y-93935714D01*
X78210952Y-93935714D01*
X78306190Y-93983333D01*
X78353809Y-94078571D01*
X78353809Y-94602380D01*
X79544285Y-94316666D02*
X80020476Y-94316666D01*
X79449047Y-94602380D02*
X79782380Y-93602380D01*
X80115714Y-94602380D01*
X80449047Y-93935714D02*
X80449047Y-94602380D01*
X80449047Y-94030952D02*
X80496666Y-93983333D01*
X80591904Y-93935714D01*
X80734761Y-93935714D01*
X80830000Y-93983333D01*
X80877619Y-94078571D01*
X80877619Y-94602380D01*
X81782380Y-94602380D02*
X81782380Y-93602380D01*
X81782380Y-94554761D02*
X81687142Y-94602380D01*
X81496666Y-94602380D01*
X81401428Y-94554761D01*
X81353809Y-94507142D01*
X81306190Y-94411904D01*
X81306190Y-94126190D01*
X81353809Y-94030952D01*
X81401428Y-93983333D01*
X81496666Y-93935714D01*
X81687142Y-93935714D01*
X81782380Y-93983333D01*
X82258571Y-94602380D02*
X82258571Y-93935714D01*
X82258571Y-94126190D02*
X82306190Y-94030952D01*
X82353809Y-93983333D01*
X82449047Y-93935714D01*
X82544285Y-93935714D01*
X83258571Y-94554761D02*
X83163333Y-94602380D01*
X82972857Y-94602380D01*
X82877619Y-94554761D01*
X82830000Y-94459523D01*
X82830000Y-94078571D01*
X82877619Y-93983333D01*
X82972857Y-93935714D01*
X83163333Y-93935714D01*
X83258571Y-93983333D01*
X83306190Y-94078571D01*
X83306190Y-94173809D01*
X82830000Y-94269047D01*
X83734761Y-94602380D02*
X83734761Y-93935714D01*
X83734761Y-93602380D02*
X83687142Y-93650000D01*
X83734761Y-93697619D01*
X83782380Y-93650000D01*
X83734761Y-93602380D01*
X83734761Y-93697619D01*
X85544285Y-94507142D02*
X85496666Y-94554761D01*
X85353809Y-94602380D01*
X85258571Y-94602380D01*
X85115714Y-94554761D01*
X85020476Y-94459523D01*
X84972857Y-94364285D01*
X84925238Y-94173809D01*
X84925238Y-94030952D01*
X84972857Y-93840476D01*
X85020476Y-93745238D01*
X85115714Y-93650000D01*
X85258571Y-93602380D01*
X85353809Y-93602380D01*
X85496666Y-93650000D01*
X85544285Y-93697619D01*
X85972857Y-94602380D02*
X85972857Y-93602380D01*
X86401428Y-94602380D02*
X86401428Y-94078571D01*
X86353809Y-93983333D01*
X86258571Y-93935714D01*
X86115714Y-93935714D01*
X86020476Y-93983333D01*
X85972857Y-94030952D01*
X87258571Y-94554761D02*
X87163333Y-94602380D01*
X86972857Y-94602380D01*
X86877619Y-94554761D01*
X86830000Y-94459523D01*
X86830000Y-94078571D01*
X86877619Y-93983333D01*
X86972857Y-93935714D01*
X87163333Y-93935714D01*
X87258571Y-93983333D01*
X87306190Y-94078571D01*
X87306190Y-94173809D01*
X86830000Y-94269047D01*
X87877619Y-94602380D02*
X87782380Y-94554761D01*
X87734761Y-94459523D01*
X87734761Y-93602380D01*
X88687142Y-94602380D02*
X88687142Y-94078571D01*
X88639523Y-93983333D01*
X88544285Y-93935714D01*
X88353809Y-93935714D01*
X88258571Y-93983333D01*
X88687142Y-94554761D02*
X88591904Y-94602380D01*
X88353809Y-94602380D01*
X88258571Y-94554761D01*
X88210952Y-94459523D01*
X88210952Y-94364285D01*
X88258571Y-94269047D01*
X88353809Y-94221428D01*
X88591904Y-94221428D01*
X88687142Y-94173809D01*
X89163333Y-94602380D02*
X89163333Y-93935714D01*
X89163333Y-94126190D02*
X89210952Y-94030952D01*
X89258571Y-93983333D01*
X89353809Y-93935714D01*
X89449047Y-93935714D01*
X89782380Y-94602380D02*
X89782380Y-93935714D01*
X89782380Y-93602380D02*
X89734761Y-93650000D01*
X89782380Y-93697619D01*
X89830000Y-93650000D01*
X89782380Y-93602380D01*
X89782380Y-93697619D01*
X90687142Y-93935714D02*
X90687142Y-94602380D01*
X90258571Y-93935714D02*
X90258571Y-94459523D01*
X90306190Y-94554761D01*
X90401428Y-94602380D01*
X90544285Y-94602380D01*
X90639523Y-94554761D01*
X90687142Y-94507142D01*
X74538095Y-75352380D02*
X74538095Y-74352380D01*
X75014285Y-75352380D02*
X75014285Y-74685714D01*
X75014285Y-74780952D02*
X75061904Y-74733333D01*
X75157142Y-74685714D01*
X75300000Y-74685714D01*
X75395238Y-74733333D01*
X75442857Y-74828571D01*
X75442857Y-75352380D01*
X75442857Y-74828571D02*
X75490476Y-74733333D01*
X75585714Y-74685714D01*
X75728571Y-74685714D01*
X75823809Y-74733333D01*
X75871428Y-74828571D01*
X75871428Y-75352380D01*
X76347619Y-74685714D02*
X76347619Y-75685714D01*
X76347619Y-74733333D02*
X76442857Y-74685714D01*
X76633333Y-74685714D01*
X76728571Y-74733333D01*
X76776190Y-74780952D01*
X76823809Y-74876190D01*
X76823809Y-75161904D01*
X76776190Y-75257142D01*
X76728571Y-75304761D01*
X76633333Y-75352380D01*
X76442857Y-75352380D01*
X76347619Y-75304761D01*
X77633333Y-75304761D02*
X77538095Y-75352380D01*
X77347619Y-75352380D01*
X77252380Y-75304761D01*
X77204761Y-75209523D01*
X77204761Y-74828571D01*
X77252380Y-74733333D01*
X77347619Y-74685714D01*
X77538095Y-74685714D01*
X77633333Y-74733333D01*
X77680952Y-74828571D01*
X77680952Y-74923809D01*
X77204761Y-75019047D01*
X78538095Y-75352380D02*
X78538095Y-74352380D01*
X78538095Y-75304761D02*
X78442857Y-75352380D01*
X78252380Y-75352380D01*
X78157142Y-75304761D01*
X78109523Y-75257142D01*
X78061904Y-75161904D01*
X78061904Y-74876190D01*
X78109523Y-74780952D01*
X78157142Y-74733333D01*
X78252380Y-74685714D01*
X78442857Y-74685714D01*
X78538095Y-74733333D01*
X79442857Y-75352380D02*
X79442857Y-74828571D01*
X79395238Y-74733333D01*
X79300000Y-74685714D01*
X79109523Y-74685714D01*
X79014285Y-74733333D01*
X79442857Y-75304761D02*
X79347619Y-75352380D01*
X79109523Y-75352380D01*
X79014285Y-75304761D01*
X78966666Y-75209523D01*
X78966666Y-75114285D01*
X79014285Y-75019047D01*
X79109523Y-74971428D01*
X79347619Y-74971428D01*
X79442857Y-74923809D01*
X79919047Y-74685714D02*
X79919047Y-75352380D01*
X79919047Y-74780952D02*
X79966666Y-74733333D01*
X80061904Y-74685714D01*
X80204761Y-74685714D01*
X80300000Y-74733333D01*
X80347619Y-74828571D01*
X80347619Y-75352380D01*
X81252380Y-75304761D02*
X81157142Y-75352380D01*
X80966666Y-75352380D01*
X80871428Y-75304761D01*
X80823809Y-75257142D01*
X80776190Y-75161904D01*
X80776190Y-74876190D01*
X80823809Y-74780952D01*
X80871428Y-74733333D01*
X80966666Y-74685714D01*
X81157142Y-74685714D01*
X81252380Y-74733333D01*
X82061904Y-75304761D02*
X81966666Y-75352380D01*
X81776190Y-75352380D01*
X81680952Y-75304761D01*
X81633333Y-75209523D01*
X81633333Y-74828571D01*
X81680952Y-74733333D01*
X81776190Y-74685714D01*
X81966666Y-74685714D01*
X82061904Y-74733333D01*
X82109523Y-74828571D01*
X82109523Y-74923809D01*
X81633333Y-75019047D01*
X83252380Y-75066666D02*
X83728571Y-75066666D01*
X83157142Y-75352380D02*
X83490476Y-74352380D01*
X83823809Y-75352380D01*
X84157142Y-74685714D02*
X84157142Y-75352380D01*
X84157142Y-74780952D02*
X84204761Y-74733333D01*
X84300000Y-74685714D01*
X84442857Y-74685714D01*
X84538095Y-74733333D01*
X84585714Y-74828571D01*
X84585714Y-75352380D01*
X85490476Y-75352380D02*
X85490476Y-74828571D01*
X85442857Y-74733333D01*
X85347619Y-74685714D01*
X85157142Y-74685714D01*
X85061904Y-74733333D01*
X85490476Y-75304761D02*
X85395238Y-75352380D01*
X85157142Y-75352380D01*
X85061904Y-75304761D01*
X85014285Y-75209523D01*
X85014285Y-75114285D01*
X85061904Y-75019047D01*
X85157142Y-74971428D01*
X85395238Y-74971428D01*
X85490476Y-74923809D01*
X86109523Y-75352380D02*
X86014285Y-75304761D01*
X85966666Y-75209523D01*
X85966666Y-74352380D01*
X86395238Y-74685714D02*
X86633333Y-75352380D01*
X86871428Y-74685714D02*
X86633333Y-75352380D01*
X86538095Y-75590476D01*
X86490476Y-75638095D01*
X86395238Y-75685714D01*
X87157142Y-74685714D02*
X87680952Y-74685714D01*
X87157142Y-75352380D01*
X87680952Y-75352380D01*
X88442857Y-75304761D02*
X88347619Y-75352380D01*
X88157142Y-75352380D01*
X88061904Y-75304761D01*
X88014285Y-75209523D01*
X88014285Y-74828571D01*
X88061904Y-74733333D01*
X88157142Y-74685714D01*
X88347619Y-74685714D01*
X88442857Y-74733333D01*
X88490476Y-74828571D01*
X88490476Y-74923809D01*
X88014285Y-75019047D01*
X88919047Y-75352380D02*
X88919047Y-74685714D01*
X88919047Y-74876190D02*
X88966666Y-74780952D01*
X89014285Y-74733333D01*
X89109523Y-74685714D01*
X89204761Y-74685714D01*
D11*
G04 #@! TO.C,R11*
X81038748Y-90190000D02*
X81561252Y-90190000D01*
X81038748Y-91610000D02*
X81561252Y-91610000D01*
D12*
G04 #@! TO.C,U3*
X105600000Y-76500000D02*
X105600000Y-76600000D01*
X105625000Y-82025000D02*
X105625000Y-82000000D01*
X100975000Y-82025000D02*
X100975000Y-82000000D01*
X99900000Y-76500000D02*
X105600000Y-76500000D01*
X100975000Y-82025000D02*
X105625000Y-82025000D01*
D11*
G04 #@! TO.C,C1*
X80290000Y-79761252D02*
X80290000Y-79238748D01*
X81710000Y-79761252D02*
X81710000Y-79238748D01*
G04 #@! TO.C,C2*
X91910000Y-79761252D02*
X91910000Y-79238748D01*
X90490000Y-79761252D02*
X90490000Y-79238748D01*
G04 #@! TO.C,C3*
X96338748Y-83090000D02*
X96861252Y-83090000D01*
X96338748Y-84510000D02*
X96861252Y-84510000D01*
G04 #@! TO.C,C4*
X86761252Y-85990000D02*
X86238748Y-85990000D01*
X86761252Y-87410000D02*
X86238748Y-87410000D01*
G04 #@! TO.C,C5*
X110110000Y-90563748D02*
X110110000Y-91086252D01*
X108690000Y-90563748D02*
X108690000Y-91086252D01*
G04 #@! TO.C,C6*
X111861252Y-78090000D02*
X111338748Y-78090000D01*
X111861252Y-79510000D02*
X111338748Y-79510000D01*
G04 #@! TO.C,J1*
X74970000Y-91490000D02*
X77630000Y-91490000D01*
X74970000Y-81270000D02*
X74970000Y-91490000D01*
X77630000Y-81270000D02*
X77630000Y-91490000D01*
X74970000Y-81270000D02*
X77630000Y-81270000D01*
X74970000Y-80000000D02*
X74970000Y-78670000D01*
X74970000Y-78670000D02*
X76300000Y-78670000D01*
G04 #@! TO.C,J2*
X115770000Y-78670000D02*
X117100000Y-78670000D01*
X115770000Y-80000000D02*
X115770000Y-78670000D01*
X115770000Y-81270000D02*
X118430000Y-81270000D01*
X118430000Y-81270000D02*
X118430000Y-91490000D01*
X115770000Y-81270000D02*
X115770000Y-91490000D01*
X115770000Y-91490000D02*
X118430000Y-91490000D01*
G04 #@! TO.C,R1*
X110890000Y-84638748D02*
X110890000Y-85161252D01*
X112310000Y-84638748D02*
X112310000Y-85161252D01*
G04 #@! TO.C,R2*
X114510000Y-84638748D02*
X114510000Y-85161252D01*
X113090000Y-84638748D02*
X113090000Y-85161252D01*
G04 #@! TO.C,R3*
X92238748Y-84510000D02*
X92761252Y-84510000D01*
X92238748Y-83090000D02*
X92761252Y-83090000D01*
G04 #@! TO.C,R4*
X96790000Y-80961252D02*
X96790000Y-80438748D01*
X98210000Y-80961252D02*
X98210000Y-80438748D01*
G04 #@! TO.C,R5*
X108690000Y-84638748D02*
X108690000Y-85161252D01*
X110110000Y-84638748D02*
X110110000Y-85161252D01*
G04 #@! TO.C,R6*
X92138748Y-85290000D02*
X92661252Y-85290000D01*
X92138748Y-86710000D02*
X92661252Y-86710000D01*
G04 #@! TO.C,R7*
X96410000Y-87161252D02*
X96410000Y-86638748D01*
X94990000Y-87161252D02*
X94990000Y-86638748D01*
G04 #@! TO.C,R8*
X94990000Y-91161252D02*
X94990000Y-90638748D01*
X96410000Y-91161252D02*
X96410000Y-90638748D01*
G04 #@! TO.C,R9*
X98838748Y-92810000D02*
X99361252Y-92810000D01*
X98838748Y-91390000D02*
X99361252Y-91390000D01*
G04 #@! TO.C,R10*
X99361252Y-90610000D02*
X98838748Y-90610000D01*
X99361252Y-89190000D02*
X98838748Y-89190000D01*
D12*
G04 #@! TO.C,U1*
X88175000Y-81175000D02*
X88175000Y-81125000D01*
X84025000Y-81175000D02*
X84025000Y-81030000D01*
X84025000Y-76025000D02*
X84025000Y-76170000D01*
X88175000Y-76025000D02*
X88175000Y-76170000D01*
X88175000Y-81175000D02*
X84025000Y-81175000D01*
X88175000Y-76025000D02*
X84025000Y-76025000D01*
X88175000Y-81125000D02*
X89575000Y-81125000D01*
G04 #@! TO.C,U2*
X88125000Y-88175000D02*
X86725000Y-88175000D01*
X88125000Y-93275000D02*
X92275000Y-93275000D01*
X88125000Y-88125000D02*
X92275000Y-88125000D01*
X88125000Y-93275000D02*
X88125000Y-93130000D01*
X92275000Y-93275000D02*
X92275000Y-93130000D01*
X92275000Y-88125000D02*
X92275000Y-88270000D01*
X88125000Y-88125000D02*
X88125000Y-88175000D01*
D11*
G04 #@! TO.C,U4*
X104900000Y-92510000D02*
X106700000Y-92510000D01*
X106700000Y-89290000D02*
X104250000Y-89290000D01*
G04 #@! TO.C,X1*
X107050000Y-85000000D02*
X106000000Y-85000000D01*
X106000000Y-85000000D02*
X106000000Y-86200000D01*
X100600000Y-86200000D02*
X100600000Y-85000000D01*
X104400000Y-87400000D02*
X102200000Y-87400000D01*
X102200000Y-83800000D02*
X104400000Y-83800000D01*
X104400000Y-83800000D02*
X104400000Y-82800000D01*
D13*
G04 #@! TO.C,REF\002A\002A*
G36*
X113603910Y-89442348D02*
X113682454Y-89442778D01*
X113739298Y-89443942D01*
X113778105Y-89446207D01*
X113802538Y-89449940D01*
X113816262Y-89455506D01*
X113822940Y-89463273D01*
X113826236Y-89473605D01*
X113826556Y-89474943D01*
X113831562Y-89499079D01*
X113840829Y-89546701D01*
X113853392Y-89612741D01*
X113868287Y-89692128D01*
X113884551Y-89779796D01*
X113885119Y-89782875D01*
X113901410Y-89868789D01*
X113916652Y-89944696D01*
X113929861Y-90006045D01*
X113940054Y-90048282D01*
X113946248Y-90066855D01*
X113946543Y-90067184D01*
X113964788Y-90076253D01*
X114002405Y-90091367D01*
X114051271Y-90109262D01*
X114051543Y-90109358D01*
X114113093Y-90132493D01*
X114185657Y-90161965D01*
X114254057Y-90191597D01*
X114257294Y-90193062D01*
X114368702Y-90243626D01*
X114615399Y-90075160D01*
X114691077Y-90023803D01*
X114759631Y-89977889D01*
X114817088Y-89940030D01*
X114859476Y-89912837D01*
X114882825Y-89898921D01*
X114885042Y-89897889D01*
X114902010Y-89902484D01*
X114933701Y-89924655D01*
X114981352Y-89965447D01*
X115046198Y-90025905D01*
X115112397Y-90090227D01*
X115176214Y-90153612D01*
X115233329Y-90211451D01*
X115280305Y-90260175D01*
X115313703Y-90296210D01*
X115330085Y-90315984D01*
X115330694Y-90317002D01*
X115332505Y-90330572D01*
X115325683Y-90352733D01*
X115308540Y-90386478D01*
X115279393Y-90434800D01*
X115236555Y-90500692D01*
X115179448Y-90585517D01*
X115128766Y-90660177D01*
X115083461Y-90727140D01*
X115046150Y-90782516D01*
X115019452Y-90822420D01*
X115005985Y-90842962D01*
X115005137Y-90844356D01*
X115006781Y-90864038D01*
X115019245Y-90902293D01*
X115040048Y-90951889D01*
X115047462Y-90967728D01*
X115079814Y-91038290D01*
X115114328Y-91118353D01*
X115142365Y-91187629D01*
X115162568Y-91239045D01*
X115178615Y-91278119D01*
X115187888Y-91298541D01*
X115189041Y-91300114D01*
X115206096Y-91302721D01*
X115246298Y-91309863D01*
X115304302Y-91320523D01*
X115374763Y-91333685D01*
X115452335Y-91348333D01*
X115531672Y-91363449D01*
X115607431Y-91378018D01*
X115674264Y-91391022D01*
X115726828Y-91401445D01*
X115759776Y-91408270D01*
X115767857Y-91410199D01*
X115776205Y-91414962D01*
X115782506Y-91425718D01*
X115787045Y-91446098D01*
X115790104Y-91479734D01*
X115791967Y-91530255D01*
X115792918Y-91601292D01*
X115793240Y-91696476D01*
X115793257Y-91735492D01*
X115793257Y-92052799D01*
X115717057Y-92067839D01*
X115674663Y-92075995D01*
X115611400Y-92087899D01*
X115534962Y-92102116D01*
X115453043Y-92117210D01*
X115430400Y-92121355D01*
X115354806Y-92136053D01*
X115288953Y-92150505D01*
X115238366Y-92163375D01*
X115208574Y-92173322D01*
X115203612Y-92176287D01*
X115191426Y-92197283D01*
X115173953Y-92237967D01*
X115154577Y-92290322D01*
X115150734Y-92301600D01*
X115125339Y-92371523D01*
X115093817Y-92450418D01*
X115062969Y-92521266D01*
X115062817Y-92521595D01*
X115011447Y-92632733D01*
X115180399Y-92881253D01*
X115349352Y-93129772D01*
X115132429Y-93347058D01*
X115066819Y-93411726D01*
X115006979Y-93468733D01*
X114956267Y-93515033D01*
X114918046Y-93547584D01*
X114895675Y-93563343D01*
X114892466Y-93564343D01*
X114873626Y-93556469D01*
X114835180Y-93534578D01*
X114781330Y-93501267D01*
X114716276Y-93459131D01*
X114645940Y-93411943D01*
X114574555Y-93363810D01*
X114510908Y-93321928D01*
X114459041Y-93288871D01*
X114422995Y-93267218D01*
X114406867Y-93259543D01*
X114387189Y-93266037D01*
X114349875Y-93283150D01*
X114302621Y-93307326D01*
X114297612Y-93310013D01*
X114233977Y-93341927D01*
X114190341Y-93357579D01*
X114163202Y-93357745D01*
X114149057Y-93343204D01*
X114148975Y-93343000D01*
X114141905Y-93325779D01*
X114125042Y-93284899D01*
X114099695Y-93223525D01*
X114067171Y-93144819D01*
X114028778Y-93051947D01*
X113985822Y-92948072D01*
X113944222Y-92847502D01*
X113898504Y-92736516D01*
X113856526Y-92633703D01*
X113819548Y-92542215D01*
X113788827Y-92465201D01*
X113765622Y-92405815D01*
X113751190Y-92367209D01*
X113746743Y-92352800D01*
X113757896Y-92336272D01*
X113787069Y-92309930D01*
X113825971Y-92280887D01*
X113936757Y-92189039D01*
X114023351Y-92083759D01*
X114084716Y-91967266D01*
X114119815Y-91841776D01*
X114127608Y-91709507D01*
X114121943Y-91648457D01*
X114091078Y-91521795D01*
X114037920Y-91409941D01*
X113965767Y-91314001D01*
X113877917Y-91235076D01*
X113777665Y-91174270D01*
X113668310Y-91132687D01*
X113553147Y-91111428D01*
X113435475Y-91111599D01*
X113318590Y-91134301D01*
X113205789Y-91180638D01*
X113100369Y-91251713D01*
X113056368Y-91291911D01*
X112971979Y-91395129D01*
X112913222Y-91507925D01*
X112879704Y-91627010D01*
X112871035Y-91749095D01*
X112886823Y-91870893D01*
X112926678Y-91989116D01*
X112990207Y-92100475D01*
X113077021Y-92201684D01*
X113174029Y-92280887D01*
X113214437Y-92311162D01*
X113242982Y-92337219D01*
X113253257Y-92352825D01*
X113247877Y-92369843D01*
X113232575Y-92410500D01*
X113208612Y-92471642D01*
X113177244Y-92550119D01*
X113139732Y-92642780D01*
X113097333Y-92746472D01*
X113055663Y-92847526D01*
X113009690Y-92958607D01*
X112967107Y-93061541D01*
X112929221Y-93153165D01*
X112897340Y-93230316D01*
X112872771Y-93289831D01*
X112856820Y-93328544D01*
X112850910Y-93343000D01*
X112836948Y-93357685D01*
X112809940Y-93357642D01*
X112766413Y-93342099D01*
X112702890Y-93310284D01*
X112702388Y-93310013D01*
X112654560Y-93285323D01*
X112615897Y-93267338D01*
X112594095Y-93259614D01*
X112593133Y-93259543D01*
X112576721Y-93267378D01*
X112540487Y-93289165D01*
X112488474Y-93322328D01*
X112424725Y-93364291D01*
X112354060Y-93411943D01*
X112282116Y-93460191D01*
X112217274Y-93502151D01*
X112163735Y-93535227D01*
X112125697Y-93556821D01*
X112107533Y-93564343D01*
X112090808Y-93554457D01*
X112057180Y-93526826D01*
X112010010Y-93484495D01*
X111952658Y-93430505D01*
X111888484Y-93367899D01*
X111867497Y-93346983D01*
X111650499Y-93129623D01*
X111815668Y-92887220D01*
X111865864Y-92812781D01*
X111909919Y-92745972D01*
X111945362Y-92690665D01*
X111969719Y-92650729D01*
X111980522Y-92630036D01*
X111980838Y-92628563D01*
X111975143Y-92609058D01*
X111959826Y-92569822D01*
X111937537Y-92517430D01*
X111921893Y-92482355D01*
X111892641Y-92415201D01*
X111865094Y-92347358D01*
X111843737Y-92290034D01*
X111837935Y-92272572D01*
X111821452Y-92225938D01*
X111805340Y-92189905D01*
X111796490Y-92176287D01*
X111776960Y-92167952D01*
X111734334Y-92156137D01*
X111674145Y-92142181D01*
X111601922Y-92127422D01*
X111569600Y-92121355D01*
X111487522Y-92106273D01*
X111408795Y-92091669D01*
X111341109Y-92078980D01*
X111292160Y-92069642D01*
X111282943Y-92067839D01*
X111206743Y-92052799D01*
X111206743Y-91735492D01*
X111206914Y-91631154D01*
X111207616Y-91552213D01*
X111209134Y-91495038D01*
X111211749Y-91455999D01*
X111215746Y-91431465D01*
X111221409Y-91417805D01*
X111229020Y-91411389D01*
X111232143Y-91410199D01*
X111250978Y-91405980D01*
X111292588Y-91397562D01*
X111351630Y-91385961D01*
X111422757Y-91372195D01*
X111500625Y-91357280D01*
X111579887Y-91342232D01*
X111655198Y-91328069D01*
X111721213Y-91315806D01*
X111772587Y-91306461D01*
X111803975Y-91301050D01*
X111810959Y-91300114D01*
X111817285Y-91287596D01*
X111831290Y-91254246D01*
X111850355Y-91206377D01*
X111857634Y-91187629D01*
X111886996Y-91115195D01*
X111921571Y-91035170D01*
X111952537Y-90967728D01*
X111975323Y-90916159D01*
X111990482Y-90873785D01*
X111995542Y-90847834D01*
X111994736Y-90844356D01*
X111984041Y-90827936D01*
X111959620Y-90791417D01*
X111924095Y-90738687D01*
X111880087Y-90673635D01*
X111830217Y-90600151D01*
X111820356Y-90585645D01*
X111762492Y-90499704D01*
X111719956Y-90434261D01*
X111691054Y-90386304D01*
X111674090Y-90352820D01*
X111667367Y-90330795D01*
X111669190Y-90317217D01*
X111669236Y-90317131D01*
X111683586Y-90299297D01*
X111715323Y-90264817D01*
X111761010Y-90217268D01*
X111817204Y-90160222D01*
X111880468Y-90097255D01*
X111887602Y-90090227D01*
X111967330Y-90013020D01*
X112028857Y-89956330D01*
X112073421Y-89919110D01*
X112102257Y-89900315D01*
X112114958Y-89897889D01*
X112133494Y-89908471D01*
X112171961Y-89932916D01*
X112226386Y-89968612D01*
X112292798Y-90012947D01*
X112367225Y-90063311D01*
X112384601Y-90075160D01*
X112631297Y-90243626D01*
X112742706Y-90193062D01*
X112810457Y-90163595D01*
X112883183Y-90133959D01*
X112945703Y-90110330D01*
X112948457Y-90109358D01*
X112997360Y-90091457D01*
X113035057Y-90076320D01*
X113053425Y-90067210D01*
X113053456Y-90067184D01*
X113059285Y-90050717D01*
X113069192Y-90010219D01*
X113082195Y-89950242D01*
X113097309Y-89875340D01*
X113113552Y-89790064D01*
X113114881Y-89782875D01*
X113131175Y-89695014D01*
X113146133Y-89615260D01*
X113158791Y-89548681D01*
X113168186Y-89500347D01*
X113173354Y-89475325D01*
X113173444Y-89474943D01*
X113176589Y-89464299D01*
X113182704Y-89456262D01*
X113195453Y-89450467D01*
X113218500Y-89446547D01*
X113255509Y-89444135D01*
X113310144Y-89442865D01*
X113386067Y-89442371D01*
X113486944Y-89442286D01*
X113500000Y-89442286D01*
X113603910Y-89442348D01*
X113603910Y-89442348D01*
G37*
X113603910Y-89442348D02*
X113682454Y-89442778D01*
X113739298Y-89443942D01*
X113778105Y-89446207D01*
X113802538Y-89449940D01*
X113816262Y-89455506D01*
X113822940Y-89463273D01*
X113826236Y-89473605D01*
X113826556Y-89474943D01*
X113831562Y-89499079D01*
X113840829Y-89546701D01*
X113853392Y-89612741D01*
X113868287Y-89692128D01*
X113884551Y-89779796D01*
X113885119Y-89782875D01*
X113901410Y-89868789D01*
X113916652Y-89944696D01*
X113929861Y-90006045D01*
X113940054Y-90048282D01*
X113946248Y-90066855D01*
X113946543Y-90067184D01*
X113964788Y-90076253D01*
X114002405Y-90091367D01*
X114051271Y-90109262D01*
X114051543Y-90109358D01*
X114113093Y-90132493D01*
X114185657Y-90161965D01*
X114254057Y-90191597D01*
X114257294Y-90193062D01*
X114368702Y-90243626D01*
X114615399Y-90075160D01*
X114691077Y-90023803D01*
X114759631Y-89977889D01*
X114817088Y-89940030D01*
X114859476Y-89912837D01*
X114882825Y-89898921D01*
X114885042Y-89897889D01*
X114902010Y-89902484D01*
X114933701Y-89924655D01*
X114981352Y-89965447D01*
X115046198Y-90025905D01*
X115112397Y-90090227D01*
X115176214Y-90153612D01*
X115233329Y-90211451D01*
X115280305Y-90260175D01*
X115313703Y-90296210D01*
X115330085Y-90315984D01*
X115330694Y-90317002D01*
X115332505Y-90330572D01*
X115325683Y-90352733D01*
X115308540Y-90386478D01*
X115279393Y-90434800D01*
X115236555Y-90500692D01*
X115179448Y-90585517D01*
X115128766Y-90660177D01*
X115083461Y-90727140D01*
X115046150Y-90782516D01*
X115019452Y-90822420D01*
X115005985Y-90842962D01*
X115005137Y-90844356D01*
X115006781Y-90864038D01*
X115019245Y-90902293D01*
X115040048Y-90951889D01*
X115047462Y-90967728D01*
X115079814Y-91038290D01*
X115114328Y-91118353D01*
X115142365Y-91187629D01*
X115162568Y-91239045D01*
X115178615Y-91278119D01*
X115187888Y-91298541D01*
X115189041Y-91300114D01*
X115206096Y-91302721D01*
X115246298Y-91309863D01*
X115304302Y-91320523D01*
X115374763Y-91333685D01*
X115452335Y-91348333D01*
X115531672Y-91363449D01*
X115607431Y-91378018D01*
X115674264Y-91391022D01*
X115726828Y-91401445D01*
X115759776Y-91408270D01*
X115767857Y-91410199D01*
X115776205Y-91414962D01*
X115782506Y-91425718D01*
X115787045Y-91446098D01*
X115790104Y-91479734D01*
X115791967Y-91530255D01*
X115792918Y-91601292D01*
X115793240Y-91696476D01*
X115793257Y-91735492D01*
X115793257Y-92052799D01*
X115717057Y-92067839D01*
X115674663Y-92075995D01*
X115611400Y-92087899D01*
X115534962Y-92102116D01*
X115453043Y-92117210D01*
X115430400Y-92121355D01*
X115354806Y-92136053D01*
X115288953Y-92150505D01*
X115238366Y-92163375D01*
X115208574Y-92173322D01*
X115203612Y-92176287D01*
X115191426Y-92197283D01*
X115173953Y-92237967D01*
X115154577Y-92290322D01*
X115150734Y-92301600D01*
X115125339Y-92371523D01*
X115093817Y-92450418D01*
X115062969Y-92521266D01*
X115062817Y-92521595D01*
X115011447Y-92632733D01*
X115180399Y-92881253D01*
X115349352Y-93129772D01*
X115132429Y-93347058D01*
X115066819Y-93411726D01*
X115006979Y-93468733D01*
X114956267Y-93515033D01*
X114918046Y-93547584D01*
X114895675Y-93563343D01*
X114892466Y-93564343D01*
X114873626Y-93556469D01*
X114835180Y-93534578D01*
X114781330Y-93501267D01*
X114716276Y-93459131D01*
X114645940Y-93411943D01*
X114574555Y-93363810D01*
X114510908Y-93321928D01*
X114459041Y-93288871D01*
X114422995Y-93267218D01*
X114406867Y-93259543D01*
X114387189Y-93266037D01*
X114349875Y-93283150D01*
X114302621Y-93307326D01*
X114297612Y-93310013D01*
X114233977Y-93341927D01*
X114190341Y-93357579D01*
X114163202Y-93357745D01*
X114149057Y-93343204D01*
X114148975Y-93343000D01*
X114141905Y-93325779D01*
X114125042Y-93284899D01*
X114099695Y-93223525D01*
X114067171Y-93144819D01*
X114028778Y-93051947D01*
X113985822Y-92948072D01*
X113944222Y-92847502D01*
X113898504Y-92736516D01*
X113856526Y-92633703D01*
X113819548Y-92542215D01*
X113788827Y-92465201D01*
X113765622Y-92405815D01*
X113751190Y-92367209D01*
X113746743Y-92352800D01*
X113757896Y-92336272D01*
X113787069Y-92309930D01*
X113825971Y-92280887D01*
X113936757Y-92189039D01*
X114023351Y-92083759D01*
X114084716Y-91967266D01*
X114119815Y-91841776D01*
X114127608Y-91709507D01*
X114121943Y-91648457D01*
X114091078Y-91521795D01*
X114037920Y-91409941D01*
X113965767Y-91314001D01*
X113877917Y-91235076D01*
X113777665Y-91174270D01*
X113668310Y-91132687D01*
X113553147Y-91111428D01*
X113435475Y-91111599D01*
X113318590Y-91134301D01*
X113205789Y-91180638D01*
X113100369Y-91251713D01*
X113056368Y-91291911D01*
X112971979Y-91395129D01*
X112913222Y-91507925D01*
X112879704Y-91627010D01*
X112871035Y-91749095D01*
X112886823Y-91870893D01*
X112926678Y-91989116D01*
X112990207Y-92100475D01*
X113077021Y-92201684D01*
X113174029Y-92280887D01*
X113214437Y-92311162D01*
X113242982Y-92337219D01*
X113253257Y-92352825D01*
X113247877Y-92369843D01*
X113232575Y-92410500D01*
X113208612Y-92471642D01*
X113177244Y-92550119D01*
X113139732Y-92642780D01*
X113097333Y-92746472D01*
X113055663Y-92847526D01*
X113009690Y-92958607D01*
X112967107Y-93061541D01*
X112929221Y-93153165D01*
X112897340Y-93230316D01*
X112872771Y-93289831D01*
X112856820Y-93328544D01*
X112850910Y-93343000D01*
X112836948Y-93357685D01*
X112809940Y-93357642D01*
X112766413Y-93342099D01*
X112702890Y-93310284D01*
X112702388Y-93310013D01*
X112654560Y-93285323D01*
X112615897Y-93267338D01*
X112594095Y-93259614D01*
X112593133Y-93259543D01*
X112576721Y-93267378D01*
X112540487Y-93289165D01*
X112488474Y-93322328D01*
X112424725Y-93364291D01*
X112354060Y-93411943D01*
X112282116Y-93460191D01*
X112217274Y-93502151D01*
X112163735Y-93535227D01*
X112125697Y-93556821D01*
X112107533Y-93564343D01*
X112090808Y-93554457D01*
X112057180Y-93526826D01*
X112010010Y-93484495D01*
X111952658Y-93430505D01*
X111888484Y-93367899D01*
X111867497Y-93346983D01*
X111650499Y-93129623D01*
X111815668Y-92887220D01*
X111865864Y-92812781D01*
X111909919Y-92745972D01*
X111945362Y-92690665D01*
X111969719Y-92650729D01*
X111980522Y-92630036D01*
X111980838Y-92628563D01*
X111975143Y-92609058D01*
X111959826Y-92569822D01*
X111937537Y-92517430D01*
X111921893Y-92482355D01*
X111892641Y-92415201D01*
X111865094Y-92347358D01*
X111843737Y-92290034D01*
X111837935Y-92272572D01*
X111821452Y-92225938D01*
X111805340Y-92189905D01*
X111796490Y-92176287D01*
X111776960Y-92167952D01*
X111734334Y-92156137D01*
X111674145Y-92142181D01*
X111601922Y-92127422D01*
X111569600Y-92121355D01*
X111487522Y-92106273D01*
X111408795Y-92091669D01*
X111341109Y-92078980D01*
X111292160Y-92069642D01*
X111282943Y-92067839D01*
X111206743Y-92052799D01*
X111206743Y-91735492D01*
X111206914Y-91631154D01*
X111207616Y-91552213D01*
X111209134Y-91495038D01*
X111211749Y-91455999D01*
X111215746Y-91431465D01*
X111221409Y-91417805D01*
X111229020Y-91411389D01*
X111232143Y-91410199D01*
X111250978Y-91405980D01*
X111292588Y-91397562D01*
X111351630Y-91385961D01*
X111422757Y-91372195D01*
X111500625Y-91357280D01*
X111579887Y-91342232D01*
X111655198Y-91328069D01*
X111721213Y-91315806D01*
X111772587Y-91306461D01*
X111803975Y-91301050D01*
X111810959Y-91300114D01*
X111817285Y-91287596D01*
X111831290Y-91254246D01*
X111850355Y-91206377D01*
X111857634Y-91187629D01*
X111886996Y-91115195D01*
X111921571Y-91035170D01*
X111952537Y-90967728D01*
X111975323Y-90916159D01*
X111990482Y-90873785D01*
X111995542Y-90847834D01*
X111994736Y-90844356D01*
X111984041Y-90827936D01*
X111959620Y-90791417D01*
X111924095Y-90738687D01*
X111880087Y-90673635D01*
X111830217Y-90600151D01*
X111820356Y-90585645D01*
X111762492Y-90499704D01*
X111719956Y-90434261D01*
X111691054Y-90386304D01*
X111674090Y-90352820D01*
X111667367Y-90330795D01*
X111669190Y-90317217D01*
X111669236Y-90317131D01*
X111683586Y-90299297D01*
X111715323Y-90264817D01*
X111761010Y-90217268D01*
X111817204Y-90160222D01*
X111880468Y-90097255D01*
X111887602Y-90090227D01*
X111967330Y-90013020D01*
X112028857Y-89956330D01*
X112073421Y-89919110D01*
X112102257Y-89900315D01*
X112114958Y-89897889D01*
X112133494Y-89908471D01*
X112171961Y-89932916D01*
X112226386Y-89968612D01*
X112292798Y-90012947D01*
X112367225Y-90063311D01*
X112384601Y-90075160D01*
X112631297Y-90243626D01*
X112742706Y-90193062D01*
X112810457Y-90163595D01*
X112883183Y-90133959D01*
X112945703Y-90110330D01*
X112948457Y-90109358D01*
X112997360Y-90091457D01*
X113035057Y-90076320D01*
X113053425Y-90067210D01*
X113053456Y-90067184D01*
X113059285Y-90050717D01*
X113069192Y-90010219D01*
X113082195Y-89950242D01*
X113097309Y-89875340D01*
X113113552Y-89790064D01*
X113114881Y-89782875D01*
X113131175Y-89695014D01*
X113146133Y-89615260D01*
X113158791Y-89548681D01*
X113168186Y-89500347D01*
X113173354Y-89475325D01*
X113173444Y-89474943D01*
X113176589Y-89464299D01*
X113182704Y-89456262D01*
X113195453Y-89450467D01*
X113218500Y-89446547D01*
X113255509Y-89444135D01*
X113310144Y-89442865D01*
X113386067Y-89442371D01*
X113486944Y-89442286D01*
X113500000Y-89442286D01*
X113603910Y-89442348D01*
G36*
X116653595Y-94166966D02*
X116711021Y-94204497D01*
X116738719Y-94238096D01*
X116760662Y-94299064D01*
X116762405Y-94347308D01*
X116758457Y-94411816D01*
X116609686Y-94476934D01*
X116537349Y-94510202D01*
X116490084Y-94536964D01*
X116465507Y-94560144D01*
X116461237Y-94582667D01*
X116474889Y-94607455D01*
X116489943Y-94623886D01*
X116533746Y-94650235D01*
X116581389Y-94652081D01*
X116625145Y-94631546D01*
X116657289Y-94590752D01*
X116663038Y-94576347D01*
X116690576Y-94531356D01*
X116722258Y-94512182D01*
X116765714Y-94495779D01*
X116765714Y-94557966D01*
X116761872Y-94600283D01*
X116746823Y-94635969D01*
X116715280Y-94676943D01*
X116710592Y-94682267D01*
X116675506Y-94718720D01*
X116645347Y-94738283D01*
X116607615Y-94747283D01*
X116576335Y-94750230D01*
X116520385Y-94750965D01*
X116480555Y-94741660D01*
X116455708Y-94727846D01*
X116416656Y-94697467D01*
X116389625Y-94664613D01*
X116372517Y-94623294D01*
X116363238Y-94567521D01*
X116359693Y-94491305D01*
X116359410Y-94452622D01*
X116360372Y-94406247D01*
X116448007Y-94406247D01*
X116449023Y-94431126D01*
X116451556Y-94435200D01*
X116468274Y-94429665D01*
X116504249Y-94415017D01*
X116552331Y-94394190D01*
X116562386Y-94389714D01*
X116623152Y-94358814D01*
X116656632Y-94331657D01*
X116663990Y-94306220D01*
X116646391Y-94280481D01*
X116631856Y-94269109D01*
X116579410Y-94246364D01*
X116530322Y-94250122D01*
X116489227Y-94277884D01*
X116460758Y-94327152D01*
X116451631Y-94366257D01*
X116448007Y-94406247D01*
X116360372Y-94406247D01*
X116361285Y-94362249D01*
X116368196Y-94295384D01*
X116381884Y-94246695D01*
X116404096Y-94210849D01*
X116436574Y-94182513D01*
X116450733Y-94173355D01*
X116515053Y-94149507D01*
X116585473Y-94148006D01*
X116653595Y-94166966D01*
X116653595Y-94166966D01*
G37*
X116653595Y-94166966D02*
X116711021Y-94204497D01*
X116738719Y-94238096D01*
X116760662Y-94299064D01*
X116762405Y-94347308D01*
X116758457Y-94411816D01*
X116609686Y-94476934D01*
X116537349Y-94510202D01*
X116490084Y-94536964D01*
X116465507Y-94560144D01*
X116461237Y-94582667D01*
X116474889Y-94607455D01*
X116489943Y-94623886D01*
X116533746Y-94650235D01*
X116581389Y-94652081D01*
X116625145Y-94631546D01*
X116657289Y-94590752D01*
X116663038Y-94576347D01*
X116690576Y-94531356D01*
X116722258Y-94512182D01*
X116765714Y-94495779D01*
X116765714Y-94557966D01*
X116761872Y-94600283D01*
X116746823Y-94635969D01*
X116715280Y-94676943D01*
X116710592Y-94682267D01*
X116675506Y-94718720D01*
X116645347Y-94738283D01*
X116607615Y-94747283D01*
X116576335Y-94750230D01*
X116520385Y-94750965D01*
X116480555Y-94741660D01*
X116455708Y-94727846D01*
X116416656Y-94697467D01*
X116389625Y-94664613D01*
X116372517Y-94623294D01*
X116363238Y-94567521D01*
X116359693Y-94491305D01*
X116359410Y-94452622D01*
X116360372Y-94406247D01*
X116448007Y-94406247D01*
X116449023Y-94431126D01*
X116451556Y-94435200D01*
X116468274Y-94429665D01*
X116504249Y-94415017D01*
X116552331Y-94394190D01*
X116562386Y-94389714D01*
X116623152Y-94358814D01*
X116656632Y-94331657D01*
X116663990Y-94306220D01*
X116646391Y-94280481D01*
X116631856Y-94269109D01*
X116579410Y-94246364D01*
X116530322Y-94250122D01*
X116489227Y-94277884D01*
X116460758Y-94327152D01*
X116451631Y-94366257D01*
X116448007Y-94406247D01*
X116360372Y-94406247D01*
X116361285Y-94362249D01*
X116368196Y-94295384D01*
X116381884Y-94246695D01*
X116404096Y-94210849D01*
X116436574Y-94182513D01*
X116450733Y-94173355D01*
X116515053Y-94149507D01*
X116585473Y-94148006D01*
X116653595Y-94166966D01*
G36*
X116152600Y-94158752D02*
X116169948Y-94166334D01*
X116211356Y-94199128D01*
X116246765Y-94246547D01*
X116268664Y-94297151D01*
X116272229Y-94322098D01*
X116260279Y-94356927D01*
X116234067Y-94375357D01*
X116205964Y-94386516D01*
X116193095Y-94388572D01*
X116186829Y-94373649D01*
X116174456Y-94341175D01*
X116169028Y-94326502D01*
X116138590Y-94275744D01*
X116094520Y-94250427D01*
X116038010Y-94251206D01*
X116033825Y-94252203D01*
X116003655Y-94266507D01*
X115981476Y-94294393D01*
X115966327Y-94339287D01*
X115957250Y-94404615D01*
X115953286Y-94493804D01*
X115952914Y-94541261D01*
X115952730Y-94616071D01*
X115951522Y-94667069D01*
X115948309Y-94699471D01*
X115942109Y-94718495D01*
X115931940Y-94729356D01*
X115916819Y-94737272D01*
X115915946Y-94737670D01*
X115886828Y-94749981D01*
X115872403Y-94754514D01*
X115870186Y-94740809D01*
X115868289Y-94702925D01*
X115866847Y-94645715D01*
X115865998Y-94574027D01*
X115865829Y-94521565D01*
X115866692Y-94420047D01*
X115870070Y-94343032D01*
X115877142Y-94286023D01*
X115889088Y-94244526D01*
X115907090Y-94214043D01*
X115932327Y-94190080D01*
X115957247Y-94173355D01*
X116017171Y-94151097D01*
X116086911Y-94146076D01*
X116152600Y-94158752D01*
X116152600Y-94158752D01*
G37*
X116152600Y-94158752D02*
X116169948Y-94166334D01*
X116211356Y-94199128D01*
X116246765Y-94246547D01*
X116268664Y-94297151D01*
X116272229Y-94322098D01*
X116260279Y-94356927D01*
X116234067Y-94375357D01*
X116205964Y-94386516D01*
X116193095Y-94388572D01*
X116186829Y-94373649D01*
X116174456Y-94341175D01*
X116169028Y-94326502D01*
X116138590Y-94275744D01*
X116094520Y-94250427D01*
X116038010Y-94251206D01*
X116033825Y-94252203D01*
X116003655Y-94266507D01*
X115981476Y-94294393D01*
X115966327Y-94339287D01*
X115957250Y-94404615D01*
X115953286Y-94493804D01*
X115952914Y-94541261D01*
X115952730Y-94616071D01*
X115951522Y-94667069D01*
X115948309Y-94699471D01*
X115942109Y-94718495D01*
X115931940Y-94729356D01*
X115916819Y-94737272D01*
X115915946Y-94737670D01*
X115886828Y-94749981D01*
X115872403Y-94754514D01*
X115870186Y-94740809D01*
X115868289Y-94702925D01*
X115866847Y-94645715D01*
X115865998Y-94574027D01*
X115865829Y-94521565D01*
X115866692Y-94420047D01*
X115870070Y-94343032D01*
X115877142Y-94286023D01*
X115889088Y-94244526D01*
X115907090Y-94214043D01*
X115932327Y-94190080D01*
X115957247Y-94173355D01*
X116017171Y-94151097D01*
X116086911Y-94146076D01*
X116152600Y-94158752D01*
G36*
X115644876Y-94156335D02*
X115686667Y-94175344D01*
X115719469Y-94198378D01*
X115743503Y-94224133D01*
X115760097Y-94257358D01*
X115770577Y-94302800D01*
X115776271Y-94365207D01*
X115778507Y-94449327D01*
X115778743Y-94504721D01*
X115778743Y-94720826D01*
X115741774Y-94737670D01*
X115712656Y-94749981D01*
X115698231Y-94754514D01*
X115695472Y-94741025D01*
X115693282Y-94704653D01*
X115691942Y-94651542D01*
X115691657Y-94609372D01*
X115690434Y-94548447D01*
X115687136Y-94500115D01*
X115682321Y-94470518D01*
X115678496Y-94464229D01*
X115652783Y-94470652D01*
X115612418Y-94487125D01*
X115565679Y-94509458D01*
X115520845Y-94533457D01*
X115486193Y-94554930D01*
X115470002Y-94569685D01*
X115469938Y-94569845D01*
X115471330Y-94597152D01*
X115483818Y-94623219D01*
X115505743Y-94644392D01*
X115537743Y-94651474D01*
X115565092Y-94650649D01*
X115603826Y-94650042D01*
X115624158Y-94659116D01*
X115636369Y-94683092D01*
X115637909Y-94687613D01*
X115643203Y-94721806D01*
X115629047Y-94742568D01*
X115592148Y-94752462D01*
X115552289Y-94754292D01*
X115480562Y-94740727D01*
X115443432Y-94721355D01*
X115397576Y-94675845D01*
X115373256Y-94619983D01*
X115371073Y-94560957D01*
X115391629Y-94505953D01*
X115422549Y-94471486D01*
X115453420Y-94452189D01*
X115501942Y-94427759D01*
X115558485Y-94402985D01*
X115567910Y-94399199D01*
X115630019Y-94371791D01*
X115665822Y-94347634D01*
X115677337Y-94323619D01*
X115666580Y-94296635D01*
X115648114Y-94275543D01*
X115604469Y-94249572D01*
X115556446Y-94247624D01*
X115512406Y-94267637D01*
X115480709Y-94307551D01*
X115476549Y-94317848D01*
X115452327Y-94355724D01*
X115416965Y-94383842D01*
X115372343Y-94406917D01*
X115372343Y-94341485D01*
X115374969Y-94301506D01*
X115386230Y-94269997D01*
X115411199Y-94236378D01*
X115435169Y-94210484D01*
X115472441Y-94173817D01*
X115501401Y-94154121D01*
X115532505Y-94146220D01*
X115567713Y-94144914D01*
X115644876Y-94156335D01*
X115644876Y-94156335D01*
G37*
X115644876Y-94156335D02*
X115686667Y-94175344D01*
X115719469Y-94198378D01*
X115743503Y-94224133D01*
X115760097Y-94257358D01*
X115770577Y-94302800D01*
X115776271Y-94365207D01*
X115778507Y-94449327D01*
X115778743Y-94504721D01*
X115778743Y-94720826D01*
X115741774Y-94737670D01*
X115712656Y-94749981D01*
X115698231Y-94754514D01*
X115695472Y-94741025D01*
X115693282Y-94704653D01*
X115691942Y-94651542D01*
X115691657Y-94609372D01*
X115690434Y-94548447D01*
X115687136Y-94500115D01*
X115682321Y-94470518D01*
X115678496Y-94464229D01*
X115652783Y-94470652D01*
X115612418Y-94487125D01*
X115565679Y-94509458D01*
X115520845Y-94533457D01*
X115486193Y-94554930D01*
X115470002Y-94569685D01*
X115469938Y-94569845D01*
X115471330Y-94597152D01*
X115483818Y-94623219D01*
X115505743Y-94644392D01*
X115537743Y-94651474D01*
X115565092Y-94650649D01*
X115603826Y-94650042D01*
X115624158Y-94659116D01*
X115636369Y-94683092D01*
X115637909Y-94687613D01*
X115643203Y-94721806D01*
X115629047Y-94742568D01*
X115592148Y-94752462D01*
X115552289Y-94754292D01*
X115480562Y-94740727D01*
X115443432Y-94721355D01*
X115397576Y-94675845D01*
X115373256Y-94619983D01*
X115371073Y-94560957D01*
X115391629Y-94505953D01*
X115422549Y-94471486D01*
X115453420Y-94452189D01*
X115501942Y-94427759D01*
X115558485Y-94402985D01*
X115567910Y-94399199D01*
X115630019Y-94371791D01*
X115665822Y-94347634D01*
X115677337Y-94323619D01*
X115666580Y-94296635D01*
X115648114Y-94275543D01*
X115604469Y-94249572D01*
X115556446Y-94247624D01*
X115512406Y-94267637D01*
X115480709Y-94307551D01*
X115476549Y-94317848D01*
X115452327Y-94355724D01*
X115416965Y-94383842D01*
X115372343Y-94406917D01*
X115372343Y-94341485D01*
X115374969Y-94301506D01*
X115386230Y-94269997D01*
X115411199Y-94236378D01*
X115435169Y-94210484D01*
X115472441Y-94173817D01*
X115501401Y-94154121D01*
X115532505Y-94146220D01*
X115567713Y-94144914D01*
X115644876Y-94156335D01*
G36*
X115279833Y-94158663D02*
X115282048Y-94196850D01*
X115283784Y-94254886D01*
X115284899Y-94328180D01*
X115285257Y-94405055D01*
X115285257Y-94665196D01*
X115239326Y-94711127D01*
X115207675Y-94739429D01*
X115179890Y-94750893D01*
X115141915Y-94750168D01*
X115126840Y-94748321D01*
X115079726Y-94742948D01*
X115040756Y-94739869D01*
X115031257Y-94739585D01*
X114999233Y-94741445D01*
X114953432Y-94746114D01*
X114935674Y-94748321D01*
X114892057Y-94751735D01*
X114862745Y-94744320D01*
X114833680Y-94721427D01*
X114823188Y-94711127D01*
X114777257Y-94665196D01*
X114777257Y-94178602D01*
X114814226Y-94161758D01*
X114846059Y-94149282D01*
X114864683Y-94144914D01*
X114869458Y-94158718D01*
X114873921Y-94197286D01*
X114877775Y-94256356D01*
X114880722Y-94331663D01*
X114882143Y-94395286D01*
X114886114Y-94645657D01*
X114920759Y-94650556D01*
X114952268Y-94647131D01*
X114967708Y-94636041D01*
X114972023Y-94615308D01*
X114975708Y-94571145D01*
X114978469Y-94509146D01*
X114980012Y-94434909D01*
X114980235Y-94396706D01*
X114980457Y-94176783D01*
X115026166Y-94160849D01*
X115058518Y-94150015D01*
X115076115Y-94144962D01*
X115076623Y-94144914D01*
X115078388Y-94158648D01*
X115080329Y-94196730D01*
X115082282Y-94254482D01*
X115084084Y-94327227D01*
X115085343Y-94395286D01*
X115089314Y-94645657D01*
X115176400Y-94645657D01*
X115180396Y-94417240D01*
X115184392Y-94188822D01*
X115226847Y-94166868D01*
X115258192Y-94151793D01*
X115276744Y-94144951D01*
X115277279Y-94144914D01*
X115279833Y-94158663D01*
X115279833Y-94158663D01*
G37*
X115279833Y-94158663D02*
X115282048Y-94196850D01*
X115283784Y-94254886D01*
X115284899Y-94328180D01*
X115285257Y-94405055D01*
X115285257Y-94665196D01*
X115239326Y-94711127D01*
X115207675Y-94739429D01*
X115179890Y-94750893D01*
X115141915Y-94750168D01*
X115126840Y-94748321D01*
X115079726Y-94742948D01*
X115040756Y-94739869D01*
X115031257Y-94739585D01*
X114999233Y-94741445D01*
X114953432Y-94746114D01*
X114935674Y-94748321D01*
X114892057Y-94751735D01*
X114862745Y-94744320D01*
X114833680Y-94721427D01*
X114823188Y-94711127D01*
X114777257Y-94665196D01*
X114777257Y-94178602D01*
X114814226Y-94161758D01*
X114846059Y-94149282D01*
X114864683Y-94144914D01*
X114869458Y-94158718D01*
X114873921Y-94197286D01*
X114877775Y-94256356D01*
X114880722Y-94331663D01*
X114882143Y-94395286D01*
X114886114Y-94645657D01*
X114920759Y-94650556D01*
X114952268Y-94647131D01*
X114967708Y-94636041D01*
X114972023Y-94615308D01*
X114975708Y-94571145D01*
X114978469Y-94509146D01*
X114980012Y-94434909D01*
X114980235Y-94396706D01*
X114980457Y-94176783D01*
X115026166Y-94160849D01*
X115058518Y-94150015D01*
X115076115Y-94144962D01*
X115076623Y-94144914D01*
X115078388Y-94158648D01*
X115080329Y-94196730D01*
X115082282Y-94254482D01*
X115084084Y-94327227D01*
X115085343Y-94395286D01*
X115089314Y-94645657D01*
X115176400Y-94645657D01*
X115180396Y-94417240D01*
X115184392Y-94188822D01*
X115226847Y-94166868D01*
X115258192Y-94151793D01*
X115276744Y-94144951D01*
X115277279Y-94144914D01*
X115279833Y-94158663D01*
G36*
X114690117Y-94265358D02*
X114689933Y-94373837D01*
X114689219Y-94457287D01*
X114687675Y-94519704D01*
X114685001Y-94565085D01*
X114680894Y-94597429D01*
X114675055Y-94620733D01*
X114667182Y-94638995D01*
X114661221Y-94649418D01*
X114611855Y-94705945D01*
X114549264Y-94741377D01*
X114480013Y-94754090D01*
X114410668Y-94742463D01*
X114369375Y-94721568D01*
X114326025Y-94685422D01*
X114296481Y-94641276D01*
X114278655Y-94583462D01*
X114270463Y-94506313D01*
X114269302Y-94449714D01*
X114269458Y-94445647D01*
X114370857Y-94445647D01*
X114371476Y-94510550D01*
X114374314Y-94553514D01*
X114380840Y-94581622D01*
X114392523Y-94601953D01*
X114406483Y-94617288D01*
X114453365Y-94646890D01*
X114503701Y-94649419D01*
X114551276Y-94624705D01*
X114554979Y-94621356D01*
X114570783Y-94603935D01*
X114580693Y-94583209D01*
X114586058Y-94552362D01*
X114588228Y-94504577D01*
X114588571Y-94451748D01*
X114587827Y-94385381D01*
X114584748Y-94341106D01*
X114578061Y-94312009D01*
X114566496Y-94291173D01*
X114557013Y-94280107D01*
X114512960Y-94252198D01*
X114462224Y-94248843D01*
X114413796Y-94270159D01*
X114404450Y-94278073D01*
X114388540Y-94295647D01*
X114378610Y-94316587D01*
X114373278Y-94347782D01*
X114371163Y-94396122D01*
X114370857Y-94445647D01*
X114269458Y-94445647D01*
X114272810Y-94358568D01*
X114284726Y-94290086D01*
X114307135Y-94238600D01*
X114342124Y-94198443D01*
X114369375Y-94177861D01*
X114418907Y-94155625D01*
X114476316Y-94145304D01*
X114529682Y-94148067D01*
X114559543Y-94159212D01*
X114571261Y-94162383D01*
X114579037Y-94150557D01*
X114584465Y-94118866D01*
X114588571Y-94070593D01*
X114593067Y-94016829D01*
X114599313Y-93984482D01*
X114610676Y-93965985D01*
X114630528Y-93953770D01*
X114643000Y-93948362D01*
X114690171Y-93928601D01*
X114690117Y-94265358D01*
X114690117Y-94265358D01*
G37*
X114690117Y-94265358D02*
X114689933Y-94373837D01*
X114689219Y-94457287D01*
X114687675Y-94519704D01*
X114685001Y-94565085D01*
X114680894Y-94597429D01*
X114675055Y-94620733D01*
X114667182Y-94638995D01*
X114661221Y-94649418D01*
X114611855Y-94705945D01*
X114549264Y-94741377D01*
X114480013Y-94754090D01*
X114410668Y-94742463D01*
X114369375Y-94721568D01*
X114326025Y-94685422D01*
X114296481Y-94641276D01*
X114278655Y-94583462D01*
X114270463Y-94506313D01*
X114269302Y-94449714D01*
X114269458Y-94445647D01*
X114370857Y-94445647D01*
X114371476Y-94510550D01*
X114374314Y-94553514D01*
X114380840Y-94581622D01*
X114392523Y-94601953D01*
X114406483Y-94617288D01*
X114453365Y-94646890D01*
X114503701Y-94649419D01*
X114551276Y-94624705D01*
X114554979Y-94621356D01*
X114570783Y-94603935D01*
X114580693Y-94583209D01*
X114586058Y-94552362D01*
X114588228Y-94504577D01*
X114588571Y-94451748D01*
X114587827Y-94385381D01*
X114584748Y-94341106D01*
X114578061Y-94312009D01*
X114566496Y-94291173D01*
X114557013Y-94280107D01*
X114512960Y-94252198D01*
X114462224Y-94248843D01*
X114413796Y-94270159D01*
X114404450Y-94278073D01*
X114388540Y-94295647D01*
X114378610Y-94316587D01*
X114373278Y-94347782D01*
X114371163Y-94396122D01*
X114370857Y-94445647D01*
X114269458Y-94445647D01*
X114272810Y-94358568D01*
X114284726Y-94290086D01*
X114307135Y-94238600D01*
X114342124Y-94198443D01*
X114369375Y-94177861D01*
X114418907Y-94155625D01*
X114476316Y-94145304D01*
X114529682Y-94148067D01*
X114559543Y-94159212D01*
X114571261Y-94162383D01*
X114579037Y-94150557D01*
X114584465Y-94118866D01*
X114588571Y-94070593D01*
X114593067Y-94016829D01*
X114599313Y-93984482D01*
X114610676Y-93965985D01*
X114630528Y-93953770D01*
X114643000Y-93948362D01*
X114690171Y-93928601D01*
X114690117Y-94265358D01*
G36*
X114029926Y-94149755D02*
X114095858Y-94174084D01*
X114149273Y-94217117D01*
X114170164Y-94247409D01*
X114192939Y-94302994D01*
X114192466Y-94343186D01*
X114168562Y-94370217D01*
X114159717Y-94374813D01*
X114121530Y-94389144D01*
X114102028Y-94385472D01*
X114095422Y-94361407D01*
X114095086Y-94348114D01*
X114082992Y-94299210D01*
X114051471Y-94264999D01*
X114007659Y-94248476D01*
X113958695Y-94252634D01*
X113918894Y-94274227D01*
X113905450Y-94286544D01*
X113895921Y-94301487D01*
X113889485Y-94324075D01*
X113885317Y-94359328D01*
X113882597Y-94412266D01*
X113880502Y-94487907D01*
X113879960Y-94511857D01*
X113877981Y-94593790D01*
X113875731Y-94651455D01*
X113872357Y-94689608D01*
X113867006Y-94713004D01*
X113858824Y-94726398D01*
X113846959Y-94734545D01*
X113839362Y-94738144D01*
X113807102Y-94750452D01*
X113788111Y-94754514D01*
X113781836Y-94740948D01*
X113778006Y-94699934D01*
X113776600Y-94630999D01*
X113777598Y-94533669D01*
X113777908Y-94518657D01*
X113780101Y-94429859D01*
X113782693Y-94365019D01*
X113786382Y-94319067D01*
X113791864Y-94286935D01*
X113799835Y-94263553D01*
X113810993Y-94243852D01*
X113816830Y-94235410D01*
X113850296Y-94198057D01*
X113887727Y-94169003D01*
X113892309Y-94166467D01*
X113959426Y-94146443D01*
X114029926Y-94149755D01*
X114029926Y-94149755D01*
G37*
X114029926Y-94149755D02*
X114095858Y-94174084D01*
X114149273Y-94217117D01*
X114170164Y-94247409D01*
X114192939Y-94302994D01*
X114192466Y-94343186D01*
X114168562Y-94370217D01*
X114159717Y-94374813D01*
X114121530Y-94389144D01*
X114102028Y-94385472D01*
X114095422Y-94361407D01*
X114095086Y-94348114D01*
X114082992Y-94299210D01*
X114051471Y-94264999D01*
X114007659Y-94248476D01*
X113958695Y-94252634D01*
X113918894Y-94274227D01*
X113905450Y-94286544D01*
X113895921Y-94301487D01*
X113889485Y-94324075D01*
X113885317Y-94359328D01*
X113882597Y-94412266D01*
X113880502Y-94487907D01*
X113879960Y-94511857D01*
X113877981Y-94593790D01*
X113875731Y-94651455D01*
X113872357Y-94689608D01*
X113867006Y-94713004D01*
X113858824Y-94726398D01*
X113846959Y-94734545D01*
X113839362Y-94738144D01*
X113807102Y-94750452D01*
X113788111Y-94754514D01*
X113781836Y-94740948D01*
X113778006Y-94699934D01*
X113776600Y-94630999D01*
X113777598Y-94533669D01*
X113777908Y-94518657D01*
X113780101Y-94429859D01*
X113782693Y-94365019D01*
X113786382Y-94319067D01*
X113791864Y-94286935D01*
X113799835Y-94263553D01*
X113810993Y-94243852D01*
X113816830Y-94235410D01*
X113850296Y-94198057D01*
X113887727Y-94169003D01*
X113892309Y-94166467D01*
X113959426Y-94146443D01*
X114029926Y-94149755D01*
G36*
X113539744Y-94150968D02*
X113596616Y-94172087D01*
X113597267Y-94172493D01*
X113632440Y-94198380D01*
X113658407Y-94228633D01*
X113676670Y-94268058D01*
X113688732Y-94321462D01*
X113696096Y-94393651D01*
X113700264Y-94489432D01*
X113700629Y-94503078D01*
X113705876Y-94708842D01*
X113661716Y-94731678D01*
X113629763Y-94747110D01*
X113610470Y-94754423D01*
X113609578Y-94754514D01*
X113606239Y-94741022D01*
X113603587Y-94704626D01*
X113601956Y-94651452D01*
X113601600Y-94608393D01*
X113601592Y-94538641D01*
X113598403Y-94494837D01*
X113587288Y-94473944D01*
X113563501Y-94472925D01*
X113522296Y-94488741D01*
X113460086Y-94517815D01*
X113414341Y-94541963D01*
X113390813Y-94562913D01*
X113383896Y-94585747D01*
X113383886Y-94586877D01*
X113395299Y-94626212D01*
X113429092Y-94647462D01*
X113480809Y-94650539D01*
X113518061Y-94650006D01*
X113537703Y-94660735D01*
X113549952Y-94686505D01*
X113557002Y-94719337D01*
X113546842Y-94737966D01*
X113543017Y-94740632D01*
X113507001Y-94751340D01*
X113456566Y-94752856D01*
X113404626Y-94745759D01*
X113367822Y-94732788D01*
X113316938Y-94689585D01*
X113288014Y-94629446D01*
X113282286Y-94582462D01*
X113286657Y-94540082D01*
X113302475Y-94505488D01*
X113333797Y-94474763D01*
X113384678Y-94443990D01*
X113459176Y-94409252D01*
X113463714Y-94407288D01*
X113530821Y-94376287D01*
X113572232Y-94350862D01*
X113589981Y-94328014D01*
X113586107Y-94304745D01*
X113562643Y-94278056D01*
X113555627Y-94271914D01*
X113508630Y-94248100D01*
X113459933Y-94249103D01*
X113417522Y-94272451D01*
X113389384Y-94315675D01*
X113386769Y-94324160D01*
X113361308Y-94365308D01*
X113329001Y-94385128D01*
X113282286Y-94404770D01*
X113282286Y-94353950D01*
X113296496Y-94280082D01*
X113338675Y-94212327D01*
X113360624Y-94189661D01*
X113410517Y-94160569D01*
X113473967Y-94147400D01*
X113539744Y-94150968D01*
X113539744Y-94150968D01*
G37*
X113539744Y-94150968D02*
X113596616Y-94172087D01*
X113597267Y-94172493D01*
X113632440Y-94198380D01*
X113658407Y-94228633D01*
X113676670Y-94268058D01*
X113688732Y-94321462D01*
X113696096Y-94393651D01*
X113700264Y-94489432D01*
X113700629Y-94503078D01*
X113705876Y-94708842D01*
X113661716Y-94731678D01*
X113629763Y-94747110D01*
X113610470Y-94754423D01*
X113609578Y-94754514D01*
X113606239Y-94741022D01*
X113603587Y-94704626D01*
X113601956Y-94651452D01*
X113601600Y-94608393D01*
X113601592Y-94538641D01*
X113598403Y-94494837D01*
X113587288Y-94473944D01*
X113563501Y-94472925D01*
X113522296Y-94488741D01*
X113460086Y-94517815D01*
X113414341Y-94541963D01*
X113390813Y-94562913D01*
X113383896Y-94585747D01*
X113383886Y-94586877D01*
X113395299Y-94626212D01*
X113429092Y-94647462D01*
X113480809Y-94650539D01*
X113518061Y-94650006D01*
X113537703Y-94660735D01*
X113549952Y-94686505D01*
X113557002Y-94719337D01*
X113546842Y-94737966D01*
X113543017Y-94740632D01*
X113507001Y-94751340D01*
X113456566Y-94752856D01*
X113404626Y-94745759D01*
X113367822Y-94732788D01*
X113316938Y-94689585D01*
X113288014Y-94629446D01*
X113282286Y-94582462D01*
X113286657Y-94540082D01*
X113302475Y-94505488D01*
X113333797Y-94474763D01*
X113384678Y-94443990D01*
X113459176Y-94409252D01*
X113463714Y-94407288D01*
X113530821Y-94376287D01*
X113572232Y-94350862D01*
X113589981Y-94328014D01*
X113586107Y-94304745D01*
X113562643Y-94278056D01*
X113555627Y-94271914D01*
X113508630Y-94248100D01*
X113459933Y-94249103D01*
X113417522Y-94272451D01*
X113389384Y-94315675D01*
X113386769Y-94324160D01*
X113361308Y-94365308D01*
X113329001Y-94385128D01*
X113282286Y-94404770D01*
X113282286Y-94353950D01*
X113296496Y-94280082D01*
X113338675Y-94212327D01*
X113360624Y-94189661D01*
X113410517Y-94160569D01*
X113473967Y-94147400D01*
X113539744Y-94150968D01*
G36*
X112875886Y-94051289D02*
X112880139Y-94110613D01*
X112885025Y-94145572D01*
X112891795Y-94160820D01*
X112901702Y-94161015D01*
X112904914Y-94159195D01*
X112947644Y-94146015D01*
X113003227Y-94146785D01*
X113059737Y-94160333D01*
X113095082Y-94177861D01*
X113131321Y-94205861D01*
X113157813Y-94237549D01*
X113175999Y-94277813D01*
X113187322Y-94331543D01*
X113193222Y-94403626D01*
X113195143Y-94498951D01*
X113195177Y-94517237D01*
X113195200Y-94722646D01*
X113149491Y-94738580D01*
X113117027Y-94749420D01*
X113099215Y-94754468D01*
X113098691Y-94754514D01*
X113096937Y-94740828D01*
X113095444Y-94703076D01*
X113094326Y-94646224D01*
X113093697Y-94575234D01*
X113093600Y-94532073D01*
X113093398Y-94446973D01*
X113092358Y-94385981D01*
X113089831Y-94344177D01*
X113085164Y-94316642D01*
X113077707Y-94298456D01*
X113066811Y-94284698D01*
X113060007Y-94278073D01*
X113013272Y-94251375D01*
X112962272Y-94249375D01*
X112916001Y-94271955D01*
X112907444Y-94280107D01*
X112894893Y-94295436D01*
X112886188Y-94313618D01*
X112880631Y-94339909D01*
X112877526Y-94379562D01*
X112876176Y-94437832D01*
X112875886Y-94518173D01*
X112875886Y-94722646D01*
X112830177Y-94738580D01*
X112797713Y-94749420D01*
X112779901Y-94754468D01*
X112779377Y-94754514D01*
X112778037Y-94740623D01*
X112776828Y-94701439D01*
X112775801Y-94640700D01*
X112775002Y-94562141D01*
X112774481Y-94469498D01*
X112774286Y-94366509D01*
X112774286Y-93969342D01*
X112821457Y-93949444D01*
X112868629Y-93929547D01*
X112875886Y-94051289D01*
X112875886Y-94051289D01*
G37*
X112875886Y-94051289D02*
X112880139Y-94110613D01*
X112885025Y-94145572D01*
X112891795Y-94160820D01*
X112901702Y-94161015D01*
X112904914Y-94159195D01*
X112947644Y-94146015D01*
X113003227Y-94146785D01*
X113059737Y-94160333D01*
X113095082Y-94177861D01*
X113131321Y-94205861D01*
X113157813Y-94237549D01*
X113175999Y-94277813D01*
X113187322Y-94331543D01*
X113193222Y-94403626D01*
X113195143Y-94498951D01*
X113195177Y-94517237D01*
X113195200Y-94722646D01*
X113149491Y-94738580D01*
X113117027Y-94749420D01*
X113099215Y-94754468D01*
X113098691Y-94754514D01*
X113096937Y-94740828D01*
X113095444Y-94703076D01*
X113094326Y-94646224D01*
X113093697Y-94575234D01*
X113093600Y-94532073D01*
X113093398Y-94446973D01*
X113092358Y-94385981D01*
X113089831Y-94344177D01*
X113085164Y-94316642D01*
X113077707Y-94298456D01*
X113066811Y-94284698D01*
X113060007Y-94278073D01*
X113013272Y-94251375D01*
X112962272Y-94249375D01*
X112916001Y-94271955D01*
X112907444Y-94280107D01*
X112894893Y-94295436D01*
X112886188Y-94313618D01*
X112880631Y-94339909D01*
X112877526Y-94379562D01*
X112876176Y-94437832D01*
X112875886Y-94518173D01*
X112875886Y-94722646D01*
X112830177Y-94738580D01*
X112797713Y-94749420D01*
X112779901Y-94754468D01*
X112779377Y-94754514D01*
X112778037Y-94740623D01*
X112776828Y-94701439D01*
X112775801Y-94640700D01*
X112775002Y-94562141D01*
X112774481Y-94469498D01*
X112774286Y-94366509D01*
X112774286Y-93969342D01*
X112821457Y-93949444D01*
X112868629Y-93929547D01*
X112875886Y-94051289D01*
G36*
X111668303Y-94131239D02*
X111725527Y-94169735D01*
X111769749Y-94225335D01*
X111796167Y-94296086D01*
X111801510Y-94348162D01*
X111800903Y-94369893D01*
X111795822Y-94386531D01*
X111781855Y-94401437D01*
X111754589Y-94417973D01*
X111709612Y-94439498D01*
X111642511Y-94469374D01*
X111642171Y-94469524D01*
X111580407Y-94497813D01*
X111529759Y-94522933D01*
X111495404Y-94542179D01*
X111482518Y-94552848D01*
X111482514Y-94552934D01*
X111493872Y-94576166D01*
X111520431Y-94601774D01*
X111550923Y-94620221D01*
X111566370Y-94623886D01*
X111608515Y-94611212D01*
X111644808Y-94579471D01*
X111662517Y-94544572D01*
X111679552Y-94518845D01*
X111712922Y-94489546D01*
X111752149Y-94464235D01*
X111786756Y-94450471D01*
X111793993Y-94449714D01*
X111802139Y-94462160D01*
X111802630Y-94493972D01*
X111796643Y-94536866D01*
X111785357Y-94582558D01*
X111769950Y-94622761D01*
X111769171Y-94624322D01*
X111722804Y-94689062D01*
X111662711Y-94733097D01*
X111594465Y-94754711D01*
X111523638Y-94752185D01*
X111455804Y-94723804D01*
X111452788Y-94721808D01*
X111399427Y-94673448D01*
X111364340Y-94610352D01*
X111344922Y-94527387D01*
X111342316Y-94504078D01*
X111337701Y-94394055D01*
X111343233Y-94342748D01*
X111482514Y-94342748D01*
X111484324Y-94374753D01*
X111494222Y-94384093D01*
X111518898Y-94377105D01*
X111557795Y-94360587D01*
X111601275Y-94339881D01*
X111602356Y-94339333D01*
X111639209Y-94319949D01*
X111654000Y-94307013D01*
X111650353Y-94293451D01*
X111634995Y-94275632D01*
X111595923Y-94249845D01*
X111553846Y-94247950D01*
X111516103Y-94266717D01*
X111490034Y-94302915D01*
X111482514Y-94342748D01*
X111343233Y-94342748D01*
X111347194Y-94306027D01*
X111371550Y-94236212D01*
X111405456Y-94187302D01*
X111466653Y-94137878D01*
X111534063Y-94113359D01*
X111602880Y-94111797D01*
X111668303Y-94131239D01*
X111668303Y-94131239D01*
G37*
X111668303Y-94131239D02*
X111725527Y-94169735D01*
X111769749Y-94225335D01*
X111796167Y-94296086D01*
X111801510Y-94348162D01*
X111800903Y-94369893D01*
X111795822Y-94386531D01*
X111781855Y-94401437D01*
X111754589Y-94417973D01*
X111709612Y-94439498D01*
X111642511Y-94469374D01*
X111642171Y-94469524D01*
X111580407Y-94497813D01*
X111529759Y-94522933D01*
X111495404Y-94542179D01*
X111482518Y-94552848D01*
X111482514Y-94552934D01*
X111493872Y-94576166D01*
X111520431Y-94601774D01*
X111550923Y-94620221D01*
X111566370Y-94623886D01*
X111608515Y-94611212D01*
X111644808Y-94579471D01*
X111662517Y-94544572D01*
X111679552Y-94518845D01*
X111712922Y-94489546D01*
X111752149Y-94464235D01*
X111786756Y-94450471D01*
X111793993Y-94449714D01*
X111802139Y-94462160D01*
X111802630Y-94493972D01*
X111796643Y-94536866D01*
X111785357Y-94582558D01*
X111769950Y-94622761D01*
X111769171Y-94624322D01*
X111722804Y-94689062D01*
X111662711Y-94733097D01*
X111594465Y-94754711D01*
X111523638Y-94752185D01*
X111455804Y-94723804D01*
X111452788Y-94721808D01*
X111399427Y-94673448D01*
X111364340Y-94610352D01*
X111344922Y-94527387D01*
X111342316Y-94504078D01*
X111337701Y-94394055D01*
X111343233Y-94342748D01*
X111482514Y-94342748D01*
X111484324Y-94374753D01*
X111494222Y-94384093D01*
X111518898Y-94377105D01*
X111557795Y-94360587D01*
X111601275Y-94339881D01*
X111602356Y-94339333D01*
X111639209Y-94319949D01*
X111654000Y-94307013D01*
X111650353Y-94293451D01*
X111634995Y-94275632D01*
X111595923Y-94249845D01*
X111553846Y-94247950D01*
X111516103Y-94266717D01*
X111490034Y-94302915D01*
X111482514Y-94342748D01*
X111343233Y-94342748D01*
X111347194Y-94306027D01*
X111371550Y-94236212D01*
X111405456Y-94187302D01*
X111466653Y-94137878D01*
X111534063Y-94113359D01*
X111602880Y-94111797D01*
X111668303Y-94131239D01*
G36*
X110541115Y-94121962D02*
X110609145Y-94157733D01*
X110659351Y-94215301D01*
X110677185Y-94252312D01*
X110691063Y-94307882D01*
X110698167Y-94378096D01*
X110698840Y-94454727D01*
X110693427Y-94529552D01*
X110682270Y-94594342D01*
X110665714Y-94640873D01*
X110660626Y-94648887D01*
X110600355Y-94708707D01*
X110528769Y-94744535D01*
X110451092Y-94755020D01*
X110372548Y-94738810D01*
X110350689Y-94729092D01*
X110308122Y-94699143D01*
X110270763Y-94659433D01*
X110267232Y-94654397D01*
X110252881Y-94630124D01*
X110243394Y-94604178D01*
X110237790Y-94570022D01*
X110235086Y-94521119D01*
X110234299Y-94450935D01*
X110234286Y-94435200D01*
X110234322Y-94430192D01*
X110379429Y-94430192D01*
X110380273Y-94496430D01*
X110383596Y-94540386D01*
X110390583Y-94568779D01*
X110402416Y-94588325D01*
X110408457Y-94594857D01*
X110443186Y-94619680D01*
X110476903Y-94618548D01*
X110510995Y-94597016D01*
X110531329Y-94574029D01*
X110543371Y-94540478D01*
X110550134Y-94487569D01*
X110550598Y-94481399D01*
X110551752Y-94385513D01*
X110539688Y-94314299D01*
X110514570Y-94268194D01*
X110476560Y-94247635D01*
X110462992Y-94246514D01*
X110427364Y-94252152D01*
X110402994Y-94271686D01*
X110388093Y-94309042D01*
X110380875Y-94368150D01*
X110379429Y-94430192D01*
X110234322Y-94430192D01*
X110234826Y-94360413D01*
X110237096Y-94308159D01*
X110242068Y-94271949D01*
X110250713Y-94245299D01*
X110264005Y-94221722D01*
X110266943Y-94217338D01*
X110316313Y-94158249D01*
X110370109Y-94123947D01*
X110435602Y-94110331D01*
X110457842Y-94109665D01*
X110541115Y-94121962D01*
X110541115Y-94121962D01*
G37*
X110541115Y-94121962D02*
X110609145Y-94157733D01*
X110659351Y-94215301D01*
X110677185Y-94252312D01*
X110691063Y-94307882D01*
X110698167Y-94378096D01*
X110698840Y-94454727D01*
X110693427Y-94529552D01*
X110682270Y-94594342D01*
X110665714Y-94640873D01*
X110660626Y-94648887D01*
X110600355Y-94708707D01*
X110528769Y-94744535D01*
X110451092Y-94755020D01*
X110372548Y-94738810D01*
X110350689Y-94729092D01*
X110308122Y-94699143D01*
X110270763Y-94659433D01*
X110267232Y-94654397D01*
X110252881Y-94630124D01*
X110243394Y-94604178D01*
X110237790Y-94570022D01*
X110235086Y-94521119D01*
X110234299Y-94450935D01*
X110234286Y-94435200D01*
X110234322Y-94430192D01*
X110379429Y-94430192D01*
X110380273Y-94496430D01*
X110383596Y-94540386D01*
X110390583Y-94568779D01*
X110402416Y-94588325D01*
X110408457Y-94594857D01*
X110443186Y-94619680D01*
X110476903Y-94618548D01*
X110510995Y-94597016D01*
X110531329Y-94574029D01*
X110543371Y-94540478D01*
X110550134Y-94487569D01*
X110550598Y-94481399D01*
X110551752Y-94385513D01*
X110539688Y-94314299D01*
X110514570Y-94268194D01*
X110476560Y-94247635D01*
X110462992Y-94246514D01*
X110427364Y-94252152D01*
X110402994Y-94271686D01*
X110388093Y-94309042D01*
X110380875Y-94368150D01*
X110379429Y-94430192D01*
X110234322Y-94430192D01*
X110234826Y-94360413D01*
X110237096Y-94308159D01*
X110242068Y-94271949D01*
X110250713Y-94245299D01*
X110264005Y-94221722D01*
X110266943Y-94217338D01*
X110316313Y-94158249D01*
X110370109Y-94123947D01*
X110435602Y-94110331D01*
X110457842Y-94109665D01*
X110541115Y-94121962D01*
G36*
X112216093Y-94127780D02*
X112262672Y-94154723D01*
X112295057Y-94181466D01*
X112318742Y-94209484D01*
X112335059Y-94243748D01*
X112345339Y-94289227D01*
X112350914Y-94350892D01*
X112353116Y-94433711D01*
X112353371Y-94493246D01*
X112353371Y-94712391D01*
X112291686Y-94740044D01*
X112230000Y-94767697D01*
X112222743Y-94527670D01*
X112219744Y-94438028D01*
X112216598Y-94372962D01*
X112212701Y-94328026D01*
X112207447Y-94298770D01*
X112200231Y-94280748D01*
X112190450Y-94269511D01*
X112187312Y-94267079D01*
X112139761Y-94248083D01*
X112091697Y-94255600D01*
X112063086Y-94275543D01*
X112051447Y-94289675D01*
X112043391Y-94308220D01*
X112038271Y-94336334D01*
X112035441Y-94379173D01*
X112034256Y-94441895D01*
X112034057Y-94507261D01*
X112034018Y-94589268D01*
X112032614Y-94647316D01*
X112027914Y-94686465D01*
X112017987Y-94711780D01*
X112000903Y-94728323D01*
X111974732Y-94741156D01*
X111939775Y-94754491D01*
X111901596Y-94769007D01*
X111906141Y-94511389D01*
X111907971Y-94418519D01*
X111910112Y-94349889D01*
X111913181Y-94300711D01*
X111917794Y-94266198D01*
X111924568Y-94241562D01*
X111934119Y-94222016D01*
X111945634Y-94204770D01*
X112001190Y-94149680D01*
X112068980Y-94117822D01*
X112142713Y-94110191D01*
X112216093Y-94127780D01*
X112216093Y-94127780D01*
G37*
X112216093Y-94127780D02*
X112262672Y-94154723D01*
X112295057Y-94181466D01*
X112318742Y-94209484D01*
X112335059Y-94243748D01*
X112345339Y-94289227D01*
X112350914Y-94350892D01*
X112353116Y-94433711D01*
X112353371Y-94493246D01*
X112353371Y-94712391D01*
X112291686Y-94740044D01*
X112230000Y-94767697D01*
X112222743Y-94527670D01*
X112219744Y-94438028D01*
X112216598Y-94372962D01*
X112212701Y-94328026D01*
X112207447Y-94298770D01*
X112200231Y-94280748D01*
X112190450Y-94269511D01*
X112187312Y-94267079D01*
X112139761Y-94248083D01*
X112091697Y-94255600D01*
X112063086Y-94275543D01*
X112051447Y-94289675D01*
X112043391Y-94308220D01*
X112038271Y-94336334D01*
X112035441Y-94379173D01*
X112034256Y-94441895D01*
X112034057Y-94507261D01*
X112034018Y-94589268D01*
X112032614Y-94647316D01*
X112027914Y-94686465D01*
X112017987Y-94711780D01*
X112000903Y-94728323D01*
X111974732Y-94741156D01*
X111939775Y-94754491D01*
X111901596Y-94769007D01*
X111906141Y-94511389D01*
X111907971Y-94418519D01*
X111910112Y-94349889D01*
X111913181Y-94300711D01*
X111917794Y-94266198D01*
X111924568Y-94241562D01*
X111934119Y-94222016D01*
X111945634Y-94204770D01*
X112001190Y-94149680D01*
X112068980Y-94117822D01*
X112142713Y-94110191D01*
X112216093Y-94127780D01*
G36*
X111099744Y-94119918D02*
X111155201Y-94147568D01*
X111204148Y-94198480D01*
X111217629Y-94217338D01*
X111232314Y-94242015D01*
X111241842Y-94268816D01*
X111247293Y-94304587D01*
X111249747Y-94356169D01*
X111250286Y-94424267D01*
X111247852Y-94517588D01*
X111239394Y-94587657D01*
X111223174Y-94639931D01*
X111197454Y-94679869D01*
X111160497Y-94712929D01*
X111157782Y-94714886D01*
X111121360Y-94734908D01*
X111077502Y-94744815D01*
X111021724Y-94747257D01*
X110931048Y-94747257D01*
X110931010Y-94835283D01*
X110930166Y-94884308D01*
X110925024Y-94913065D01*
X110911587Y-94930311D01*
X110885858Y-94944808D01*
X110879679Y-94947769D01*
X110850764Y-94961648D01*
X110828376Y-94970414D01*
X110811729Y-94971171D01*
X110800036Y-94961023D01*
X110792510Y-94937073D01*
X110788366Y-94896426D01*
X110786815Y-94836186D01*
X110787071Y-94753455D01*
X110788349Y-94645339D01*
X110788748Y-94613000D01*
X110790185Y-94501524D01*
X110791472Y-94428603D01*
X110930971Y-94428603D01*
X110931755Y-94490499D01*
X110935240Y-94530997D01*
X110943124Y-94557708D01*
X110957105Y-94578244D01*
X110966597Y-94588260D01*
X111005404Y-94617567D01*
X111039763Y-94619952D01*
X111075216Y-94595750D01*
X111076114Y-94594857D01*
X111090539Y-94576153D01*
X111099313Y-94550732D01*
X111103739Y-94511584D01*
X111105118Y-94451697D01*
X111105143Y-94438430D01*
X111101812Y-94355901D01*
X111090969Y-94298691D01*
X111071340Y-94263766D01*
X111041650Y-94248094D01*
X111024491Y-94246514D01*
X110983766Y-94253926D01*
X110955832Y-94278330D01*
X110939017Y-94322980D01*
X110931650Y-94391130D01*
X110930971Y-94428603D01*
X110791472Y-94428603D01*
X110791708Y-94415245D01*
X110793677Y-94350333D01*
X110796450Y-94302958D01*
X110800388Y-94269290D01*
X110805849Y-94245498D01*
X110813192Y-94227753D01*
X110822777Y-94212224D01*
X110826887Y-94206381D01*
X110881405Y-94151185D01*
X110950336Y-94119890D01*
X111030072Y-94111165D01*
X111099744Y-94119918D01*
X111099744Y-94119918D01*
G37*
X111099744Y-94119918D02*
X111155201Y-94147568D01*
X111204148Y-94198480D01*
X111217629Y-94217338D01*
X111232314Y-94242015D01*
X111241842Y-94268816D01*
X111247293Y-94304587D01*
X111249747Y-94356169D01*
X111250286Y-94424267D01*
X111247852Y-94517588D01*
X111239394Y-94587657D01*
X111223174Y-94639931D01*
X111197454Y-94679869D01*
X111160497Y-94712929D01*
X111157782Y-94714886D01*
X111121360Y-94734908D01*
X111077502Y-94744815D01*
X111021724Y-94747257D01*
X110931048Y-94747257D01*
X110931010Y-94835283D01*
X110930166Y-94884308D01*
X110925024Y-94913065D01*
X110911587Y-94930311D01*
X110885858Y-94944808D01*
X110879679Y-94947769D01*
X110850764Y-94961648D01*
X110828376Y-94970414D01*
X110811729Y-94971171D01*
X110800036Y-94961023D01*
X110792510Y-94937073D01*
X110788366Y-94896426D01*
X110786815Y-94836186D01*
X110787071Y-94753455D01*
X110788349Y-94645339D01*
X110788748Y-94613000D01*
X110790185Y-94501524D01*
X110791472Y-94428603D01*
X110930971Y-94428603D01*
X110931755Y-94490499D01*
X110935240Y-94530997D01*
X110943124Y-94557708D01*
X110957105Y-94578244D01*
X110966597Y-94588260D01*
X111005404Y-94617567D01*
X111039763Y-94619952D01*
X111075216Y-94595750D01*
X111076114Y-94594857D01*
X111090539Y-94576153D01*
X111099313Y-94550732D01*
X111103739Y-94511584D01*
X111105118Y-94451697D01*
X111105143Y-94438430D01*
X111101812Y-94355901D01*
X111090969Y-94298691D01*
X111071340Y-94263766D01*
X111041650Y-94248094D01*
X111024491Y-94246514D01*
X110983766Y-94253926D01*
X110955832Y-94278330D01*
X110939017Y-94322980D01*
X110931650Y-94391130D01*
X110930971Y-94428603D01*
X110791472Y-94428603D01*
X110791708Y-94415245D01*
X110793677Y-94350333D01*
X110796450Y-94302958D01*
X110800388Y-94269290D01*
X110805849Y-94245498D01*
X110813192Y-94227753D01*
X110822777Y-94212224D01*
X110826887Y-94206381D01*
X110881405Y-94151185D01*
X110950336Y-94119890D01*
X111030072Y-94111165D01*
X111099744Y-94119918D01*
G04 #@! TO.C,R11*
D12*
X80657142Y-89702380D02*
X80323809Y-89226190D01*
X80085714Y-89702380D02*
X80085714Y-88702380D01*
X80466666Y-88702380D01*
X80561904Y-88750000D01*
X80609523Y-88797619D01*
X80657142Y-88892857D01*
X80657142Y-89035714D01*
X80609523Y-89130952D01*
X80561904Y-89178571D01*
X80466666Y-89226190D01*
X80085714Y-89226190D01*
X81609523Y-89702380D02*
X81038095Y-89702380D01*
X81323809Y-89702380D02*
X81323809Y-88702380D01*
X81228571Y-88845238D01*
X81133333Y-88940476D01*
X81038095Y-88988095D01*
X82561904Y-89702380D02*
X81990476Y-89702380D01*
X82276190Y-89702380D02*
X82276190Y-88702380D01*
X82180952Y-88845238D01*
X82085714Y-88940476D01*
X81990476Y-88988095D01*
G04 #@! TO.C,U3*
X99738095Y-75152380D02*
X99738095Y-75961904D01*
X99785714Y-76057142D01*
X99833333Y-76104761D01*
X99928571Y-76152380D01*
X100119047Y-76152380D01*
X100214285Y-76104761D01*
X100261904Y-76057142D01*
X100309523Y-75961904D01*
X100309523Y-75152380D01*
X100690476Y-75152380D02*
X101309523Y-75152380D01*
X100976190Y-75533333D01*
X101119047Y-75533333D01*
X101214285Y-75580952D01*
X101261904Y-75628571D01*
X101309523Y-75723809D01*
X101309523Y-75961904D01*
X101261904Y-76057142D01*
X101214285Y-76104761D01*
X101119047Y-76152380D01*
X100833333Y-76152380D01*
X100738095Y-76104761D01*
X100690476Y-76057142D01*
G04 #@! TO.C,C1*
X80833333Y-77357142D02*
X80785714Y-77404761D01*
X80642857Y-77452380D01*
X80547619Y-77452380D01*
X80404761Y-77404761D01*
X80309523Y-77309523D01*
X80261904Y-77214285D01*
X80214285Y-77023809D01*
X80214285Y-76880952D01*
X80261904Y-76690476D01*
X80309523Y-76595238D01*
X80404761Y-76500000D01*
X80547619Y-76452380D01*
X80642857Y-76452380D01*
X80785714Y-76500000D01*
X80833333Y-76547619D01*
X81785714Y-77452380D02*
X81214285Y-77452380D01*
X81500000Y-77452380D02*
X81500000Y-76452380D01*
X81404761Y-76595238D01*
X81309523Y-76690476D01*
X81214285Y-76738095D01*
G04 #@! TO.C,C2*
X91033333Y-77357142D02*
X90985714Y-77404761D01*
X90842857Y-77452380D01*
X90747619Y-77452380D01*
X90604761Y-77404761D01*
X90509523Y-77309523D01*
X90461904Y-77214285D01*
X90414285Y-77023809D01*
X90414285Y-76880952D01*
X90461904Y-76690476D01*
X90509523Y-76595238D01*
X90604761Y-76500000D01*
X90747619Y-76452380D01*
X90842857Y-76452380D01*
X90985714Y-76500000D01*
X91033333Y-76547619D01*
X91414285Y-76547619D02*
X91461904Y-76500000D01*
X91557142Y-76452380D01*
X91795238Y-76452380D01*
X91890476Y-76500000D01*
X91938095Y-76547619D01*
X91985714Y-76642857D01*
X91985714Y-76738095D01*
X91938095Y-76880952D01*
X91366666Y-77452380D01*
X91985714Y-77452380D01*
G04 #@! TO.C,C3*
X95233333Y-82557142D02*
X95185714Y-82604761D01*
X95042857Y-82652380D01*
X94947619Y-82652380D01*
X94804761Y-82604761D01*
X94709523Y-82509523D01*
X94661904Y-82414285D01*
X94614285Y-82223809D01*
X94614285Y-82080952D01*
X94661904Y-81890476D01*
X94709523Y-81795238D01*
X94804761Y-81700000D01*
X94947619Y-81652380D01*
X95042857Y-81652380D01*
X95185714Y-81700000D01*
X95233333Y-81747619D01*
X95566666Y-81652380D02*
X96185714Y-81652380D01*
X95852380Y-82033333D01*
X95995238Y-82033333D01*
X96090476Y-82080952D01*
X96138095Y-82128571D01*
X96185714Y-82223809D01*
X96185714Y-82461904D01*
X96138095Y-82557142D01*
X96090476Y-82604761D01*
X95995238Y-82652380D01*
X95709523Y-82652380D01*
X95614285Y-82604761D01*
X95566666Y-82557142D01*
G04 #@! TO.C,C4*
X85233333Y-85457142D02*
X85185714Y-85504761D01*
X85042857Y-85552380D01*
X84947619Y-85552380D01*
X84804761Y-85504761D01*
X84709523Y-85409523D01*
X84661904Y-85314285D01*
X84614285Y-85123809D01*
X84614285Y-84980952D01*
X84661904Y-84790476D01*
X84709523Y-84695238D01*
X84804761Y-84600000D01*
X84947619Y-84552380D01*
X85042857Y-84552380D01*
X85185714Y-84600000D01*
X85233333Y-84647619D01*
X86090476Y-84885714D02*
X86090476Y-85552380D01*
X85852380Y-84504761D02*
X85614285Y-85219047D01*
X86233333Y-85219047D01*
G04 #@! TO.C,C5*
X109133333Y-93857142D02*
X109085714Y-93904761D01*
X108942857Y-93952380D01*
X108847619Y-93952380D01*
X108704761Y-93904761D01*
X108609523Y-93809523D01*
X108561904Y-93714285D01*
X108514285Y-93523809D01*
X108514285Y-93380952D01*
X108561904Y-93190476D01*
X108609523Y-93095238D01*
X108704761Y-93000000D01*
X108847619Y-92952380D01*
X108942857Y-92952380D01*
X109085714Y-93000000D01*
X109133333Y-93047619D01*
X110038095Y-92952380D02*
X109561904Y-92952380D01*
X109514285Y-93428571D01*
X109561904Y-93380952D01*
X109657142Y-93333333D01*
X109895238Y-93333333D01*
X109990476Y-93380952D01*
X110038095Y-93428571D01*
X110085714Y-93523809D01*
X110085714Y-93761904D01*
X110038095Y-93857142D01*
X109990476Y-93904761D01*
X109895238Y-93952380D01*
X109657142Y-93952380D01*
X109561904Y-93904761D01*
X109514285Y-93857142D01*
G04 #@! TO.C,C6*
X110433333Y-77557142D02*
X110385714Y-77604761D01*
X110242857Y-77652380D01*
X110147619Y-77652380D01*
X110004761Y-77604761D01*
X109909523Y-77509523D01*
X109861904Y-77414285D01*
X109814285Y-77223809D01*
X109814285Y-77080952D01*
X109861904Y-76890476D01*
X109909523Y-76795238D01*
X110004761Y-76700000D01*
X110147619Y-76652380D01*
X110242857Y-76652380D01*
X110385714Y-76700000D01*
X110433333Y-76747619D01*
X111290476Y-76652380D02*
X111100000Y-76652380D01*
X111004761Y-76700000D01*
X110957142Y-76747619D01*
X110861904Y-76890476D01*
X110814285Y-77080952D01*
X110814285Y-77461904D01*
X110861904Y-77557142D01*
X110909523Y-77604761D01*
X111004761Y-77652380D01*
X111195238Y-77652380D01*
X111290476Y-77604761D01*
X111338095Y-77557142D01*
X111385714Y-77461904D01*
X111385714Y-77223809D01*
X111338095Y-77128571D01*
X111290476Y-77080952D01*
X111195238Y-77033333D01*
X111004761Y-77033333D01*
X110909523Y-77080952D01*
X110861904Y-77128571D01*
X110814285Y-77223809D01*
G04 #@! TO.C,J1*
X75966666Y-77122380D02*
X75966666Y-77836666D01*
X75919047Y-77979523D01*
X75823809Y-78074761D01*
X75680952Y-78122380D01*
X75585714Y-78122380D01*
X76966666Y-78122380D02*
X76395238Y-78122380D01*
X76680952Y-78122380D02*
X76680952Y-77122380D01*
X76585714Y-77265238D01*
X76490476Y-77360476D01*
X76395238Y-77408095D01*
G04 #@! TO.C,J2*
X116766666Y-77122380D02*
X116766666Y-77836666D01*
X116719047Y-77979523D01*
X116623809Y-78074761D01*
X116480952Y-78122380D01*
X116385714Y-78122380D01*
X117195238Y-77217619D02*
X117242857Y-77170000D01*
X117338095Y-77122380D01*
X117576190Y-77122380D01*
X117671428Y-77170000D01*
X117719047Y-77217619D01*
X117766666Y-77312857D01*
X117766666Y-77408095D01*
X117719047Y-77550952D01*
X117147619Y-78122380D01*
X117766666Y-78122380D01*
G04 #@! TO.C,R1*
X111433333Y-82852380D02*
X111100000Y-82376190D01*
X110861904Y-82852380D02*
X110861904Y-81852380D01*
X111242857Y-81852380D01*
X111338095Y-81900000D01*
X111385714Y-81947619D01*
X111433333Y-82042857D01*
X111433333Y-82185714D01*
X111385714Y-82280952D01*
X111338095Y-82328571D01*
X111242857Y-82376190D01*
X110861904Y-82376190D01*
X112385714Y-82852380D02*
X111814285Y-82852380D01*
X112100000Y-82852380D02*
X112100000Y-81852380D01*
X112004761Y-81995238D01*
X111909523Y-82090476D01*
X111814285Y-82138095D01*
G04 #@! TO.C,R2*
X113633333Y-82852380D02*
X113300000Y-82376190D01*
X113061904Y-82852380D02*
X113061904Y-81852380D01*
X113442857Y-81852380D01*
X113538095Y-81900000D01*
X113585714Y-81947619D01*
X113633333Y-82042857D01*
X113633333Y-82185714D01*
X113585714Y-82280952D01*
X113538095Y-82328571D01*
X113442857Y-82376190D01*
X113061904Y-82376190D01*
X114014285Y-81947619D02*
X114061904Y-81900000D01*
X114157142Y-81852380D01*
X114395238Y-81852380D01*
X114490476Y-81900000D01*
X114538095Y-81947619D01*
X114585714Y-82042857D01*
X114585714Y-82138095D01*
X114538095Y-82280952D01*
X113966666Y-82852380D01*
X114585714Y-82852380D01*
G04 #@! TO.C,R3*
X89433333Y-84252380D02*
X89100000Y-83776190D01*
X88861904Y-84252380D02*
X88861904Y-83252380D01*
X89242857Y-83252380D01*
X89338095Y-83300000D01*
X89385714Y-83347619D01*
X89433333Y-83442857D01*
X89433333Y-83585714D01*
X89385714Y-83680952D01*
X89338095Y-83728571D01*
X89242857Y-83776190D01*
X88861904Y-83776190D01*
X89766666Y-83252380D02*
X90385714Y-83252380D01*
X90052380Y-83633333D01*
X90195238Y-83633333D01*
X90290476Y-83680952D01*
X90338095Y-83728571D01*
X90385714Y-83823809D01*
X90385714Y-84061904D01*
X90338095Y-84157142D01*
X90290476Y-84204761D01*
X90195238Y-84252380D01*
X89909523Y-84252380D01*
X89814285Y-84204761D01*
X89766666Y-84157142D01*
G04 #@! TO.C,R4*
X97233333Y-78652380D02*
X96900000Y-78176190D01*
X96661904Y-78652380D02*
X96661904Y-77652380D01*
X97042857Y-77652380D01*
X97138095Y-77700000D01*
X97185714Y-77747619D01*
X97233333Y-77842857D01*
X97233333Y-77985714D01*
X97185714Y-78080952D01*
X97138095Y-78128571D01*
X97042857Y-78176190D01*
X96661904Y-78176190D01*
X98090476Y-77985714D02*
X98090476Y-78652380D01*
X97852380Y-77604761D02*
X97614285Y-78319047D01*
X98233333Y-78319047D01*
G04 #@! TO.C,R5*
X109233333Y-82852380D02*
X108900000Y-82376190D01*
X108661904Y-82852380D02*
X108661904Y-81852380D01*
X109042857Y-81852380D01*
X109138095Y-81900000D01*
X109185714Y-81947619D01*
X109233333Y-82042857D01*
X109233333Y-82185714D01*
X109185714Y-82280952D01*
X109138095Y-82328571D01*
X109042857Y-82376190D01*
X108661904Y-82376190D01*
X110138095Y-81852380D02*
X109661904Y-81852380D01*
X109614285Y-82328571D01*
X109661904Y-82280952D01*
X109757142Y-82233333D01*
X109995238Y-82233333D01*
X110090476Y-82280952D01*
X110138095Y-82328571D01*
X110185714Y-82423809D01*
X110185714Y-82661904D01*
X110138095Y-82757142D01*
X110090476Y-82804761D01*
X109995238Y-82852380D01*
X109757142Y-82852380D01*
X109661904Y-82804761D01*
X109614285Y-82757142D01*
G04 #@! TO.C,R6*
X89333333Y-86452380D02*
X89000000Y-85976190D01*
X88761904Y-86452380D02*
X88761904Y-85452380D01*
X89142857Y-85452380D01*
X89238095Y-85500000D01*
X89285714Y-85547619D01*
X89333333Y-85642857D01*
X89333333Y-85785714D01*
X89285714Y-85880952D01*
X89238095Y-85928571D01*
X89142857Y-85976190D01*
X88761904Y-85976190D01*
X90190476Y-85452380D02*
X90000000Y-85452380D01*
X89904761Y-85500000D01*
X89857142Y-85547619D01*
X89761904Y-85690476D01*
X89714285Y-85880952D01*
X89714285Y-86261904D01*
X89761904Y-86357142D01*
X89809523Y-86404761D01*
X89904761Y-86452380D01*
X90095238Y-86452380D01*
X90190476Y-86404761D01*
X90238095Y-86357142D01*
X90285714Y-86261904D01*
X90285714Y-86023809D01*
X90238095Y-85928571D01*
X90190476Y-85880952D01*
X90095238Y-85833333D01*
X89904761Y-85833333D01*
X89809523Y-85880952D01*
X89761904Y-85928571D01*
X89714285Y-86023809D01*
G04 #@! TO.C,R7*
X97533333Y-88452380D02*
X97200000Y-87976190D01*
X96961904Y-88452380D02*
X96961904Y-87452380D01*
X97342857Y-87452380D01*
X97438095Y-87500000D01*
X97485714Y-87547619D01*
X97533333Y-87642857D01*
X97533333Y-87785714D01*
X97485714Y-87880952D01*
X97438095Y-87928571D01*
X97342857Y-87976190D01*
X96961904Y-87976190D01*
X97866666Y-87452380D02*
X98533333Y-87452380D01*
X98104761Y-88452380D01*
G04 #@! TO.C,R8*
X95533333Y-93852380D02*
X95200000Y-93376190D01*
X94961904Y-93852380D02*
X94961904Y-92852380D01*
X95342857Y-92852380D01*
X95438095Y-92900000D01*
X95485714Y-92947619D01*
X95533333Y-93042857D01*
X95533333Y-93185714D01*
X95485714Y-93280952D01*
X95438095Y-93328571D01*
X95342857Y-93376190D01*
X94961904Y-93376190D01*
X96104761Y-93280952D02*
X96009523Y-93233333D01*
X95961904Y-93185714D01*
X95914285Y-93090476D01*
X95914285Y-93042857D01*
X95961904Y-92947619D01*
X96009523Y-92900000D01*
X96104761Y-92852380D01*
X96295238Y-92852380D01*
X96390476Y-92900000D01*
X96438095Y-92947619D01*
X96485714Y-93042857D01*
X96485714Y-93090476D01*
X96438095Y-93185714D01*
X96390476Y-93233333D01*
X96295238Y-93280952D01*
X96104761Y-93280952D01*
X96009523Y-93328571D01*
X95961904Y-93376190D01*
X95914285Y-93471428D01*
X95914285Y-93661904D01*
X95961904Y-93757142D01*
X96009523Y-93804761D01*
X96104761Y-93852380D01*
X96295238Y-93852380D01*
X96390476Y-93804761D01*
X96438095Y-93757142D01*
X96485714Y-93661904D01*
X96485714Y-93471428D01*
X96438095Y-93376190D01*
X96390476Y-93328571D01*
X96295238Y-93280952D01*
G04 #@! TO.C,R9*
X101733333Y-92652380D02*
X101400000Y-92176190D01*
X101161904Y-92652380D02*
X101161904Y-91652380D01*
X101542857Y-91652380D01*
X101638095Y-91700000D01*
X101685714Y-91747619D01*
X101733333Y-91842857D01*
X101733333Y-91985714D01*
X101685714Y-92080952D01*
X101638095Y-92128571D01*
X101542857Y-92176190D01*
X101161904Y-92176190D01*
X102209523Y-92652380D02*
X102400000Y-92652380D01*
X102495238Y-92604761D01*
X102542857Y-92557142D01*
X102638095Y-92414285D01*
X102685714Y-92223809D01*
X102685714Y-91842857D01*
X102638095Y-91747619D01*
X102590476Y-91700000D01*
X102495238Y-91652380D01*
X102304761Y-91652380D01*
X102209523Y-91700000D01*
X102161904Y-91747619D01*
X102114285Y-91842857D01*
X102114285Y-92080952D01*
X102161904Y-92176190D01*
X102209523Y-92223809D01*
X102304761Y-92271428D01*
X102495238Y-92271428D01*
X102590476Y-92223809D01*
X102638095Y-92176190D01*
X102685714Y-92080952D01*
G04 #@! TO.C,R10*
X101757142Y-90452380D02*
X101423809Y-89976190D01*
X101185714Y-90452380D02*
X101185714Y-89452380D01*
X101566666Y-89452380D01*
X101661904Y-89500000D01*
X101709523Y-89547619D01*
X101757142Y-89642857D01*
X101757142Y-89785714D01*
X101709523Y-89880952D01*
X101661904Y-89928571D01*
X101566666Y-89976190D01*
X101185714Y-89976190D01*
X102709523Y-90452380D02*
X102138095Y-90452380D01*
X102423809Y-90452380D02*
X102423809Y-89452380D01*
X102328571Y-89595238D01*
X102233333Y-89690476D01*
X102138095Y-89738095D01*
X103328571Y-89452380D02*
X103423809Y-89452380D01*
X103519047Y-89500000D01*
X103566666Y-89547619D01*
X103614285Y-89642857D01*
X103661904Y-89833333D01*
X103661904Y-90071428D01*
X103614285Y-90261904D01*
X103566666Y-90357142D01*
X103519047Y-90404761D01*
X103423809Y-90452380D01*
X103328571Y-90452380D01*
X103233333Y-90404761D01*
X103185714Y-90357142D01*
X103138095Y-90261904D01*
X103090476Y-90071428D01*
X103090476Y-89833333D01*
X103138095Y-89642857D01*
X103185714Y-89547619D01*
X103233333Y-89500000D01*
X103328571Y-89452380D01*
G04 #@! TO.C,U1*
X85538095Y-81452380D02*
X85538095Y-82261904D01*
X85585714Y-82357142D01*
X85633333Y-82404761D01*
X85728571Y-82452380D01*
X85919047Y-82452380D01*
X86014285Y-82404761D01*
X86061904Y-82357142D01*
X86109523Y-82261904D01*
X86109523Y-81452380D01*
X87109523Y-82452380D02*
X86538095Y-82452380D01*
X86823809Y-82452380D02*
X86823809Y-81452380D01*
X86728571Y-81595238D01*
X86633333Y-81690476D01*
X86538095Y-81738095D01*
G04 #@! TO.C,U2*
X88838095Y-86752380D02*
X88838095Y-87561904D01*
X88885714Y-87657142D01*
X88933333Y-87704761D01*
X89028571Y-87752380D01*
X89219047Y-87752380D01*
X89314285Y-87704761D01*
X89361904Y-87657142D01*
X89409523Y-87561904D01*
X89409523Y-86752380D01*
X89838095Y-86847619D02*
X89885714Y-86800000D01*
X89980952Y-86752380D01*
X90219047Y-86752380D01*
X90314285Y-86800000D01*
X90361904Y-86847619D01*
X90409523Y-86942857D01*
X90409523Y-87038095D01*
X90361904Y-87180952D01*
X89790476Y-87752380D01*
X90409523Y-87752380D01*
G04 #@! TO.C,U4*
X103538095Y-92852380D02*
X103538095Y-93661904D01*
X103585714Y-93757142D01*
X103633333Y-93804761D01*
X103728571Y-93852380D01*
X103919047Y-93852380D01*
X104014285Y-93804761D01*
X104061904Y-93757142D01*
X104109523Y-93661904D01*
X104109523Y-92852380D01*
X105014285Y-93185714D02*
X105014285Y-93852380D01*
X104776190Y-92804761D02*
X104538095Y-93519047D01*
X105157142Y-93519047D01*
G04 #@! TO.C,X1*
X107390476Y-87452380D02*
X108057142Y-88452380D01*
X108057142Y-87452380D02*
X107390476Y-88452380D01*
X108961904Y-88452380D02*
X108390476Y-88452380D01*
X108676190Y-88452380D02*
X108676190Y-87452380D01*
X108580952Y-87595238D01*
X108485714Y-87690476D01*
X108390476Y-87738095D01*
G04 #@! TD*
M02*
