G04 #@! TF.GenerationSoftware,KiCad,Pcbnew,(5.0.0)*
G04 #@! TF.CreationDate,2018-08-11T20:49:35+09:00*
G04 #@! TF.ProjectId,AD593x_impedance_analyzer,4144353933785F696D706564616E6365,rev?*
G04 #@! TF.SameCoordinates,Original*
G04 #@! TF.FileFunction,Copper,L1,Top,Signal*
G04 #@! TF.FilePolarity,Positive*
%FSLAX46Y46*%
G04 Gerber Fmt 4.6, Leading zero omitted, Abs format (unit mm)*
G04 Created by KiCad (PCBNEW (5.0.0)) date 08/11/18 20:49:35*
%MOMM*%
%LPD*%
G01*
G04 APERTURE LIST*
G04 #@! TA.AperFunction,Conductor*
%ADD10C,0.100000*%
G04 #@! TD*
G04 #@! TA.AperFunction,SMDPad,CuDef*
%ADD11C,1.150000*%
G04 #@! TD*
G04 #@! TA.AperFunction,SMDPad,CuDef*
%ADD12R,1.000000X0.400000*%
G04 #@! TD*
G04 #@! TA.AperFunction,ComponentPad*
%ADD13R,1.700000X1.700000*%
G04 #@! TD*
G04 #@! TA.AperFunction,ComponentPad*
%ADD14O,1.700000X1.700000*%
G04 #@! TD*
G04 #@! TA.AperFunction,SMDPad,CuDef*
%ADD15R,1.550000X0.600000*%
G04 #@! TD*
G04 #@! TA.AperFunction,SMDPad,CuDef*
%ADD16R,1.060000X0.650000*%
G04 #@! TD*
G04 #@! TA.AperFunction,SMDPad,CuDef*
%ADD17R,2.250000X1.800000*%
G04 #@! TD*
G04 #@! TA.AperFunction,ViaPad*
%ADD18C,0.800000*%
G04 #@! TD*
G04 #@! TA.AperFunction,Conductor*
%ADD19C,0.250000*%
G04 #@! TD*
G04 #@! TA.AperFunction,Conductor*
%ADD20C,0.500000*%
G04 #@! TD*
G04 #@! TA.AperFunction,Conductor*
%ADD21C,0.254000*%
G04 #@! TD*
G04 APERTURE END LIST*
D10*
G04 #@! TO.N,DUT-*
G04 #@! TO.C,R11*
G36*
X80624505Y-90201204D02*
X80648773Y-90204804D01*
X80672572Y-90210765D01*
X80695671Y-90219030D01*
X80717850Y-90229520D01*
X80738893Y-90242132D01*
X80758599Y-90256747D01*
X80776777Y-90273223D01*
X80793253Y-90291401D01*
X80807868Y-90311107D01*
X80820480Y-90332150D01*
X80830970Y-90354329D01*
X80839235Y-90377428D01*
X80845196Y-90401227D01*
X80848796Y-90425495D01*
X80850000Y-90449999D01*
X80850000Y-91350001D01*
X80848796Y-91374505D01*
X80845196Y-91398773D01*
X80839235Y-91422572D01*
X80830970Y-91445671D01*
X80820480Y-91467850D01*
X80807868Y-91488893D01*
X80793253Y-91508599D01*
X80776777Y-91526777D01*
X80758599Y-91543253D01*
X80738893Y-91557868D01*
X80717850Y-91570480D01*
X80695671Y-91580970D01*
X80672572Y-91589235D01*
X80648773Y-91595196D01*
X80624505Y-91598796D01*
X80600001Y-91600000D01*
X79949999Y-91600000D01*
X79925495Y-91598796D01*
X79901227Y-91595196D01*
X79877428Y-91589235D01*
X79854329Y-91580970D01*
X79832150Y-91570480D01*
X79811107Y-91557868D01*
X79791401Y-91543253D01*
X79773223Y-91526777D01*
X79756747Y-91508599D01*
X79742132Y-91488893D01*
X79729520Y-91467850D01*
X79719030Y-91445671D01*
X79710765Y-91422572D01*
X79704804Y-91398773D01*
X79701204Y-91374505D01*
X79700000Y-91350001D01*
X79700000Y-90449999D01*
X79701204Y-90425495D01*
X79704804Y-90401227D01*
X79710765Y-90377428D01*
X79719030Y-90354329D01*
X79729520Y-90332150D01*
X79742132Y-90311107D01*
X79756747Y-90291401D01*
X79773223Y-90273223D01*
X79791401Y-90256747D01*
X79811107Y-90242132D01*
X79832150Y-90229520D01*
X79854329Y-90219030D01*
X79877428Y-90210765D01*
X79901227Y-90204804D01*
X79925495Y-90201204D01*
X79949999Y-90200000D01*
X80600001Y-90200000D01*
X80624505Y-90201204D01*
X80624505Y-90201204D01*
G37*
D11*
G04 #@! TD*
G04 #@! TO.P,R11,1*
G04 #@! TO.N,DUT-*
X80275000Y-90900000D03*
D10*
G04 #@! TO.N,Net-(R10-Pad2)*
G04 #@! TO.C,R11*
G36*
X82674505Y-90201204D02*
X82698773Y-90204804D01*
X82722572Y-90210765D01*
X82745671Y-90219030D01*
X82767850Y-90229520D01*
X82788893Y-90242132D01*
X82808599Y-90256747D01*
X82826777Y-90273223D01*
X82843253Y-90291401D01*
X82857868Y-90311107D01*
X82870480Y-90332150D01*
X82880970Y-90354329D01*
X82889235Y-90377428D01*
X82895196Y-90401227D01*
X82898796Y-90425495D01*
X82900000Y-90449999D01*
X82900000Y-91350001D01*
X82898796Y-91374505D01*
X82895196Y-91398773D01*
X82889235Y-91422572D01*
X82880970Y-91445671D01*
X82870480Y-91467850D01*
X82857868Y-91488893D01*
X82843253Y-91508599D01*
X82826777Y-91526777D01*
X82808599Y-91543253D01*
X82788893Y-91557868D01*
X82767850Y-91570480D01*
X82745671Y-91580970D01*
X82722572Y-91589235D01*
X82698773Y-91595196D01*
X82674505Y-91598796D01*
X82650001Y-91600000D01*
X81999999Y-91600000D01*
X81975495Y-91598796D01*
X81951227Y-91595196D01*
X81927428Y-91589235D01*
X81904329Y-91580970D01*
X81882150Y-91570480D01*
X81861107Y-91557868D01*
X81841401Y-91543253D01*
X81823223Y-91526777D01*
X81806747Y-91508599D01*
X81792132Y-91488893D01*
X81779520Y-91467850D01*
X81769030Y-91445671D01*
X81760765Y-91422572D01*
X81754804Y-91398773D01*
X81751204Y-91374505D01*
X81750000Y-91350001D01*
X81750000Y-90449999D01*
X81751204Y-90425495D01*
X81754804Y-90401227D01*
X81760765Y-90377428D01*
X81769030Y-90354329D01*
X81779520Y-90332150D01*
X81792132Y-90311107D01*
X81806747Y-90291401D01*
X81823223Y-90273223D01*
X81841401Y-90256747D01*
X81861107Y-90242132D01*
X81882150Y-90229520D01*
X81904329Y-90219030D01*
X81927428Y-90210765D01*
X81951227Y-90204804D01*
X81975495Y-90201204D01*
X81999999Y-90200000D01*
X82650001Y-90200000D01*
X82674505Y-90201204D01*
X82674505Y-90201204D01*
G37*
D11*
G04 #@! TD*
G04 #@! TO.P,R11,2*
G04 #@! TO.N,Net-(R10-Pad2)*
X82325000Y-90900000D03*
D12*
G04 #@! TO.P,U3,1*
G04 #@! TO.N,Net-(U3-Pad1)*
X100400000Y-77025000D03*
G04 #@! TO.P,U3,2*
G04 #@! TO.N,Net-(U3-Pad2)*
X100400000Y-77675000D03*
G04 #@! TO.P,U3,3*
G04 #@! TO.N,Net-(U3-Pad3)*
X100400000Y-78325000D03*
G04 #@! TO.P,U3,4*
G04 #@! TO.N,Net-(R4-Pad2)*
X100400000Y-78975000D03*
G04 #@! TO.P,U3,5*
G04 #@! TO.N,Net-(R4-Pad1)*
X100400000Y-79625000D03*
G04 #@! TO.P,U3,6*
G04 #@! TO.N,Net-(C3-Pad2)*
X100400000Y-80275000D03*
G04 #@! TO.P,U3,7*
G04 #@! TO.N,Net-(U3-Pad7)*
X100400000Y-80925000D03*
G04 #@! TO.P,U3,8*
G04 #@! TO.N,Net-(R5-Pad2)*
X100400000Y-81575000D03*
G04 #@! TO.P,U3,9*
G04 #@! TO.N,+3V3*
X106200000Y-81575000D03*
G04 #@! TO.P,U3,10*
G04 #@! TO.N,+5V*
X106200000Y-80925000D03*
G04 #@! TO.P,U3,11*
X106200000Y-80275000D03*
G04 #@! TO.P,U3,12*
G04 #@! TO.N,GND*
X106200000Y-79625000D03*
G04 #@! TO.P,U3,13*
G04 #@! TO.N,GNDA*
X106200000Y-78975000D03*
G04 #@! TO.P,U3,14*
X106200000Y-78325000D03*
G04 #@! TO.P,U3,15*
G04 #@! TO.N,SDA*
X106200000Y-77675000D03*
G04 #@! TO.P,U3,16*
G04 #@! TO.N,SCL*
X106200000Y-77025000D03*
G04 #@! TD*
D10*
G04 #@! TO.N,Net-(C1-Pad1)*
G04 #@! TO.C,C1*
G36*
X81474505Y-79951204D02*
X81498773Y-79954804D01*
X81522572Y-79960765D01*
X81545671Y-79969030D01*
X81567850Y-79979520D01*
X81588893Y-79992132D01*
X81608599Y-80006747D01*
X81626777Y-80023223D01*
X81643253Y-80041401D01*
X81657868Y-80061107D01*
X81670480Y-80082150D01*
X81680970Y-80104329D01*
X81689235Y-80127428D01*
X81695196Y-80151227D01*
X81698796Y-80175495D01*
X81700000Y-80199999D01*
X81700000Y-80850001D01*
X81698796Y-80874505D01*
X81695196Y-80898773D01*
X81689235Y-80922572D01*
X81680970Y-80945671D01*
X81670480Y-80967850D01*
X81657868Y-80988893D01*
X81643253Y-81008599D01*
X81626777Y-81026777D01*
X81608599Y-81043253D01*
X81588893Y-81057868D01*
X81567850Y-81070480D01*
X81545671Y-81080970D01*
X81522572Y-81089235D01*
X81498773Y-81095196D01*
X81474505Y-81098796D01*
X81450001Y-81100000D01*
X80549999Y-81100000D01*
X80525495Y-81098796D01*
X80501227Y-81095196D01*
X80477428Y-81089235D01*
X80454329Y-81080970D01*
X80432150Y-81070480D01*
X80411107Y-81057868D01*
X80391401Y-81043253D01*
X80373223Y-81026777D01*
X80356747Y-81008599D01*
X80342132Y-80988893D01*
X80329520Y-80967850D01*
X80319030Y-80945671D01*
X80310765Y-80922572D01*
X80304804Y-80898773D01*
X80301204Y-80874505D01*
X80300000Y-80850001D01*
X80300000Y-80199999D01*
X80301204Y-80175495D01*
X80304804Y-80151227D01*
X80310765Y-80127428D01*
X80319030Y-80104329D01*
X80329520Y-80082150D01*
X80342132Y-80061107D01*
X80356747Y-80041401D01*
X80373223Y-80023223D01*
X80391401Y-80006747D01*
X80411107Y-79992132D01*
X80432150Y-79979520D01*
X80454329Y-79969030D01*
X80477428Y-79960765D01*
X80501227Y-79954804D01*
X80525495Y-79951204D01*
X80549999Y-79950000D01*
X81450001Y-79950000D01*
X81474505Y-79951204D01*
X81474505Y-79951204D01*
G37*
D11*
G04 #@! TD*
G04 #@! TO.P,C1,1*
G04 #@! TO.N,Net-(C1-Pad1)*
X81000000Y-80525000D03*
D10*
G04 #@! TO.N,GNDA*
G04 #@! TO.C,C1*
G36*
X81474505Y-77901204D02*
X81498773Y-77904804D01*
X81522572Y-77910765D01*
X81545671Y-77919030D01*
X81567850Y-77929520D01*
X81588893Y-77942132D01*
X81608599Y-77956747D01*
X81626777Y-77973223D01*
X81643253Y-77991401D01*
X81657868Y-78011107D01*
X81670480Y-78032150D01*
X81680970Y-78054329D01*
X81689235Y-78077428D01*
X81695196Y-78101227D01*
X81698796Y-78125495D01*
X81700000Y-78149999D01*
X81700000Y-78800001D01*
X81698796Y-78824505D01*
X81695196Y-78848773D01*
X81689235Y-78872572D01*
X81680970Y-78895671D01*
X81670480Y-78917850D01*
X81657868Y-78938893D01*
X81643253Y-78958599D01*
X81626777Y-78976777D01*
X81608599Y-78993253D01*
X81588893Y-79007868D01*
X81567850Y-79020480D01*
X81545671Y-79030970D01*
X81522572Y-79039235D01*
X81498773Y-79045196D01*
X81474505Y-79048796D01*
X81450001Y-79050000D01*
X80549999Y-79050000D01*
X80525495Y-79048796D01*
X80501227Y-79045196D01*
X80477428Y-79039235D01*
X80454329Y-79030970D01*
X80432150Y-79020480D01*
X80411107Y-79007868D01*
X80391401Y-78993253D01*
X80373223Y-78976777D01*
X80356747Y-78958599D01*
X80342132Y-78938893D01*
X80329520Y-78917850D01*
X80319030Y-78895671D01*
X80310765Y-78872572D01*
X80304804Y-78848773D01*
X80301204Y-78824505D01*
X80300000Y-78800001D01*
X80300000Y-78149999D01*
X80301204Y-78125495D01*
X80304804Y-78101227D01*
X80310765Y-78077428D01*
X80319030Y-78054329D01*
X80329520Y-78032150D01*
X80342132Y-78011107D01*
X80356747Y-77991401D01*
X80373223Y-77973223D01*
X80391401Y-77956747D01*
X80411107Y-77942132D01*
X80432150Y-77929520D01*
X80454329Y-77919030D01*
X80477428Y-77910765D01*
X80501227Y-77904804D01*
X80525495Y-77901204D01*
X80549999Y-77900000D01*
X81450001Y-77900000D01*
X81474505Y-77901204D01*
X81474505Y-77901204D01*
G37*
D11*
G04 #@! TD*
G04 #@! TO.P,C1,2*
G04 #@! TO.N,GNDA*
X81000000Y-78475000D03*
D10*
G04 #@! TO.N,GNDA*
G04 #@! TO.C,C2*
G36*
X91674505Y-77901204D02*
X91698773Y-77904804D01*
X91722572Y-77910765D01*
X91745671Y-77919030D01*
X91767850Y-77929520D01*
X91788893Y-77942132D01*
X91808599Y-77956747D01*
X91826777Y-77973223D01*
X91843253Y-77991401D01*
X91857868Y-78011107D01*
X91870480Y-78032150D01*
X91880970Y-78054329D01*
X91889235Y-78077428D01*
X91895196Y-78101227D01*
X91898796Y-78125495D01*
X91900000Y-78149999D01*
X91900000Y-78800001D01*
X91898796Y-78824505D01*
X91895196Y-78848773D01*
X91889235Y-78872572D01*
X91880970Y-78895671D01*
X91870480Y-78917850D01*
X91857868Y-78938893D01*
X91843253Y-78958599D01*
X91826777Y-78976777D01*
X91808599Y-78993253D01*
X91788893Y-79007868D01*
X91767850Y-79020480D01*
X91745671Y-79030970D01*
X91722572Y-79039235D01*
X91698773Y-79045196D01*
X91674505Y-79048796D01*
X91650001Y-79050000D01*
X90749999Y-79050000D01*
X90725495Y-79048796D01*
X90701227Y-79045196D01*
X90677428Y-79039235D01*
X90654329Y-79030970D01*
X90632150Y-79020480D01*
X90611107Y-79007868D01*
X90591401Y-78993253D01*
X90573223Y-78976777D01*
X90556747Y-78958599D01*
X90542132Y-78938893D01*
X90529520Y-78917850D01*
X90519030Y-78895671D01*
X90510765Y-78872572D01*
X90504804Y-78848773D01*
X90501204Y-78824505D01*
X90500000Y-78800001D01*
X90500000Y-78149999D01*
X90501204Y-78125495D01*
X90504804Y-78101227D01*
X90510765Y-78077428D01*
X90519030Y-78054329D01*
X90529520Y-78032150D01*
X90542132Y-78011107D01*
X90556747Y-77991401D01*
X90573223Y-77973223D01*
X90591401Y-77956747D01*
X90611107Y-77942132D01*
X90632150Y-77929520D01*
X90654329Y-77919030D01*
X90677428Y-77910765D01*
X90701227Y-77904804D01*
X90725495Y-77901204D01*
X90749999Y-77900000D01*
X91650001Y-77900000D01*
X91674505Y-77901204D01*
X91674505Y-77901204D01*
G37*
D11*
G04 #@! TD*
G04 #@! TO.P,C2,2*
G04 #@! TO.N,GNDA*
X91200000Y-78475000D03*
D10*
G04 #@! TO.N,Net-(C2-Pad1)*
G04 #@! TO.C,C2*
G36*
X91674505Y-79951204D02*
X91698773Y-79954804D01*
X91722572Y-79960765D01*
X91745671Y-79969030D01*
X91767850Y-79979520D01*
X91788893Y-79992132D01*
X91808599Y-80006747D01*
X91826777Y-80023223D01*
X91843253Y-80041401D01*
X91857868Y-80061107D01*
X91870480Y-80082150D01*
X91880970Y-80104329D01*
X91889235Y-80127428D01*
X91895196Y-80151227D01*
X91898796Y-80175495D01*
X91900000Y-80199999D01*
X91900000Y-80850001D01*
X91898796Y-80874505D01*
X91895196Y-80898773D01*
X91889235Y-80922572D01*
X91880970Y-80945671D01*
X91870480Y-80967850D01*
X91857868Y-80988893D01*
X91843253Y-81008599D01*
X91826777Y-81026777D01*
X91808599Y-81043253D01*
X91788893Y-81057868D01*
X91767850Y-81070480D01*
X91745671Y-81080970D01*
X91722572Y-81089235D01*
X91698773Y-81095196D01*
X91674505Y-81098796D01*
X91650001Y-81100000D01*
X90749999Y-81100000D01*
X90725495Y-81098796D01*
X90701227Y-81095196D01*
X90677428Y-81089235D01*
X90654329Y-81080970D01*
X90632150Y-81070480D01*
X90611107Y-81057868D01*
X90591401Y-81043253D01*
X90573223Y-81026777D01*
X90556747Y-81008599D01*
X90542132Y-80988893D01*
X90529520Y-80967850D01*
X90519030Y-80945671D01*
X90510765Y-80922572D01*
X90504804Y-80898773D01*
X90501204Y-80874505D01*
X90500000Y-80850001D01*
X90500000Y-80199999D01*
X90501204Y-80175495D01*
X90504804Y-80151227D01*
X90510765Y-80127428D01*
X90519030Y-80104329D01*
X90529520Y-80082150D01*
X90542132Y-80061107D01*
X90556747Y-80041401D01*
X90573223Y-80023223D01*
X90591401Y-80006747D01*
X90611107Y-79992132D01*
X90632150Y-79979520D01*
X90654329Y-79969030D01*
X90677428Y-79960765D01*
X90701227Y-79954804D01*
X90725495Y-79951204D01*
X90749999Y-79950000D01*
X91650001Y-79950000D01*
X91674505Y-79951204D01*
X91674505Y-79951204D01*
G37*
D11*
G04 #@! TD*
G04 #@! TO.P,C2,1*
G04 #@! TO.N,Net-(C2-Pad1)*
X91200000Y-80525000D03*
D10*
G04 #@! TO.N,Net-(C3-Pad1)*
G04 #@! TO.C,C3*
G36*
X95924505Y-83101204D02*
X95948773Y-83104804D01*
X95972572Y-83110765D01*
X95995671Y-83119030D01*
X96017850Y-83129520D01*
X96038893Y-83142132D01*
X96058599Y-83156747D01*
X96076777Y-83173223D01*
X96093253Y-83191401D01*
X96107868Y-83211107D01*
X96120480Y-83232150D01*
X96130970Y-83254329D01*
X96139235Y-83277428D01*
X96145196Y-83301227D01*
X96148796Y-83325495D01*
X96150000Y-83349999D01*
X96150000Y-84250001D01*
X96148796Y-84274505D01*
X96145196Y-84298773D01*
X96139235Y-84322572D01*
X96130970Y-84345671D01*
X96120480Y-84367850D01*
X96107868Y-84388893D01*
X96093253Y-84408599D01*
X96076777Y-84426777D01*
X96058599Y-84443253D01*
X96038893Y-84457868D01*
X96017850Y-84470480D01*
X95995671Y-84480970D01*
X95972572Y-84489235D01*
X95948773Y-84495196D01*
X95924505Y-84498796D01*
X95900001Y-84500000D01*
X95249999Y-84500000D01*
X95225495Y-84498796D01*
X95201227Y-84495196D01*
X95177428Y-84489235D01*
X95154329Y-84480970D01*
X95132150Y-84470480D01*
X95111107Y-84457868D01*
X95091401Y-84443253D01*
X95073223Y-84426777D01*
X95056747Y-84408599D01*
X95042132Y-84388893D01*
X95029520Y-84367850D01*
X95019030Y-84345671D01*
X95010765Y-84322572D01*
X95004804Y-84298773D01*
X95001204Y-84274505D01*
X95000000Y-84250001D01*
X95000000Y-83349999D01*
X95001204Y-83325495D01*
X95004804Y-83301227D01*
X95010765Y-83277428D01*
X95019030Y-83254329D01*
X95029520Y-83232150D01*
X95042132Y-83211107D01*
X95056747Y-83191401D01*
X95073223Y-83173223D01*
X95091401Y-83156747D01*
X95111107Y-83142132D01*
X95132150Y-83129520D01*
X95154329Y-83119030D01*
X95177428Y-83110765D01*
X95201227Y-83104804D01*
X95225495Y-83101204D01*
X95249999Y-83100000D01*
X95900001Y-83100000D01*
X95924505Y-83101204D01*
X95924505Y-83101204D01*
G37*
D11*
G04 #@! TD*
G04 #@! TO.P,C3,1*
G04 #@! TO.N,Net-(C3-Pad1)*
X95575000Y-83800000D03*
D10*
G04 #@! TO.N,Net-(C3-Pad2)*
G04 #@! TO.C,C3*
G36*
X97974505Y-83101204D02*
X97998773Y-83104804D01*
X98022572Y-83110765D01*
X98045671Y-83119030D01*
X98067850Y-83129520D01*
X98088893Y-83142132D01*
X98108599Y-83156747D01*
X98126777Y-83173223D01*
X98143253Y-83191401D01*
X98157868Y-83211107D01*
X98170480Y-83232150D01*
X98180970Y-83254329D01*
X98189235Y-83277428D01*
X98195196Y-83301227D01*
X98198796Y-83325495D01*
X98200000Y-83349999D01*
X98200000Y-84250001D01*
X98198796Y-84274505D01*
X98195196Y-84298773D01*
X98189235Y-84322572D01*
X98180970Y-84345671D01*
X98170480Y-84367850D01*
X98157868Y-84388893D01*
X98143253Y-84408599D01*
X98126777Y-84426777D01*
X98108599Y-84443253D01*
X98088893Y-84457868D01*
X98067850Y-84470480D01*
X98045671Y-84480970D01*
X98022572Y-84489235D01*
X97998773Y-84495196D01*
X97974505Y-84498796D01*
X97950001Y-84500000D01*
X97299999Y-84500000D01*
X97275495Y-84498796D01*
X97251227Y-84495196D01*
X97227428Y-84489235D01*
X97204329Y-84480970D01*
X97182150Y-84470480D01*
X97161107Y-84457868D01*
X97141401Y-84443253D01*
X97123223Y-84426777D01*
X97106747Y-84408599D01*
X97092132Y-84388893D01*
X97079520Y-84367850D01*
X97069030Y-84345671D01*
X97060765Y-84322572D01*
X97054804Y-84298773D01*
X97051204Y-84274505D01*
X97050000Y-84250001D01*
X97050000Y-83349999D01*
X97051204Y-83325495D01*
X97054804Y-83301227D01*
X97060765Y-83277428D01*
X97069030Y-83254329D01*
X97079520Y-83232150D01*
X97092132Y-83211107D01*
X97106747Y-83191401D01*
X97123223Y-83173223D01*
X97141401Y-83156747D01*
X97161107Y-83142132D01*
X97182150Y-83129520D01*
X97204329Y-83119030D01*
X97227428Y-83110765D01*
X97251227Y-83104804D01*
X97275495Y-83101204D01*
X97299999Y-83100000D01*
X97950001Y-83100000D01*
X97974505Y-83101204D01*
X97974505Y-83101204D01*
G37*
D11*
G04 #@! TD*
G04 #@! TO.P,C3,2*
G04 #@! TO.N,Net-(C3-Pad2)*
X97625000Y-83800000D03*
D10*
G04 #@! TO.N,GNDA*
G04 #@! TO.C,C4*
G36*
X85824505Y-86001204D02*
X85848773Y-86004804D01*
X85872572Y-86010765D01*
X85895671Y-86019030D01*
X85917850Y-86029520D01*
X85938893Y-86042132D01*
X85958599Y-86056747D01*
X85976777Y-86073223D01*
X85993253Y-86091401D01*
X86007868Y-86111107D01*
X86020480Y-86132150D01*
X86030970Y-86154329D01*
X86039235Y-86177428D01*
X86045196Y-86201227D01*
X86048796Y-86225495D01*
X86050000Y-86249999D01*
X86050000Y-87150001D01*
X86048796Y-87174505D01*
X86045196Y-87198773D01*
X86039235Y-87222572D01*
X86030970Y-87245671D01*
X86020480Y-87267850D01*
X86007868Y-87288893D01*
X85993253Y-87308599D01*
X85976777Y-87326777D01*
X85958599Y-87343253D01*
X85938893Y-87357868D01*
X85917850Y-87370480D01*
X85895671Y-87380970D01*
X85872572Y-87389235D01*
X85848773Y-87395196D01*
X85824505Y-87398796D01*
X85800001Y-87400000D01*
X85149999Y-87400000D01*
X85125495Y-87398796D01*
X85101227Y-87395196D01*
X85077428Y-87389235D01*
X85054329Y-87380970D01*
X85032150Y-87370480D01*
X85011107Y-87357868D01*
X84991401Y-87343253D01*
X84973223Y-87326777D01*
X84956747Y-87308599D01*
X84942132Y-87288893D01*
X84929520Y-87267850D01*
X84919030Y-87245671D01*
X84910765Y-87222572D01*
X84904804Y-87198773D01*
X84901204Y-87174505D01*
X84900000Y-87150001D01*
X84900000Y-86249999D01*
X84901204Y-86225495D01*
X84904804Y-86201227D01*
X84910765Y-86177428D01*
X84919030Y-86154329D01*
X84929520Y-86132150D01*
X84942132Y-86111107D01*
X84956747Y-86091401D01*
X84973223Y-86073223D01*
X84991401Y-86056747D01*
X85011107Y-86042132D01*
X85032150Y-86029520D01*
X85054329Y-86019030D01*
X85077428Y-86010765D01*
X85101227Y-86004804D01*
X85125495Y-86001204D01*
X85149999Y-86000000D01*
X85800001Y-86000000D01*
X85824505Y-86001204D01*
X85824505Y-86001204D01*
G37*
D11*
G04 #@! TD*
G04 #@! TO.P,C4,2*
G04 #@! TO.N,GNDA*
X85475000Y-86700000D03*
D10*
G04 #@! TO.N,+5V*
G04 #@! TO.C,C4*
G36*
X87874505Y-86001204D02*
X87898773Y-86004804D01*
X87922572Y-86010765D01*
X87945671Y-86019030D01*
X87967850Y-86029520D01*
X87988893Y-86042132D01*
X88008599Y-86056747D01*
X88026777Y-86073223D01*
X88043253Y-86091401D01*
X88057868Y-86111107D01*
X88070480Y-86132150D01*
X88080970Y-86154329D01*
X88089235Y-86177428D01*
X88095196Y-86201227D01*
X88098796Y-86225495D01*
X88100000Y-86249999D01*
X88100000Y-87150001D01*
X88098796Y-87174505D01*
X88095196Y-87198773D01*
X88089235Y-87222572D01*
X88080970Y-87245671D01*
X88070480Y-87267850D01*
X88057868Y-87288893D01*
X88043253Y-87308599D01*
X88026777Y-87326777D01*
X88008599Y-87343253D01*
X87988893Y-87357868D01*
X87967850Y-87370480D01*
X87945671Y-87380970D01*
X87922572Y-87389235D01*
X87898773Y-87395196D01*
X87874505Y-87398796D01*
X87850001Y-87400000D01*
X87199999Y-87400000D01*
X87175495Y-87398796D01*
X87151227Y-87395196D01*
X87127428Y-87389235D01*
X87104329Y-87380970D01*
X87082150Y-87370480D01*
X87061107Y-87357868D01*
X87041401Y-87343253D01*
X87023223Y-87326777D01*
X87006747Y-87308599D01*
X86992132Y-87288893D01*
X86979520Y-87267850D01*
X86969030Y-87245671D01*
X86960765Y-87222572D01*
X86954804Y-87198773D01*
X86951204Y-87174505D01*
X86950000Y-87150001D01*
X86950000Y-86249999D01*
X86951204Y-86225495D01*
X86954804Y-86201227D01*
X86960765Y-86177428D01*
X86969030Y-86154329D01*
X86979520Y-86132150D01*
X86992132Y-86111107D01*
X87006747Y-86091401D01*
X87023223Y-86073223D01*
X87041401Y-86056747D01*
X87061107Y-86042132D01*
X87082150Y-86029520D01*
X87104329Y-86019030D01*
X87127428Y-86010765D01*
X87151227Y-86004804D01*
X87175495Y-86001204D01*
X87199999Y-86000000D01*
X87850001Y-86000000D01*
X87874505Y-86001204D01*
X87874505Y-86001204D01*
G37*
D11*
G04 #@! TD*
G04 #@! TO.P,C4,1*
G04 #@! TO.N,+5V*
X87525000Y-86700000D03*
D10*
G04 #@! TO.N,+5V*
G04 #@! TO.C,C5*
G36*
X109874505Y-89226204D02*
X109898773Y-89229804D01*
X109922572Y-89235765D01*
X109945671Y-89244030D01*
X109967850Y-89254520D01*
X109988893Y-89267132D01*
X110008599Y-89281747D01*
X110026777Y-89298223D01*
X110043253Y-89316401D01*
X110057868Y-89336107D01*
X110070480Y-89357150D01*
X110080970Y-89379329D01*
X110089235Y-89402428D01*
X110095196Y-89426227D01*
X110098796Y-89450495D01*
X110100000Y-89474999D01*
X110100000Y-90125001D01*
X110098796Y-90149505D01*
X110095196Y-90173773D01*
X110089235Y-90197572D01*
X110080970Y-90220671D01*
X110070480Y-90242850D01*
X110057868Y-90263893D01*
X110043253Y-90283599D01*
X110026777Y-90301777D01*
X110008599Y-90318253D01*
X109988893Y-90332868D01*
X109967850Y-90345480D01*
X109945671Y-90355970D01*
X109922572Y-90364235D01*
X109898773Y-90370196D01*
X109874505Y-90373796D01*
X109850001Y-90375000D01*
X108949999Y-90375000D01*
X108925495Y-90373796D01*
X108901227Y-90370196D01*
X108877428Y-90364235D01*
X108854329Y-90355970D01*
X108832150Y-90345480D01*
X108811107Y-90332868D01*
X108791401Y-90318253D01*
X108773223Y-90301777D01*
X108756747Y-90283599D01*
X108742132Y-90263893D01*
X108729520Y-90242850D01*
X108719030Y-90220671D01*
X108710765Y-90197572D01*
X108704804Y-90173773D01*
X108701204Y-90149505D01*
X108700000Y-90125001D01*
X108700000Y-89474999D01*
X108701204Y-89450495D01*
X108704804Y-89426227D01*
X108710765Y-89402428D01*
X108719030Y-89379329D01*
X108729520Y-89357150D01*
X108742132Y-89336107D01*
X108756747Y-89316401D01*
X108773223Y-89298223D01*
X108791401Y-89281747D01*
X108811107Y-89267132D01*
X108832150Y-89254520D01*
X108854329Y-89244030D01*
X108877428Y-89235765D01*
X108901227Y-89229804D01*
X108925495Y-89226204D01*
X108949999Y-89225000D01*
X109850001Y-89225000D01*
X109874505Y-89226204D01*
X109874505Y-89226204D01*
G37*
D11*
G04 #@! TD*
G04 #@! TO.P,C5,1*
G04 #@! TO.N,+5V*
X109400000Y-89800000D03*
D10*
G04 #@! TO.N,GNDA*
G04 #@! TO.C,C5*
G36*
X109874505Y-91276204D02*
X109898773Y-91279804D01*
X109922572Y-91285765D01*
X109945671Y-91294030D01*
X109967850Y-91304520D01*
X109988893Y-91317132D01*
X110008599Y-91331747D01*
X110026777Y-91348223D01*
X110043253Y-91366401D01*
X110057868Y-91386107D01*
X110070480Y-91407150D01*
X110080970Y-91429329D01*
X110089235Y-91452428D01*
X110095196Y-91476227D01*
X110098796Y-91500495D01*
X110100000Y-91524999D01*
X110100000Y-92175001D01*
X110098796Y-92199505D01*
X110095196Y-92223773D01*
X110089235Y-92247572D01*
X110080970Y-92270671D01*
X110070480Y-92292850D01*
X110057868Y-92313893D01*
X110043253Y-92333599D01*
X110026777Y-92351777D01*
X110008599Y-92368253D01*
X109988893Y-92382868D01*
X109967850Y-92395480D01*
X109945671Y-92405970D01*
X109922572Y-92414235D01*
X109898773Y-92420196D01*
X109874505Y-92423796D01*
X109850001Y-92425000D01*
X108949999Y-92425000D01*
X108925495Y-92423796D01*
X108901227Y-92420196D01*
X108877428Y-92414235D01*
X108854329Y-92405970D01*
X108832150Y-92395480D01*
X108811107Y-92382868D01*
X108791401Y-92368253D01*
X108773223Y-92351777D01*
X108756747Y-92333599D01*
X108742132Y-92313893D01*
X108729520Y-92292850D01*
X108719030Y-92270671D01*
X108710765Y-92247572D01*
X108704804Y-92223773D01*
X108701204Y-92199505D01*
X108700000Y-92175001D01*
X108700000Y-91524999D01*
X108701204Y-91500495D01*
X108704804Y-91476227D01*
X108710765Y-91452428D01*
X108719030Y-91429329D01*
X108729520Y-91407150D01*
X108742132Y-91386107D01*
X108756747Y-91366401D01*
X108773223Y-91348223D01*
X108791401Y-91331747D01*
X108811107Y-91317132D01*
X108832150Y-91304520D01*
X108854329Y-91294030D01*
X108877428Y-91285765D01*
X108901227Y-91279804D01*
X108925495Y-91276204D01*
X108949999Y-91275000D01*
X109850001Y-91275000D01*
X109874505Y-91276204D01*
X109874505Y-91276204D01*
G37*
D11*
G04 #@! TD*
G04 #@! TO.P,C5,2*
G04 #@! TO.N,GNDA*
X109400000Y-91850000D03*
D10*
G04 #@! TO.N,GND*
G04 #@! TO.C,C6*
G36*
X110924505Y-78101204D02*
X110948773Y-78104804D01*
X110972572Y-78110765D01*
X110995671Y-78119030D01*
X111017850Y-78129520D01*
X111038893Y-78142132D01*
X111058599Y-78156747D01*
X111076777Y-78173223D01*
X111093253Y-78191401D01*
X111107868Y-78211107D01*
X111120480Y-78232150D01*
X111130970Y-78254329D01*
X111139235Y-78277428D01*
X111145196Y-78301227D01*
X111148796Y-78325495D01*
X111150000Y-78349999D01*
X111150000Y-79250001D01*
X111148796Y-79274505D01*
X111145196Y-79298773D01*
X111139235Y-79322572D01*
X111130970Y-79345671D01*
X111120480Y-79367850D01*
X111107868Y-79388893D01*
X111093253Y-79408599D01*
X111076777Y-79426777D01*
X111058599Y-79443253D01*
X111038893Y-79457868D01*
X111017850Y-79470480D01*
X110995671Y-79480970D01*
X110972572Y-79489235D01*
X110948773Y-79495196D01*
X110924505Y-79498796D01*
X110900001Y-79500000D01*
X110249999Y-79500000D01*
X110225495Y-79498796D01*
X110201227Y-79495196D01*
X110177428Y-79489235D01*
X110154329Y-79480970D01*
X110132150Y-79470480D01*
X110111107Y-79457868D01*
X110091401Y-79443253D01*
X110073223Y-79426777D01*
X110056747Y-79408599D01*
X110042132Y-79388893D01*
X110029520Y-79367850D01*
X110019030Y-79345671D01*
X110010765Y-79322572D01*
X110004804Y-79298773D01*
X110001204Y-79274505D01*
X110000000Y-79250001D01*
X110000000Y-78349999D01*
X110001204Y-78325495D01*
X110004804Y-78301227D01*
X110010765Y-78277428D01*
X110019030Y-78254329D01*
X110029520Y-78232150D01*
X110042132Y-78211107D01*
X110056747Y-78191401D01*
X110073223Y-78173223D01*
X110091401Y-78156747D01*
X110111107Y-78142132D01*
X110132150Y-78129520D01*
X110154329Y-78119030D01*
X110177428Y-78110765D01*
X110201227Y-78104804D01*
X110225495Y-78101204D01*
X110249999Y-78100000D01*
X110900001Y-78100000D01*
X110924505Y-78101204D01*
X110924505Y-78101204D01*
G37*
D11*
G04 #@! TD*
G04 #@! TO.P,C6,2*
G04 #@! TO.N,GND*
X110575000Y-78800000D03*
D10*
G04 #@! TO.N,+3V3*
G04 #@! TO.C,C6*
G36*
X112974505Y-78101204D02*
X112998773Y-78104804D01*
X113022572Y-78110765D01*
X113045671Y-78119030D01*
X113067850Y-78129520D01*
X113088893Y-78142132D01*
X113108599Y-78156747D01*
X113126777Y-78173223D01*
X113143253Y-78191401D01*
X113157868Y-78211107D01*
X113170480Y-78232150D01*
X113180970Y-78254329D01*
X113189235Y-78277428D01*
X113195196Y-78301227D01*
X113198796Y-78325495D01*
X113200000Y-78349999D01*
X113200000Y-79250001D01*
X113198796Y-79274505D01*
X113195196Y-79298773D01*
X113189235Y-79322572D01*
X113180970Y-79345671D01*
X113170480Y-79367850D01*
X113157868Y-79388893D01*
X113143253Y-79408599D01*
X113126777Y-79426777D01*
X113108599Y-79443253D01*
X113088893Y-79457868D01*
X113067850Y-79470480D01*
X113045671Y-79480970D01*
X113022572Y-79489235D01*
X112998773Y-79495196D01*
X112974505Y-79498796D01*
X112950001Y-79500000D01*
X112299999Y-79500000D01*
X112275495Y-79498796D01*
X112251227Y-79495196D01*
X112227428Y-79489235D01*
X112204329Y-79480970D01*
X112182150Y-79470480D01*
X112161107Y-79457868D01*
X112141401Y-79443253D01*
X112123223Y-79426777D01*
X112106747Y-79408599D01*
X112092132Y-79388893D01*
X112079520Y-79367850D01*
X112069030Y-79345671D01*
X112060765Y-79322572D01*
X112054804Y-79298773D01*
X112051204Y-79274505D01*
X112050000Y-79250001D01*
X112050000Y-78349999D01*
X112051204Y-78325495D01*
X112054804Y-78301227D01*
X112060765Y-78277428D01*
X112069030Y-78254329D01*
X112079520Y-78232150D01*
X112092132Y-78211107D01*
X112106747Y-78191401D01*
X112123223Y-78173223D01*
X112141401Y-78156747D01*
X112161107Y-78142132D01*
X112182150Y-78129520D01*
X112204329Y-78119030D01*
X112227428Y-78110765D01*
X112251227Y-78104804D01*
X112275495Y-78101204D01*
X112299999Y-78100000D01*
X112950001Y-78100000D01*
X112974505Y-78101204D01*
X112974505Y-78101204D01*
G37*
D11*
G04 #@! TD*
G04 #@! TO.P,C6,1*
G04 #@! TO.N,+3V3*
X112625000Y-78800000D03*
D13*
G04 #@! TO.P,J1,1*
G04 #@! TO.N,+5V*
X76300000Y-80000000D03*
D14*
G04 #@! TO.P,J1,2*
G04 #@! TO.N,RANGE_SW*
X76300000Y-82540000D03*
G04 #@! TO.P,J1,3*
G04 #@! TO.N,DUT+*
X76300000Y-85080000D03*
G04 #@! TO.P,J1,4*
G04 #@! TO.N,DUT-*
X76300000Y-87620000D03*
G04 #@! TO.P,J1,5*
G04 #@! TO.N,GNDA*
X76300000Y-90160000D03*
G04 #@! TD*
G04 #@! TO.P,J2,5*
G04 #@! TO.N,GND*
X117100000Y-90160000D03*
G04 #@! TO.P,J2,4*
G04 #@! TO.N,SDA*
X117100000Y-87620000D03*
G04 #@! TO.P,J2,3*
G04 #@! TO.N,SCL*
X117100000Y-85080000D03*
G04 #@! TO.P,J2,2*
G04 #@! TO.N,CLK*
X117100000Y-82540000D03*
D13*
G04 #@! TO.P,J2,1*
G04 #@! TO.N,+3V3*
X117100000Y-80000000D03*
G04 #@! TD*
D10*
G04 #@! TO.N,SDA*
G04 #@! TO.C,R1*
G36*
X112074505Y-85351204D02*
X112098773Y-85354804D01*
X112122572Y-85360765D01*
X112145671Y-85369030D01*
X112167850Y-85379520D01*
X112188893Y-85392132D01*
X112208599Y-85406747D01*
X112226777Y-85423223D01*
X112243253Y-85441401D01*
X112257868Y-85461107D01*
X112270480Y-85482150D01*
X112280970Y-85504329D01*
X112289235Y-85527428D01*
X112295196Y-85551227D01*
X112298796Y-85575495D01*
X112300000Y-85599999D01*
X112300000Y-86250001D01*
X112298796Y-86274505D01*
X112295196Y-86298773D01*
X112289235Y-86322572D01*
X112280970Y-86345671D01*
X112270480Y-86367850D01*
X112257868Y-86388893D01*
X112243253Y-86408599D01*
X112226777Y-86426777D01*
X112208599Y-86443253D01*
X112188893Y-86457868D01*
X112167850Y-86470480D01*
X112145671Y-86480970D01*
X112122572Y-86489235D01*
X112098773Y-86495196D01*
X112074505Y-86498796D01*
X112050001Y-86500000D01*
X111149999Y-86500000D01*
X111125495Y-86498796D01*
X111101227Y-86495196D01*
X111077428Y-86489235D01*
X111054329Y-86480970D01*
X111032150Y-86470480D01*
X111011107Y-86457868D01*
X110991401Y-86443253D01*
X110973223Y-86426777D01*
X110956747Y-86408599D01*
X110942132Y-86388893D01*
X110929520Y-86367850D01*
X110919030Y-86345671D01*
X110910765Y-86322572D01*
X110904804Y-86298773D01*
X110901204Y-86274505D01*
X110900000Y-86250001D01*
X110900000Y-85599999D01*
X110901204Y-85575495D01*
X110904804Y-85551227D01*
X110910765Y-85527428D01*
X110919030Y-85504329D01*
X110929520Y-85482150D01*
X110942132Y-85461107D01*
X110956747Y-85441401D01*
X110973223Y-85423223D01*
X110991401Y-85406747D01*
X111011107Y-85392132D01*
X111032150Y-85379520D01*
X111054329Y-85369030D01*
X111077428Y-85360765D01*
X111101227Y-85354804D01*
X111125495Y-85351204D01*
X111149999Y-85350000D01*
X112050001Y-85350000D01*
X112074505Y-85351204D01*
X112074505Y-85351204D01*
G37*
D11*
G04 #@! TD*
G04 #@! TO.P,R1,2*
G04 #@! TO.N,SDA*
X111600000Y-85925000D03*
D10*
G04 #@! TO.N,+3V3*
G04 #@! TO.C,R1*
G36*
X112074505Y-83301204D02*
X112098773Y-83304804D01*
X112122572Y-83310765D01*
X112145671Y-83319030D01*
X112167850Y-83329520D01*
X112188893Y-83342132D01*
X112208599Y-83356747D01*
X112226777Y-83373223D01*
X112243253Y-83391401D01*
X112257868Y-83411107D01*
X112270480Y-83432150D01*
X112280970Y-83454329D01*
X112289235Y-83477428D01*
X112295196Y-83501227D01*
X112298796Y-83525495D01*
X112300000Y-83549999D01*
X112300000Y-84200001D01*
X112298796Y-84224505D01*
X112295196Y-84248773D01*
X112289235Y-84272572D01*
X112280970Y-84295671D01*
X112270480Y-84317850D01*
X112257868Y-84338893D01*
X112243253Y-84358599D01*
X112226777Y-84376777D01*
X112208599Y-84393253D01*
X112188893Y-84407868D01*
X112167850Y-84420480D01*
X112145671Y-84430970D01*
X112122572Y-84439235D01*
X112098773Y-84445196D01*
X112074505Y-84448796D01*
X112050001Y-84450000D01*
X111149999Y-84450000D01*
X111125495Y-84448796D01*
X111101227Y-84445196D01*
X111077428Y-84439235D01*
X111054329Y-84430970D01*
X111032150Y-84420480D01*
X111011107Y-84407868D01*
X110991401Y-84393253D01*
X110973223Y-84376777D01*
X110956747Y-84358599D01*
X110942132Y-84338893D01*
X110929520Y-84317850D01*
X110919030Y-84295671D01*
X110910765Y-84272572D01*
X110904804Y-84248773D01*
X110901204Y-84224505D01*
X110900000Y-84200001D01*
X110900000Y-83549999D01*
X110901204Y-83525495D01*
X110904804Y-83501227D01*
X110910765Y-83477428D01*
X110919030Y-83454329D01*
X110929520Y-83432150D01*
X110942132Y-83411107D01*
X110956747Y-83391401D01*
X110973223Y-83373223D01*
X110991401Y-83356747D01*
X111011107Y-83342132D01*
X111032150Y-83329520D01*
X111054329Y-83319030D01*
X111077428Y-83310765D01*
X111101227Y-83304804D01*
X111125495Y-83301204D01*
X111149999Y-83300000D01*
X112050001Y-83300000D01*
X112074505Y-83301204D01*
X112074505Y-83301204D01*
G37*
D11*
G04 #@! TD*
G04 #@! TO.P,R1,1*
G04 #@! TO.N,+3V3*
X111600000Y-83875000D03*
D10*
G04 #@! TO.N,+3V3*
G04 #@! TO.C,R2*
G36*
X114274505Y-83301204D02*
X114298773Y-83304804D01*
X114322572Y-83310765D01*
X114345671Y-83319030D01*
X114367850Y-83329520D01*
X114388893Y-83342132D01*
X114408599Y-83356747D01*
X114426777Y-83373223D01*
X114443253Y-83391401D01*
X114457868Y-83411107D01*
X114470480Y-83432150D01*
X114480970Y-83454329D01*
X114489235Y-83477428D01*
X114495196Y-83501227D01*
X114498796Y-83525495D01*
X114500000Y-83549999D01*
X114500000Y-84200001D01*
X114498796Y-84224505D01*
X114495196Y-84248773D01*
X114489235Y-84272572D01*
X114480970Y-84295671D01*
X114470480Y-84317850D01*
X114457868Y-84338893D01*
X114443253Y-84358599D01*
X114426777Y-84376777D01*
X114408599Y-84393253D01*
X114388893Y-84407868D01*
X114367850Y-84420480D01*
X114345671Y-84430970D01*
X114322572Y-84439235D01*
X114298773Y-84445196D01*
X114274505Y-84448796D01*
X114250001Y-84450000D01*
X113349999Y-84450000D01*
X113325495Y-84448796D01*
X113301227Y-84445196D01*
X113277428Y-84439235D01*
X113254329Y-84430970D01*
X113232150Y-84420480D01*
X113211107Y-84407868D01*
X113191401Y-84393253D01*
X113173223Y-84376777D01*
X113156747Y-84358599D01*
X113142132Y-84338893D01*
X113129520Y-84317850D01*
X113119030Y-84295671D01*
X113110765Y-84272572D01*
X113104804Y-84248773D01*
X113101204Y-84224505D01*
X113100000Y-84200001D01*
X113100000Y-83549999D01*
X113101204Y-83525495D01*
X113104804Y-83501227D01*
X113110765Y-83477428D01*
X113119030Y-83454329D01*
X113129520Y-83432150D01*
X113142132Y-83411107D01*
X113156747Y-83391401D01*
X113173223Y-83373223D01*
X113191401Y-83356747D01*
X113211107Y-83342132D01*
X113232150Y-83329520D01*
X113254329Y-83319030D01*
X113277428Y-83310765D01*
X113301227Y-83304804D01*
X113325495Y-83301204D01*
X113349999Y-83300000D01*
X114250001Y-83300000D01*
X114274505Y-83301204D01*
X114274505Y-83301204D01*
G37*
D11*
G04 #@! TD*
G04 #@! TO.P,R2,1*
G04 #@! TO.N,+3V3*
X113800000Y-83875000D03*
D10*
G04 #@! TO.N,SCL*
G04 #@! TO.C,R2*
G36*
X114274505Y-85351204D02*
X114298773Y-85354804D01*
X114322572Y-85360765D01*
X114345671Y-85369030D01*
X114367850Y-85379520D01*
X114388893Y-85392132D01*
X114408599Y-85406747D01*
X114426777Y-85423223D01*
X114443253Y-85441401D01*
X114457868Y-85461107D01*
X114470480Y-85482150D01*
X114480970Y-85504329D01*
X114489235Y-85527428D01*
X114495196Y-85551227D01*
X114498796Y-85575495D01*
X114500000Y-85599999D01*
X114500000Y-86250001D01*
X114498796Y-86274505D01*
X114495196Y-86298773D01*
X114489235Y-86322572D01*
X114480970Y-86345671D01*
X114470480Y-86367850D01*
X114457868Y-86388893D01*
X114443253Y-86408599D01*
X114426777Y-86426777D01*
X114408599Y-86443253D01*
X114388893Y-86457868D01*
X114367850Y-86470480D01*
X114345671Y-86480970D01*
X114322572Y-86489235D01*
X114298773Y-86495196D01*
X114274505Y-86498796D01*
X114250001Y-86500000D01*
X113349999Y-86500000D01*
X113325495Y-86498796D01*
X113301227Y-86495196D01*
X113277428Y-86489235D01*
X113254329Y-86480970D01*
X113232150Y-86470480D01*
X113211107Y-86457868D01*
X113191401Y-86443253D01*
X113173223Y-86426777D01*
X113156747Y-86408599D01*
X113142132Y-86388893D01*
X113129520Y-86367850D01*
X113119030Y-86345671D01*
X113110765Y-86322572D01*
X113104804Y-86298773D01*
X113101204Y-86274505D01*
X113100000Y-86250001D01*
X113100000Y-85599999D01*
X113101204Y-85575495D01*
X113104804Y-85551227D01*
X113110765Y-85527428D01*
X113119030Y-85504329D01*
X113129520Y-85482150D01*
X113142132Y-85461107D01*
X113156747Y-85441401D01*
X113173223Y-85423223D01*
X113191401Y-85406747D01*
X113211107Y-85392132D01*
X113232150Y-85379520D01*
X113254329Y-85369030D01*
X113277428Y-85360765D01*
X113301227Y-85354804D01*
X113325495Y-85351204D01*
X113349999Y-85350000D01*
X114250001Y-85350000D01*
X114274505Y-85351204D01*
X114274505Y-85351204D01*
G37*
D11*
G04 #@! TD*
G04 #@! TO.P,R2,2*
G04 #@! TO.N,SCL*
X113800000Y-85925000D03*
D10*
G04 #@! TO.N,Net-(C3-Pad1)*
G04 #@! TO.C,R3*
G36*
X93874505Y-83101204D02*
X93898773Y-83104804D01*
X93922572Y-83110765D01*
X93945671Y-83119030D01*
X93967850Y-83129520D01*
X93988893Y-83142132D01*
X94008599Y-83156747D01*
X94026777Y-83173223D01*
X94043253Y-83191401D01*
X94057868Y-83211107D01*
X94070480Y-83232150D01*
X94080970Y-83254329D01*
X94089235Y-83277428D01*
X94095196Y-83301227D01*
X94098796Y-83325495D01*
X94100000Y-83349999D01*
X94100000Y-84250001D01*
X94098796Y-84274505D01*
X94095196Y-84298773D01*
X94089235Y-84322572D01*
X94080970Y-84345671D01*
X94070480Y-84367850D01*
X94057868Y-84388893D01*
X94043253Y-84408599D01*
X94026777Y-84426777D01*
X94008599Y-84443253D01*
X93988893Y-84457868D01*
X93967850Y-84470480D01*
X93945671Y-84480970D01*
X93922572Y-84489235D01*
X93898773Y-84495196D01*
X93874505Y-84498796D01*
X93850001Y-84500000D01*
X93199999Y-84500000D01*
X93175495Y-84498796D01*
X93151227Y-84495196D01*
X93127428Y-84489235D01*
X93104329Y-84480970D01*
X93082150Y-84470480D01*
X93061107Y-84457868D01*
X93041401Y-84443253D01*
X93023223Y-84426777D01*
X93006747Y-84408599D01*
X92992132Y-84388893D01*
X92979520Y-84367850D01*
X92969030Y-84345671D01*
X92960765Y-84322572D01*
X92954804Y-84298773D01*
X92951204Y-84274505D01*
X92950000Y-84250001D01*
X92950000Y-83349999D01*
X92951204Y-83325495D01*
X92954804Y-83301227D01*
X92960765Y-83277428D01*
X92969030Y-83254329D01*
X92979520Y-83232150D01*
X92992132Y-83211107D01*
X93006747Y-83191401D01*
X93023223Y-83173223D01*
X93041401Y-83156747D01*
X93061107Y-83142132D01*
X93082150Y-83129520D01*
X93104329Y-83119030D01*
X93127428Y-83110765D01*
X93151227Y-83104804D01*
X93175495Y-83101204D01*
X93199999Y-83100000D01*
X93850001Y-83100000D01*
X93874505Y-83101204D01*
X93874505Y-83101204D01*
G37*
D11*
G04 #@! TD*
G04 #@! TO.P,R3,2*
G04 #@! TO.N,Net-(C3-Pad1)*
X93525000Y-83800000D03*
D10*
G04 #@! TO.N,Net-(C2-Pad1)*
G04 #@! TO.C,R3*
G36*
X91824505Y-83101204D02*
X91848773Y-83104804D01*
X91872572Y-83110765D01*
X91895671Y-83119030D01*
X91917850Y-83129520D01*
X91938893Y-83142132D01*
X91958599Y-83156747D01*
X91976777Y-83173223D01*
X91993253Y-83191401D01*
X92007868Y-83211107D01*
X92020480Y-83232150D01*
X92030970Y-83254329D01*
X92039235Y-83277428D01*
X92045196Y-83301227D01*
X92048796Y-83325495D01*
X92050000Y-83349999D01*
X92050000Y-84250001D01*
X92048796Y-84274505D01*
X92045196Y-84298773D01*
X92039235Y-84322572D01*
X92030970Y-84345671D01*
X92020480Y-84367850D01*
X92007868Y-84388893D01*
X91993253Y-84408599D01*
X91976777Y-84426777D01*
X91958599Y-84443253D01*
X91938893Y-84457868D01*
X91917850Y-84470480D01*
X91895671Y-84480970D01*
X91872572Y-84489235D01*
X91848773Y-84495196D01*
X91824505Y-84498796D01*
X91800001Y-84500000D01*
X91149999Y-84500000D01*
X91125495Y-84498796D01*
X91101227Y-84495196D01*
X91077428Y-84489235D01*
X91054329Y-84480970D01*
X91032150Y-84470480D01*
X91011107Y-84457868D01*
X90991401Y-84443253D01*
X90973223Y-84426777D01*
X90956747Y-84408599D01*
X90942132Y-84388893D01*
X90929520Y-84367850D01*
X90919030Y-84345671D01*
X90910765Y-84322572D01*
X90904804Y-84298773D01*
X90901204Y-84274505D01*
X90900000Y-84250001D01*
X90900000Y-83349999D01*
X90901204Y-83325495D01*
X90904804Y-83301227D01*
X90910765Y-83277428D01*
X90919030Y-83254329D01*
X90929520Y-83232150D01*
X90942132Y-83211107D01*
X90956747Y-83191401D01*
X90973223Y-83173223D01*
X90991401Y-83156747D01*
X91011107Y-83142132D01*
X91032150Y-83129520D01*
X91054329Y-83119030D01*
X91077428Y-83110765D01*
X91101227Y-83104804D01*
X91125495Y-83101204D01*
X91149999Y-83100000D01*
X91800001Y-83100000D01*
X91824505Y-83101204D01*
X91824505Y-83101204D01*
G37*
D11*
G04 #@! TD*
G04 #@! TO.P,R3,1*
G04 #@! TO.N,Net-(C2-Pad1)*
X91475000Y-83800000D03*
D10*
G04 #@! TO.N,Net-(R4-Pad1)*
G04 #@! TO.C,R4*
G36*
X97974505Y-81151204D02*
X97998773Y-81154804D01*
X98022572Y-81160765D01*
X98045671Y-81169030D01*
X98067850Y-81179520D01*
X98088893Y-81192132D01*
X98108599Y-81206747D01*
X98126777Y-81223223D01*
X98143253Y-81241401D01*
X98157868Y-81261107D01*
X98170480Y-81282150D01*
X98180970Y-81304329D01*
X98189235Y-81327428D01*
X98195196Y-81351227D01*
X98198796Y-81375495D01*
X98200000Y-81399999D01*
X98200000Y-82050001D01*
X98198796Y-82074505D01*
X98195196Y-82098773D01*
X98189235Y-82122572D01*
X98180970Y-82145671D01*
X98170480Y-82167850D01*
X98157868Y-82188893D01*
X98143253Y-82208599D01*
X98126777Y-82226777D01*
X98108599Y-82243253D01*
X98088893Y-82257868D01*
X98067850Y-82270480D01*
X98045671Y-82280970D01*
X98022572Y-82289235D01*
X97998773Y-82295196D01*
X97974505Y-82298796D01*
X97950001Y-82300000D01*
X97049999Y-82300000D01*
X97025495Y-82298796D01*
X97001227Y-82295196D01*
X96977428Y-82289235D01*
X96954329Y-82280970D01*
X96932150Y-82270480D01*
X96911107Y-82257868D01*
X96891401Y-82243253D01*
X96873223Y-82226777D01*
X96856747Y-82208599D01*
X96842132Y-82188893D01*
X96829520Y-82167850D01*
X96819030Y-82145671D01*
X96810765Y-82122572D01*
X96804804Y-82098773D01*
X96801204Y-82074505D01*
X96800000Y-82050001D01*
X96800000Y-81399999D01*
X96801204Y-81375495D01*
X96804804Y-81351227D01*
X96810765Y-81327428D01*
X96819030Y-81304329D01*
X96829520Y-81282150D01*
X96842132Y-81261107D01*
X96856747Y-81241401D01*
X96873223Y-81223223D01*
X96891401Y-81206747D01*
X96911107Y-81192132D01*
X96932150Y-81179520D01*
X96954329Y-81169030D01*
X96977428Y-81160765D01*
X97001227Y-81154804D01*
X97025495Y-81151204D01*
X97049999Y-81150000D01*
X97950001Y-81150000D01*
X97974505Y-81151204D01*
X97974505Y-81151204D01*
G37*
D11*
G04 #@! TD*
G04 #@! TO.P,R4,1*
G04 #@! TO.N,Net-(R4-Pad1)*
X97500000Y-81725000D03*
D10*
G04 #@! TO.N,Net-(R4-Pad2)*
G04 #@! TO.C,R4*
G36*
X97974505Y-79101204D02*
X97998773Y-79104804D01*
X98022572Y-79110765D01*
X98045671Y-79119030D01*
X98067850Y-79129520D01*
X98088893Y-79142132D01*
X98108599Y-79156747D01*
X98126777Y-79173223D01*
X98143253Y-79191401D01*
X98157868Y-79211107D01*
X98170480Y-79232150D01*
X98180970Y-79254329D01*
X98189235Y-79277428D01*
X98195196Y-79301227D01*
X98198796Y-79325495D01*
X98200000Y-79349999D01*
X98200000Y-80000001D01*
X98198796Y-80024505D01*
X98195196Y-80048773D01*
X98189235Y-80072572D01*
X98180970Y-80095671D01*
X98170480Y-80117850D01*
X98157868Y-80138893D01*
X98143253Y-80158599D01*
X98126777Y-80176777D01*
X98108599Y-80193253D01*
X98088893Y-80207868D01*
X98067850Y-80220480D01*
X98045671Y-80230970D01*
X98022572Y-80239235D01*
X97998773Y-80245196D01*
X97974505Y-80248796D01*
X97950001Y-80250000D01*
X97049999Y-80250000D01*
X97025495Y-80248796D01*
X97001227Y-80245196D01*
X96977428Y-80239235D01*
X96954329Y-80230970D01*
X96932150Y-80220480D01*
X96911107Y-80207868D01*
X96891401Y-80193253D01*
X96873223Y-80176777D01*
X96856747Y-80158599D01*
X96842132Y-80138893D01*
X96829520Y-80117850D01*
X96819030Y-80095671D01*
X96810765Y-80072572D01*
X96804804Y-80048773D01*
X96801204Y-80024505D01*
X96800000Y-80000001D01*
X96800000Y-79349999D01*
X96801204Y-79325495D01*
X96804804Y-79301227D01*
X96810765Y-79277428D01*
X96819030Y-79254329D01*
X96829520Y-79232150D01*
X96842132Y-79211107D01*
X96856747Y-79191401D01*
X96873223Y-79173223D01*
X96891401Y-79156747D01*
X96911107Y-79142132D01*
X96932150Y-79129520D01*
X96954329Y-79119030D01*
X96977428Y-79110765D01*
X97001227Y-79104804D01*
X97025495Y-79101204D01*
X97049999Y-79100000D01*
X97950001Y-79100000D01*
X97974505Y-79101204D01*
X97974505Y-79101204D01*
G37*
D11*
G04 #@! TD*
G04 #@! TO.P,R4,2*
G04 #@! TO.N,Net-(R4-Pad2)*
X97500000Y-79675000D03*
D10*
G04 #@! TO.N,Net-(R5-Pad2)*
G04 #@! TO.C,R5*
G36*
X109874505Y-85351204D02*
X109898773Y-85354804D01*
X109922572Y-85360765D01*
X109945671Y-85369030D01*
X109967850Y-85379520D01*
X109988893Y-85392132D01*
X110008599Y-85406747D01*
X110026777Y-85423223D01*
X110043253Y-85441401D01*
X110057868Y-85461107D01*
X110070480Y-85482150D01*
X110080970Y-85504329D01*
X110089235Y-85527428D01*
X110095196Y-85551227D01*
X110098796Y-85575495D01*
X110100000Y-85599999D01*
X110100000Y-86250001D01*
X110098796Y-86274505D01*
X110095196Y-86298773D01*
X110089235Y-86322572D01*
X110080970Y-86345671D01*
X110070480Y-86367850D01*
X110057868Y-86388893D01*
X110043253Y-86408599D01*
X110026777Y-86426777D01*
X110008599Y-86443253D01*
X109988893Y-86457868D01*
X109967850Y-86470480D01*
X109945671Y-86480970D01*
X109922572Y-86489235D01*
X109898773Y-86495196D01*
X109874505Y-86498796D01*
X109850001Y-86500000D01*
X108949999Y-86500000D01*
X108925495Y-86498796D01*
X108901227Y-86495196D01*
X108877428Y-86489235D01*
X108854329Y-86480970D01*
X108832150Y-86470480D01*
X108811107Y-86457868D01*
X108791401Y-86443253D01*
X108773223Y-86426777D01*
X108756747Y-86408599D01*
X108742132Y-86388893D01*
X108729520Y-86367850D01*
X108719030Y-86345671D01*
X108710765Y-86322572D01*
X108704804Y-86298773D01*
X108701204Y-86274505D01*
X108700000Y-86250001D01*
X108700000Y-85599999D01*
X108701204Y-85575495D01*
X108704804Y-85551227D01*
X108710765Y-85527428D01*
X108719030Y-85504329D01*
X108729520Y-85482150D01*
X108742132Y-85461107D01*
X108756747Y-85441401D01*
X108773223Y-85423223D01*
X108791401Y-85406747D01*
X108811107Y-85392132D01*
X108832150Y-85379520D01*
X108854329Y-85369030D01*
X108877428Y-85360765D01*
X108901227Y-85354804D01*
X108925495Y-85351204D01*
X108949999Y-85350000D01*
X109850001Y-85350000D01*
X109874505Y-85351204D01*
X109874505Y-85351204D01*
G37*
D11*
G04 #@! TD*
G04 #@! TO.P,R5,2*
G04 #@! TO.N,Net-(R5-Pad2)*
X109400000Y-85925000D03*
D10*
G04 #@! TO.N,CLK*
G04 #@! TO.C,R5*
G36*
X109874505Y-83301204D02*
X109898773Y-83304804D01*
X109922572Y-83310765D01*
X109945671Y-83319030D01*
X109967850Y-83329520D01*
X109988893Y-83342132D01*
X110008599Y-83356747D01*
X110026777Y-83373223D01*
X110043253Y-83391401D01*
X110057868Y-83411107D01*
X110070480Y-83432150D01*
X110080970Y-83454329D01*
X110089235Y-83477428D01*
X110095196Y-83501227D01*
X110098796Y-83525495D01*
X110100000Y-83549999D01*
X110100000Y-84200001D01*
X110098796Y-84224505D01*
X110095196Y-84248773D01*
X110089235Y-84272572D01*
X110080970Y-84295671D01*
X110070480Y-84317850D01*
X110057868Y-84338893D01*
X110043253Y-84358599D01*
X110026777Y-84376777D01*
X110008599Y-84393253D01*
X109988893Y-84407868D01*
X109967850Y-84420480D01*
X109945671Y-84430970D01*
X109922572Y-84439235D01*
X109898773Y-84445196D01*
X109874505Y-84448796D01*
X109850001Y-84450000D01*
X108949999Y-84450000D01*
X108925495Y-84448796D01*
X108901227Y-84445196D01*
X108877428Y-84439235D01*
X108854329Y-84430970D01*
X108832150Y-84420480D01*
X108811107Y-84407868D01*
X108791401Y-84393253D01*
X108773223Y-84376777D01*
X108756747Y-84358599D01*
X108742132Y-84338893D01*
X108729520Y-84317850D01*
X108719030Y-84295671D01*
X108710765Y-84272572D01*
X108704804Y-84248773D01*
X108701204Y-84224505D01*
X108700000Y-84200001D01*
X108700000Y-83549999D01*
X108701204Y-83525495D01*
X108704804Y-83501227D01*
X108710765Y-83477428D01*
X108719030Y-83454329D01*
X108729520Y-83432150D01*
X108742132Y-83411107D01*
X108756747Y-83391401D01*
X108773223Y-83373223D01*
X108791401Y-83356747D01*
X108811107Y-83342132D01*
X108832150Y-83329520D01*
X108854329Y-83319030D01*
X108877428Y-83310765D01*
X108901227Y-83304804D01*
X108925495Y-83301204D01*
X108949999Y-83300000D01*
X109850001Y-83300000D01*
X109874505Y-83301204D01*
X109874505Y-83301204D01*
G37*
D11*
G04 #@! TD*
G04 #@! TO.P,R5,1*
G04 #@! TO.N,CLK*
X109400000Y-83875000D03*
D10*
G04 #@! TO.N,Net-(C2-Pad1)*
G04 #@! TO.C,R6*
G36*
X91724505Y-85301204D02*
X91748773Y-85304804D01*
X91772572Y-85310765D01*
X91795671Y-85319030D01*
X91817850Y-85329520D01*
X91838893Y-85342132D01*
X91858599Y-85356747D01*
X91876777Y-85373223D01*
X91893253Y-85391401D01*
X91907868Y-85411107D01*
X91920480Y-85432150D01*
X91930970Y-85454329D01*
X91939235Y-85477428D01*
X91945196Y-85501227D01*
X91948796Y-85525495D01*
X91950000Y-85549999D01*
X91950000Y-86450001D01*
X91948796Y-86474505D01*
X91945196Y-86498773D01*
X91939235Y-86522572D01*
X91930970Y-86545671D01*
X91920480Y-86567850D01*
X91907868Y-86588893D01*
X91893253Y-86608599D01*
X91876777Y-86626777D01*
X91858599Y-86643253D01*
X91838893Y-86657868D01*
X91817850Y-86670480D01*
X91795671Y-86680970D01*
X91772572Y-86689235D01*
X91748773Y-86695196D01*
X91724505Y-86698796D01*
X91700001Y-86700000D01*
X91049999Y-86700000D01*
X91025495Y-86698796D01*
X91001227Y-86695196D01*
X90977428Y-86689235D01*
X90954329Y-86680970D01*
X90932150Y-86670480D01*
X90911107Y-86657868D01*
X90891401Y-86643253D01*
X90873223Y-86626777D01*
X90856747Y-86608599D01*
X90842132Y-86588893D01*
X90829520Y-86567850D01*
X90819030Y-86545671D01*
X90810765Y-86522572D01*
X90804804Y-86498773D01*
X90801204Y-86474505D01*
X90800000Y-86450001D01*
X90800000Y-85549999D01*
X90801204Y-85525495D01*
X90804804Y-85501227D01*
X90810765Y-85477428D01*
X90819030Y-85454329D01*
X90829520Y-85432150D01*
X90842132Y-85411107D01*
X90856747Y-85391401D01*
X90873223Y-85373223D01*
X90891401Y-85356747D01*
X90911107Y-85342132D01*
X90932150Y-85329520D01*
X90954329Y-85319030D01*
X90977428Y-85310765D01*
X91001227Y-85304804D01*
X91025495Y-85301204D01*
X91049999Y-85300000D01*
X91700001Y-85300000D01*
X91724505Y-85301204D01*
X91724505Y-85301204D01*
G37*
D11*
G04 #@! TD*
G04 #@! TO.P,R6,1*
G04 #@! TO.N,Net-(C2-Pad1)*
X91375000Y-86000000D03*
D10*
G04 #@! TO.N,Net-(R6-Pad2)*
G04 #@! TO.C,R6*
G36*
X93774505Y-85301204D02*
X93798773Y-85304804D01*
X93822572Y-85310765D01*
X93845671Y-85319030D01*
X93867850Y-85329520D01*
X93888893Y-85342132D01*
X93908599Y-85356747D01*
X93926777Y-85373223D01*
X93943253Y-85391401D01*
X93957868Y-85411107D01*
X93970480Y-85432150D01*
X93980970Y-85454329D01*
X93989235Y-85477428D01*
X93995196Y-85501227D01*
X93998796Y-85525495D01*
X94000000Y-85549999D01*
X94000000Y-86450001D01*
X93998796Y-86474505D01*
X93995196Y-86498773D01*
X93989235Y-86522572D01*
X93980970Y-86545671D01*
X93970480Y-86567850D01*
X93957868Y-86588893D01*
X93943253Y-86608599D01*
X93926777Y-86626777D01*
X93908599Y-86643253D01*
X93888893Y-86657868D01*
X93867850Y-86670480D01*
X93845671Y-86680970D01*
X93822572Y-86689235D01*
X93798773Y-86695196D01*
X93774505Y-86698796D01*
X93750001Y-86700000D01*
X93099999Y-86700000D01*
X93075495Y-86698796D01*
X93051227Y-86695196D01*
X93027428Y-86689235D01*
X93004329Y-86680970D01*
X92982150Y-86670480D01*
X92961107Y-86657868D01*
X92941401Y-86643253D01*
X92923223Y-86626777D01*
X92906747Y-86608599D01*
X92892132Y-86588893D01*
X92879520Y-86567850D01*
X92869030Y-86545671D01*
X92860765Y-86522572D01*
X92854804Y-86498773D01*
X92851204Y-86474505D01*
X92850000Y-86450001D01*
X92850000Y-85549999D01*
X92851204Y-85525495D01*
X92854804Y-85501227D01*
X92860765Y-85477428D01*
X92869030Y-85454329D01*
X92879520Y-85432150D01*
X92892132Y-85411107D01*
X92906747Y-85391401D01*
X92923223Y-85373223D01*
X92941401Y-85356747D01*
X92961107Y-85342132D01*
X92982150Y-85329520D01*
X93004329Y-85319030D01*
X93027428Y-85310765D01*
X93051227Y-85304804D01*
X93075495Y-85301204D01*
X93099999Y-85300000D01*
X93750001Y-85300000D01*
X93774505Y-85301204D01*
X93774505Y-85301204D01*
G37*
D11*
G04 #@! TD*
G04 #@! TO.P,R6,2*
G04 #@! TO.N,Net-(R6-Pad2)*
X93425000Y-86000000D03*
D10*
G04 #@! TO.N,Net-(R4-Pad1)*
G04 #@! TO.C,R7*
G36*
X96174505Y-85301204D02*
X96198773Y-85304804D01*
X96222572Y-85310765D01*
X96245671Y-85319030D01*
X96267850Y-85329520D01*
X96288893Y-85342132D01*
X96308599Y-85356747D01*
X96326777Y-85373223D01*
X96343253Y-85391401D01*
X96357868Y-85411107D01*
X96370480Y-85432150D01*
X96380970Y-85454329D01*
X96389235Y-85477428D01*
X96395196Y-85501227D01*
X96398796Y-85525495D01*
X96400000Y-85549999D01*
X96400000Y-86200001D01*
X96398796Y-86224505D01*
X96395196Y-86248773D01*
X96389235Y-86272572D01*
X96380970Y-86295671D01*
X96370480Y-86317850D01*
X96357868Y-86338893D01*
X96343253Y-86358599D01*
X96326777Y-86376777D01*
X96308599Y-86393253D01*
X96288893Y-86407868D01*
X96267850Y-86420480D01*
X96245671Y-86430970D01*
X96222572Y-86439235D01*
X96198773Y-86445196D01*
X96174505Y-86448796D01*
X96150001Y-86450000D01*
X95249999Y-86450000D01*
X95225495Y-86448796D01*
X95201227Y-86445196D01*
X95177428Y-86439235D01*
X95154329Y-86430970D01*
X95132150Y-86420480D01*
X95111107Y-86407868D01*
X95091401Y-86393253D01*
X95073223Y-86376777D01*
X95056747Y-86358599D01*
X95042132Y-86338893D01*
X95029520Y-86317850D01*
X95019030Y-86295671D01*
X95010765Y-86272572D01*
X95004804Y-86248773D01*
X95001204Y-86224505D01*
X95000000Y-86200001D01*
X95000000Y-85549999D01*
X95001204Y-85525495D01*
X95004804Y-85501227D01*
X95010765Y-85477428D01*
X95019030Y-85454329D01*
X95029520Y-85432150D01*
X95042132Y-85411107D01*
X95056747Y-85391401D01*
X95073223Y-85373223D01*
X95091401Y-85356747D01*
X95111107Y-85342132D01*
X95132150Y-85329520D01*
X95154329Y-85319030D01*
X95177428Y-85310765D01*
X95201227Y-85304804D01*
X95225495Y-85301204D01*
X95249999Y-85300000D01*
X96150001Y-85300000D01*
X96174505Y-85301204D01*
X96174505Y-85301204D01*
G37*
D11*
G04 #@! TD*
G04 #@! TO.P,R7,2*
G04 #@! TO.N,Net-(R4-Pad1)*
X95700000Y-85875000D03*
D10*
G04 #@! TO.N,Net-(R7-Pad1)*
G04 #@! TO.C,R7*
G36*
X96174505Y-87351204D02*
X96198773Y-87354804D01*
X96222572Y-87360765D01*
X96245671Y-87369030D01*
X96267850Y-87379520D01*
X96288893Y-87392132D01*
X96308599Y-87406747D01*
X96326777Y-87423223D01*
X96343253Y-87441401D01*
X96357868Y-87461107D01*
X96370480Y-87482150D01*
X96380970Y-87504329D01*
X96389235Y-87527428D01*
X96395196Y-87551227D01*
X96398796Y-87575495D01*
X96400000Y-87599999D01*
X96400000Y-88250001D01*
X96398796Y-88274505D01*
X96395196Y-88298773D01*
X96389235Y-88322572D01*
X96380970Y-88345671D01*
X96370480Y-88367850D01*
X96357868Y-88388893D01*
X96343253Y-88408599D01*
X96326777Y-88426777D01*
X96308599Y-88443253D01*
X96288893Y-88457868D01*
X96267850Y-88470480D01*
X96245671Y-88480970D01*
X96222572Y-88489235D01*
X96198773Y-88495196D01*
X96174505Y-88498796D01*
X96150001Y-88500000D01*
X95249999Y-88500000D01*
X95225495Y-88498796D01*
X95201227Y-88495196D01*
X95177428Y-88489235D01*
X95154329Y-88480970D01*
X95132150Y-88470480D01*
X95111107Y-88457868D01*
X95091401Y-88443253D01*
X95073223Y-88426777D01*
X95056747Y-88408599D01*
X95042132Y-88388893D01*
X95029520Y-88367850D01*
X95019030Y-88345671D01*
X95010765Y-88322572D01*
X95004804Y-88298773D01*
X95001204Y-88274505D01*
X95000000Y-88250001D01*
X95000000Y-87599999D01*
X95001204Y-87575495D01*
X95004804Y-87551227D01*
X95010765Y-87527428D01*
X95019030Y-87504329D01*
X95029520Y-87482150D01*
X95042132Y-87461107D01*
X95056747Y-87441401D01*
X95073223Y-87423223D01*
X95091401Y-87406747D01*
X95111107Y-87392132D01*
X95132150Y-87379520D01*
X95154329Y-87369030D01*
X95177428Y-87360765D01*
X95201227Y-87354804D01*
X95225495Y-87351204D01*
X95249999Y-87350000D01*
X96150001Y-87350000D01*
X96174505Y-87351204D01*
X96174505Y-87351204D01*
G37*
D11*
G04 #@! TD*
G04 #@! TO.P,R7,1*
G04 #@! TO.N,Net-(R7-Pad1)*
X95700000Y-87925000D03*
D10*
G04 #@! TO.N,Net-(R10-Pad2)*
G04 #@! TO.C,R8*
G36*
X96174505Y-91351204D02*
X96198773Y-91354804D01*
X96222572Y-91360765D01*
X96245671Y-91369030D01*
X96267850Y-91379520D01*
X96288893Y-91392132D01*
X96308599Y-91406747D01*
X96326777Y-91423223D01*
X96343253Y-91441401D01*
X96357868Y-91461107D01*
X96370480Y-91482150D01*
X96380970Y-91504329D01*
X96389235Y-91527428D01*
X96395196Y-91551227D01*
X96398796Y-91575495D01*
X96400000Y-91599999D01*
X96400000Y-92250001D01*
X96398796Y-92274505D01*
X96395196Y-92298773D01*
X96389235Y-92322572D01*
X96380970Y-92345671D01*
X96370480Y-92367850D01*
X96357868Y-92388893D01*
X96343253Y-92408599D01*
X96326777Y-92426777D01*
X96308599Y-92443253D01*
X96288893Y-92457868D01*
X96267850Y-92470480D01*
X96245671Y-92480970D01*
X96222572Y-92489235D01*
X96198773Y-92495196D01*
X96174505Y-92498796D01*
X96150001Y-92500000D01*
X95249999Y-92500000D01*
X95225495Y-92498796D01*
X95201227Y-92495196D01*
X95177428Y-92489235D01*
X95154329Y-92480970D01*
X95132150Y-92470480D01*
X95111107Y-92457868D01*
X95091401Y-92443253D01*
X95073223Y-92426777D01*
X95056747Y-92408599D01*
X95042132Y-92388893D01*
X95029520Y-92367850D01*
X95019030Y-92345671D01*
X95010765Y-92322572D01*
X95004804Y-92298773D01*
X95001204Y-92274505D01*
X95000000Y-92250001D01*
X95000000Y-91599999D01*
X95001204Y-91575495D01*
X95004804Y-91551227D01*
X95010765Y-91527428D01*
X95019030Y-91504329D01*
X95029520Y-91482150D01*
X95042132Y-91461107D01*
X95056747Y-91441401D01*
X95073223Y-91423223D01*
X95091401Y-91406747D01*
X95111107Y-91392132D01*
X95132150Y-91379520D01*
X95154329Y-91369030D01*
X95177428Y-91360765D01*
X95201227Y-91354804D01*
X95225495Y-91351204D01*
X95249999Y-91350000D01*
X96150001Y-91350000D01*
X96174505Y-91351204D01*
X96174505Y-91351204D01*
G37*
D11*
G04 #@! TD*
G04 #@! TO.P,R8,1*
G04 #@! TO.N,Net-(R10-Pad2)*
X95700000Y-91925000D03*
D10*
G04 #@! TO.N,Net-(R7-Pad1)*
G04 #@! TO.C,R8*
G36*
X96174505Y-89301204D02*
X96198773Y-89304804D01*
X96222572Y-89310765D01*
X96245671Y-89319030D01*
X96267850Y-89329520D01*
X96288893Y-89342132D01*
X96308599Y-89356747D01*
X96326777Y-89373223D01*
X96343253Y-89391401D01*
X96357868Y-89411107D01*
X96370480Y-89432150D01*
X96380970Y-89454329D01*
X96389235Y-89477428D01*
X96395196Y-89501227D01*
X96398796Y-89525495D01*
X96400000Y-89549999D01*
X96400000Y-90200001D01*
X96398796Y-90224505D01*
X96395196Y-90248773D01*
X96389235Y-90272572D01*
X96380970Y-90295671D01*
X96370480Y-90317850D01*
X96357868Y-90338893D01*
X96343253Y-90358599D01*
X96326777Y-90376777D01*
X96308599Y-90393253D01*
X96288893Y-90407868D01*
X96267850Y-90420480D01*
X96245671Y-90430970D01*
X96222572Y-90439235D01*
X96198773Y-90445196D01*
X96174505Y-90448796D01*
X96150001Y-90450000D01*
X95249999Y-90450000D01*
X95225495Y-90448796D01*
X95201227Y-90445196D01*
X95177428Y-90439235D01*
X95154329Y-90430970D01*
X95132150Y-90420480D01*
X95111107Y-90407868D01*
X95091401Y-90393253D01*
X95073223Y-90376777D01*
X95056747Y-90358599D01*
X95042132Y-90338893D01*
X95029520Y-90317850D01*
X95019030Y-90295671D01*
X95010765Y-90272572D01*
X95004804Y-90248773D01*
X95001204Y-90224505D01*
X95000000Y-90200001D01*
X95000000Y-89549999D01*
X95001204Y-89525495D01*
X95004804Y-89501227D01*
X95010765Y-89477428D01*
X95019030Y-89454329D01*
X95029520Y-89432150D01*
X95042132Y-89411107D01*
X95056747Y-89391401D01*
X95073223Y-89373223D01*
X95091401Y-89356747D01*
X95111107Y-89342132D01*
X95132150Y-89329520D01*
X95154329Y-89319030D01*
X95177428Y-89310765D01*
X95201227Y-89304804D01*
X95225495Y-89301204D01*
X95249999Y-89300000D01*
X96150001Y-89300000D01*
X96174505Y-89301204D01*
X96174505Y-89301204D01*
G37*
D11*
G04 #@! TD*
G04 #@! TO.P,R8,2*
G04 #@! TO.N,Net-(R7-Pad1)*
X95700000Y-89875000D03*
D10*
G04 #@! TO.N,Net-(R9-Pad2)*
G04 #@! TO.C,R9*
G36*
X100474505Y-91401204D02*
X100498773Y-91404804D01*
X100522572Y-91410765D01*
X100545671Y-91419030D01*
X100567850Y-91429520D01*
X100588893Y-91442132D01*
X100608599Y-91456747D01*
X100626777Y-91473223D01*
X100643253Y-91491401D01*
X100657868Y-91511107D01*
X100670480Y-91532150D01*
X100680970Y-91554329D01*
X100689235Y-91577428D01*
X100695196Y-91601227D01*
X100698796Y-91625495D01*
X100700000Y-91649999D01*
X100700000Y-92550001D01*
X100698796Y-92574505D01*
X100695196Y-92598773D01*
X100689235Y-92622572D01*
X100680970Y-92645671D01*
X100670480Y-92667850D01*
X100657868Y-92688893D01*
X100643253Y-92708599D01*
X100626777Y-92726777D01*
X100608599Y-92743253D01*
X100588893Y-92757868D01*
X100567850Y-92770480D01*
X100545671Y-92780970D01*
X100522572Y-92789235D01*
X100498773Y-92795196D01*
X100474505Y-92798796D01*
X100450001Y-92800000D01*
X99799999Y-92800000D01*
X99775495Y-92798796D01*
X99751227Y-92795196D01*
X99727428Y-92789235D01*
X99704329Y-92780970D01*
X99682150Y-92770480D01*
X99661107Y-92757868D01*
X99641401Y-92743253D01*
X99623223Y-92726777D01*
X99606747Y-92708599D01*
X99592132Y-92688893D01*
X99579520Y-92667850D01*
X99569030Y-92645671D01*
X99560765Y-92622572D01*
X99554804Y-92598773D01*
X99551204Y-92574505D01*
X99550000Y-92550001D01*
X99550000Y-91649999D01*
X99551204Y-91625495D01*
X99554804Y-91601227D01*
X99560765Y-91577428D01*
X99569030Y-91554329D01*
X99579520Y-91532150D01*
X99592132Y-91511107D01*
X99606747Y-91491401D01*
X99623223Y-91473223D01*
X99641401Y-91456747D01*
X99661107Y-91442132D01*
X99682150Y-91429520D01*
X99704329Y-91419030D01*
X99727428Y-91410765D01*
X99751227Y-91404804D01*
X99775495Y-91401204D01*
X99799999Y-91400000D01*
X100450001Y-91400000D01*
X100474505Y-91401204D01*
X100474505Y-91401204D01*
G37*
D11*
G04 #@! TD*
G04 #@! TO.P,R9,2*
G04 #@! TO.N,Net-(R9-Pad2)*
X100125000Y-92100000D03*
D10*
G04 #@! TO.N,Net-(R10-Pad2)*
G04 #@! TO.C,R9*
G36*
X98424505Y-91401204D02*
X98448773Y-91404804D01*
X98472572Y-91410765D01*
X98495671Y-91419030D01*
X98517850Y-91429520D01*
X98538893Y-91442132D01*
X98558599Y-91456747D01*
X98576777Y-91473223D01*
X98593253Y-91491401D01*
X98607868Y-91511107D01*
X98620480Y-91532150D01*
X98630970Y-91554329D01*
X98639235Y-91577428D01*
X98645196Y-91601227D01*
X98648796Y-91625495D01*
X98650000Y-91649999D01*
X98650000Y-92550001D01*
X98648796Y-92574505D01*
X98645196Y-92598773D01*
X98639235Y-92622572D01*
X98630970Y-92645671D01*
X98620480Y-92667850D01*
X98607868Y-92688893D01*
X98593253Y-92708599D01*
X98576777Y-92726777D01*
X98558599Y-92743253D01*
X98538893Y-92757868D01*
X98517850Y-92770480D01*
X98495671Y-92780970D01*
X98472572Y-92789235D01*
X98448773Y-92795196D01*
X98424505Y-92798796D01*
X98400001Y-92800000D01*
X97749999Y-92800000D01*
X97725495Y-92798796D01*
X97701227Y-92795196D01*
X97677428Y-92789235D01*
X97654329Y-92780970D01*
X97632150Y-92770480D01*
X97611107Y-92757868D01*
X97591401Y-92743253D01*
X97573223Y-92726777D01*
X97556747Y-92708599D01*
X97542132Y-92688893D01*
X97529520Y-92667850D01*
X97519030Y-92645671D01*
X97510765Y-92622572D01*
X97504804Y-92598773D01*
X97501204Y-92574505D01*
X97500000Y-92550001D01*
X97500000Y-91649999D01*
X97501204Y-91625495D01*
X97504804Y-91601227D01*
X97510765Y-91577428D01*
X97519030Y-91554329D01*
X97529520Y-91532150D01*
X97542132Y-91511107D01*
X97556747Y-91491401D01*
X97573223Y-91473223D01*
X97591401Y-91456747D01*
X97611107Y-91442132D01*
X97632150Y-91429520D01*
X97654329Y-91419030D01*
X97677428Y-91410765D01*
X97701227Y-91404804D01*
X97725495Y-91401204D01*
X97749999Y-91400000D01*
X98400001Y-91400000D01*
X98424505Y-91401204D01*
X98424505Y-91401204D01*
G37*
D11*
G04 #@! TD*
G04 #@! TO.P,R9,1*
G04 #@! TO.N,Net-(R10-Pad2)*
X98075000Y-92100000D03*
D10*
G04 #@! TO.N,Net-(R10-Pad1)*
G04 #@! TO.C,R10*
G36*
X100474505Y-89201204D02*
X100498773Y-89204804D01*
X100522572Y-89210765D01*
X100545671Y-89219030D01*
X100567850Y-89229520D01*
X100588893Y-89242132D01*
X100608599Y-89256747D01*
X100626777Y-89273223D01*
X100643253Y-89291401D01*
X100657868Y-89311107D01*
X100670480Y-89332150D01*
X100680970Y-89354329D01*
X100689235Y-89377428D01*
X100695196Y-89401227D01*
X100698796Y-89425495D01*
X100700000Y-89449999D01*
X100700000Y-90350001D01*
X100698796Y-90374505D01*
X100695196Y-90398773D01*
X100689235Y-90422572D01*
X100680970Y-90445671D01*
X100670480Y-90467850D01*
X100657868Y-90488893D01*
X100643253Y-90508599D01*
X100626777Y-90526777D01*
X100608599Y-90543253D01*
X100588893Y-90557868D01*
X100567850Y-90570480D01*
X100545671Y-90580970D01*
X100522572Y-90589235D01*
X100498773Y-90595196D01*
X100474505Y-90598796D01*
X100450001Y-90600000D01*
X99799999Y-90600000D01*
X99775495Y-90598796D01*
X99751227Y-90595196D01*
X99727428Y-90589235D01*
X99704329Y-90580970D01*
X99682150Y-90570480D01*
X99661107Y-90557868D01*
X99641401Y-90543253D01*
X99623223Y-90526777D01*
X99606747Y-90508599D01*
X99592132Y-90488893D01*
X99579520Y-90467850D01*
X99569030Y-90445671D01*
X99560765Y-90422572D01*
X99554804Y-90398773D01*
X99551204Y-90374505D01*
X99550000Y-90350001D01*
X99550000Y-89449999D01*
X99551204Y-89425495D01*
X99554804Y-89401227D01*
X99560765Y-89377428D01*
X99569030Y-89354329D01*
X99579520Y-89332150D01*
X99592132Y-89311107D01*
X99606747Y-89291401D01*
X99623223Y-89273223D01*
X99641401Y-89256747D01*
X99661107Y-89242132D01*
X99682150Y-89229520D01*
X99704329Y-89219030D01*
X99727428Y-89210765D01*
X99751227Y-89204804D01*
X99775495Y-89201204D01*
X99799999Y-89200000D01*
X100450001Y-89200000D01*
X100474505Y-89201204D01*
X100474505Y-89201204D01*
G37*
D11*
G04 #@! TD*
G04 #@! TO.P,R10,1*
G04 #@! TO.N,Net-(R10-Pad1)*
X100125000Y-89900000D03*
D10*
G04 #@! TO.N,Net-(R10-Pad2)*
G04 #@! TO.C,R10*
G36*
X98424505Y-89201204D02*
X98448773Y-89204804D01*
X98472572Y-89210765D01*
X98495671Y-89219030D01*
X98517850Y-89229520D01*
X98538893Y-89242132D01*
X98558599Y-89256747D01*
X98576777Y-89273223D01*
X98593253Y-89291401D01*
X98607868Y-89311107D01*
X98620480Y-89332150D01*
X98630970Y-89354329D01*
X98639235Y-89377428D01*
X98645196Y-89401227D01*
X98648796Y-89425495D01*
X98650000Y-89449999D01*
X98650000Y-90350001D01*
X98648796Y-90374505D01*
X98645196Y-90398773D01*
X98639235Y-90422572D01*
X98630970Y-90445671D01*
X98620480Y-90467850D01*
X98607868Y-90488893D01*
X98593253Y-90508599D01*
X98576777Y-90526777D01*
X98558599Y-90543253D01*
X98538893Y-90557868D01*
X98517850Y-90570480D01*
X98495671Y-90580970D01*
X98472572Y-90589235D01*
X98448773Y-90595196D01*
X98424505Y-90598796D01*
X98400001Y-90600000D01*
X97749999Y-90600000D01*
X97725495Y-90598796D01*
X97701227Y-90595196D01*
X97677428Y-90589235D01*
X97654329Y-90580970D01*
X97632150Y-90570480D01*
X97611107Y-90557868D01*
X97591401Y-90543253D01*
X97573223Y-90526777D01*
X97556747Y-90508599D01*
X97542132Y-90488893D01*
X97529520Y-90467850D01*
X97519030Y-90445671D01*
X97510765Y-90422572D01*
X97504804Y-90398773D01*
X97501204Y-90374505D01*
X97500000Y-90350001D01*
X97500000Y-89449999D01*
X97501204Y-89425495D01*
X97504804Y-89401227D01*
X97510765Y-89377428D01*
X97519030Y-89354329D01*
X97529520Y-89332150D01*
X97542132Y-89311107D01*
X97556747Y-89291401D01*
X97573223Y-89273223D01*
X97591401Y-89256747D01*
X97611107Y-89242132D01*
X97632150Y-89229520D01*
X97654329Y-89219030D01*
X97677428Y-89210765D01*
X97701227Y-89204804D01*
X97725495Y-89201204D01*
X97749999Y-89200000D01*
X98400001Y-89200000D01*
X98424505Y-89201204D01*
X98424505Y-89201204D01*
G37*
D11*
G04 #@! TD*
G04 #@! TO.P,R10,2*
G04 #@! TO.N,Net-(R10-Pad2)*
X98075000Y-89900000D03*
D15*
G04 #@! TO.P,U1,1*
G04 #@! TO.N,Net-(C2-Pad1)*
X88800000Y-80505000D03*
G04 #@! TO.P,U1,2*
G04 #@! TO.N,GNDA*
X88800000Y-79235000D03*
G04 #@! TO.P,U1,3*
G04 #@! TO.N,+5V*
X88800000Y-77965000D03*
G04 #@! TO.P,U1,4*
G04 #@! TO.N,Net-(U1-Pad4)*
X88800000Y-76695000D03*
G04 #@! TO.P,U1,5*
G04 #@! TO.N,Net-(U1-Pad5)*
X83400000Y-76695000D03*
G04 #@! TO.P,U1,6*
G04 #@! TO.N,Net-(U1-Pad6)*
X83400000Y-77965000D03*
G04 #@! TO.P,U1,7*
G04 #@! TO.N,Net-(U1-Pad7)*
X83400000Y-79235000D03*
G04 #@! TO.P,U1,8*
G04 #@! TO.N,Net-(C1-Pad1)*
X83400000Y-80505000D03*
G04 #@! TD*
G04 #@! TO.P,U2,8*
G04 #@! TO.N,+5V*
X92900000Y-88795000D03*
G04 #@! TO.P,U2,7*
G04 #@! TO.N,Net-(R7-Pad1)*
X92900000Y-90065000D03*
G04 #@! TO.P,U2,6*
G04 #@! TO.N,Net-(R10-Pad2)*
X92900000Y-91335000D03*
G04 #@! TO.P,U2,5*
G04 #@! TO.N,Net-(R6-Pad2)*
X92900000Y-92605000D03*
G04 #@! TO.P,U2,4*
G04 #@! TO.N,GNDA*
X87500000Y-92605000D03*
G04 #@! TO.P,U2,3*
G04 #@! TO.N,Net-(C3-Pad1)*
X87500000Y-91335000D03*
G04 #@! TO.P,U2,2*
G04 #@! TO.N,DUT+*
X87500000Y-90065000D03*
G04 #@! TO.P,U2,1*
X87500000Y-88795000D03*
G04 #@! TD*
D16*
G04 #@! TO.P,U4,1*
G04 #@! TO.N,Net-(R10-Pad1)*
X104700000Y-89950000D03*
G04 #@! TO.P,U4,2*
G04 #@! TO.N,GNDA*
X104700000Y-90900000D03*
G04 #@! TO.P,U4,3*
G04 #@! TO.N,Net-(R9-Pad2)*
X104700000Y-91850000D03*
G04 #@! TO.P,U4,4*
G04 #@! TO.N,Net-(R7-Pad1)*
X106900000Y-91850000D03*
G04 #@! TO.P,U4,6*
G04 #@! TO.N,RANGE_SW*
X106900000Y-89950000D03*
G04 #@! TO.P,U4,5*
G04 #@! TO.N,+5V*
X106900000Y-90900000D03*
G04 #@! TD*
D17*
G04 #@! TO.P,X1,1*
G04 #@! TO.N,Net-(X1-Pad1)*
X105725000Y-83900000D03*
G04 #@! TO.P,X1,2*
G04 #@! TO.N,GND*
X100875000Y-83900000D03*
G04 #@! TO.P,X1,3*
G04 #@! TO.N,Net-(R5-Pad2)*
X100875000Y-87300000D03*
G04 #@! TO.P,X1,4*
G04 #@! TO.N,+3V3*
X105725000Y-87300000D03*
G04 #@! TD*
D18*
G04 #@! TO.N,GNDA*
X85000000Y-90700000D03*
X103100000Y-91000000D03*
X105600000Y-93800000D03*
X88900000Y-82900000D03*
X83300000Y-86500000D03*
X81900000Y-86500000D03*
X80600000Y-86500000D03*
G04 #@! TO.N,+5V*
X91500000Y-88800000D03*
X87525000Y-84825000D03*
X111000000Y-89800000D03*
X104600000Y-80900000D03*
G04 #@! TO.N,GND*
X102400000Y-82600000D03*
X112500000Y-80500000D03*
X110200000Y-80500000D03*
G04 #@! TO.N,+3V3*
X112600000Y-81600000D03*
X113000000Y-88700000D03*
G04 #@! TO.N,RANGE_SW*
X105900000Y-89000000D03*
G04 #@! TO.N,SDA*
X110000000Y-76700000D03*
G04 #@! TO.N,SCL*
X109900000Y-75500000D03*
G04 #@! TO.N,Net-(R7-Pad1)*
X97375000Y-87925000D03*
X106425000Y-92900000D03*
G04 #@! TD*
D19*
G04 #@! TO.N,Net-(C1-Pad1)*
X83380000Y-80525000D02*
X83400000Y-80505000D01*
X81000000Y-80525000D02*
X83380000Y-80525000D01*
G04 #@! TO.N,GNDA*
X103920000Y-90900000D02*
X103820000Y-91000000D01*
X104700000Y-90900000D02*
X103920000Y-90900000D01*
X103820000Y-91000000D02*
X103100000Y-91000000D01*
X103100000Y-91000000D02*
X103100000Y-91000000D01*
X109400000Y-92525000D02*
X108125000Y-93800000D01*
X109400000Y-91850000D02*
X109400000Y-92525000D01*
X108125000Y-93800000D02*
X105600000Y-93800000D01*
X105600000Y-93800000D02*
X105600000Y-93800000D01*
X105450000Y-78325000D02*
X105425000Y-78300000D01*
X106200000Y-78325000D02*
X105450000Y-78325000D01*
X105425000Y-78300000D02*
X104200000Y-78300000D01*
X106200000Y-78975000D02*
X104425000Y-78975000D01*
G04 #@! TO.N,Net-(C2-Pad1)*
X91200000Y-83525000D02*
X91475000Y-83800000D01*
X91200000Y-80525000D02*
X91200000Y-83525000D01*
X91180000Y-80505000D02*
X91200000Y-80525000D01*
X88800000Y-80505000D02*
X91180000Y-80505000D01*
X91475000Y-85900000D02*
X91375000Y-86000000D01*
X91475000Y-83800000D02*
X91475000Y-85900000D01*
G04 #@! TO.N,Net-(C3-Pad1)*
X93525000Y-83800000D02*
X95575000Y-83800000D01*
X88525000Y-91335000D02*
X88560000Y-91300000D01*
X87500000Y-91335000D02*
X88525000Y-91335000D01*
X88560000Y-91300000D02*
X89300000Y-91300000D01*
X89300000Y-91300000D02*
X90000000Y-90600000D01*
X90000000Y-90600000D02*
X90000000Y-88200000D01*
X90000000Y-88200000D02*
X90800000Y-87400000D01*
X90800000Y-87400000D02*
X92100000Y-87400000D01*
X92100000Y-87400000D02*
X92400000Y-87100000D01*
X92400000Y-84925000D02*
X93525000Y-83800000D01*
X92400000Y-87100000D02*
X92400000Y-84925000D01*
G04 #@! TO.N,Net-(C3-Pad2)*
X99650000Y-80275000D02*
X100400000Y-80275000D01*
X97625000Y-83800000D02*
X98525010Y-82899990D01*
X98525010Y-82899990D02*
X98525010Y-82874990D01*
X99000000Y-80925000D02*
X99650000Y-80275000D01*
X99000000Y-82400000D02*
X99000000Y-80925000D01*
X98525010Y-82874990D02*
X99000000Y-82400000D01*
G04 #@! TO.N,+5V*
X108300000Y-90900000D02*
X109400000Y-89800000D01*
X106900000Y-90900000D02*
X108300000Y-90900000D01*
X106200000Y-80275000D02*
X106200000Y-80925000D01*
X87525000Y-84825000D02*
X87525000Y-84825000D01*
X86900000Y-84200000D02*
X87525000Y-84825000D01*
X76300000Y-80000000D02*
X77400000Y-80000000D01*
X77400000Y-80000000D02*
X81600000Y-84200000D01*
X87775000Y-77965000D02*
X87740000Y-78000000D01*
X88800000Y-77965000D02*
X87775000Y-77965000D01*
X87740000Y-78000000D02*
X86600000Y-78000000D01*
X86500000Y-78100000D02*
X86500000Y-84200000D01*
X86600000Y-78000000D02*
X86500000Y-78100000D01*
X81600000Y-84200000D02*
X86500000Y-84200000D01*
X86500000Y-84200000D02*
X86900000Y-84200000D01*
X91875000Y-88795000D02*
X91500000Y-88800000D01*
X92900000Y-88795000D02*
X91875000Y-88795000D01*
X91870000Y-88800000D02*
X91500000Y-88800000D01*
X91500000Y-88800000D02*
X91870000Y-88800000D01*
X87525000Y-84825000D02*
X87525000Y-86700000D01*
X109400000Y-89800000D02*
X111000000Y-89800000D01*
X111000000Y-89800000D02*
X111000000Y-89800000D01*
X105450000Y-80925000D02*
X105425000Y-80900000D01*
X106200000Y-80925000D02*
X105450000Y-80925000D01*
X105425000Y-80900000D02*
X104600000Y-80900000D01*
X104600000Y-80900000D02*
X104600000Y-80900000D01*
G04 #@! TO.N,GND*
X106200000Y-79625000D02*
X108725000Y-79625000D01*
X108725000Y-79625000D02*
X109600000Y-80500000D01*
X102250000Y-83900000D02*
X102400000Y-83750000D01*
X100875000Y-83900000D02*
X102250000Y-83900000D01*
X102400000Y-83750000D02*
X102400000Y-82600000D01*
X102400000Y-82600000D02*
X102400000Y-82600000D01*
G04 #@! TO.N,+3V3*
X113825000Y-80000000D02*
X112625000Y-78800000D01*
X117100000Y-80000000D02*
X113825000Y-80000000D01*
X113825000Y-80000000D02*
X113800000Y-80025000D01*
X111600000Y-83875000D02*
X113800000Y-83875000D01*
X106950000Y-81575000D02*
X106975000Y-81600000D01*
X106200000Y-81575000D02*
X106950000Y-81575000D01*
X113700000Y-81600000D02*
X113800000Y-81700000D01*
X106975000Y-81600000D02*
X112600000Y-81600000D01*
X113800000Y-80025000D02*
X113800000Y-81700000D01*
X113800000Y-81700000D02*
X113800000Y-83875000D01*
X105725000Y-87300000D02*
X110400000Y-87300000D01*
X112600000Y-81600000D02*
X113700000Y-81600000D01*
X110400000Y-87300000D02*
X111600000Y-87300000D01*
X111600000Y-87300000D02*
X113000000Y-88700000D01*
X113000000Y-88700000D02*
X113000000Y-88700000D01*
G04 #@! TO.N,RANGE_SW*
X106900000Y-89950000D02*
X106350000Y-89950000D01*
X106350000Y-89450000D02*
X105900000Y-89000000D01*
X106350000Y-89950000D02*
X106350000Y-89450000D01*
D20*
G04 #@! TO.N,DUT+*
X87500000Y-90065000D02*
X87500000Y-88795000D01*
X86225000Y-88795000D02*
X86220000Y-88800000D01*
X87500000Y-88795000D02*
X86225000Y-88795000D01*
X86220000Y-88800000D02*
X80200000Y-88800000D01*
X80200000Y-88800000D02*
X79000000Y-87600000D01*
X79000000Y-87600000D02*
X79000000Y-86000000D01*
X78080000Y-85080000D02*
X76300000Y-85080000D01*
X79000000Y-86000000D02*
X78080000Y-85080000D01*
G04 #@! TO.N,DUT-*
X76300000Y-87620000D02*
X77220000Y-87620000D01*
X77220000Y-87845000D02*
X80275000Y-90900000D01*
X77220000Y-87620000D02*
X77220000Y-87845000D01*
D19*
G04 #@! TO.N,SDA*
X113295000Y-87620000D02*
X117100000Y-87620000D01*
X111600000Y-85925000D02*
X113295000Y-87620000D01*
X106200000Y-77675000D02*
X109025000Y-77675000D01*
X109025000Y-77675000D02*
X110000000Y-76700000D01*
X110000000Y-76700000D02*
X110000000Y-76700000D01*
G04 #@! TO.N,SCL*
X116255000Y-85925000D02*
X117100000Y-85080000D01*
X113800000Y-85925000D02*
X116255000Y-85925000D01*
X106200000Y-77025000D02*
X108375000Y-77025000D01*
X108375000Y-77025000D02*
X109900000Y-75500000D01*
X109900000Y-75500000D02*
X109900000Y-75500000D01*
G04 #@! TO.N,CLK*
X115300000Y-84340000D02*
X117100000Y-82540000D01*
X115300000Y-84900000D02*
X115300000Y-84340000D01*
X109750000Y-84900000D02*
X115300000Y-84900000D01*
X109400000Y-83875000D02*
X109400000Y-84550000D01*
X109400000Y-84550000D02*
X109750000Y-84900000D01*
G04 #@! TO.N,Net-(R4-Pad1)*
X96876628Y-82348372D02*
X97500000Y-81725000D01*
X95700000Y-85875000D02*
X96475010Y-85099990D01*
X99600000Y-79625000D02*
X100400000Y-79625000D01*
X97500000Y-81725000D02*
X99600000Y-79625000D01*
X96475010Y-85099990D02*
X96500010Y-85099990D01*
X96500010Y-85099990D02*
X96600000Y-85000000D01*
X96600000Y-82625000D02*
X96876628Y-82348372D01*
X96600000Y-85000000D02*
X96600000Y-82625000D01*
G04 #@! TO.N,Net-(R4-Pad2)*
X98200000Y-78975000D02*
X100400000Y-78975000D01*
X97500000Y-79675000D02*
X98200000Y-78975000D01*
G04 #@! TO.N,Net-(R5-Pad2)*
X101150000Y-81575000D02*
X101175000Y-81600000D01*
X100400000Y-81575000D02*
X101150000Y-81575000D01*
X101175000Y-81600000D02*
X102700000Y-81600000D01*
X102700000Y-81600000D02*
X103300000Y-82200000D01*
X103000000Y-87300000D02*
X100875000Y-87300000D01*
X103300000Y-87000000D02*
X103000000Y-87300000D01*
X108275000Y-85600000D02*
X103300000Y-85600000D01*
X108600000Y-85925000D02*
X108275000Y-85600000D01*
X109400000Y-85925000D02*
X108600000Y-85925000D01*
X103300000Y-82200000D02*
X103300000Y-85600000D01*
X103300000Y-85600000D02*
X103300000Y-87000000D01*
G04 #@! TO.N,Net-(R7-Pad1)*
X95510000Y-90065000D02*
X95700000Y-89875000D01*
X92900000Y-90065000D02*
X95510000Y-90065000D01*
X95700000Y-89875000D02*
X95700000Y-87925000D01*
X95700000Y-87925000D02*
X97375000Y-87925000D01*
X97375000Y-87925000D02*
X97375000Y-87925000D01*
X106900000Y-92425000D02*
X106425000Y-92900000D01*
X106900000Y-91850000D02*
X106900000Y-92425000D01*
X106425000Y-92900000D02*
X106425000Y-92900000D01*
D20*
G04 #@! TO.N,Net-(R10-Pad2)*
X94765000Y-91925000D02*
X95700000Y-91925000D01*
X92900000Y-91335000D02*
X94175000Y-91335000D01*
X94175000Y-91335000D02*
X94765000Y-91925000D01*
X97900000Y-91925000D02*
X98075000Y-92100000D01*
X95700000Y-91925000D02*
X97900000Y-91925000D01*
X98075000Y-92100000D02*
X98075000Y-89900000D01*
X95700000Y-93500000D02*
X95700000Y-91925000D01*
X95025000Y-94175000D02*
X95700000Y-93500000D01*
X82325000Y-90900000D02*
X85600000Y-94175000D01*
X85600000Y-94175000D02*
X95025000Y-94175000D01*
D19*
G04 #@! TO.N,Net-(R9-Pad2)*
X104450000Y-92100000D02*
X104700000Y-91850000D01*
X100125000Y-92100000D02*
X104450000Y-92100000D01*
G04 #@! TO.N,Net-(R10-Pad1)*
X104650000Y-89900000D02*
X104700000Y-89950000D01*
X100125000Y-89900000D02*
X104650000Y-89900000D01*
G04 #@! TO.N,Net-(R6-Pad2)*
X92425000Y-92605000D02*
X92420000Y-92600000D01*
X92900000Y-92605000D02*
X92425000Y-92605000D01*
X92420000Y-92600000D02*
X91600000Y-92600000D01*
X91600000Y-92600000D02*
X90700000Y-91700000D01*
X90700000Y-91700000D02*
X90700000Y-88500000D01*
X90700000Y-88500000D02*
X91200000Y-88000000D01*
X93425000Y-86800000D02*
X93425000Y-86000000D01*
X92225000Y-88000000D02*
X93425000Y-86800000D01*
X91200000Y-88000000D02*
X92225000Y-88000000D01*
G04 #@! TD*
D21*
G04 #@! TO.N,GNDA*
G36*
X107873000Y-94290000D02*
X96161579Y-94290000D01*
X96264156Y-94187423D01*
X96338049Y-94138049D01*
X96533652Y-93845310D01*
X96585000Y-93587165D01*
X96585000Y-93587161D01*
X96602337Y-93500001D01*
X96585000Y-93412841D01*
X96585000Y-93017946D01*
X96784586Y-92884586D01*
X96834423Y-92810000D01*
X96904277Y-92810000D01*
X96920873Y-92893436D01*
X97115414Y-93184586D01*
X97406564Y-93379127D01*
X97749999Y-93447440D01*
X98400001Y-93447440D01*
X98743436Y-93379127D01*
X99034586Y-93184586D01*
X99100000Y-93086687D01*
X99165414Y-93184586D01*
X99456564Y-93379127D01*
X99799999Y-93447440D01*
X100450001Y-93447440D01*
X100793436Y-93379127D01*
X101084586Y-93184586D01*
X101279127Y-92893436D01*
X101285778Y-92860000D01*
X104375153Y-92860000D01*
X104450000Y-92874888D01*
X104524847Y-92860000D01*
X104524852Y-92860000D01*
X104713678Y-92822440D01*
X105230000Y-92822440D01*
X105390000Y-92790614D01*
X105390000Y-93105874D01*
X105547569Y-93486280D01*
X105838720Y-93777431D01*
X106219126Y-93935000D01*
X106630874Y-93935000D01*
X107011280Y-93777431D01*
X107302431Y-93486280D01*
X107460000Y-93105874D01*
X107460000Y-92954863D01*
X107566644Y-92795260D01*
X107677765Y-92773157D01*
X107873000Y-92642704D01*
X107873000Y-94290000D01*
X107873000Y-94290000D01*
G37*
X107873000Y-94290000D02*
X96161579Y-94290000D01*
X96264156Y-94187423D01*
X96338049Y-94138049D01*
X96533652Y-93845310D01*
X96585000Y-93587165D01*
X96585000Y-93587161D01*
X96602337Y-93500001D01*
X96585000Y-93412841D01*
X96585000Y-93017946D01*
X96784586Y-92884586D01*
X96834423Y-92810000D01*
X96904277Y-92810000D01*
X96920873Y-92893436D01*
X97115414Y-93184586D01*
X97406564Y-93379127D01*
X97749999Y-93447440D01*
X98400001Y-93447440D01*
X98743436Y-93379127D01*
X99034586Y-93184586D01*
X99100000Y-93086687D01*
X99165414Y-93184586D01*
X99456564Y-93379127D01*
X99799999Y-93447440D01*
X100450001Y-93447440D01*
X100793436Y-93379127D01*
X101084586Y-93184586D01*
X101279127Y-92893436D01*
X101285778Y-92860000D01*
X104375153Y-92860000D01*
X104450000Y-92874888D01*
X104524847Y-92860000D01*
X104524852Y-92860000D01*
X104713678Y-92822440D01*
X105230000Y-92822440D01*
X105390000Y-92790614D01*
X105390000Y-93105874D01*
X105547569Y-93486280D01*
X105838720Y-93777431D01*
X106219126Y-93935000D01*
X106630874Y-93935000D01*
X107011280Y-93777431D01*
X107302431Y-93486280D01*
X107460000Y-93105874D01*
X107460000Y-92954863D01*
X107566644Y-92795260D01*
X107677765Y-92773157D01*
X107873000Y-92642704D01*
X107873000Y-94290000D01*
G36*
X107873000Y-76265000D02*
X107004871Y-76265000D01*
X106947765Y-76226843D01*
X106700000Y-76177560D01*
X105700000Y-76177560D01*
X105452235Y-76226843D01*
X105242191Y-76367191D01*
X105101843Y-76577235D01*
X105052560Y-76825000D01*
X105052560Y-77225000D01*
X105077424Y-77350000D01*
X105052560Y-77475000D01*
X105052560Y-77875000D01*
X105073217Y-77978852D01*
X105065000Y-77998690D01*
X105065000Y-78066250D01*
X105096958Y-78098208D01*
X105101843Y-78122765D01*
X105242191Y-78332809D01*
X105243375Y-78333600D01*
X105161673Y-78415301D01*
X105110920Y-78537830D01*
X105065000Y-78583750D01*
X105065000Y-78716250D01*
X105110920Y-78762170D01*
X105161673Y-78884699D01*
X105243375Y-78966400D01*
X105242191Y-78967191D01*
X105101843Y-79177235D01*
X105096958Y-79201792D01*
X105065000Y-79233750D01*
X105065000Y-79301310D01*
X105073217Y-79321148D01*
X105052560Y-79425000D01*
X105052560Y-79825000D01*
X105077424Y-79950000D01*
X105072374Y-79975388D01*
X104805874Y-79865000D01*
X104394126Y-79865000D01*
X104013720Y-80022569D01*
X103722569Y-80313720D01*
X103565000Y-80694126D01*
X103565000Y-81105874D01*
X103722569Y-81486280D01*
X104013720Y-81777431D01*
X104394126Y-81935000D01*
X104805874Y-81935000D01*
X105063185Y-81828418D01*
X105101843Y-82022765D01*
X105242191Y-82232809D01*
X105421410Y-82352560D01*
X104600000Y-82352560D01*
X104352235Y-82401843D01*
X104142191Y-82542191D01*
X104060000Y-82665198D01*
X104060000Y-82274846D01*
X104074888Y-82199999D01*
X104060000Y-82125152D01*
X104060000Y-82125148D01*
X104015904Y-81903463D01*
X103847929Y-81652071D01*
X103784473Y-81609671D01*
X103290331Y-81115530D01*
X103247929Y-81052071D01*
X102996537Y-80884096D01*
X102774852Y-80840000D01*
X102774847Y-80840000D01*
X102700000Y-80825112D01*
X102625153Y-80840000D01*
X101547440Y-80840000D01*
X101547440Y-80725000D01*
X101522576Y-80600000D01*
X101547440Y-80475000D01*
X101547440Y-80075000D01*
X101522576Y-79950000D01*
X101547440Y-79825000D01*
X101547440Y-79425000D01*
X101522576Y-79300000D01*
X101547440Y-79175000D01*
X101547440Y-78775000D01*
X101522576Y-78650000D01*
X101547440Y-78525000D01*
X101547440Y-78125000D01*
X101522576Y-78000000D01*
X101547440Y-77875000D01*
X101547440Y-77475000D01*
X101522576Y-77350000D01*
X101547440Y-77225000D01*
X101547440Y-76825000D01*
X101498157Y-76577235D01*
X101357809Y-76367191D01*
X101147765Y-76226843D01*
X100900000Y-76177560D01*
X99900000Y-76177560D01*
X99652235Y-76226843D01*
X99442191Y-76367191D01*
X99301843Y-76577235D01*
X99252560Y-76825000D01*
X99252560Y-77225000D01*
X99277424Y-77350000D01*
X99252560Y-77475000D01*
X99252560Y-77875000D01*
X99277424Y-78000000D01*
X99252560Y-78125000D01*
X99252560Y-78215000D01*
X98274846Y-78215000D01*
X98199999Y-78200112D01*
X98125152Y-78215000D01*
X98125148Y-78215000D01*
X97903463Y-78259096D01*
X97903461Y-78259097D01*
X97903462Y-78259097D01*
X97715526Y-78384671D01*
X97715524Y-78384673D01*
X97652071Y-78427071D01*
X97635040Y-78452560D01*
X97049999Y-78452560D01*
X96706564Y-78520873D01*
X96415414Y-78715414D01*
X96220873Y-79006564D01*
X96152560Y-79349999D01*
X96152560Y-80000001D01*
X96220873Y-80343436D01*
X96415414Y-80634586D01*
X96513313Y-80700000D01*
X96415414Y-80765414D01*
X96220873Y-81056564D01*
X96152560Y-81399999D01*
X96152560Y-81997639D01*
X96115528Y-82034671D01*
X96052072Y-82077071D01*
X96009672Y-82140527D01*
X96009671Y-82140528D01*
X95884097Y-82328463D01*
X95859413Y-82452560D01*
X95249999Y-82452560D01*
X94906564Y-82520873D01*
X94615414Y-82715414D01*
X94550000Y-82813313D01*
X94484586Y-82715414D01*
X94193436Y-82520873D01*
X93850001Y-82452560D01*
X93199999Y-82452560D01*
X92856564Y-82520873D01*
X92565414Y-82715414D01*
X92500000Y-82813313D01*
X92434586Y-82715414D01*
X92143436Y-82520873D01*
X91960000Y-82484386D01*
X91960000Y-81685778D01*
X91993436Y-81679127D01*
X92284586Y-81484586D01*
X92479127Y-81193436D01*
X92547440Y-80850001D01*
X92547440Y-80199999D01*
X92479127Y-79856564D01*
X92284586Y-79565414D01*
X92283403Y-79564623D01*
X92438327Y-79409698D01*
X92535000Y-79176309D01*
X92535000Y-78760750D01*
X92376250Y-78602000D01*
X91327000Y-78602000D01*
X91327000Y-78622000D01*
X91073000Y-78622000D01*
X91073000Y-78602000D01*
X91053000Y-78602000D01*
X91053000Y-78348000D01*
X91073000Y-78348000D01*
X91073000Y-77423750D01*
X91327000Y-77423750D01*
X91327000Y-78348000D01*
X92376250Y-78348000D01*
X92535000Y-78189250D01*
X92535000Y-77773691D01*
X92438327Y-77540302D01*
X92259699Y-77361673D01*
X92026310Y-77265000D01*
X91485750Y-77265000D01*
X91327000Y-77423750D01*
X91073000Y-77423750D01*
X90914250Y-77265000D01*
X90373690Y-77265000D01*
X90140301Y-77361673D01*
X90137742Y-77364232D01*
X90114868Y-77330000D01*
X90173157Y-77242765D01*
X90222440Y-76995000D01*
X90222440Y-76395000D01*
X90173157Y-76147235D01*
X90032809Y-75937191D01*
X89822765Y-75796843D01*
X89575000Y-75747560D01*
X88025000Y-75747560D01*
X87777235Y-75796843D01*
X87567191Y-75937191D01*
X87426843Y-76147235D01*
X87377560Y-76395000D01*
X87377560Y-76995000D01*
X87426293Y-77240000D01*
X86674846Y-77240000D01*
X86599999Y-77225112D01*
X86525152Y-77240000D01*
X86525148Y-77240000D01*
X86303463Y-77284096D01*
X86052071Y-77452071D01*
X86012017Y-77512017D01*
X85952071Y-77552071D01*
X85784096Y-77803464D01*
X85740000Y-78025149D01*
X85740000Y-78025153D01*
X85725112Y-78100000D01*
X85740000Y-78174847D01*
X85740001Y-83440000D01*
X81914802Y-83440000D01*
X80047937Y-81573135D01*
X80206564Y-81679127D01*
X80549999Y-81747440D01*
X81450001Y-81747440D01*
X81793436Y-81679127D01*
X82084586Y-81484586D01*
X82212531Y-81293104D01*
X82377235Y-81403157D01*
X82625000Y-81452440D01*
X84175000Y-81452440D01*
X84422765Y-81403157D01*
X84632809Y-81262809D01*
X84773157Y-81052765D01*
X84822440Y-80805000D01*
X84822440Y-80205000D01*
X84773157Y-79957235D01*
X84714868Y-79870000D01*
X84773157Y-79782765D01*
X84822440Y-79535000D01*
X84822440Y-78935000D01*
X84773157Y-78687235D01*
X84714868Y-78600000D01*
X84773157Y-78512765D01*
X84822440Y-78265000D01*
X84822440Y-77665000D01*
X84773157Y-77417235D01*
X84714868Y-77330000D01*
X84773157Y-77242765D01*
X84822440Y-76995000D01*
X84822440Y-76395000D01*
X84773157Y-76147235D01*
X84632809Y-75937191D01*
X84422765Y-75796843D01*
X84175000Y-75747560D01*
X82625000Y-75747560D01*
X82377235Y-75796843D01*
X82167191Y-75937191D01*
X82026843Y-76147235D01*
X81977560Y-76395000D01*
X81977560Y-76995000D01*
X82026843Y-77242765D01*
X82085132Y-77330000D01*
X82062258Y-77364232D01*
X82059699Y-77361673D01*
X81826310Y-77265000D01*
X81285750Y-77265000D01*
X81127000Y-77423750D01*
X81127000Y-78348000D01*
X81147000Y-78348000D01*
X81147000Y-78602000D01*
X81127000Y-78602000D01*
X81127000Y-78622000D01*
X80873000Y-78622000D01*
X80873000Y-78602000D01*
X79823750Y-78602000D01*
X79665000Y-78760750D01*
X79665000Y-79176309D01*
X79761673Y-79409698D01*
X79916597Y-79564623D01*
X79915414Y-79565414D01*
X79720873Y-79856564D01*
X79652560Y-80199999D01*
X79652560Y-80850001D01*
X79720873Y-81193436D01*
X79826865Y-81352063D01*
X77990331Y-79515530D01*
X77947929Y-79452071D01*
X77797440Y-79351517D01*
X77797440Y-79150000D01*
X77748157Y-78902235D01*
X77607809Y-78692191D01*
X77397765Y-78551843D01*
X77150000Y-78502560D01*
X75450000Y-78502560D01*
X75202235Y-78551843D01*
X74992191Y-78692191D01*
X74851843Y-78902235D01*
X74802560Y-79150000D01*
X74802560Y-80850000D01*
X74851843Y-81097765D01*
X74992191Y-81307809D01*
X75202235Y-81448157D01*
X75247619Y-81457184D01*
X75229375Y-81469375D01*
X74901161Y-81960582D01*
X74785908Y-82540000D01*
X74901161Y-83119418D01*
X75229375Y-83610625D01*
X75527761Y-83810000D01*
X75229375Y-84009375D01*
X74901161Y-84500582D01*
X74785908Y-85080000D01*
X74901161Y-85659418D01*
X75229375Y-86150625D01*
X75527761Y-86350000D01*
X75229375Y-86549375D01*
X74901161Y-87040582D01*
X74785908Y-87620000D01*
X74901161Y-88199418D01*
X75229375Y-88690625D01*
X75548478Y-88903843D01*
X75418642Y-88964817D01*
X75028355Y-89393076D01*
X74858524Y-89803110D01*
X74979845Y-90033000D01*
X76173000Y-90033000D01*
X76173000Y-90013000D01*
X76427000Y-90013000D01*
X76427000Y-90033000D01*
X77620155Y-90033000D01*
X77741476Y-89803110D01*
X77610636Y-89487214D01*
X79052560Y-90929139D01*
X79052560Y-91350001D01*
X79120873Y-91693436D01*
X79315414Y-91984586D01*
X79606564Y-92179127D01*
X79949999Y-92247440D01*
X80600001Y-92247440D01*
X80943436Y-92179127D01*
X81234586Y-91984586D01*
X81300000Y-91886687D01*
X81365414Y-91984586D01*
X81656564Y-92179127D01*
X81999999Y-92247440D01*
X82420862Y-92247440D01*
X84463421Y-94290000D01*
X73710000Y-94290000D01*
X73710000Y-90516890D01*
X74858524Y-90516890D01*
X75028355Y-90926924D01*
X75418642Y-91355183D01*
X75943108Y-91601486D01*
X76173000Y-91480819D01*
X76173000Y-90287000D01*
X76427000Y-90287000D01*
X76427000Y-91480819D01*
X76656892Y-91601486D01*
X77181358Y-91355183D01*
X77571645Y-90926924D01*
X77741476Y-90516890D01*
X77620155Y-90287000D01*
X76427000Y-90287000D01*
X76173000Y-90287000D01*
X74979845Y-90287000D01*
X74858524Y-90516890D01*
X73710000Y-90516890D01*
X73710000Y-77773691D01*
X79665000Y-77773691D01*
X79665000Y-78189250D01*
X79823750Y-78348000D01*
X80873000Y-78348000D01*
X80873000Y-77423750D01*
X80714250Y-77265000D01*
X80173690Y-77265000D01*
X79940301Y-77361673D01*
X79761673Y-77540302D01*
X79665000Y-77773691D01*
X73710000Y-77773691D01*
X73710000Y-74710000D01*
X107873000Y-74710000D01*
X107873000Y-76265000D01*
X107873000Y-76265000D01*
G37*
X107873000Y-76265000D02*
X107004871Y-76265000D01*
X106947765Y-76226843D01*
X106700000Y-76177560D01*
X105700000Y-76177560D01*
X105452235Y-76226843D01*
X105242191Y-76367191D01*
X105101843Y-76577235D01*
X105052560Y-76825000D01*
X105052560Y-77225000D01*
X105077424Y-77350000D01*
X105052560Y-77475000D01*
X105052560Y-77875000D01*
X105073217Y-77978852D01*
X105065000Y-77998690D01*
X105065000Y-78066250D01*
X105096958Y-78098208D01*
X105101843Y-78122765D01*
X105242191Y-78332809D01*
X105243375Y-78333600D01*
X105161673Y-78415301D01*
X105110920Y-78537830D01*
X105065000Y-78583750D01*
X105065000Y-78716250D01*
X105110920Y-78762170D01*
X105161673Y-78884699D01*
X105243375Y-78966400D01*
X105242191Y-78967191D01*
X105101843Y-79177235D01*
X105096958Y-79201792D01*
X105065000Y-79233750D01*
X105065000Y-79301310D01*
X105073217Y-79321148D01*
X105052560Y-79425000D01*
X105052560Y-79825000D01*
X105077424Y-79950000D01*
X105072374Y-79975388D01*
X104805874Y-79865000D01*
X104394126Y-79865000D01*
X104013720Y-80022569D01*
X103722569Y-80313720D01*
X103565000Y-80694126D01*
X103565000Y-81105874D01*
X103722569Y-81486280D01*
X104013720Y-81777431D01*
X104394126Y-81935000D01*
X104805874Y-81935000D01*
X105063185Y-81828418D01*
X105101843Y-82022765D01*
X105242191Y-82232809D01*
X105421410Y-82352560D01*
X104600000Y-82352560D01*
X104352235Y-82401843D01*
X104142191Y-82542191D01*
X104060000Y-82665198D01*
X104060000Y-82274846D01*
X104074888Y-82199999D01*
X104060000Y-82125152D01*
X104060000Y-82125148D01*
X104015904Y-81903463D01*
X103847929Y-81652071D01*
X103784473Y-81609671D01*
X103290331Y-81115530D01*
X103247929Y-81052071D01*
X102996537Y-80884096D01*
X102774852Y-80840000D01*
X102774847Y-80840000D01*
X102700000Y-80825112D01*
X102625153Y-80840000D01*
X101547440Y-80840000D01*
X101547440Y-80725000D01*
X101522576Y-80600000D01*
X101547440Y-80475000D01*
X101547440Y-80075000D01*
X101522576Y-79950000D01*
X101547440Y-79825000D01*
X101547440Y-79425000D01*
X101522576Y-79300000D01*
X101547440Y-79175000D01*
X101547440Y-78775000D01*
X101522576Y-78650000D01*
X101547440Y-78525000D01*
X101547440Y-78125000D01*
X101522576Y-78000000D01*
X101547440Y-77875000D01*
X101547440Y-77475000D01*
X101522576Y-77350000D01*
X101547440Y-77225000D01*
X101547440Y-76825000D01*
X101498157Y-76577235D01*
X101357809Y-76367191D01*
X101147765Y-76226843D01*
X100900000Y-76177560D01*
X99900000Y-76177560D01*
X99652235Y-76226843D01*
X99442191Y-76367191D01*
X99301843Y-76577235D01*
X99252560Y-76825000D01*
X99252560Y-77225000D01*
X99277424Y-77350000D01*
X99252560Y-77475000D01*
X99252560Y-77875000D01*
X99277424Y-78000000D01*
X99252560Y-78125000D01*
X99252560Y-78215000D01*
X98274846Y-78215000D01*
X98199999Y-78200112D01*
X98125152Y-78215000D01*
X98125148Y-78215000D01*
X97903463Y-78259096D01*
X97903461Y-78259097D01*
X97903462Y-78259097D01*
X97715526Y-78384671D01*
X97715524Y-78384673D01*
X97652071Y-78427071D01*
X97635040Y-78452560D01*
X97049999Y-78452560D01*
X96706564Y-78520873D01*
X96415414Y-78715414D01*
X96220873Y-79006564D01*
X96152560Y-79349999D01*
X96152560Y-80000001D01*
X96220873Y-80343436D01*
X96415414Y-80634586D01*
X96513313Y-80700000D01*
X96415414Y-80765414D01*
X96220873Y-81056564D01*
X96152560Y-81399999D01*
X96152560Y-81997639D01*
X96115528Y-82034671D01*
X96052072Y-82077071D01*
X96009672Y-82140527D01*
X96009671Y-82140528D01*
X95884097Y-82328463D01*
X95859413Y-82452560D01*
X95249999Y-82452560D01*
X94906564Y-82520873D01*
X94615414Y-82715414D01*
X94550000Y-82813313D01*
X94484586Y-82715414D01*
X94193436Y-82520873D01*
X93850001Y-82452560D01*
X93199999Y-82452560D01*
X92856564Y-82520873D01*
X92565414Y-82715414D01*
X92500000Y-82813313D01*
X92434586Y-82715414D01*
X92143436Y-82520873D01*
X91960000Y-82484386D01*
X91960000Y-81685778D01*
X91993436Y-81679127D01*
X92284586Y-81484586D01*
X92479127Y-81193436D01*
X92547440Y-80850001D01*
X92547440Y-80199999D01*
X92479127Y-79856564D01*
X92284586Y-79565414D01*
X92283403Y-79564623D01*
X92438327Y-79409698D01*
X92535000Y-79176309D01*
X92535000Y-78760750D01*
X92376250Y-78602000D01*
X91327000Y-78602000D01*
X91327000Y-78622000D01*
X91073000Y-78622000D01*
X91073000Y-78602000D01*
X91053000Y-78602000D01*
X91053000Y-78348000D01*
X91073000Y-78348000D01*
X91073000Y-77423750D01*
X91327000Y-77423750D01*
X91327000Y-78348000D01*
X92376250Y-78348000D01*
X92535000Y-78189250D01*
X92535000Y-77773691D01*
X92438327Y-77540302D01*
X92259699Y-77361673D01*
X92026310Y-77265000D01*
X91485750Y-77265000D01*
X91327000Y-77423750D01*
X91073000Y-77423750D01*
X90914250Y-77265000D01*
X90373690Y-77265000D01*
X90140301Y-77361673D01*
X90137742Y-77364232D01*
X90114868Y-77330000D01*
X90173157Y-77242765D01*
X90222440Y-76995000D01*
X90222440Y-76395000D01*
X90173157Y-76147235D01*
X90032809Y-75937191D01*
X89822765Y-75796843D01*
X89575000Y-75747560D01*
X88025000Y-75747560D01*
X87777235Y-75796843D01*
X87567191Y-75937191D01*
X87426843Y-76147235D01*
X87377560Y-76395000D01*
X87377560Y-76995000D01*
X87426293Y-77240000D01*
X86674846Y-77240000D01*
X86599999Y-77225112D01*
X86525152Y-77240000D01*
X86525148Y-77240000D01*
X86303463Y-77284096D01*
X86052071Y-77452071D01*
X86012017Y-77512017D01*
X85952071Y-77552071D01*
X85784096Y-77803464D01*
X85740000Y-78025149D01*
X85740000Y-78025153D01*
X85725112Y-78100000D01*
X85740000Y-78174847D01*
X85740001Y-83440000D01*
X81914802Y-83440000D01*
X80047937Y-81573135D01*
X80206564Y-81679127D01*
X80549999Y-81747440D01*
X81450001Y-81747440D01*
X81793436Y-81679127D01*
X82084586Y-81484586D01*
X82212531Y-81293104D01*
X82377235Y-81403157D01*
X82625000Y-81452440D01*
X84175000Y-81452440D01*
X84422765Y-81403157D01*
X84632809Y-81262809D01*
X84773157Y-81052765D01*
X84822440Y-80805000D01*
X84822440Y-80205000D01*
X84773157Y-79957235D01*
X84714868Y-79870000D01*
X84773157Y-79782765D01*
X84822440Y-79535000D01*
X84822440Y-78935000D01*
X84773157Y-78687235D01*
X84714868Y-78600000D01*
X84773157Y-78512765D01*
X84822440Y-78265000D01*
X84822440Y-77665000D01*
X84773157Y-77417235D01*
X84714868Y-77330000D01*
X84773157Y-77242765D01*
X84822440Y-76995000D01*
X84822440Y-76395000D01*
X84773157Y-76147235D01*
X84632809Y-75937191D01*
X84422765Y-75796843D01*
X84175000Y-75747560D01*
X82625000Y-75747560D01*
X82377235Y-75796843D01*
X82167191Y-75937191D01*
X82026843Y-76147235D01*
X81977560Y-76395000D01*
X81977560Y-76995000D01*
X82026843Y-77242765D01*
X82085132Y-77330000D01*
X82062258Y-77364232D01*
X82059699Y-77361673D01*
X81826310Y-77265000D01*
X81285750Y-77265000D01*
X81127000Y-77423750D01*
X81127000Y-78348000D01*
X81147000Y-78348000D01*
X81147000Y-78602000D01*
X81127000Y-78602000D01*
X81127000Y-78622000D01*
X80873000Y-78622000D01*
X80873000Y-78602000D01*
X79823750Y-78602000D01*
X79665000Y-78760750D01*
X79665000Y-79176309D01*
X79761673Y-79409698D01*
X79916597Y-79564623D01*
X79915414Y-79565414D01*
X79720873Y-79856564D01*
X79652560Y-80199999D01*
X79652560Y-80850001D01*
X79720873Y-81193436D01*
X79826865Y-81352063D01*
X77990331Y-79515530D01*
X77947929Y-79452071D01*
X77797440Y-79351517D01*
X77797440Y-79150000D01*
X77748157Y-78902235D01*
X77607809Y-78692191D01*
X77397765Y-78551843D01*
X77150000Y-78502560D01*
X75450000Y-78502560D01*
X75202235Y-78551843D01*
X74992191Y-78692191D01*
X74851843Y-78902235D01*
X74802560Y-79150000D01*
X74802560Y-80850000D01*
X74851843Y-81097765D01*
X74992191Y-81307809D01*
X75202235Y-81448157D01*
X75247619Y-81457184D01*
X75229375Y-81469375D01*
X74901161Y-81960582D01*
X74785908Y-82540000D01*
X74901161Y-83119418D01*
X75229375Y-83610625D01*
X75527761Y-83810000D01*
X75229375Y-84009375D01*
X74901161Y-84500582D01*
X74785908Y-85080000D01*
X74901161Y-85659418D01*
X75229375Y-86150625D01*
X75527761Y-86350000D01*
X75229375Y-86549375D01*
X74901161Y-87040582D01*
X74785908Y-87620000D01*
X74901161Y-88199418D01*
X75229375Y-88690625D01*
X75548478Y-88903843D01*
X75418642Y-88964817D01*
X75028355Y-89393076D01*
X74858524Y-89803110D01*
X74979845Y-90033000D01*
X76173000Y-90033000D01*
X76173000Y-90013000D01*
X76427000Y-90013000D01*
X76427000Y-90033000D01*
X77620155Y-90033000D01*
X77741476Y-89803110D01*
X77610636Y-89487214D01*
X79052560Y-90929139D01*
X79052560Y-91350001D01*
X79120873Y-91693436D01*
X79315414Y-91984586D01*
X79606564Y-92179127D01*
X79949999Y-92247440D01*
X80600001Y-92247440D01*
X80943436Y-92179127D01*
X81234586Y-91984586D01*
X81300000Y-91886687D01*
X81365414Y-91984586D01*
X81656564Y-92179127D01*
X81999999Y-92247440D01*
X82420862Y-92247440D01*
X84463421Y-94290000D01*
X73710000Y-94290000D01*
X73710000Y-90516890D01*
X74858524Y-90516890D01*
X75028355Y-90926924D01*
X75418642Y-91355183D01*
X75943108Y-91601486D01*
X76173000Y-91480819D01*
X76173000Y-90287000D01*
X76427000Y-90287000D01*
X76427000Y-91480819D01*
X76656892Y-91601486D01*
X77181358Y-91355183D01*
X77571645Y-90926924D01*
X77741476Y-90516890D01*
X77620155Y-90287000D01*
X76427000Y-90287000D01*
X76173000Y-90287000D01*
X74979845Y-90287000D01*
X74858524Y-90516890D01*
X73710000Y-90516890D01*
X73710000Y-77773691D01*
X79665000Y-77773691D01*
X79665000Y-78189250D01*
X79823750Y-78348000D01*
X80873000Y-78348000D01*
X80873000Y-77423750D01*
X80714250Y-77265000D01*
X80173690Y-77265000D01*
X79940301Y-77361673D01*
X79761673Y-77540302D01*
X79665000Y-77773691D01*
X73710000Y-77773691D01*
X73710000Y-74710000D01*
X107873000Y-74710000D01*
X107873000Y-76265000D01*
G36*
X86077560Y-89765000D02*
X86077560Y-90365000D01*
X86126843Y-90612765D01*
X86185132Y-90700000D01*
X86126843Y-90787235D01*
X86077560Y-91035000D01*
X86077560Y-91635000D01*
X86126843Y-91882765D01*
X86179768Y-91961972D01*
X86090000Y-92178690D01*
X86090000Y-92319250D01*
X86248750Y-92478000D01*
X87373000Y-92478000D01*
X87373000Y-92458000D01*
X87627000Y-92458000D01*
X87627000Y-92478000D01*
X88751250Y-92478000D01*
X88910000Y-92319250D01*
X88910000Y-92178690D01*
X88860837Y-92060000D01*
X89225153Y-92060000D01*
X89300000Y-92074888D01*
X89374847Y-92060000D01*
X89374852Y-92060000D01*
X89596537Y-92015904D01*
X89847929Y-91847929D01*
X89890330Y-91784471D01*
X89933356Y-91741445D01*
X89940000Y-91774847D01*
X89940000Y-91774851D01*
X89984096Y-91996536D01*
X90152071Y-92247929D01*
X90215530Y-92290331D01*
X91009670Y-93084472D01*
X91052071Y-93147929D01*
X91264695Y-93290000D01*
X88788026Y-93290000D01*
X88813327Y-93264699D01*
X88910000Y-93031310D01*
X88910000Y-92890750D01*
X88751250Y-92732000D01*
X87627000Y-92732000D01*
X87627000Y-92752000D01*
X87373000Y-92752000D01*
X87373000Y-92732000D01*
X86248750Y-92732000D01*
X86090000Y-92890750D01*
X86090000Y-93031310D01*
X86186673Y-93264699D01*
X86211974Y-93290000D01*
X85966579Y-93290000D01*
X83547440Y-90870862D01*
X83547440Y-90449999D01*
X83479127Y-90106564D01*
X83284586Y-89815414D01*
X83089408Y-89685000D01*
X86093473Y-89685000D01*
X86077560Y-89765000D01*
X86077560Y-89765000D01*
G37*
X86077560Y-89765000D02*
X86077560Y-90365000D01*
X86126843Y-90612765D01*
X86185132Y-90700000D01*
X86126843Y-90787235D01*
X86077560Y-91035000D01*
X86077560Y-91635000D01*
X86126843Y-91882765D01*
X86179768Y-91961972D01*
X86090000Y-92178690D01*
X86090000Y-92319250D01*
X86248750Y-92478000D01*
X87373000Y-92478000D01*
X87373000Y-92458000D01*
X87627000Y-92458000D01*
X87627000Y-92478000D01*
X88751250Y-92478000D01*
X88910000Y-92319250D01*
X88910000Y-92178690D01*
X88860837Y-92060000D01*
X89225153Y-92060000D01*
X89300000Y-92074888D01*
X89374847Y-92060000D01*
X89374852Y-92060000D01*
X89596537Y-92015904D01*
X89847929Y-91847929D01*
X89890330Y-91784471D01*
X89933356Y-91741445D01*
X89940000Y-91774847D01*
X89940000Y-91774851D01*
X89984096Y-91996536D01*
X90152071Y-92247929D01*
X90215530Y-92290331D01*
X91009670Y-93084472D01*
X91052071Y-93147929D01*
X91264695Y-93290000D01*
X88788026Y-93290000D01*
X88813327Y-93264699D01*
X88910000Y-93031310D01*
X88910000Y-92890750D01*
X88751250Y-92732000D01*
X87627000Y-92732000D01*
X87627000Y-92752000D01*
X87373000Y-92752000D01*
X87373000Y-92732000D01*
X86248750Y-92732000D01*
X86090000Y-92890750D01*
X86090000Y-93031310D01*
X86186673Y-93264699D01*
X86211974Y-93290000D01*
X85966579Y-93290000D01*
X83547440Y-90870862D01*
X83547440Y-90449999D01*
X83479127Y-90106564D01*
X83284586Y-89815414D01*
X83089408Y-89685000D01*
X86093473Y-89685000D01*
X86077560Y-89765000D01*
G36*
X103693750Y-90773000D02*
X103772341Y-90773000D01*
X103922235Y-90873157D01*
X104057185Y-90900000D01*
X103922235Y-90926843D01*
X103772341Y-91027000D01*
X103693750Y-91027000D01*
X103535000Y-91185750D01*
X103535000Y-91340000D01*
X101285778Y-91340000D01*
X101279127Y-91306564D01*
X101084586Y-91015414D01*
X101061517Y-91000000D01*
X101084586Y-90984586D01*
X101279127Y-90693436D01*
X101285778Y-90660000D01*
X103580750Y-90660000D01*
X103693750Y-90773000D01*
X103693750Y-90773000D01*
G37*
X103693750Y-90773000D02*
X103772341Y-90773000D01*
X103922235Y-90873157D01*
X104057185Y-90900000D01*
X103922235Y-90926843D01*
X103772341Y-91027000D01*
X103693750Y-91027000D01*
X103535000Y-91185750D01*
X103535000Y-91340000D01*
X101285778Y-91340000D01*
X101279127Y-91306564D01*
X101084586Y-91015414D01*
X101061517Y-91000000D01*
X101084586Y-90984586D01*
X101279127Y-90693436D01*
X101285778Y-90660000D01*
X103580750Y-90660000D01*
X103693750Y-90773000D01*
G36*
X87390000Y-78808690D02*
X87390000Y-78949250D01*
X87548750Y-79108000D01*
X88673000Y-79108000D01*
X88673000Y-79088000D01*
X88927000Y-79088000D01*
X88927000Y-79108000D01*
X88947000Y-79108000D01*
X88947000Y-79362000D01*
X88927000Y-79362000D01*
X88927000Y-79382000D01*
X88673000Y-79382000D01*
X88673000Y-79362000D01*
X87548750Y-79362000D01*
X87390000Y-79520750D01*
X87390000Y-79661310D01*
X87479768Y-79878028D01*
X87426843Y-79957235D01*
X87377560Y-80205000D01*
X87377560Y-80805000D01*
X87426843Y-81052765D01*
X87567191Y-81262809D01*
X87777235Y-81403157D01*
X88025000Y-81452440D01*
X89575000Y-81452440D01*
X89822765Y-81403157D01*
X89987469Y-81293104D01*
X90115414Y-81484586D01*
X90406564Y-81679127D01*
X90440000Y-81685778D01*
X90440001Y-82828277D01*
X90320873Y-83006564D01*
X90252560Y-83349999D01*
X90252560Y-84250001D01*
X90320873Y-84593436D01*
X90498789Y-84859705D01*
X90415414Y-84915414D01*
X90220873Y-85206564D01*
X90152560Y-85549999D01*
X90152560Y-86450001D01*
X90220873Y-86793436D01*
X90257588Y-86848384D01*
X90252071Y-86852071D01*
X90209671Y-86915527D01*
X89515528Y-87609671D01*
X89452072Y-87652071D01*
X89409672Y-87715527D01*
X89409671Y-87715528D01*
X89363528Y-87784586D01*
X89284097Y-87903463D01*
X89271857Y-87965000D01*
X89225112Y-88200000D01*
X89240001Y-88274852D01*
X89240000Y-90285198D01*
X88985198Y-90540000D01*
X88887631Y-90540000D01*
X88922440Y-90365000D01*
X88922440Y-89765000D01*
X88873157Y-89517235D01*
X88814868Y-89430000D01*
X88873157Y-89342765D01*
X88922440Y-89095000D01*
X88922440Y-88495000D01*
X88873157Y-88247235D01*
X88732809Y-88037191D01*
X88522765Y-87896843D01*
X88363880Y-87865239D01*
X88484586Y-87784586D01*
X88679127Y-87493436D01*
X88747440Y-87150001D01*
X88747440Y-86249999D01*
X88679127Y-85906564D01*
X88484586Y-85615414D01*
X88312969Y-85500742D01*
X88402431Y-85411280D01*
X88560000Y-85030874D01*
X88560000Y-84619126D01*
X88402431Y-84238720D01*
X88111280Y-83947569D01*
X87730874Y-83790000D01*
X87564801Y-83790000D01*
X87490330Y-83715529D01*
X87447929Y-83652071D01*
X87260000Y-83526501D01*
X87260000Y-78760000D01*
X87410168Y-78760000D01*
X87390000Y-78808690D01*
X87390000Y-78808690D01*
G37*
X87390000Y-78808690D02*
X87390000Y-78949250D01*
X87548750Y-79108000D01*
X88673000Y-79108000D01*
X88673000Y-79088000D01*
X88927000Y-79088000D01*
X88927000Y-79108000D01*
X88947000Y-79108000D01*
X88947000Y-79362000D01*
X88927000Y-79362000D01*
X88927000Y-79382000D01*
X88673000Y-79382000D01*
X88673000Y-79362000D01*
X87548750Y-79362000D01*
X87390000Y-79520750D01*
X87390000Y-79661310D01*
X87479768Y-79878028D01*
X87426843Y-79957235D01*
X87377560Y-80205000D01*
X87377560Y-80805000D01*
X87426843Y-81052765D01*
X87567191Y-81262809D01*
X87777235Y-81403157D01*
X88025000Y-81452440D01*
X89575000Y-81452440D01*
X89822765Y-81403157D01*
X89987469Y-81293104D01*
X90115414Y-81484586D01*
X90406564Y-81679127D01*
X90440000Y-81685778D01*
X90440001Y-82828277D01*
X90320873Y-83006564D01*
X90252560Y-83349999D01*
X90252560Y-84250001D01*
X90320873Y-84593436D01*
X90498789Y-84859705D01*
X90415414Y-84915414D01*
X90220873Y-85206564D01*
X90152560Y-85549999D01*
X90152560Y-86450001D01*
X90220873Y-86793436D01*
X90257588Y-86848384D01*
X90252071Y-86852071D01*
X90209671Y-86915527D01*
X89515528Y-87609671D01*
X89452072Y-87652071D01*
X89409672Y-87715527D01*
X89409671Y-87715528D01*
X89363528Y-87784586D01*
X89284097Y-87903463D01*
X89271857Y-87965000D01*
X89225112Y-88200000D01*
X89240001Y-88274852D01*
X89240000Y-90285198D01*
X88985198Y-90540000D01*
X88887631Y-90540000D01*
X88922440Y-90365000D01*
X88922440Y-89765000D01*
X88873157Y-89517235D01*
X88814868Y-89430000D01*
X88873157Y-89342765D01*
X88922440Y-89095000D01*
X88922440Y-88495000D01*
X88873157Y-88247235D01*
X88732809Y-88037191D01*
X88522765Y-87896843D01*
X88363880Y-87865239D01*
X88484586Y-87784586D01*
X88679127Y-87493436D01*
X88747440Y-87150001D01*
X88747440Y-86249999D01*
X88679127Y-85906564D01*
X88484586Y-85615414D01*
X88312969Y-85500742D01*
X88402431Y-85411280D01*
X88560000Y-85030874D01*
X88560000Y-84619126D01*
X88402431Y-84238720D01*
X88111280Y-83947569D01*
X87730874Y-83790000D01*
X87564801Y-83790000D01*
X87490330Y-83715529D01*
X87447929Y-83652071D01*
X87260000Y-83526501D01*
X87260000Y-78760000D01*
X87410168Y-78760000D01*
X87390000Y-78808690D01*
G36*
X81009670Y-84684472D02*
X81052071Y-84747929D01*
X81303463Y-84915904D01*
X81525148Y-84960000D01*
X81525153Y-84960000D01*
X81600000Y-84974888D01*
X81674847Y-84960000D01*
X86425148Y-84960000D01*
X86490000Y-84972900D01*
X86490000Y-85030874D01*
X86647569Y-85411280D01*
X86737031Y-85500742D01*
X86565414Y-85615414D01*
X86564623Y-85616597D01*
X86409698Y-85461673D01*
X86176309Y-85365000D01*
X85760750Y-85365000D01*
X85602000Y-85523750D01*
X85602000Y-86573000D01*
X85622000Y-86573000D01*
X85622000Y-86827000D01*
X85602000Y-86827000D01*
X85602000Y-86847000D01*
X85348000Y-86847000D01*
X85348000Y-86827000D01*
X84423750Y-86827000D01*
X84265000Y-86985750D01*
X84265000Y-87526310D01*
X84361673Y-87759699D01*
X84516975Y-87915000D01*
X80566579Y-87915000D01*
X79885000Y-87233422D01*
X79885000Y-86087159D01*
X79902337Y-85999999D01*
X79885000Y-85912839D01*
X79885000Y-85912835D01*
X79877214Y-85873690D01*
X84265000Y-85873690D01*
X84265000Y-86414250D01*
X84423750Y-86573000D01*
X85348000Y-86573000D01*
X85348000Y-85523750D01*
X85189250Y-85365000D01*
X84773691Y-85365000D01*
X84540302Y-85461673D01*
X84361673Y-85640301D01*
X84265000Y-85873690D01*
X79877214Y-85873690D01*
X79833652Y-85654690D01*
X79746160Y-85523750D01*
X79687424Y-85435845D01*
X79687423Y-85435844D01*
X79638049Y-85361951D01*
X79564156Y-85312577D01*
X78767425Y-84515847D01*
X78718049Y-84441951D01*
X78425310Y-84246348D01*
X78167165Y-84195000D01*
X78167161Y-84195000D01*
X78080000Y-84177663D01*
X77992839Y-84195000D01*
X77494656Y-84195000D01*
X77370625Y-84009375D01*
X77072239Y-83810000D01*
X77370625Y-83610625D01*
X77698839Y-83119418D01*
X77814092Y-82540000D01*
X77698839Y-81960582D01*
X77370625Y-81469375D01*
X77352381Y-81457184D01*
X77397765Y-81448157D01*
X77607809Y-81307809D01*
X77617902Y-81292703D01*
X81009670Y-84684472D01*
X81009670Y-84684472D01*
G37*
X81009670Y-84684472D02*
X81052071Y-84747929D01*
X81303463Y-84915904D01*
X81525148Y-84960000D01*
X81525153Y-84960000D01*
X81600000Y-84974888D01*
X81674847Y-84960000D01*
X86425148Y-84960000D01*
X86490000Y-84972900D01*
X86490000Y-85030874D01*
X86647569Y-85411280D01*
X86737031Y-85500742D01*
X86565414Y-85615414D01*
X86564623Y-85616597D01*
X86409698Y-85461673D01*
X86176309Y-85365000D01*
X85760750Y-85365000D01*
X85602000Y-85523750D01*
X85602000Y-86573000D01*
X85622000Y-86573000D01*
X85622000Y-86827000D01*
X85602000Y-86827000D01*
X85602000Y-86847000D01*
X85348000Y-86847000D01*
X85348000Y-86827000D01*
X84423750Y-86827000D01*
X84265000Y-86985750D01*
X84265000Y-87526310D01*
X84361673Y-87759699D01*
X84516975Y-87915000D01*
X80566579Y-87915000D01*
X79885000Y-87233422D01*
X79885000Y-86087159D01*
X79902337Y-85999999D01*
X79885000Y-85912839D01*
X79885000Y-85912835D01*
X79877214Y-85873690D01*
X84265000Y-85873690D01*
X84265000Y-86414250D01*
X84423750Y-86573000D01*
X85348000Y-86573000D01*
X85348000Y-85523750D01*
X85189250Y-85365000D01*
X84773691Y-85365000D01*
X84540302Y-85461673D01*
X84361673Y-85640301D01*
X84265000Y-85873690D01*
X79877214Y-85873690D01*
X79833652Y-85654690D01*
X79746160Y-85523750D01*
X79687424Y-85435845D01*
X79687423Y-85435844D01*
X79638049Y-85361951D01*
X79564156Y-85312577D01*
X78767425Y-84515847D01*
X78718049Y-84441951D01*
X78425310Y-84246348D01*
X78167165Y-84195000D01*
X78167161Y-84195000D01*
X78080000Y-84177663D01*
X77992839Y-84195000D01*
X77494656Y-84195000D01*
X77370625Y-84009375D01*
X77072239Y-83810000D01*
X77370625Y-83610625D01*
X77698839Y-83119418D01*
X77814092Y-82540000D01*
X77698839Y-81960582D01*
X77370625Y-81469375D01*
X77352381Y-81457184D01*
X77397765Y-81448157D01*
X77607809Y-81307809D01*
X77617902Y-81292703D01*
X81009670Y-84684472D01*
G04 #@! TO.N,GND*
G36*
X119290001Y-94290000D02*
X109137156Y-94290000D01*
X109143349Y-93856453D01*
X109884476Y-93115327D01*
X109947929Y-93072929D01*
X109963316Y-93049900D01*
X110193436Y-93004127D01*
X110484586Y-92809586D01*
X110679127Y-92518436D01*
X110747440Y-92175001D01*
X110747440Y-91524999D01*
X110679127Y-91181564D01*
X110484586Y-90890414D01*
X110386687Y-90825000D01*
X110484586Y-90759586D01*
X110512219Y-90718231D01*
X110794126Y-90835000D01*
X111205874Y-90835000D01*
X111586280Y-90677431D01*
X111746821Y-90516890D01*
X115658524Y-90516890D01*
X115828355Y-90926924D01*
X116218642Y-91355183D01*
X116743108Y-91601486D01*
X116973000Y-91480819D01*
X116973000Y-90287000D01*
X117227000Y-90287000D01*
X117227000Y-91480819D01*
X117456892Y-91601486D01*
X117981358Y-91355183D01*
X118371645Y-90926924D01*
X118541476Y-90516890D01*
X118420155Y-90287000D01*
X117227000Y-90287000D01*
X116973000Y-90287000D01*
X115779845Y-90287000D01*
X115658524Y-90516890D01*
X111746821Y-90516890D01*
X111877431Y-90386280D01*
X112035000Y-90005874D01*
X112035000Y-89594126D01*
X111877431Y-89213720D01*
X111586280Y-88922569D01*
X111205874Y-88765000D01*
X110794126Y-88765000D01*
X110512219Y-88881769D01*
X110484586Y-88840414D01*
X110193436Y-88645873D01*
X109850001Y-88577560D01*
X109218762Y-88577560D01*
X109226156Y-88060000D01*
X111285199Y-88060000D01*
X111965000Y-88739802D01*
X111965000Y-88905874D01*
X112122569Y-89286280D01*
X112413720Y-89577431D01*
X112794126Y-89735000D01*
X113205874Y-89735000D01*
X113586280Y-89577431D01*
X113877431Y-89286280D01*
X114035000Y-88905874D01*
X114035000Y-88494126D01*
X113987728Y-88380000D01*
X115821822Y-88380000D01*
X116029375Y-88690625D01*
X116348478Y-88903843D01*
X116218642Y-88964817D01*
X115828355Y-89393076D01*
X115658524Y-89803110D01*
X115779845Y-90033000D01*
X116973000Y-90033000D01*
X116973000Y-90013000D01*
X117227000Y-90013000D01*
X117227000Y-90033000D01*
X118420155Y-90033000D01*
X118541476Y-89803110D01*
X118371645Y-89393076D01*
X117981358Y-88964817D01*
X117851522Y-88903843D01*
X118170625Y-88690625D01*
X118498839Y-88199418D01*
X118614092Y-87620000D01*
X118498839Y-87040582D01*
X118170625Y-86549375D01*
X117872239Y-86350000D01*
X118170625Y-86150625D01*
X118498839Y-85659418D01*
X118614092Y-85080000D01*
X118498839Y-84500582D01*
X118170625Y-84009375D01*
X117872239Y-83810000D01*
X118170625Y-83610625D01*
X118498839Y-83119418D01*
X118614092Y-82540000D01*
X118498839Y-81960582D01*
X118170625Y-81469375D01*
X118152381Y-81457184D01*
X118197765Y-81448157D01*
X118407809Y-81307809D01*
X118548157Y-81097765D01*
X118597440Y-80850000D01*
X118597440Y-79150000D01*
X118548157Y-78902235D01*
X118407809Y-78692191D01*
X118197765Y-78551843D01*
X117950000Y-78502560D01*
X116250000Y-78502560D01*
X116002235Y-78551843D01*
X115792191Y-78692191D01*
X115651843Y-78902235D01*
X115602560Y-79150000D01*
X115602560Y-79240000D01*
X114139802Y-79240000D01*
X113847440Y-78947638D01*
X113847440Y-78349999D01*
X113779127Y-78006564D01*
X113584586Y-77715414D01*
X113293436Y-77520873D01*
X112950001Y-77452560D01*
X112299999Y-77452560D01*
X111956564Y-77520873D01*
X111665414Y-77715414D01*
X111664623Y-77716597D01*
X111509698Y-77561673D01*
X111276309Y-77465000D01*
X110860750Y-77465000D01*
X110702002Y-77623748D01*
X110702002Y-77465000D01*
X110698711Y-77465000D01*
X110877431Y-77286280D01*
X111035000Y-76905874D01*
X111035000Y-76494126D01*
X110877431Y-76113720D01*
X110798683Y-76034972D01*
X110935000Y-75705874D01*
X110935000Y-75294126D01*
X110777431Y-74913720D01*
X110573711Y-74710000D01*
X119290000Y-74710000D01*
X119290001Y-94290000D01*
X119290001Y-94290000D01*
G37*
X119290001Y-94290000D02*
X109137156Y-94290000D01*
X109143349Y-93856453D01*
X109884476Y-93115327D01*
X109947929Y-93072929D01*
X109963316Y-93049900D01*
X110193436Y-93004127D01*
X110484586Y-92809586D01*
X110679127Y-92518436D01*
X110747440Y-92175001D01*
X110747440Y-91524999D01*
X110679127Y-91181564D01*
X110484586Y-90890414D01*
X110386687Y-90825000D01*
X110484586Y-90759586D01*
X110512219Y-90718231D01*
X110794126Y-90835000D01*
X111205874Y-90835000D01*
X111586280Y-90677431D01*
X111746821Y-90516890D01*
X115658524Y-90516890D01*
X115828355Y-90926924D01*
X116218642Y-91355183D01*
X116743108Y-91601486D01*
X116973000Y-91480819D01*
X116973000Y-90287000D01*
X117227000Y-90287000D01*
X117227000Y-91480819D01*
X117456892Y-91601486D01*
X117981358Y-91355183D01*
X118371645Y-90926924D01*
X118541476Y-90516890D01*
X118420155Y-90287000D01*
X117227000Y-90287000D01*
X116973000Y-90287000D01*
X115779845Y-90287000D01*
X115658524Y-90516890D01*
X111746821Y-90516890D01*
X111877431Y-90386280D01*
X112035000Y-90005874D01*
X112035000Y-89594126D01*
X111877431Y-89213720D01*
X111586280Y-88922569D01*
X111205874Y-88765000D01*
X110794126Y-88765000D01*
X110512219Y-88881769D01*
X110484586Y-88840414D01*
X110193436Y-88645873D01*
X109850001Y-88577560D01*
X109218762Y-88577560D01*
X109226156Y-88060000D01*
X111285199Y-88060000D01*
X111965000Y-88739802D01*
X111965000Y-88905874D01*
X112122569Y-89286280D01*
X112413720Y-89577431D01*
X112794126Y-89735000D01*
X113205874Y-89735000D01*
X113586280Y-89577431D01*
X113877431Y-89286280D01*
X114035000Y-88905874D01*
X114035000Y-88494126D01*
X113987728Y-88380000D01*
X115821822Y-88380000D01*
X116029375Y-88690625D01*
X116348478Y-88903843D01*
X116218642Y-88964817D01*
X115828355Y-89393076D01*
X115658524Y-89803110D01*
X115779845Y-90033000D01*
X116973000Y-90033000D01*
X116973000Y-90013000D01*
X117227000Y-90013000D01*
X117227000Y-90033000D01*
X118420155Y-90033000D01*
X118541476Y-89803110D01*
X118371645Y-89393076D01*
X117981358Y-88964817D01*
X117851522Y-88903843D01*
X118170625Y-88690625D01*
X118498839Y-88199418D01*
X118614092Y-87620000D01*
X118498839Y-87040582D01*
X118170625Y-86549375D01*
X117872239Y-86350000D01*
X118170625Y-86150625D01*
X118498839Y-85659418D01*
X118614092Y-85080000D01*
X118498839Y-84500582D01*
X118170625Y-84009375D01*
X117872239Y-83810000D01*
X118170625Y-83610625D01*
X118498839Y-83119418D01*
X118614092Y-82540000D01*
X118498839Y-81960582D01*
X118170625Y-81469375D01*
X118152381Y-81457184D01*
X118197765Y-81448157D01*
X118407809Y-81307809D01*
X118548157Y-81097765D01*
X118597440Y-80850000D01*
X118597440Y-79150000D01*
X118548157Y-78902235D01*
X118407809Y-78692191D01*
X118197765Y-78551843D01*
X117950000Y-78502560D01*
X116250000Y-78502560D01*
X116002235Y-78551843D01*
X115792191Y-78692191D01*
X115651843Y-78902235D01*
X115602560Y-79150000D01*
X115602560Y-79240000D01*
X114139802Y-79240000D01*
X113847440Y-78947638D01*
X113847440Y-78349999D01*
X113779127Y-78006564D01*
X113584586Y-77715414D01*
X113293436Y-77520873D01*
X112950001Y-77452560D01*
X112299999Y-77452560D01*
X111956564Y-77520873D01*
X111665414Y-77715414D01*
X111664623Y-77716597D01*
X111509698Y-77561673D01*
X111276309Y-77465000D01*
X110860750Y-77465000D01*
X110702002Y-77623748D01*
X110702002Y-77465000D01*
X110698711Y-77465000D01*
X110877431Y-77286280D01*
X111035000Y-76905874D01*
X111035000Y-76494126D01*
X110877431Y-76113720D01*
X110798683Y-76034972D01*
X110935000Y-75705874D01*
X110935000Y-75294126D01*
X110777431Y-74913720D01*
X110573711Y-74710000D01*
X119290000Y-74710000D01*
X119290001Y-94290000D01*
G36*
X109365000Y-78514250D02*
X109523750Y-78673000D01*
X110448000Y-78673000D01*
X110448000Y-78653000D01*
X110702000Y-78653000D01*
X110702000Y-78673000D01*
X110722000Y-78673000D01*
X110722000Y-78927000D01*
X110702000Y-78927000D01*
X110702000Y-79976250D01*
X110860750Y-80135000D01*
X111276309Y-80135000D01*
X111509698Y-80038327D01*
X111664623Y-79883403D01*
X111665414Y-79884586D01*
X111956564Y-80079127D01*
X112299999Y-80147440D01*
X112897638Y-80147440D01*
X113040000Y-80289802D01*
X113040000Y-80661978D01*
X112805874Y-80565000D01*
X112394126Y-80565000D01*
X112013720Y-80722569D01*
X111896289Y-80840000D01*
X109329299Y-80840000D01*
X109354359Y-79085750D01*
X109365000Y-79085750D01*
X109365000Y-79626310D01*
X109461673Y-79859699D01*
X109640302Y-80038327D01*
X109873691Y-80135000D01*
X110289250Y-80135000D01*
X110448000Y-79976250D01*
X110448000Y-78927000D01*
X109523750Y-78927000D01*
X109365000Y-79085750D01*
X109354359Y-79085750D01*
X109364698Y-78362065D01*
X109365000Y-78361863D01*
X109365000Y-78514250D01*
X109365000Y-78514250D01*
G37*
X109365000Y-78514250D02*
X109523750Y-78673000D01*
X110448000Y-78673000D01*
X110448000Y-78653000D01*
X110702000Y-78653000D01*
X110702000Y-78673000D01*
X110722000Y-78673000D01*
X110722000Y-78927000D01*
X110702000Y-78927000D01*
X110702000Y-79976250D01*
X110860750Y-80135000D01*
X111276309Y-80135000D01*
X111509698Y-80038327D01*
X111664623Y-79883403D01*
X111665414Y-79884586D01*
X111956564Y-80079127D01*
X112299999Y-80147440D01*
X112897638Y-80147440D01*
X113040000Y-80289802D01*
X113040000Y-80661978D01*
X112805874Y-80565000D01*
X112394126Y-80565000D01*
X112013720Y-80722569D01*
X111896289Y-80840000D01*
X109329299Y-80840000D01*
X109354359Y-79085750D01*
X109365000Y-79085750D01*
X109365000Y-79626310D01*
X109461673Y-79859699D01*
X109640302Y-80038327D01*
X109873691Y-80135000D01*
X110289250Y-80135000D01*
X110448000Y-79976250D01*
X110448000Y-78927000D01*
X109523750Y-78927000D01*
X109365000Y-79085750D01*
X109354359Y-79085750D01*
X109364698Y-78362065D01*
X109365000Y-78361863D01*
X109365000Y-78514250D01*
G04 #@! TD*
M02*
