G04 #@! TF.GenerationSoftware,KiCad,Pcbnew,(5.0.0)*
G04 #@! TF.CreationDate,2018-08-11T20:49:35+09:00*
G04 #@! TF.ProjectId,AD593x_impedance_analyzer,4144353933785F696D706564616E6365,rev?*
G04 #@! TF.SameCoordinates,Original*
G04 #@! TF.FileFunction,Soldermask,Top*
G04 #@! TF.FilePolarity,Negative*
%FSLAX46Y46*%
G04 Gerber Fmt 4.6, Leading zero omitted, Abs format (unit mm)*
G04 Created by KiCad (PCBNEW (5.0.0)) date 08/11/18 20:49:35*
%MOMM*%
%LPD*%
G01*
G04 APERTURE LIST*
%ADD10C,0.100000*%
%ADD11C,1.550000*%
%ADD12R,1.400000X0.800000*%
%ADD13R,2.100000X2.100000*%
%ADD14O,2.100000X2.100000*%
%ADD15R,1.950000X1.000000*%
%ADD16R,1.460000X1.050000*%
%ADD17R,2.650000X2.200000*%
G04 APERTURE END LIST*
D10*
G04 #@! TO.C,R11*
G36*
X80746071Y-90001623D02*
X80778781Y-90006475D01*
X80810857Y-90014509D01*
X80841991Y-90025649D01*
X80871884Y-90039787D01*
X80900247Y-90056787D01*
X80926807Y-90076485D01*
X80951308Y-90098692D01*
X80973515Y-90123193D01*
X80993213Y-90149753D01*
X81010213Y-90178116D01*
X81024351Y-90208009D01*
X81035491Y-90239143D01*
X81043525Y-90271219D01*
X81048377Y-90303929D01*
X81050000Y-90336956D01*
X81050000Y-91463044D01*
X81048377Y-91496071D01*
X81043525Y-91528781D01*
X81035491Y-91560857D01*
X81024351Y-91591991D01*
X81010213Y-91621884D01*
X80993213Y-91650247D01*
X80973515Y-91676807D01*
X80951308Y-91701308D01*
X80926807Y-91723515D01*
X80900247Y-91743213D01*
X80871884Y-91760213D01*
X80841991Y-91774351D01*
X80810857Y-91785491D01*
X80778781Y-91793525D01*
X80746071Y-91798377D01*
X80713044Y-91800000D01*
X79836956Y-91800000D01*
X79803929Y-91798377D01*
X79771219Y-91793525D01*
X79739143Y-91785491D01*
X79708009Y-91774351D01*
X79678116Y-91760213D01*
X79649753Y-91743213D01*
X79623193Y-91723515D01*
X79598692Y-91701308D01*
X79576485Y-91676807D01*
X79556787Y-91650247D01*
X79539787Y-91621884D01*
X79525649Y-91591991D01*
X79514509Y-91560857D01*
X79506475Y-91528781D01*
X79501623Y-91496071D01*
X79500000Y-91463044D01*
X79500000Y-90336956D01*
X79501623Y-90303929D01*
X79506475Y-90271219D01*
X79514509Y-90239143D01*
X79525649Y-90208009D01*
X79539787Y-90178116D01*
X79556787Y-90149753D01*
X79576485Y-90123193D01*
X79598692Y-90098692D01*
X79623193Y-90076485D01*
X79649753Y-90056787D01*
X79678116Y-90039787D01*
X79708009Y-90025649D01*
X79739143Y-90014509D01*
X79771219Y-90006475D01*
X79803929Y-90001623D01*
X79836956Y-90000000D01*
X80713044Y-90000000D01*
X80746071Y-90001623D01*
X80746071Y-90001623D01*
G37*
D11*
X80275000Y-90900000D03*
D10*
G36*
X82796071Y-90001623D02*
X82828781Y-90006475D01*
X82860857Y-90014509D01*
X82891991Y-90025649D01*
X82921884Y-90039787D01*
X82950247Y-90056787D01*
X82976807Y-90076485D01*
X83001308Y-90098692D01*
X83023515Y-90123193D01*
X83043213Y-90149753D01*
X83060213Y-90178116D01*
X83074351Y-90208009D01*
X83085491Y-90239143D01*
X83093525Y-90271219D01*
X83098377Y-90303929D01*
X83100000Y-90336956D01*
X83100000Y-91463044D01*
X83098377Y-91496071D01*
X83093525Y-91528781D01*
X83085491Y-91560857D01*
X83074351Y-91591991D01*
X83060213Y-91621884D01*
X83043213Y-91650247D01*
X83023515Y-91676807D01*
X83001308Y-91701308D01*
X82976807Y-91723515D01*
X82950247Y-91743213D01*
X82921884Y-91760213D01*
X82891991Y-91774351D01*
X82860857Y-91785491D01*
X82828781Y-91793525D01*
X82796071Y-91798377D01*
X82763044Y-91800000D01*
X81886956Y-91800000D01*
X81853929Y-91798377D01*
X81821219Y-91793525D01*
X81789143Y-91785491D01*
X81758009Y-91774351D01*
X81728116Y-91760213D01*
X81699753Y-91743213D01*
X81673193Y-91723515D01*
X81648692Y-91701308D01*
X81626485Y-91676807D01*
X81606787Y-91650247D01*
X81589787Y-91621884D01*
X81575649Y-91591991D01*
X81564509Y-91560857D01*
X81556475Y-91528781D01*
X81551623Y-91496071D01*
X81550000Y-91463044D01*
X81550000Y-90336956D01*
X81551623Y-90303929D01*
X81556475Y-90271219D01*
X81564509Y-90239143D01*
X81575649Y-90208009D01*
X81589787Y-90178116D01*
X81606787Y-90149753D01*
X81626485Y-90123193D01*
X81648692Y-90098692D01*
X81673193Y-90076485D01*
X81699753Y-90056787D01*
X81728116Y-90039787D01*
X81758009Y-90025649D01*
X81789143Y-90014509D01*
X81821219Y-90006475D01*
X81853929Y-90001623D01*
X81886956Y-90000000D01*
X82763044Y-90000000D01*
X82796071Y-90001623D01*
X82796071Y-90001623D01*
G37*
D11*
X82325000Y-90900000D03*
G04 #@! TD*
D12*
G04 #@! TO.C,U3*
X100400000Y-77025000D03*
X100400000Y-77675000D03*
X100400000Y-78325000D03*
X100400000Y-78975000D03*
X100400000Y-79625000D03*
X100400000Y-80275000D03*
X100400000Y-80925000D03*
X100400000Y-81575000D03*
X106200000Y-81575000D03*
X106200000Y-80925000D03*
X106200000Y-80275000D03*
X106200000Y-79625000D03*
X106200000Y-78975000D03*
X106200000Y-78325000D03*
X106200000Y-77675000D03*
X106200000Y-77025000D03*
G04 #@! TD*
D10*
G04 #@! TO.C,C1*
G36*
X81596071Y-79751623D02*
X81628781Y-79756475D01*
X81660857Y-79764509D01*
X81691991Y-79775649D01*
X81721884Y-79789787D01*
X81750247Y-79806787D01*
X81776807Y-79826485D01*
X81801308Y-79848692D01*
X81823515Y-79873193D01*
X81843213Y-79899753D01*
X81860213Y-79928116D01*
X81874351Y-79958009D01*
X81885491Y-79989143D01*
X81893525Y-80021219D01*
X81898377Y-80053929D01*
X81900000Y-80086956D01*
X81900000Y-80963044D01*
X81898377Y-80996071D01*
X81893525Y-81028781D01*
X81885491Y-81060857D01*
X81874351Y-81091991D01*
X81860213Y-81121884D01*
X81843213Y-81150247D01*
X81823515Y-81176807D01*
X81801308Y-81201308D01*
X81776807Y-81223515D01*
X81750247Y-81243213D01*
X81721884Y-81260213D01*
X81691991Y-81274351D01*
X81660857Y-81285491D01*
X81628781Y-81293525D01*
X81596071Y-81298377D01*
X81563044Y-81300000D01*
X80436956Y-81300000D01*
X80403929Y-81298377D01*
X80371219Y-81293525D01*
X80339143Y-81285491D01*
X80308009Y-81274351D01*
X80278116Y-81260213D01*
X80249753Y-81243213D01*
X80223193Y-81223515D01*
X80198692Y-81201308D01*
X80176485Y-81176807D01*
X80156787Y-81150247D01*
X80139787Y-81121884D01*
X80125649Y-81091991D01*
X80114509Y-81060857D01*
X80106475Y-81028781D01*
X80101623Y-80996071D01*
X80100000Y-80963044D01*
X80100000Y-80086956D01*
X80101623Y-80053929D01*
X80106475Y-80021219D01*
X80114509Y-79989143D01*
X80125649Y-79958009D01*
X80139787Y-79928116D01*
X80156787Y-79899753D01*
X80176485Y-79873193D01*
X80198692Y-79848692D01*
X80223193Y-79826485D01*
X80249753Y-79806787D01*
X80278116Y-79789787D01*
X80308009Y-79775649D01*
X80339143Y-79764509D01*
X80371219Y-79756475D01*
X80403929Y-79751623D01*
X80436956Y-79750000D01*
X81563044Y-79750000D01*
X81596071Y-79751623D01*
X81596071Y-79751623D01*
G37*
D11*
X81000000Y-80525000D03*
D10*
G36*
X81596071Y-77701623D02*
X81628781Y-77706475D01*
X81660857Y-77714509D01*
X81691991Y-77725649D01*
X81721884Y-77739787D01*
X81750247Y-77756787D01*
X81776807Y-77776485D01*
X81801308Y-77798692D01*
X81823515Y-77823193D01*
X81843213Y-77849753D01*
X81860213Y-77878116D01*
X81874351Y-77908009D01*
X81885491Y-77939143D01*
X81893525Y-77971219D01*
X81898377Y-78003929D01*
X81900000Y-78036956D01*
X81900000Y-78913044D01*
X81898377Y-78946071D01*
X81893525Y-78978781D01*
X81885491Y-79010857D01*
X81874351Y-79041991D01*
X81860213Y-79071884D01*
X81843213Y-79100247D01*
X81823515Y-79126807D01*
X81801308Y-79151308D01*
X81776807Y-79173515D01*
X81750247Y-79193213D01*
X81721884Y-79210213D01*
X81691991Y-79224351D01*
X81660857Y-79235491D01*
X81628781Y-79243525D01*
X81596071Y-79248377D01*
X81563044Y-79250000D01*
X80436956Y-79250000D01*
X80403929Y-79248377D01*
X80371219Y-79243525D01*
X80339143Y-79235491D01*
X80308009Y-79224351D01*
X80278116Y-79210213D01*
X80249753Y-79193213D01*
X80223193Y-79173515D01*
X80198692Y-79151308D01*
X80176485Y-79126807D01*
X80156787Y-79100247D01*
X80139787Y-79071884D01*
X80125649Y-79041991D01*
X80114509Y-79010857D01*
X80106475Y-78978781D01*
X80101623Y-78946071D01*
X80100000Y-78913044D01*
X80100000Y-78036956D01*
X80101623Y-78003929D01*
X80106475Y-77971219D01*
X80114509Y-77939143D01*
X80125649Y-77908009D01*
X80139787Y-77878116D01*
X80156787Y-77849753D01*
X80176485Y-77823193D01*
X80198692Y-77798692D01*
X80223193Y-77776485D01*
X80249753Y-77756787D01*
X80278116Y-77739787D01*
X80308009Y-77725649D01*
X80339143Y-77714509D01*
X80371219Y-77706475D01*
X80403929Y-77701623D01*
X80436956Y-77700000D01*
X81563044Y-77700000D01*
X81596071Y-77701623D01*
X81596071Y-77701623D01*
G37*
D11*
X81000000Y-78475000D03*
G04 #@! TD*
D10*
G04 #@! TO.C,C2*
G36*
X91796071Y-77701623D02*
X91828781Y-77706475D01*
X91860857Y-77714509D01*
X91891991Y-77725649D01*
X91921884Y-77739787D01*
X91950247Y-77756787D01*
X91976807Y-77776485D01*
X92001308Y-77798692D01*
X92023515Y-77823193D01*
X92043213Y-77849753D01*
X92060213Y-77878116D01*
X92074351Y-77908009D01*
X92085491Y-77939143D01*
X92093525Y-77971219D01*
X92098377Y-78003929D01*
X92100000Y-78036956D01*
X92100000Y-78913044D01*
X92098377Y-78946071D01*
X92093525Y-78978781D01*
X92085491Y-79010857D01*
X92074351Y-79041991D01*
X92060213Y-79071884D01*
X92043213Y-79100247D01*
X92023515Y-79126807D01*
X92001308Y-79151308D01*
X91976807Y-79173515D01*
X91950247Y-79193213D01*
X91921884Y-79210213D01*
X91891991Y-79224351D01*
X91860857Y-79235491D01*
X91828781Y-79243525D01*
X91796071Y-79248377D01*
X91763044Y-79250000D01*
X90636956Y-79250000D01*
X90603929Y-79248377D01*
X90571219Y-79243525D01*
X90539143Y-79235491D01*
X90508009Y-79224351D01*
X90478116Y-79210213D01*
X90449753Y-79193213D01*
X90423193Y-79173515D01*
X90398692Y-79151308D01*
X90376485Y-79126807D01*
X90356787Y-79100247D01*
X90339787Y-79071884D01*
X90325649Y-79041991D01*
X90314509Y-79010857D01*
X90306475Y-78978781D01*
X90301623Y-78946071D01*
X90300000Y-78913044D01*
X90300000Y-78036956D01*
X90301623Y-78003929D01*
X90306475Y-77971219D01*
X90314509Y-77939143D01*
X90325649Y-77908009D01*
X90339787Y-77878116D01*
X90356787Y-77849753D01*
X90376485Y-77823193D01*
X90398692Y-77798692D01*
X90423193Y-77776485D01*
X90449753Y-77756787D01*
X90478116Y-77739787D01*
X90508009Y-77725649D01*
X90539143Y-77714509D01*
X90571219Y-77706475D01*
X90603929Y-77701623D01*
X90636956Y-77700000D01*
X91763044Y-77700000D01*
X91796071Y-77701623D01*
X91796071Y-77701623D01*
G37*
D11*
X91200000Y-78475000D03*
D10*
G36*
X91796071Y-79751623D02*
X91828781Y-79756475D01*
X91860857Y-79764509D01*
X91891991Y-79775649D01*
X91921884Y-79789787D01*
X91950247Y-79806787D01*
X91976807Y-79826485D01*
X92001308Y-79848692D01*
X92023515Y-79873193D01*
X92043213Y-79899753D01*
X92060213Y-79928116D01*
X92074351Y-79958009D01*
X92085491Y-79989143D01*
X92093525Y-80021219D01*
X92098377Y-80053929D01*
X92100000Y-80086956D01*
X92100000Y-80963044D01*
X92098377Y-80996071D01*
X92093525Y-81028781D01*
X92085491Y-81060857D01*
X92074351Y-81091991D01*
X92060213Y-81121884D01*
X92043213Y-81150247D01*
X92023515Y-81176807D01*
X92001308Y-81201308D01*
X91976807Y-81223515D01*
X91950247Y-81243213D01*
X91921884Y-81260213D01*
X91891991Y-81274351D01*
X91860857Y-81285491D01*
X91828781Y-81293525D01*
X91796071Y-81298377D01*
X91763044Y-81300000D01*
X90636956Y-81300000D01*
X90603929Y-81298377D01*
X90571219Y-81293525D01*
X90539143Y-81285491D01*
X90508009Y-81274351D01*
X90478116Y-81260213D01*
X90449753Y-81243213D01*
X90423193Y-81223515D01*
X90398692Y-81201308D01*
X90376485Y-81176807D01*
X90356787Y-81150247D01*
X90339787Y-81121884D01*
X90325649Y-81091991D01*
X90314509Y-81060857D01*
X90306475Y-81028781D01*
X90301623Y-80996071D01*
X90300000Y-80963044D01*
X90300000Y-80086956D01*
X90301623Y-80053929D01*
X90306475Y-80021219D01*
X90314509Y-79989143D01*
X90325649Y-79958009D01*
X90339787Y-79928116D01*
X90356787Y-79899753D01*
X90376485Y-79873193D01*
X90398692Y-79848692D01*
X90423193Y-79826485D01*
X90449753Y-79806787D01*
X90478116Y-79789787D01*
X90508009Y-79775649D01*
X90539143Y-79764509D01*
X90571219Y-79756475D01*
X90603929Y-79751623D01*
X90636956Y-79750000D01*
X91763044Y-79750000D01*
X91796071Y-79751623D01*
X91796071Y-79751623D01*
G37*
D11*
X91200000Y-80525000D03*
G04 #@! TD*
D10*
G04 #@! TO.C,C3*
G36*
X96046071Y-82901623D02*
X96078781Y-82906475D01*
X96110857Y-82914509D01*
X96141991Y-82925649D01*
X96171884Y-82939787D01*
X96200247Y-82956787D01*
X96226807Y-82976485D01*
X96251308Y-82998692D01*
X96273515Y-83023193D01*
X96293213Y-83049753D01*
X96310213Y-83078116D01*
X96324351Y-83108009D01*
X96335491Y-83139143D01*
X96343525Y-83171219D01*
X96348377Y-83203929D01*
X96350000Y-83236956D01*
X96350000Y-84363044D01*
X96348377Y-84396071D01*
X96343525Y-84428781D01*
X96335491Y-84460857D01*
X96324351Y-84491991D01*
X96310213Y-84521884D01*
X96293213Y-84550247D01*
X96273515Y-84576807D01*
X96251308Y-84601308D01*
X96226807Y-84623515D01*
X96200247Y-84643213D01*
X96171884Y-84660213D01*
X96141991Y-84674351D01*
X96110857Y-84685491D01*
X96078781Y-84693525D01*
X96046071Y-84698377D01*
X96013044Y-84700000D01*
X95136956Y-84700000D01*
X95103929Y-84698377D01*
X95071219Y-84693525D01*
X95039143Y-84685491D01*
X95008009Y-84674351D01*
X94978116Y-84660213D01*
X94949753Y-84643213D01*
X94923193Y-84623515D01*
X94898692Y-84601308D01*
X94876485Y-84576807D01*
X94856787Y-84550247D01*
X94839787Y-84521884D01*
X94825649Y-84491991D01*
X94814509Y-84460857D01*
X94806475Y-84428781D01*
X94801623Y-84396071D01*
X94800000Y-84363044D01*
X94800000Y-83236956D01*
X94801623Y-83203929D01*
X94806475Y-83171219D01*
X94814509Y-83139143D01*
X94825649Y-83108009D01*
X94839787Y-83078116D01*
X94856787Y-83049753D01*
X94876485Y-83023193D01*
X94898692Y-82998692D01*
X94923193Y-82976485D01*
X94949753Y-82956787D01*
X94978116Y-82939787D01*
X95008009Y-82925649D01*
X95039143Y-82914509D01*
X95071219Y-82906475D01*
X95103929Y-82901623D01*
X95136956Y-82900000D01*
X96013044Y-82900000D01*
X96046071Y-82901623D01*
X96046071Y-82901623D01*
G37*
D11*
X95575000Y-83800000D03*
D10*
G36*
X98096071Y-82901623D02*
X98128781Y-82906475D01*
X98160857Y-82914509D01*
X98191991Y-82925649D01*
X98221884Y-82939787D01*
X98250247Y-82956787D01*
X98276807Y-82976485D01*
X98301308Y-82998692D01*
X98323515Y-83023193D01*
X98343213Y-83049753D01*
X98360213Y-83078116D01*
X98374351Y-83108009D01*
X98385491Y-83139143D01*
X98393525Y-83171219D01*
X98398377Y-83203929D01*
X98400000Y-83236956D01*
X98400000Y-84363044D01*
X98398377Y-84396071D01*
X98393525Y-84428781D01*
X98385491Y-84460857D01*
X98374351Y-84491991D01*
X98360213Y-84521884D01*
X98343213Y-84550247D01*
X98323515Y-84576807D01*
X98301308Y-84601308D01*
X98276807Y-84623515D01*
X98250247Y-84643213D01*
X98221884Y-84660213D01*
X98191991Y-84674351D01*
X98160857Y-84685491D01*
X98128781Y-84693525D01*
X98096071Y-84698377D01*
X98063044Y-84700000D01*
X97186956Y-84700000D01*
X97153929Y-84698377D01*
X97121219Y-84693525D01*
X97089143Y-84685491D01*
X97058009Y-84674351D01*
X97028116Y-84660213D01*
X96999753Y-84643213D01*
X96973193Y-84623515D01*
X96948692Y-84601308D01*
X96926485Y-84576807D01*
X96906787Y-84550247D01*
X96889787Y-84521884D01*
X96875649Y-84491991D01*
X96864509Y-84460857D01*
X96856475Y-84428781D01*
X96851623Y-84396071D01*
X96850000Y-84363044D01*
X96850000Y-83236956D01*
X96851623Y-83203929D01*
X96856475Y-83171219D01*
X96864509Y-83139143D01*
X96875649Y-83108009D01*
X96889787Y-83078116D01*
X96906787Y-83049753D01*
X96926485Y-83023193D01*
X96948692Y-82998692D01*
X96973193Y-82976485D01*
X96999753Y-82956787D01*
X97028116Y-82939787D01*
X97058009Y-82925649D01*
X97089143Y-82914509D01*
X97121219Y-82906475D01*
X97153929Y-82901623D01*
X97186956Y-82900000D01*
X98063044Y-82900000D01*
X98096071Y-82901623D01*
X98096071Y-82901623D01*
G37*
D11*
X97625000Y-83800000D03*
G04 #@! TD*
D10*
G04 #@! TO.C,C4*
G36*
X85946071Y-85801623D02*
X85978781Y-85806475D01*
X86010857Y-85814509D01*
X86041991Y-85825649D01*
X86071884Y-85839787D01*
X86100247Y-85856787D01*
X86126807Y-85876485D01*
X86151308Y-85898692D01*
X86173515Y-85923193D01*
X86193213Y-85949753D01*
X86210213Y-85978116D01*
X86224351Y-86008009D01*
X86235491Y-86039143D01*
X86243525Y-86071219D01*
X86248377Y-86103929D01*
X86250000Y-86136956D01*
X86250000Y-87263044D01*
X86248377Y-87296071D01*
X86243525Y-87328781D01*
X86235491Y-87360857D01*
X86224351Y-87391991D01*
X86210213Y-87421884D01*
X86193213Y-87450247D01*
X86173515Y-87476807D01*
X86151308Y-87501308D01*
X86126807Y-87523515D01*
X86100247Y-87543213D01*
X86071884Y-87560213D01*
X86041991Y-87574351D01*
X86010857Y-87585491D01*
X85978781Y-87593525D01*
X85946071Y-87598377D01*
X85913044Y-87600000D01*
X85036956Y-87600000D01*
X85003929Y-87598377D01*
X84971219Y-87593525D01*
X84939143Y-87585491D01*
X84908009Y-87574351D01*
X84878116Y-87560213D01*
X84849753Y-87543213D01*
X84823193Y-87523515D01*
X84798692Y-87501308D01*
X84776485Y-87476807D01*
X84756787Y-87450247D01*
X84739787Y-87421884D01*
X84725649Y-87391991D01*
X84714509Y-87360857D01*
X84706475Y-87328781D01*
X84701623Y-87296071D01*
X84700000Y-87263044D01*
X84700000Y-86136956D01*
X84701623Y-86103929D01*
X84706475Y-86071219D01*
X84714509Y-86039143D01*
X84725649Y-86008009D01*
X84739787Y-85978116D01*
X84756787Y-85949753D01*
X84776485Y-85923193D01*
X84798692Y-85898692D01*
X84823193Y-85876485D01*
X84849753Y-85856787D01*
X84878116Y-85839787D01*
X84908009Y-85825649D01*
X84939143Y-85814509D01*
X84971219Y-85806475D01*
X85003929Y-85801623D01*
X85036956Y-85800000D01*
X85913044Y-85800000D01*
X85946071Y-85801623D01*
X85946071Y-85801623D01*
G37*
D11*
X85475000Y-86700000D03*
D10*
G36*
X87996071Y-85801623D02*
X88028781Y-85806475D01*
X88060857Y-85814509D01*
X88091991Y-85825649D01*
X88121884Y-85839787D01*
X88150247Y-85856787D01*
X88176807Y-85876485D01*
X88201308Y-85898692D01*
X88223515Y-85923193D01*
X88243213Y-85949753D01*
X88260213Y-85978116D01*
X88274351Y-86008009D01*
X88285491Y-86039143D01*
X88293525Y-86071219D01*
X88298377Y-86103929D01*
X88300000Y-86136956D01*
X88300000Y-87263044D01*
X88298377Y-87296071D01*
X88293525Y-87328781D01*
X88285491Y-87360857D01*
X88274351Y-87391991D01*
X88260213Y-87421884D01*
X88243213Y-87450247D01*
X88223515Y-87476807D01*
X88201308Y-87501308D01*
X88176807Y-87523515D01*
X88150247Y-87543213D01*
X88121884Y-87560213D01*
X88091991Y-87574351D01*
X88060857Y-87585491D01*
X88028781Y-87593525D01*
X87996071Y-87598377D01*
X87963044Y-87600000D01*
X87086956Y-87600000D01*
X87053929Y-87598377D01*
X87021219Y-87593525D01*
X86989143Y-87585491D01*
X86958009Y-87574351D01*
X86928116Y-87560213D01*
X86899753Y-87543213D01*
X86873193Y-87523515D01*
X86848692Y-87501308D01*
X86826485Y-87476807D01*
X86806787Y-87450247D01*
X86789787Y-87421884D01*
X86775649Y-87391991D01*
X86764509Y-87360857D01*
X86756475Y-87328781D01*
X86751623Y-87296071D01*
X86750000Y-87263044D01*
X86750000Y-86136956D01*
X86751623Y-86103929D01*
X86756475Y-86071219D01*
X86764509Y-86039143D01*
X86775649Y-86008009D01*
X86789787Y-85978116D01*
X86806787Y-85949753D01*
X86826485Y-85923193D01*
X86848692Y-85898692D01*
X86873193Y-85876485D01*
X86899753Y-85856787D01*
X86928116Y-85839787D01*
X86958009Y-85825649D01*
X86989143Y-85814509D01*
X87021219Y-85806475D01*
X87053929Y-85801623D01*
X87086956Y-85800000D01*
X87963044Y-85800000D01*
X87996071Y-85801623D01*
X87996071Y-85801623D01*
G37*
D11*
X87525000Y-86700000D03*
G04 #@! TD*
D10*
G04 #@! TO.C,C5*
G36*
X109996071Y-89026623D02*
X110028781Y-89031475D01*
X110060857Y-89039509D01*
X110091991Y-89050649D01*
X110121884Y-89064787D01*
X110150247Y-89081787D01*
X110176807Y-89101485D01*
X110201308Y-89123692D01*
X110223515Y-89148193D01*
X110243213Y-89174753D01*
X110260213Y-89203116D01*
X110274351Y-89233009D01*
X110285491Y-89264143D01*
X110293525Y-89296219D01*
X110298377Y-89328929D01*
X110300000Y-89361956D01*
X110300000Y-90238044D01*
X110298377Y-90271071D01*
X110293525Y-90303781D01*
X110285491Y-90335857D01*
X110274351Y-90366991D01*
X110260213Y-90396884D01*
X110243213Y-90425247D01*
X110223515Y-90451807D01*
X110201308Y-90476308D01*
X110176807Y-90498515D01*
X110150247Y-90518213D01*
X110121884Y-90535213D01*
X110091991Y-90549351D01*
X110060857Y-90560491D01*
X110028781Y-90568525D01*
X109996071Y-90573377D01*
X109963044Y-90575000D01*
X108836956Y-90575000D01*
X108803929Y-90573377D01*
X108771219Y-90568525D01*
X108739143Y-90560491D01*
X108708009Y-90549351D01*
X108678116Y-90535213D01*
X108649753Y-90518213D01*
X108623193Y-90498515D01*
X108598692Y-90476308D01*
X108576485Y-90451807D01*
X108556787Y-90425247D01*
X108539787Y-90396884D01*
X108525649Y-90366991D01*
X108514509Y-90335857D01*
X108506475Y-90303781D01*
X108501623Y-90271071D01*
X108500000Y-90238044D01*
X108500000Y-89361956D01*
X108501623Y-89328929D01*
X108506475Y-89296219D01*
X108514509Y-89264143D01*
X108525649Y-89233009D01*
X108539787Y-89203116D01*
X108556787Y-89174753D01*
X108576485Y-89148193D01*
X108598692Y-89123692D01*
X108623193Y-89101485D01*
X108649753Y-89081787D01*
X108678116Y-89064787D01*
X108708009Y-89050649D01*
X108739143Y-89039509D01*
X108771219Y-89031475D01*
X108803929Y-89026623D01*
X108836956Y-89025000D01*
X109963044Y-89025000D01*
X109996071Y-89026623D01*
X109996071Y-89026623D01*
G37*
D11*
X109400000Y-89800000D03*
D10*
G36*
X109996071Y-91076623D02*
X110028781Y-91081475D01*
X110060857Y-91089509D01*
X110091991Y-91100649D01*
X110121884Y-91114787D01*
X110150247Y-91131787D01*
X110176807Y-91151485D01*
X110201308Y-91173692D01*
X110223515Y-91198193D01*
X110243213Y-91224753D01*
X110260213Y-91253116D01*
X110274351Y-91283009D01*
X110285491Y-91314143D01*
X110293525Y-91346219D01*
X110298377Y-91378929D01*
X110300000Y-91411956D01*
X110300000Y-92288044D01*
X110298377Y-92321071D01*
X110293525Y-92353781D01*
X110285491Y-92385857D01*
X110274351Y-92416991D01*
X110260213Y-92446884D01*
X110243213Y-92475247D01*
X110223515Y-92501807D01*
X110201308Y-92526308D01*
X110176807Y-92548515D01*
X110150247Y-92568213D01*
X110121884Y-92585213D01*
X110091991Y-92599351D01*
X110060857Y-92610491D01*
X110028781Y-92618525D01*
X109996071Y-92623377D01*
X109963044Y-92625000D01*
X108836956Y-92625000D01*
X108803929Y-92623377D01*
X108771219Y-92618525D01*
X108739143Y-92610491D01*
X108708009Y-92599351D01*
X108678116Y-92585213D01*
X108649753Y-92568213D01*
X108623193Y-92548515D01*
X108598692Y-92526308D01*
X108576485Y-92501807D01*
X108556787Y-92475247D01*
X108539787Y-92446884D01*
X108525649Y-92416991D01*
X108514509Y-92385857D01*
X108506475Y-92353781D01*
X108501623Y-92321071D01*
X108500000Y-92288044D01*
X108500000Y-91411956D01*
X108501623Y-91378929D01*
X108506475Y-91346219D01*
X108514509Y-91314143D01*
X108525649Y-91283009D01*
X108539787Y-91253116D01*
X108556787Y-91224753D01*
X108576485Y-91198193D01*
X108598692Y-91173692D01*
X108623193Y-91151485D01*
X108649753Y-91131787D01*
X108678116Y-91114787D01*
X108708009Y-91100649D01*
X108739143Y-91089509D01*
X108771219Y-91081475D01*
X108803929Y-91076623D01*
X108836956Y-91075000D01*
X109963044Y-91075000D01*
X109996071Y-91076623D01*
X109996071Y-91076623D01*
G37*
D11*
X109400000Y-91850000D03*
G04 #@! TD*
D10*
G04 #@! TO.C,C6*
G36*
X111046071Y-77901623D02*
X111078781Y-77906475D01*
X111110857Y-77914509D01*
X111141991Y-77925649D01*
X111171884Y-77939787D01*
X111200247Y-77956787D01*
X111226807Y-77976485D01*
X111251308Y-77998692D01*
X111273515Y-78023193D01*
X111293213Y-78049753D01*
X111310213Y-78078116D01*
X111324351Y-78108009D01*
X111335491Y-78139143D01*
X111343525Y-78171219D01*
X111348377Y-78203929D01*
X111350000Y-78236956D01*
X111350000Y-79363044D01*
X111348377Y-79396071D01*
X111343525Y-79428781D01*
X111335491Y-79460857D01*
X111324351Y-79491991D01*
X111310213Y-79521884D01*
X111293213Y-79550247D01*
X111273515Y-79576807D01*
X111251308Y-79601308D01*
X111226807Y-79623515D01*
X111200247Y-79643213D01*
X111171884Y-79660213D01*
X111141991Y-79674351D01*
X111110857Y-79685491D01*
X111078781Y-79693525D01*
X111046071Y-79698377D01*
X111013044Y-79700000D01*
X110136956Y-79700000D01*
X110103929Y-79698377D01*
X110071219Y-79693525D01*
X110039143Y-79685491D01*
X110008009Y-79674351D01*
X109978116Y-79660213D01*
X109949753Y-79643213D01*
X109923193Y-79623515D01*
X109898692Y-79601308D01*
X109876485Y-79576807D01*
X109856787Y-79550247D01*
X109839787Y-79521884D01*
X109825649Y-79491991D01*
X109814509Y-79460857D01*
X109806475Y-79428781D01*
X109801623Y-79396071D01*
X109800000Y-79363044D01*
X109800000Y-78236956D01*
X109801623Y-78203929D01*
X109806475Y-78171219D01*
X109814509Y-78139143D01*
X109825649Y-78108009D01*
X109839787Y-78078116D01*
X109856787Y-78049753D01*
X109876485Y-78023193D01*
X109898692Y-77998692D01*
X109923193Y-77976485D01*
X109949753Y-77956787D01*
X109978116Y-77939787D01*
X110008009Y-77925649D01*
X110039143Y-77914509D01*
X110071219Y-77906475D01*
X110103929Y-77901623D01*
X110136956Y-77900000D01*
X111013044Y-77900000D01*
X111046071Y-77901623D01*
X111046071Y-77901623D01*
G37*
D11*
X110575000Y-78800000D03*
D10*
G36*
X113096071Y-77901623D02*
X113128781Y-77906475D01*
X113160857Y-77914509D01*
X113191991Y-77925649D01*
X113221884Y-77939787D01*
X113250247Y-77956787D01*
X113276807Y-77976485D01*
X113301308Y-77998692D01*
X113323515Y-78023193D01*
X113343213Y-78049753D01*
X113360213Y-78078116D01*
X113374351Y-78108009D01*
X113385491Y-78139143D01*
X113393525Y-78171219D01*
X113398377Y-78203929D01*
X113400000Y-78236956D01*
X113400000Y-79363044D01*
X113398377Y-79396071D01*
X113393525Y-79428781D01*
X113385491Y-79460857D01*
X113374351Y-79491991D01*
X113360213Y-79521884D01*
X113343213Y-79550247D01*
X113323515Y-79576807D01*
X113301308Y-79601308D01*
X113276807Y-79623515D01*
X113250247Y-79643213D01*
X113221884Y-79660213D01*
X113191991Y-79674351D01*
X113160857Y-79685491D01*
X113128781Y-79693525D01*
X113096071Y-79698377D01*
X113063044Y-79700000D01*
X112186956Y-79700000D01*
X112153929Y-79698377D01*
X112121219Y-79693525D01*
X112089143Y-79685491D01*
X112058009Y-79674351D01*
X112028116Y-79660213D01*
X111999753Y-79643213D01*
X111973193Y-79623515D01*
X111948692Y-79601308D01*
X111926485Y-79576807D01*
X111906787Y-79550247D01*
X111889787Y-79521884D01*
X111875649Y-79491991D01*
X111864509Y-79460857D01*
X111856475Y-79428781D01*
X111851623Y-79396071D01*
X111850000Y-79363044D01*
X111850000Y-78236956D01*
X111851623Y-78203929D01*
X111856475Y-78171219D01*
X111864509Y-78139143D01*
X111875649Y-78108009D01*
X111889787Y-78078116D01*
X111906787Y-78049753D01*
X111926485Y-78023193D01*
X111948692Y-77998692D01*
X111973193Y-77976485D01*
X111999753Y-77956787D01*
X112028116Y-77939787D01*
X112058009Y-77925649D01*
X112089143Y-77914509D01*
X112121219Y-77906475D01*
X112153929Y-77901623D01*
X112186956Y-77900000D01*
X113063044Y-77900000D01*
X113096071Y-77901623D01*
X113096071Y-77901623D01*
G37*
D11*
X112625000Y-78800000D03*
G04 #@! TD*
D13*
G04 #@! TO.C,J1*
X76300000Y-80000000D03*
D14*
X76300000Y-82540000D03*
X76300000Y-85080000D03*
X76300000Y-87620000D03*
X76300000Y-90160000D03*
G04 #@! TD*
G04 #@! TO.C,J2*
X117100000Y-90160000D03*
X117100000Y-87620000D03*
X117100000Y-85080000D03*
X117100000Y-82540000D03*
D13*
X117100000Y-80000000D03*
G04 #@! TD*
D10*
G04 #@! TO.C,R1*
G36*
X112196071Y-85151623D02*
X112228781Y-85156475D01*
X112260857Y-85164509D01*
X112291991Y-85175649D01*
X112321884Y-85189787D01*
X112350247Y-85206787D01*
X112376807Y-85226485D01*
X112401308Y-85248692D01*
X112423515Y-85273193D01*
X112443213Y-85299753D01*
X112460213Y-85328116D01*
X112474351Y-85358009D01*
X112485491Y-85389143D01*
X112493525Y-85421219D01*
X112498377Y-85453929D01*
X112500000Y-85486956D01*
X112500000Y-86363044D01*
X112498377Y-86396071D01*
X112493525Y-86428781D01*
X112485491Y-86460857D01*
X112474351Y-86491991D01*
X112460213Y-86521884D01*
X112443213Y-86550247D01*
X112423515Y-86576807D01*
X112401308Y-86601308D01*
X112376807Y-86623515D01*
X112350247Y-86643213D01*
X112321884Y-86660213D01*
X112291991Y-86674351D01*
X112260857Y-86685491D01*
X112228781Y-86693525D01*
X112196071Y-86698377D01*
X112163044Y-86700000D01*
X111036956Y-86700000D01*
X111003929Y-86698377D01*
X110971219Y-86693525D01*
X110939143Y-86685491D01*
X110908009Y-86674351D01*
X110878116Y-86660213D01*
X110849753Y-86643213D01*
X110823193Y-86623515D01*
X110798692Y-86601308D01*
X110776485Y-86576807D01*
X110756787Y-86550247D01*
X110739787Y-86521884D01*
X110725649Y-86491991D01*
X110714509Y-86460857D01*
X110706475Y-86428781D01*
X110701623Y-86396071D01*
X110700000Y-86363044D01*
X110700000Y-85486956D01*
X110701623Y-85453929D01*
X110706475Y-85421219D01*
X110714509Y-85389143D01*
X110725649Y-85358009D01*
X110739787Y-85328116D01*
X110756787Y-85299753D01*
X110776485Y-85273193D01*
X110798692Y-85248692D01*
X110823193Y-85226485D01*
X110849753Y-85206787D01*
X110878116Y-85189787D01*
X110908009Y-85175649D01*
X110939143Y-85164509D01*
X110971219Y-85156475D01*
X111003929Y-85151623D01*
X111036956Y-85150000D01*
X112163044Y-85150000D01*
X112196071Y-85151623D01*
X112196071Y-85151623D01*
G37*
D11*
X111600000Y-85925000D03*
D10*
G36*
X112196071Y-83101623D02*
X112228781Y-83106475D01*
X112260857Y-83114509D01*
X112291991Y-83125649D01*
X112321884Y-83139787D01*
X112350247Y-83156787D01*
X112376807Y-83176485D01*
X112401308Y-83198692D01*
X112423515Y-83223193D01*
X112443213Y-83249753D01*
X112460213Y-83278116D01*
X112474351Y-83308009D01*
X112485491Y-83339143D01*
X112493525Y-83371219D01*
X112498377Y-83403929D01*
X112500000Y-83436956D01*
X112500000Y-84313044D01*
X112498377Y-84346071D01*
X112493525Y-84378781D01*
X112485491Y-84410857D01*
X112474351Y-84441991D01*
X112460213Y-84471884D01*
X112443213Y-84500247D01*
X112423515Y-84526807D01*
X112401308Y-84551308D01*
X112376807Y-84573515D01*
X112350247Y-84593213D01*
X112321884Y-84610213D01*
X112291991Y-84624351D01*
X112260857Y-84635491D01*
X112228781Y-84643525D01*
X112196071Y-84648377D01*
X112163044Y-84650000D01*
X111036956Y-84650000D01*
X111003929Y-84648377D01*
X110971219Y-84643525D01*
X110939143Y-84635491D01*
X110908009Y-84624351D01*
X110878116Y-84610213D01*
X110849753Y-84593213D01*
X110823193Y-84573515D01*
X110798692Y-84551308D01*
X110776485Y-84526807D01*
X110756787Y-84500247D01*
X110739787Y-84471884D01*
X110725649Y-84441991D01*
X110714509Y-84410857D01*
X110706475Y-84378781D01*
X110701623Y-84346071D01*
X110700000Y-84313044D01*
X110700000Y-83436956D01*
X110701623Y-83403929D01*
X110706475Y-83371219D01*
X110714509Y-83339143D01*
X110725649Y-83308009D01*
X110739787Y-83278116D01*
X110756787Y-83249753D01*
X110776485Y-83223193D01*
X110798692Y-83198692D01*
X110823193Y-83176485D01*
X110849753Y-83156787D01*
X110878116Y-83139787D01*
X110908009Y-83125649D01*
X110939143Y-83114509D01*
X110971219Y-83106475D01*
X111003929Y-83101623D01*
X111036956Y-83100000D01*
X112163044Y-83100000D01*
X112196071Y-83101623D01*
X112196071Y-83101623D01*
G37*
D11*
X111600000Y-83875000D03*
G04 #@! TD*
D10*
G04 #@! TO.C,R2*
G36*
X114396071Y-83101623D02*
X114428781Y-83106475D01*
X114460857Y-83114509D01*
X114491991Y-83125649D01*
X114521884Y-83139787D01*
X114550247Y-83156787D01*
X114576807Y-83176485D01*
X114601308Y-83198692D01*
X114623515Y-83223193D01*
X114643213Y-83249753D01*
X114660213Y-83278116D01*
X114674351Y-83308009D01*
X114685491Y-83339143D01*
X114693525Y-83371219D01*
X114698377Y-83403929D01*
X114700000Y-83436956D01*
X114700000Y-84313044D01*
X114698377Y-84346071D01*
X114693525Y-84378781D01*
X114685491Y-84410857D01*
X114674351Y-84441991D01*
X114660213Y-84471884D01*
X114643213Y-84500247D01*
X114623515Y-84526807D01*
X114601308Y-84551308D01*
X114576807Y-84573515D01*
X114550247Y-84593213D01*
X114521884Y-84610213D01*
X114491991Y-84624351D01*
X114460857Y-84635491D01*
X114428781Y-84643525D01*
X114396071Y-84648377D01*
X114363044Y-84650000D01*
X113236956Y-84650000D01*
X113203929Y-84648377D01*
X113171219Y-84643525D01*
X113139143Y-84635491D01*
X113108009Y-84624351D01*
X113078116Y-84610213D01*
X113049753Y-84593213D01*
X113023193Y-84573515D01*
X112998692Y-84551308D01*
X112976485Y-84526807D01*
X112956787Y-84500247D01*
X112939787Y-84471884D01*
X112925649Y-84441991D01*
X112914509Y-84410857D01*
X112906475Y-84378781D01*
X112901623Y-84346071D01*
X112900000Y-84313044D01*
X112900000Y-83436956D01*
X112901623Y-83403929D01*
X112906475Y-83371219D01*
X112914509Y-83339143D01*
X112925649Y-83308009D01*
X112939787Y-83278116D01*
X112956787Y-83249753D01*
X112976485Y-83223193D01*
X112998692Y-83198692D01*
X113023193Y-83176485D01*
X113049753Y-83156787D01*
X113078116Y-83139787D01*
X113108009Y-83125649D01*
X113139143Y-83114509D01*
X113171219Y-83106475D01*
X113203929Y-83101623D01*
X113236956Y-83100000D01*
X114363044Y-83100000D01*
X114396071Y-83101623D01*
X114396071Y-83101623D01*
G37*
D11*
X113800000Y-83875000D03*
D10*
G36*
X114396071Y-85151623D02*
X114428781Y-85156475D01*
X114460857Y-85164509D01*
X114491991Y-85175649D01*
X114521884Y-85189787D01*
X114550247Y-85206787D01*
X114576807Y-85226485D01*
X114601308Y-85248692D01*
X114623515Y-85273193D01*
X114643213Y-85299753D01*
X114660213Y-85328116D01*
X114674351Y-85358009D01*
X114685491Y-85389143D01*
X114693525Y-85421219D01*
X114698377Y-85453929D01*
X114700000Y-85486956D01*
X114700000Y-86363044D01*
X114698377Y-86396071D01*
X114693525Y-86428781D01*
X114685491Y-86460857D01*
X114674351Y-86491991D01*
X114660213Y-86521884D01*
X114643213Y-86550247D01*
X114623515Y-86576807D01*
X114601308Y-86601308D01*
X114576807Y-86623515D01*
X114550247Y-86643213D01*
X114521884Y-86660213D01*
X114491991Y-86674351D01*
X114460857Y-86685491D01*
X114428781Y-86693525D01*
X114396071Y-86698377D01*
X114363044Y-86700000D01*
X113236956Y-86700000D01*
X113203929Y-86698377D01*
X113171219Y-86693525D01*
X113139143Y-86685491D01*
X113108009Y-86674351D01*
X113078116Y-86660213D01*
X113049753Y-86643213D01*
X113023193Y-86623515D01*
X112998692Y-86601308D01*
X112976485Y-86576807D01*
X112956787Y-86550247D01*
X112939787Y-86521884D01*
X112925649Y-86491991D01*
X112914509Y-86460857D01*
X112906475Y-86428781D01*
X112901623Y-86396071D01*
X112900000Y-86363044D01*
X112900000Y-85486956D01*
X112901623Y-85453929D01*
X112906475Y-85421219D01*
X112914509Y-85389143D01*
X112925649Y-85358009D01*
X112939787Y-85328116D01*
X112956787Y-85299753D01*
X112976485Y-85273193D01*
X112998692Y-85248692D01*
X113023193Y-85226485D01*
X113049753Y-85206787D01*
X113078116Y-85189787D01*
X113108009Y-85175649D01*
X113139143Y-85164509D01*
X113171219Y-85156475D01*
X113203929Y-85151623D01*
X113236956Y-85150000D01*
X114363044Y-85150000D01*
X114396071Y-85151623D01*
X114396071Y-85151623D01*
G37*
D11*
X113800000Y-85925000D03*
G04 #@! TD*
D10*
G04 #@! TO.C,R3*
G36*
X93996071Y-82901623D02*
X94028781Y-82906475D01*
X94060857Y-82914509D01*
X94091991Y-82925649D01*
X94121884Y-82939787D01*
X94150247Y-82956787D01*
X94176807Y-82976485D01*
X94201308Y-82998692D01*
X94223515Y-83023193D01*
X94243213Y-83049753D01*
X94260213Y-83078116D01*
X94274351Y-83108009D01*
X94285491Y-83139143D01*
X94293525Y-83171219D01*
X94298377Y-83203929D01*
X94300000Y-83236956D01*
X94300000Y-84363044D01*
X94298377Y-84396071D01*
X94293525Y-84428781D01*
X94285491Y-84460857D01*
X94274351Y-84491991D01*
X94260213Y-84521884D01*
X94243213Y-84550247D01*
X94223515Y-84576807D01*
X94201308Y-84601308D01*
X94176807Y-84623515D01*
X94150247Y-84643213D01*
X94121884Y-84660213D01*
X94091991Y-84674351D01*
X94060857Y-84685491D01*
X94028781Y-84693525D01*
X93996071Y-84698377D01*
X93963044Y-84700000D01*
X93086956Y-84700000D01*
X93053929Y-84698377D01*
X93021219Y-84693525D01*
X92989143Y-84685491D01*
X92958009Y-84674351D01*
X92928116Y-84660213D01*
X92899753Y-84643213D01*
X92873193Y-84623515D01*
X92848692Y-84601308D01*
X92826485Y-84576807D01*
X92806787Y-84550247D01*
X92789787Y-84521884D01*
X92775649Y-84491991D01*
X92764509Y-84460857D01*
X92756475Y-84428781D01*
X92751623Y-84396071D01*
X92750000Y-84363044D01*
X92750000Y-83236956D01*
X92751623Y-83203929D01*
X92756475Y-83171219D01*
X92764509Y-83139143D01*
X92775649Y-83108009D01*
X92789787Y-83078116D01*
X92806787Y-83049753D01*
X92826485Y-83023193D01*
X92848692Y-82998692D01*
X92873193Y-82976485D01*
X92899753Y-82956787D01*
X92928116Y-82939787D01*
X92958009Y-82925649D01*
X92989143Y-82914509D01*
X93021219Y-82906475D01*
X93053929Y-82901623D01*
X93086956Y-82900000D01*
X93963044Y-82900000D01*
X93996071Y-82901623D01*
X93996071Y-82901623D01*
G37*
D11*
X93525000Y-83800000D03*
D10*
G36*
X91946071Y-82901623D02*
X91978781Y-82906475D01*
X92010857Y-82914509D01*
X92041991Y-82925649D01*
X92071884Y-82939787D01*
X92100247Y-82956787D01*
X92126807Y-82976485D01*
X92151308Y-82998692D01*
X92173515Y-83023193D01*
X92193213Y-83049753D01*
X92210213Y-83078116D01*
X92224351Y-83108009D01*
X92235491Y-83139143D01*
X92243525Y-83171219D01*
X92248377Y-83203929D01*
X92250000Y-83236956D01*
X92250000Y-84363044D01*
X92248377Y-84396071D01*
X92243525Y-84428781D01*
X92235491Y-84460857D01*
X92224351Y-84491991D01*
X92210213Y-84521884D01*
X92193213Y-84550247D01*
X92173515Y-84576807D01*
X92151308Y-84601308D01*
X92126807Y-84623515D01*
X92100247Y-84643213D01*
X92071884Y-84660213D01*
X92041991Y-84674351D01*
X92010857Y-84685491D01*
X91978781Y-84693525D01*
X91946071Y-84698377D01*
X91913044Y-84700000D01*
X91036956Y-84700000D01*
X91003929Y-84698377D01*
X90971219Y-84693525D01*
X90939143Y-84685491D01*
X90908009Y-84674351D01*
X90878116Y-84660213D01*
X90849753Y-84643213D01*
X90823193Y-84623515D01*
X90798692Y-84601308D01*
X90776485Y-84576807D01*
X90756787Y-84550247D01*
X90739787Y-84521884D01*
X90725649Y-84491991D01*
X90714509Y-84460857D01*
X90706475Y-84428781D01*
X90701623Y-84396071D01*
X90700000Y-84363044D01*
X90700000Y-83236956D01*
X90701623Y-83203929D01*
X90706475Y-83171219D01*
X90714509Y-83139143D01*
X90725649Y-83108009D01*
X90739787Y-83078116D01*
X90756787Y-83049753D01*
X90776485Y-83023193D01*
X90798692Y-82998692D01*
X90823193Y-82976485D01*
X90849753Y-82956787D01*
X90878116Y-82939787D01*
X90908009Y-82925649D01*
X90939143Y-82914509D01*
X90971219Y-82906475D01*
X91003929Y-82901623D01*
X91036956Y-82900000D01*
X91913044Y-82900000D01*
X91946071Y-82901623D01*
X91946071Y-82901623D01*
G37*
D11*
X91475000Y-83800000D03*
G04 #@! TD*
D10*
G04 #@! TO.C,R4*
G36*
X98096071Y-80951623D02*
X98128781Y-80956475D01*
X98160857Y-80964509D01*
X98191991Y-80975649D01*
X98221884Y-80989787D01*
X98250247Y-81006787D01*
X98276807Y-81026485D01*
X98301308Y-81048692D01*
X98323515Y-81073193D01*
X98343213Y-81099753D01*
X98360213Y-81128116D01*
X98374351Y-81158009D01*
X98385491Y-81189143D01*
X98393525Y-81221219D01*
X98398377Y-81253929D01*
X98400000Y-81286956D01*
X98400000Y-82163044D01*
X98398377Y-82196071D01*
X98393525Y-82228781D01*
X98385491Y-82260857D01*
X98374351Y-82291991D01*
X98360213Y-82321884D01*
X98343213Y-82350247D01*
X98323515Y-82376807D01*
X98301308Y-82401308D01*
X98276807Y-82423515D01*
X98250247Y-82443213D01*
X98221884Y-82460213D01*
X98191991Y-82474351D01*
X98160857Y-82485491D01*
X98128781Y-82493525D01*
X98096071Y-82498377D01*
X98063044Y-82500000D01*
X96936956Y-82500000D01*
X96903929Y-82498377D01*
X96871219Y-82493525D01*
X96839143Y-82485491D01*
X96808009Y-82474351D01*
X96778116Y-82460213D01*
X96749753Y-82443213D01*
X96723193Y-82423515D01*
X96698692Y-82401308D01*
X96676485Y-82376807D01*
X96656787Y-82350247D01*
X96639787Y-82321884D01*
X96625649Y-82291991D01*
X96614509Y-82260857D01*
X96606475Y-82228781D01*
X96601623Y-82196071D01*
X96600000Y-82163044D01*
X96600000Y-81286956D01*
X96601623Y-81253929D01*
X96606475Y-81221219D01*
X96614509Y-81189143D01*
X96625649Y-81158009D01*
X96639787Y-81128116D01*
X96656787Y-81099753D01*
X96676485Y-81073193D01*
X96698692Y-81048692D01*
X96723193Y-81026485D01*
X96749753Y-81006787D01*
X96778116Y-80989787D01*
X96808009Y-80975649D01*
X96839143Y-80964509D01*
X96871219Y-80956475D01*
X96903929Y-80951623D01*
X96936956Y-80950000D01*
X98063044Y-80950000D01*
X98096071Y-80951623D01*
X98096071Y-80951623D01*
G37*
D11*
X97500000Y-81725000D03*
D10*
G36*
X98096071Y-78901623D02*
X98128781Y-78906475D01*
X98160857Y-78914509D01*
X98191991Y-78925649D01*
X98221884Y-78939787D01*
X98250247Y-78956787D01*
X98276807Y-78976485D01*
X98301308Y-78998692D01*
X98323515Y-79023193D01*
X98343213Y-79049753D01*
X98360213Y-79078116D01*
X98374351Y-79108009D01*
X98385491Y-79139143D01*
X98393525Y-79171219D01*
X98398377Y-79203929D01*
X98400000Y-79236956D01*
X98400000Y-80113044D01*
X98398377Y-80146071D01*
X98393525Y-80178781D01*
X98385491Y-80210857D01*
X98374351Y-80241991D01*
X98360213Y-80271884D01*
X98343213Y-80300247D01*
X98323515Y-80326807D01*
X98301308Y-80351308D01*
X98276807Y-80373515D01*
X98250247Y-80393213D01*
X98221884Y-80410213D01*
X98191991Y-80424351D01*
X98160857Y-80435491D01*
X98128781Y-80443525D01*
X98096071Y-80448377D01*
X98063044Y-80450000D01*
X96936956Y-80450000D01*
X96903929Y-80448377D01*
X96871219Y-80443525D01*
X96839143Y-80435491D01*
X96808009Y-80424351D01*
X96778116Y-80410213D01*
X96749753Y-80393213D01*
X96723193Y-80373515D01*
X96698692Y-80351308D01*
X96676485Y-80326807D01*
X96656787Y-80300247D01*
X96639787Y-80271884D01*
X96625649Y-80241991D01*
X96614509Y-80210857D01*
X96606475Y-80178781D01*
X96601623Y-80146071D01*
X96600000Y-80113044D01*
X96600000Y-79236956D01*
X96601623Y-79203929D01*
X96606475Y-79171219D01*
X96614509Y-79139143D01*
X96625649Y-79108009D01*
X96639787Y-79078116D01*
X96656787Y-79049753D01*
X96676485Y-79023193D01*
X96698692Y-78998692D01*
X96723193Y-78976485D01*
X96749753Y-78956787D01*
X96778116Y-78939787D01*
X96808009Y-78925649D01*
X96839143Y-78914509D01*
X96871219Y-78906475D01*
X96903929Y-78901623D01*
X96936956Y-78900000D01*
X98063044Y-78900000D01*
X98096071Y-78901623D01*
X98096071Y-78901623D01*
G37*
D11*
X97500000Y-79675000D03*
G04 #@! TD*
D10*
G04 #@! TO.C,R5*
G36*
X109996071Y-85151623D02*
X110028781Y-85156475D01*
X110060857Y-85164509D01*
X110091991Y-85175649D01*
X110121884Y-85189787D01*
X110150247Y-85206787D01*
X110176807Y-85226485D01*
X110201308Y-85248692D01*
X110223515Y-85273193D01*
X110243213Y-85299753D01*
X110260213Y-85328116D01*
X110274351Y-85358009D01*
X110285491Y-85389143D01*
X110293525Y-85421219D01*
X110298377Y-85453929D01*
X110300000Y-85486956D01*
X110300000Y-86363044D01*
X110298377Y-86396071D01*
X110293525Y-86428781D01*
X110285491Y-86460857D01*
X110274351Y-86491991D01*
X110260213Y-86521884D01*
X110243213Y-86550247D01*
X110223515Y-86576807D01*
X110201308Y-86601308D01*
X110176807Y-86623515D01*
X110150247Y-86643213D01*
X110121884Y-86660213D01*
X110091991Y-86674351D01*
X110060857Y-86685491D01*
X110028781Y-86693525D01*
X109996071Y-86698377D01*
X109963044Y-86700000D01*
X108836956Y-86700000D01*
X108803929Y-86698377D01*
X108771219Y-86693525D01*
X108739143Y-86685491D01*
X108708009Y-86674351D01*
X108678116Y-86660213D01*
X108649753Y-86643213D01*
X108623193Y-86623515D01*
X108598692Y-86601308D01*
X108576485Y-86576807D01*
X108556787Y-86550247D01*
X108539787Y-86521884D01*
X108525649Y-86491991D01*
X108514509Y-86460857D01*
X108506475Y-86428781D01*
X108501623Y-86396071D01*
X108500000Y-86363044D01*
X108500000Y-85486956D01*
X108501623Y-85453929D01*
X108506475Y-85421219D01*
X108514509Y-85389143D01*
X108525649Y-85358009D01*
X108539787Y-85328116D01*
X108556787Y-85299753D01*
X108576485Y-85273193D01*
X108598692Y-85248692D01*
X108623193Y-85226485D01*
X108649753Y-85206787D01*
X108678116Y-85189787D01*
X108708009Y-85175649D01*
X108739143Y-85164509D01*
X108771219Y-85156475D01*
X108803929Y-85151623D01*
X108836956Y-85150000D01*
X109963044Y-85150000D01*
X109996071Y-85151623D01*
X109996071Y-85151623D01*
G37*
D11*
X109400000Y-85925000D03*
D10*
G36*
X109996071Y-83101623D02*
X110028781Y-83106475D01*
X110060857Y-83114509D01*
X110091991Y-83125649D01*
X110121884Y-83139787D01*
X110150247Y-83156787D01*
X110176807Y-83176485D01*
X110201308Y-83198692D01*
X110223515Y-83223193D01*
X110243213Y-83249753D01*
X110260213Y-83278116D01*
X110274351Y-83308009D01*
X110285491Y-83339143D01*
X110293525Y-83371219D01*
X110298377Y-83403929D01*
X110300000Y-83436956D01*
X110300000Y-84313044D01*
X110298377Y-84346071D01*
X110293525Y-84378781D01*
X110285491Y-84410857D01*
X110274351Y-84441991D01*
X110260213Y-84471884D01*
X110243213Y-84500247D01*
X110223515Y-84526807D01*
X110201308Y-84551308D01*
X110176807Y-84573515D01*
X110150247Y-84593213D01*
X110121884Y-84610213D01*
X110091991Y-84624351D01*
X110060857Y-84635491D01*
X110028781Y-84643525D01*
X109996071Y-84648377D01*
X109963044Y-84650000D01*
X108836956Y-84650000D01*
X108803929Y-84648377D01*
X108771219Y-84643525D01*
X108739143Y-84635491D01*
X108708009Y-84624351D01*
X108678116Y-84610213D01*
X108649753Y-84593213D01*
X108623193Y-84573515D01*
X108598692Y-84551308D01*
X108576485Y-84526807D01*
X108556787Y-84500247D01*
X108539787Y-84471884D01*
X108525649Y-84441991D01*
X108514509Y-84410857D01*
X108506475Y-84378781D01*
X108501623Y-84346071D01*
X108500000Y-84313044D01*
X108500000Y-83436956D01*
X108501623Y-83403929D01*
X108506475Y-83371219D01*
X108514509Y-83339143D01*
X108525649Y-83308009D01*
X108539787Y-83278116D01*
X108556787Y-83249753D01*
X108576485Y-83223193D01*
X108598692Y-83198692D01*
X108623193Y-83176485D01*
X108649753Y-83156787D01*
X108678116Y-83139787D01*
X108708009Y-83125649D01*
X108739143Y-83114509D01*
X108771219Y-83106475D01*
X108803929Y-83101623D01*
X108836956Y-83100000D01*
X109963044Y-83100000D01*
X109996071Y-83101623D01*
X109996071Y-83101623D01*
G37*
D11*
X109400000Y-83875000D03*
G04 #@! TD*
D10*
G04 #@! TO.C,R6*
G36*
X91846071Y-85101623D02*
X91878781Y-85106475D01*
X91910857Y-85114509D01*
X91941991Y-85125649D01*
X91971884Y-85139787D01*
X92000247Y-85156787D01*
X92026807Y-85176485D01*
X92051308Y-85198692D01*
X92073515Y-85223193D01*
X92093213Y-85249753D01*
X92110213Y-85278116D01*
X92124351Y-85308009D01*
X92135491Y-85339143D01*
X92143525Y-85371219D01*
X92148377Y-85403929D01*
X92150000Y-85436956D01*
X92150000Y-86563044D01*
X92148377Y-86596071D01*
X92143525Y-86628781D01*
X92135491Y-86660857D01*
X92124351Y-86691991D01*
X92110213Y-86721884D01*
X92093213Y-86750247D01*
X92073515Y-86776807D01*
X92051308Y-86801308D01*
X92026807Y-86823515D01*
X92000247Y-86843213D01*
X91971884Y-86860213D01*
X91941991Y-86874351D01*
X91910857Y-86885491D01*
X91878781Y-86893525D01*
X91846071Y-86898377D01*
X91813044Y-86900000D01*
X90936956Y-86900000D01*
X90903929Y-86898377D01*
X90871219Y-86893525D01*
X90839143Y-86885491D01*
X90808009Y-86874351D01*
X90778116Y-86860213D01*
X90749753Y-86843213D01*
X90723193Y-86823515D01*
X90698692Y-86801308D01*
X90676485Y-86776807D01*
X90656787Y-86750247D01*
X90639787Y-86721884D01*
X90625649Y-86691991D01*
X90614509Y-86660857D01*
X90606475Y-86628781D01*
X90601623Y-86596071D01*
X90600000Y-86563044D01*
X90600000Y-85436956D01*
X90601623Y-85403929D01*
X90606475Y-85371219D01*
X90614509Y-85339143D01*
X90625649Y-85308009D01*
X90639787Y-85278116D01*
X90656787Y-85249753D01*
X90676485Y-85223193D01*
X90698692Y-85198692D01*
X90723193Y-85176485D01*
X90749753Y-85156787D01*
X90778116Y-85139787D01*
X90808009Y-85125649D01*
X90839143Y-85114509D01*
X90871219Y-85106475D01*
X90903929Y-85101623D01*
X90936956Y-85100000D01*
X91813044Y-85100000D01*
X91846071Y-85101623D01*
X91846071Y-85101623D01*
G37*
D11*
X91375000Y-86000000D03*
D10*
G36*
X93896071Y-85101623D02*
X93928781Y-85106475D01*
X93960857Y-85114509D01*
X93991991Y-85125649D01*
X94021884Y-85139787D01*
X94050247Y-85156787D01*
X94076807Y-85176485D01*
X94101308Y-85198692D01*
X94123515Y-85223193D01*
X94143213Y-85249753D01*
X94160213Y-85278116D01*
X94174351Y-85308009D01*
X94185491Y-85339143D01*
X94193525Y-85371219D01*
X94198377Y-85403929D01*
X94200000Y-85436956D01*
X94200000Y-86563044D01*
X94198377Y-86596071D01*
X94193525Y-86628781D01*
X94185491Y-86660857D01*
X94174351Y-86691991D01*
X94160213Y-86721884D01*
X94143213Y-86750247D01*
X94123515Y-86776807D01*
X94101308Y-86801308D01*
X94076807Y-86823515D01*
X94050247Y-86843213D01*
X94021884Y-86860213D01*
X93991991Y-86874351D01*
X93960857Y-86885491D01*
X93928781Y-86893525D01*
X93896071Y-86898377D01*
X93863044Y-86900000D01*
X92986956Y-86900000D01*
X92953929Y-86898377D01*
X92921219Y-86893525D01*
X92889143Y-86885491D01*
X92858009Y-86874351D01*
X92828116Y-86860213D01*
X92799753Y-86843213D01*
X92773193Y-86823515D01*
X92748692Y-86801308D01*
X92726485Y-86776807D01*
X92706787Y-86750247D01*
X92689787Y-86721884D01*
X92675649Y-86691991D01*
X92664509Y-86660857D01*
X92656475Y-86628781D01*
X92651623Y-86596071D01*
X92650000Y-86563044D01*
X92650000Y-85436956D01*
X92651623Y-85403929D01*
X92656475Y-85371219D01*
X92664509Y-85339143D01*
X92675649Y-85308009D01*
X92689787Y-85278116D01*
X92706787Y-85249753D01*
X92726485Y-85223193D01*
X92748692Y-85198692D01*
X92773193Y-85176485D01*
X92799753Y-85156787D01*
X92828116Y-85139787D01*
X92858009Y-85125649D01*
X92889143Y-85114509D01*
X92921219Y-85106475D01*
X92953929Y-85101623D01*
X92986956Y-85100000D01*
X93863044Y-85100000D01*
X93896071Y-85101623D01*
X93896071Y-85101623D01*
G37*
D11*
X93425000Y-86000000D03*
G04 #@! TD*
D10*
G04 #@! TO.C,R7*
G36*
X96296071Y-85101623D02*
X96328781Y-85106475D01*
X96360857Y-85114509D01*
X96391991Y-85125649D01*
X96421884Y-85139787D01*
X96450247Y-85156787D01*
X96476807Y-85176485D01*
X96501308Y-85198692D01*
X96523515Y-85223193D01*
X96543213Y-85249753D01*
X96560213Y-85278116D01*
X96574351Y-85308009D01*
X96585491Y-85339143D01*
X96593525Y-85371219D01*
X96598377Y-85403929D01*
X96600000Y-85436956D01*
X96600000Y-86313044D01*
X96598377Y-86346071D01*
X96593525Y-86378781D01*
X96585491Y-86410857D01*
X96574351Y-86441991D01*
X96560213Y-86471884D01*
X96543213Y-86500247D01*
X96523515Y-86526807D01*
X96501308Y-86551308D01*
X96476807Y-86573515D01*
X96450247Y-86593213D01*
X96421884Y-86610213D01*
X96391991Y-86624351D01*
X96360857Y-86635491D01*
X96328781Y-86643525D01*
X96296071Y-86648377D01*
X96263044Y-86650000D01*
X95136956Y-86650000D01*
X95103929Y-86648377D01*
X95071219Y-86643525D01*
X95039143Y-86635491D01*
X95008009Y-86624351D01*
X94978116Y-86610213D01*
X94949753Y-86593213D01*
X94923193Y-86573515D01*
X94898692Y-86551308D01*
X94876485Y-86526807D01*
X94856787Y-86500247D01*
X94839787Y-86471884D01*
X94825649Y-86441991D01*
X94814509Y-86410857D01*
X94806475Y-86378781D01*
X94801623Y-86346071D01*
X94800000Y-86313044D01*
X94800000Y-85436956D01*
X94801623Y-85403929D01*
X94806475Y-85371219D01*
X94814509Y-85339143D01*
X94825649Y-85308009D01*
X94839787Y-85278116D01*
X94856787Y-85249753D01*
X94876485Y-85223193D01*
X94898692Y-85198692D01*
X94923193Y-85176485D01*
X94949753Y-85156787D01*
X94978116Y-85139787D01*
X95008009Y-85125649D01*
X95039143Y-85114509D01*
X95071219Y-85106475D01*
X95103929Y-85101623D01*
X95136956Y-85100000D01*
X96263044Y-85100000D01*
X96296071Y-85101623D01*
X96296071Y-85101623D01*
G37*
D11*
X95700000Y-85875000D03*
D10*
G36*
X96296071Y-87151623D02*
X96328781Y-87156475D01*
X96360857Y-87164509D01*
X96391991Y-87175649D01*
X96421884Y-87189787D01*
X96450247Y-87206787D01*
X96476807Y-87226485D01*
X96501308Y-87248692D01*
X96523515Y-87273193D01*
X96543213Y-87299753D01*
X96560213Y-87328116D01*
X96574351Y-87358009D01*
X96585491Y-87389143D01*
X96593525Y-87421219D01*
X96598377Y-87453929D01*
X96600000Y-87486956D01*
X96600000Y-88363044D01*
X96598377Y-88396071D01*
X96593525Y-88428781D01*
X96585491Y-88460857D01*
X96574351Y-88491991D01*
X96560213Y-88521884D01*
X96543213Y-88550247D01*
X96523515Y-88576807D01*
X96501308Y-88601308D01*
X96476807Y-88623515D01*
X96450247Y-88643213D01*
X96421884Y-88660213D01*
X96391991Y-88674351D01*
X96360857Y-88685491D01*
X96328781Y-88693525D01*
X96296071Y-88698377D01*
X96263044Y-88700000D01*
X95136956Y-88700000D01*
X95103929Y-88698377D01*
X95071219Y-88693525D01*
X95039143Y-88685491D01*
X95008009Y-88674351D01*
X94978116Y-88660213D01*
X94949753Y-88643213D01*
X94923193Y-88623515D01*
X94898692Y-88601308D01*
X94876485Y-88576807D01*
X94856787Y-88550247D01*
X94839787Y-88521884D01*
X94825649Y-88491991D01*
X94814509Y-88460857D01*
X94806475Y-88428781D01*
X94801623Y-88396071D01*
X94800000Y-88363044D01*
X94800000Y-87486956D01*
X94801623Y-87453929D01*
X94806475Y-87421219D01*
X94814509Y-87389143D01*
X94825649Y-87358009D01*
X94839787Y-87328116D01*
X94856787Y-87299753D01*
X94876485Y-87273193D01*
X94898692Y-87248692D01*
X94923193Y-87226485D01*
X94949753Y-87206787D01*
X94978116Y-87189787D01*
X95008009Y-87175649D01*
X95039143Y-87164509D01*
X95071219Y-87156475D01*
X95103929Y-87151623D01*
X95136956Y-87150000D01*
X96263044Y-87150000D01*
X96296071Y-87151623D01*
X96296071Y-87151623D01*
G37*
D11*
X95700000Y-87925000D03*
G04 #@! TD*
D10*
G04 #@! TO.C,R8*
G36*
X96296071Y-91151623D02*
X96328781Y-91156475D01*
X96360857Y-91164509D01*
X96391991Y-91175649D01*
X96421884Y-91189787D01*
X96450247Y-91206787D01*
X96476807Y-91226485D01*
X96501308Y-91248692D01*
X96523515Y-91273193D01*
X96543213Y-91299753D01*
X96560213Y-91328116D01*
X96574351Y-91358009D01*
X96585491Y-91389143D01*
X96593525Y-91421219D01*
X96598377Y-91453929D01*
X96600000Y-91486956D01*
X96600000Y-92363044D01*
X96598377Y-92396071D01*
X96593525Y-92428781D01*
X96585491Y-92460857D01*
X96574351Y-92491991D01*
X96560213Y-92521884D01*
X96543213Y-92550247D01*
X96523515Y-92576807D01*
X96501308Y-92601308D01*
X96476807Y-92623515D01*
X96450247Y-92643213D01*
X96421884Y-92660213D01*
X96391991Y-92674351D01*
X96360857Y-92685491D01*
X96328781Y-92693525D01*
X96296071Y-92698377D01*
X96263044Y-92700000D01*
X95136956Y-92700000D01*
X95103929Y-92698377D01*
X95071219Y-92693525D01*
X95039143Y-92685491D01*
X95008009Y-92674351D01*
X94978116Y-92660213D01*
X94949753Y-92643213D01*
X94923193Y-92623515D01*
X94898692Y-92601308D01*
X94876485Y-92576807D01*
X94856787Y-92550247D01*
X94839787Y-92521884D01*
X94825649Y-92491991D01*
X94814509Y-92460857D01*
X94806475Y-92428781D01*
X94801623Y-92396071D01*
X94800000Y-92363044D01*
X94800000Y-91486956D01*
X94801623Y-91453929D01*
X94806475Y-91421219D01*
X94814509Y-91389143D01*
X94825649Y-91358009D01*
X94839787Y-91328116D01*
X94856787Y-91299753D01*
X94876485Y-91273193D01*
X94898692Y-91248692D01*
X94923193Y-91226485D01*
X94949753Y-91206787D01*
X94978116Y-91189787D01*
X95008009Y-91175649D01*
X95039143Y-91164509D01*
X95071219Y-91156475D01*
X95103929Y-91151623D01*
X95136956Y-91150000D01*
X96263044Y-91150000D01*
X96296071Y-91151623D01*
X96296071Y-91151623D01*
G37*
D11*
X95700000Y-91925000D03*
D10*
G36*
X96296071Y-89101623D02*
X96328781Y-89106475D01*
X96360857Y-89114509D01*
X96391991Y-89125649D01*
X96421884Y-89139787D01*
X96450247Y-89156787D01*
X96476807Y-89176485D01*
X96501308Y-89198692D01*
X96523515Y-89223193D01*
X96543213Y-89249753D01*
X96560213Y-89278116D01*
X96574351Y-89308009D01*
X96585491Y-89339143D01*
X96593525Y-89371219D01*
X96598377Y-89403929D01*
X96600000Y-89436956D01*
X96600000Y-90313044D01*
X96598377Y-90346071D01*
X96593525Y-90378781D01*
X96585491Y-90410857D01*
X96574351Y-90441991D01*
X96560213Y-90471884D01*
X96543213Y-90500247D01*
X96523515Y-90526807D01*
X96501308Y-90551308D01*
X96476807Y-90573515D01*
X96450247Y-90593213D01*
X96421884Y-90610213D01*
X96391991Y-90624351D01*
X96360857Y-90635491D01*
X96328781Y-90643525D01*
X96296071Y-90648377D01*
X96263044Y-90650000D01*
X95136956Y-90650000D01*
X95103929Y-90648377D01*
X95071219Y-90643525D01*
X95039143Y-90635491D01*
X95008009Y-90624351D01*
X94978116Y-90610213D01*
X94949753Y-90593213D01*
X94923193Y-90573515D01*
X94898692Y-90551308D01*
X94876485Y-90526807D01*
X94856787Y-90500247D01*
X94839787Y-90471884D01*
X94825649Y-90441991D01*
X94814509Y-90410857D01*
X94806475Y-90378781D01*
X94801623Y-90346071D01*
X94800000Y-90313044D01*
X94800000Y-89436956D01*
X94801623Y-89403929D01*
X94806475Y-89371219D01*
X94814509Y-89339143D01*
X94825649Y-89308009D01*
X94839787Y-89278116D01*
X94856787Y-89249753D01*
X94876485Y-89223193D01*
X94898692Y-89198692D01*
X94923193Y-89176485D01*
X94949753Y-89156787D01*
X94978116Y-89139787D01*
X95008009Y-89125649D01*
X95039143Y-89114509D01*
X95071219Y-89106475D01*
X95103929Y-89101623D01*
X95136956Y-89100000D01*
X96263044Y-89100000D01*
X96296071Y-89101623D01*
X96296071Y-89101623D01*
G37*
D11*
X95700000Y-89875000D03*
G04 #@! TD*
D10*
G04 #@! TO.C,R9*
G36*
X100596071Y-91201623D02*
X100628781Y-91206475D01*
X100660857Y-91214509D01*
X100691991Y-91225649D01*
X100721884Y-91239787D01*
X100750247Y-91256787D01*
X100776807Y-91276485D01*
X100801308Y-91298692D01*
X100823515Y-91323193D01*
X100843213Y-91349753D01*
X100860213Y-91378116D01*
X100874351Y-91408009D01*
X100885491Y-91439143D01*
X100893525Y-91471219D01*
X100898377Y-91503929D01*
X100900000Y-91536956D01*
X100900000Y-92663044D01*
X100898377Y-92696071D01*
X100893525Y-92728781D01*
X100885491Y-92760857D01*
X100874351Y-92791991D01*
X100860213Y-92821884D01*
X100843213Y-92850247D01*
X100823515Y-92876807D01*
X100801308Y-92901308D01*
X100776807Y-92923515D01*
X100750247Y-92943213D01*
X100721884Y-92960213D01*
X100691991Y-92974351D01*
X100660857Y-92985491D01*
X100628781Y-92993525D01*
X100596071Y-92998377D01*
X100563044Y-93000000D01*
X99686956Y-93000000D01*
X99653929Y-92998377D01*
X99621219Y-92993525D01*
X99589143Y-92985491D01*
X99558009Y-92974351D01*
X99528116Y-92960213D01*
X99499753Y-92943213D01*
X99473193Y-92923515D01*
X99448692Y-92901308D01*
X99426485Y-92876807D01*
X99406787Y-92850247D01*
X99389787Y-92821884D01*
X99375649Y-92791991D01*
X99364509Y-92760857D01*
X99356475Y-92728781D01*
X99351623Y-92696071D01*
X99350000Y-92663044D01*
X99350000Y-91536956D01*
X99351623Y-91503929D01*
X99356475Y-91471219D01*
X99364509Y-91439143D01*
X99375649Y-91408009D01*
X99389787Y-91378116D01*
X99406787Y-91349753D01*
X99426485Y-91323193D01*
X99448692Y-91298692D01*
X99473193Y-91276485D01*
X99499753Y-91256787D01*
X99528116Y-91239787D01*
X99558009Y-91225649D01*
X99589143Y-91214509D01*
X99621219Y-91206475D01*
X99653929Y-91201623D01*
X99686956Y-91200000D01*
X100563044Y-91200000D01*
X100596071Y-91201623D01*
X100596071Y-91201623D01*
G37*
D11*
X100125000Y-92100000D03*
D10*
G36*
X98546071Y-91201623D02*
X98578781Y-91206475D01*
X98610857Y-91214509D01*
X98641991Y-91225649D01*
X98671884Y-91239787D01*
X98700247Y-91256787D01*
X98726807Y-91276485D01*
X98751308Y-91298692D01*
X98773515Y-91323193D01*
X98793213Y-91349753D01*
X98810213Y-91378116D01*
X98824351Y-91408009D01*
X98835491Y-91439143D01*
X98843525Y-91471219D01*
X98848377Y-91503929D01*
X98850000Y-91536956D01*
X98850000Y-92663044D01*
X98848377Y-92696071D01*
X98843525Y-92728781D01*
X98835491Y-92760857D01*
X98824351Y-92791991D01*
X98810213Y-92821884D01*
X98793213Y-92850247D01*
X98773515Y-92876807D01*
X98751308Y-92901308D01*
X98726807Y-92923515D01*
X98700247Y-92943213D01*
X98671884Y-92960213D01*
X98641991Y-92974351D01*
X98610857Y-92985491D01*
X98578781Y-92993525D01*
X98546071Y-92998377D01*
X98513044Y-93000000D01*
X97636956Y-93000000D01*
X97603929Y-92998377D01*
X97571219Y-92993525D01*
X97539143Y-92985491D01*
X97508009Y-92974351D01*
X97478116Y-92960213D01*
X97449753Y-92943213D01*
X97423193Y-92923515D01*
X97398692Y-92901308D01*
X97376485Y-92876807D01*
X97356787Y-92850247D01*
X97339787Y-92821884D01*
X97325649Y-92791991D01*
X97314509Y-92760857D01*
X97306475Y-92728781D01*
X97301623Y-92696071D01*
X97300000Y-92663044D01*
X97300000Y-91536956D01*
X97301623Y-91503929D01*
X97306475Y-91471219D01*
X97314509Y-91439143D01*
X97325649Y-91408009D01*
X97339787Y-91378116D01*
X97356787Y-91349753D01*
X97376485Y-91323193D01*
X97398692Y-91298692D01*
X97423193Y-91276485D01*
X97449753Y-91256787D01*
X97478116Y-91239787D01*
X97508009Y-91225649D01*
X97539143Y-91214509D01*
X97571219Y-91206475D01*
X97603929Y-91201623D01*
X97636956Y-91200000D01*
X98513044Y-91200000D01*
X98546071Y-91201623D01*
X98546071Y-91201623D01*
G37*
D11*
X98075000Y-92100000D03*
G04 #@! TD*
D10*
G04 #@! TO.C,R10*
G36*
X100596071Y-89001623D02*
X100628781Y-89006475D01*
X100660857Y-89014509D01*
X100691991Y-89025649D01*
X100721884Y-89039787D01*
X100750247Y-89056787D01*
X100776807Y-89076485D01*
X100801308Y-89098692D01*
X100823515Y-89123193D01*
X100843213Y-89149753D01*
X100860213Y-89178116D01*
X100874351Y-89208009D01*
X100885491Y-89239143D01*
X100893525Y-89271219D01*
X100898377Y-89303929D01*
X100900000Y-89336956D01*
X100900000Y-90463044D01*
X100898377Y-90496071D01*
X100893525Y-90528781D01*
X100885491Y-90560857D01*
X100874351Y-90591991D01*
X100860213Y-90621884D01*
X100843213Y-90650247D01*
X100823515Y-90676807D01*
X100801308Y-90701308D01*
X100776807Y-90723515D01*
X100750247Y-90743213D01*
X100721884Y-90760213D01*
X100691991Y-90774351D01*
X100660857Y-90785491D01*
X100628781Y-90793525D01*
X100596071Y-90798377D01*
X100563044Y-90800000D01*
X99686956Y-90800000D01*
X99653929Y-90798377D01*
X99621219Y-90793525D01*
X99589143Y-90785491D01*
X99558009Y-90774351D01*
X99528116Y-90760213D01*
X99499753Y-90743213D01*
X99473193Y-90723515D01*
X99448692Y-90701308D01*
X99426485Y-90676807D01*
X99406787Y-90650247D01*
X99389787Y-90621884D01*
X99375649Y-90591991D01*
X99364509Y-90560857D01*
X99356475Y-90528781D01*
X99351623Y-90496071D01*
X99350000Y-90463044D01*
X99350000Y-89336956D01*
X99351623Y-89303929D01*
X99356475Y-89271219D01*
X99364509Y-89239143D01*
X99375649Y-89208009D01*
X99389787Y-89178116D01*
X99406787Y-89149753D01*
X99426485Y-89123193D01*
X99448692Y-89098692D01*
X99473193Y-89076485D01*
X99499753Y-89056787D01*
X99528116Y-89039787D01*
X99558009Y-89025649D01*
X99589143Y-89014509D01*
X99621219Y-89006475D01*
X99653929Y-89001623D01*
X99686956Y-89000000D01*
X100563044Y-89000000D01*
X100596071Y-89001623D01*
X100596071Y-89001623D01*
G37*
D11*
X100125000Y-89900000D03*
D10*
G36*
X98546071Y-89001623D02*
X98578781Y-89006475D01*
X98610857Y-89014509D01*
X98641991Y-89025649D01*
X98671884Y-89039787D01*
X98700247Y-89056787D01*
X98726807Y-89076485D01*
X98751308Y-89098692D01*
X98773515Y-89123193D01*
X98793213Y-89149753D01*
X98810213Y-89178116D01*
X98824351Y-89208009D01*
X98835491Y-89239143D01*
X98843525Y-89271219D01*
X98848377Y-89303929D01*
X98850000Y-89336956D01*
X98850000Y-90463044D01*
X98848377Y-90496071D01*
X98843525Y-90528781D01*
X98835491Y-90560857D01*
X98824351Y-90591991D01*
X98810213Y-90621884D01*
X98793213Y-90650247D01*
X98773515Y-90676807D01*
X98751308Y-90701308D01*
X98726807Y-90723515D01*
X98700247Y-90743213D01*
X98671884Y-90760213D01*
X98641991Y-90774351D01*
X98610857Y-90785491D01*
X98578781Y-90793525D01*
X98546071Y-90798377D01*
X98513044Y-90800000D01*
X97636956Y-90800000D01*
X97603929Y-90798377D01*
X97571219Y-90793525D01*
X97539143Y-90785491D01*
X97508009Y-90774351D01*
X97478116Y-90760213D01*
X97449753Y-90743213D01*
X97423193Y-90723515D01*
X97398692Y-90701308D01*
X97376485Y-90676807D01*
X97356787Y-90650247D01*
X97339787Y-90621884D01*
X97325649Y-90591991D01*
X97314509Y-90560857D01*
X97306475Y-90528781D01*
X97301623Y-90496071D01*
X97300000Y-90463044D01*
X97300000Y-89336956D01*
X97301623Y-89303929D01*
X97306475Y-89271219D01*
X97314509Y-89239143D01*
X97325649Y-89208009D01*
X97339787Y-89178116D01*
X97356787Y-89149753D01*
X97376485Y-89123193D01*
X97398692Y-89098692D01*
X97423193Y-89076485D01*
X97449753Y-89056787D01*
X97478116Y-89039787D01*
X97508009Y-89025649D01*
X97539143Y-89014509D01*
X97571219Y-89006475D01*
X97603929Y-89001623D01*
X97636956Y-89000000D01*
X98513044Y-89000000D01*
X98546071Y-89001623D01*
X98546071Y-89001623D01*
G37*
D11*
X98075000Y-89900000D03*
G04 #@! TD*
D15*
G04 #@! TO.C,U1*
X88800000Y-80505000D03*
X88800000Y-79235000D03*
X88800000Y-77965000D03*
X88800000Y-76695000D03*
X83400000Y-76695000D03*
X83400000Y-77965000D03*
X83400000Y-79235000D03*
X83400000Y-80505000D03*
G04 #@! TD*
G04 #@! TO.C,U2*
X92900000Y-88795000D03*
X92900000Y-90065000D03*
X92900000Y-91335000D03*
X92900000Y-92605000D03*
X87500000Y-92605000D03*
X87500000Y-91335000D03*
X87500000Y-90065000D03*
X87500000Y-88795000D03*
G04 #@! TD*
D16*
G04 #@! TO.C,U4*
X104700000Y-89950000D03*
X104700000Y-90900000D03*
X104700000Y-91850000D03*
X106900000Y-91850000D03*
X106900000Y-89950000D03*
X106900000Y-90900000D03*
G04 #@! TD*
D17*
G04 #@! TO.C,X1*
X105725000Y-83900000D03*
X100875000Y-83900000D03*
X100875000Y-87300000D03*
X105725000Y-87300000D03*
G04 #@! TD*
M02*
